<?xml version="1.0" encoding="UTF-8" standalone="no"?>
<!DOCTYPE svg PUBLIC "-//W3C//DTD SVG 1.1//EN" "http://www.w3.org/Graphics/SVG/1.1/DTD/svg11.dtd">
<svg xmlns="http://www.w3.org/2000/svg" version="1.1" viewBox="0.00 0.00 1024.00 617.00">
<g stroke-width="2.00" fill="none" stroke-linecap="butt">
<path stroke="#c7c18b" vector-effect="non-scaling-stroke" d="
  M 309.19 304.25
  L 333.05 304.34
  A 0.78 0.78 0.0 0 0 333.83 303.58
  Q 334.49 285.42 338.15 267.78
  C 342.82 245.28 354.00 221.56 367.59 202.45
  C 383.43 180.15 403.68 162.46 427.53 149.02
  Q 452.83 134.78 482.00 129.76
  A 0.75 0.75 0.0 0 1 482.88 130.50
  L 482.88 163.94
  A 0.54 0.54 0.0 0 0 483.71 164.40
  C 492.21 159.15 499.70 152.65 508.39 146.23
  Q 544.02 119.92 562.68 105.94
  Q 563.27 105.50 563.32 104.13"
/>
<path stroke="#d3d191" vector-effect="non-scaling-stroke" d="
  M 563.32 104.13
  L 483.71 45.27
  A 0.53 0.53 0.0 0 0 482.86 45.69
  L 482.86 80.14
  A 1.07 1.07 0.0 0 1 481.93 81.20
  C 431.23 88.07 385.05 112.51 349.66 149.31
  Q 346.24 152.86 344.09 155.44
  C 339.17 161.36 335.02 165.91 331.01 171.45
  Q 288.93 229.49 286.31 301.75
  Q 286.27 302.71 286.45 303.49
  A 1.39 1.38 82.7 0 0 287.82 304.56
  L 309.19 304.25"
/>
<path stroke="#e5af24" vector-effect="non-scaling-stroke" d="
  M 563.32 104.13
  Q 560.12 105.58 555.88 104.95
  Q 552.42 104.44 551.59 104.45
  C 547.38 104.54 544.74 104.68 540.78 104.13
  Q 532.28 102.94 526.05 102.49
  Q 484.12 99.47 444.50 113.73
  Q 399.37 129.97 365.35 165.59
  Q 358.85 172.39 348.24 186.08
  C 344.79 190.54 342.17 195.34 339.30 199.64
  Q 335.65 205.14 333.07 210.11
  Q 322.32 230.87 315.80 254.16
  C 313.34 262.96 311.42 275.02 310.18 282.91
  Q 308.61 293.00 309.19 304.25"
/>
<path stroke="#c7c18b" vector-effect="non-scaling-stroke" d="
  M 576.62 112.39
  L 551.54 130.88
  A 0.38 0.38 0.0 0 0 551.68 131.55
  Q 589.26 140.71 619.90 164.34
  C 655.18 191.57 678.70 230.52 687.18 274.27
  A 0.80 0.79 -5.5 0 0 687.98 274.92
  L 712.30 274.69"
/>
<path stroke="#d3d191" vector-effect="non-scaling-stroke" d="
  M 712.30 274.69
  L 734.12 274.72
  A 0.73 0.73 0.0 0 0 734.84 273.89
  C 732.93 259.74 729.86 246.19 724.92 232.47
  Q 720.25 219.51 719.25 217.24
  Q 684.22 137.74 605.84 99.93
  Q 601.42 97.81 585.83 91.74
  C 577.93 88.66 567.11 86.20 560.75 84.76
  Q 560.34 84.67 560.13 84.97
  A 0.50 0.49 -54.6 0 0 560.24 85.64
  L 585.14 104.07
  A 0.99 0.98 -45.9 0 1 585.16 105.63
  L 576.62 112.39"
/>
<path stroke="#e5af24" vector-effect="non-scaling-stroke" d="
  M 712.30 274.69
  Q 710.13 260.39 707.17 250.34
  Q 705.93 246.11 701.28 233.17
  Q 698.21 224.63 693.89 216.52
  Q 686.46 202.55 681.58 194.43
  Q 679.37 190.75 676.78 187.52
  C 669.41 178.32 663.54 170.42 655.32 162.20
  Q 621.81 128.71 576.62 112.39"
/>
<path stroke="#6291be" vector-effect="non-scaling-stroke" d="
  M 618.08 193.00
  A 12.81 12.81 0.0 0 0 605.27 180.19
  L 418.83 180.19
  A 12.81 12.81 0.0 0 0 406.02 193.00
  L 406.02 424.00
  A 12.81 12.81 0.0 0 0 418.83 436.81
  L 605.27 436.81
  A 12.81 12.81 0.0 0 0 618.08 424.00
  L 618.08 193.00"
/>
<path stroke="#c7c18b" vector-effect="non-scaling-stroke" d="
  M 455.76 511.44
  Q 459.82 515.61 463.78 518.46
  Q 469.46 522.52 489.11 537.37
  Q 519.95 560.66 535.92 572.37
  A 0.38 0.38 0.0 0 0 536.53 572.06
  L 536.53 536.87
  A 0.66 0.65 86.5 0 1 537.10 536.22
  Q 588.51 529.89 631.72 502.14
  Q 670.43 477.28 695.91 440.86
  Q 735.81 383.81 737.60 313.40
  A 0.76 0.76 0.0 0 0 736.83 312.62
  L 714.34 312.82"
/>
<path stroke="#d3d191" vector-effect="non-scaling-stroke" d="
  M 714.34 312.82
  L 691.62 312.62
  A 1.24 1.24 0.0 0 0 690.37 313.81
  C 688.59 360.76 670.18 404.39 636.92 437.20
  C 609.98 463.76 575.05 481.66 537.43 487.81
  A 0.71 0.70 -4.6 0 1 536.61 487.12
  L 536.61 453.32
  A 0.82 0.82 0.0 0 0 535.31 452.66
  L 455.76 511.44"
/>
<path stroke="#e5af24" vector-effect="non-scaling-stroke" d="
  M 714.34 312.82
  Q 713.89 313.24 714.74 314.79
  A 1.97 1.91 32.8 0 1 714.98 315.83
  C 714.01 339.20 709.41 362.48 700.68 384.32
  Q 695.33 397.69 693.66 400.92
  Q 662.18 461.53 602.92 492.37
  Q 574.70 507.05 541.40 512.23
  C 523.64 515.00 504.15 514.92 485.56 513.54
  Q 470.85 512.45 455.76 511.44"
/>
<path stroke="#c7c18b" vector-effect="non-scaling-stroke" d="
  M 444.11 503.29
  L 469.27 484.62
  A 0.39 0.38 33.7 0 0 469.13 483.94
  C 445.99 477.98 424.01 467.35 404.99 452.56
  Q 395.59 445.25 392.34 442.24
  Q 384.48 434.94 373.70 422.15
  C 366.05 413.08 358.65 401.31 353.69 391.60
  Q 341.73 368.18 336.83 342.40
  A 0.50 0.50 0.0 0 0 336.34 342.00
  L 310.93 342.21"
/>
<path stroke="#d3d191" vector-effect="non-scaling-stroke" d="
  M 310.93 342.21
  L 290.15 342.12
  A 1.23 1.23 0.0 0 0 288.93 343.54
  Q 294.13 376.07 307.28 404.76
  C 328.30 450.60 364.10 487.68 408.74 511.83
  Q 416.07 515.80 423.41 518.86
  Q 436.45 524.31 438.46 525.05
  Q 445.99 527.82 456.75 530.43
  A 0.43 0.43 0.0 0 0 457.11 529.67
  L 433.88 512.47
  A 1.18 1.17 45.4 0 1 433.89 510.57
  L 444.11 503.29"
/>
<path stroke="#e5af24" vector-effect="non-scaling-stroke" d="
  M 310.93 342.21
  Q 312.01 345.09 312.52 348.26
  Q 313.24 352.80 313.65 354.40
  Q 318.83 374.48 324.93 389.59
  Q 327.60 396.17 339.13 416.85
  C 342.74 423.34 347.24 428.41 351.78 434.79
  Q 356.11 440.86 362.28 447.31
  Q 374.62 460.22 383.52 467.72
  Q 401.99 483.27 425.20 494.47
  Q 434.46 498.94 444.11 503.29"
/>
<path stroke="#839bb3" vector-effect="non-scaling-stroke" d="
  M 512.00 427.94
  C 539.62 427.94 569.52 428.08 602.09 428.06
  Q 605.91 428.06 607.28 427.27
  Q 609.59 425.95 609.59 422.77
  Q 609.70 378.14 609.66 216.91
  A 0.55 0.54 89.8 0 0 609.11 216.36
  Q 542.75 216.37 511.99 216.37
  Q 481.23 216.38 414.86 216.37
  A 0.55 0.54 -89.8 0 0 414.32 216.92
  Q 414.29 378.15 414.41 422.78
  Q 414.41 425.96 416.72 427.28
  Q 418.09 428.07 421.91 428.07
  C 454.48 428.08 484.38 427.94 512.00 427.94"
/>
<path stroke="#839bb3" vector-effect="non-scaling-stroke" d="
  M 450.54 269.78
  A 0.38 0.38 0.0 0 1 450.30 269.10
  C 458.07 262.80 469.88 253.17 466.45 241.49
  C 462.41 227.70 444.96 229.22 435.29 235.20
  A 1.38 1.38 0.0 0 0 434.75 236.93
  L 437.39 242.97
  A 0.90 0.89 -31.4 0 0 438.78 243.30
  C 442.62 240.18 449.21 238.19 453.30 241.25
  C 458.04 244.80 455.14 251.39 451.78 255.04
  Q 445.36 262.03 436.13 269.87
  C 433.27 272.30 433.80 275.30 434.02 278.48
  A 0.51 0.51 0.0 0 0 434.53 278.95
  L 467.35 278.95
  A 0.68 0.68 0.0 0 0 468.03 278.27
  L 468.03 270.38
  A 0.60 0.59 90.0 0 0 467.44 269.78
  L 450.54 269.78"
/>
<path stroke="#839bb3" vector-effect="non-scaling-stroke" d="
  M 473.84 255.20
  C 473.78 262.89 475.09 270.08 480.84 275.61
  C 483.79 278.45 487.52 279.73 491.76 279.76
  C 496.01 279.79 499.76 278.56 502.75 275.76
  C 508.57 270.32 509.98 263.15 510.04 255.45
  C 510.09 247.76 508.78 240.57 503.04 235.04
  C 500.09 232.21 496.36 230.92 492.11 230.89
  C 487.87 230.86 484.12 232.09 481.13 234.89
  C 475.31 240.33 473.89 247.51 473.84 255.20"
/>
<path stroke="#839bb3" vector-effect="non-scaling-stroke" d="
  M 531.70 269.77
  A 0.38 0.38 0.0 0 1 531.46 269.09
  C 539.20 262.77 550.98 253.11 547.51 241.45
  C 543.44 227.69 526.00 229.26 516.36 235.26
  A 1.38 1.38 0.0 0 0 515.83 236.99
  L 518.48 243.02
  A 0.90 0.89 -31.6 0 0 519.87 243.34
  C 523.70 240.22 530.28 238.21 534.37 241.25
  C 539.12 244.79 536.24 251.38 532.90 255.04
  Q 526.50 262.04 517.30 269.90
  C 514.45 272.34 514.99 275.33 515.22 278.51
  A 0.51 0.51 0.0 0 0 515.73 278.98
  L 548.53 278.88
  A 0.68 0.68 0.0 0 0 549.20 278.20
  L 549.18 270.32
  A 0.60 0.59 89.8 0 0 548.59 269.72
  L 531.70 269.77"
/>
<path stroke="#839bb3" vector-effect="non-scaling-stroke" d="
  M 567.80 247.42
  L 568.56 241.21
  A 0.80 0.80 0.0 0 1 569.35 240.51
  L 586.88 240.51
  A 0.53 0.52 0.0 0 0 587.41 239.99
  L 587.41 232.29
  A 0.63 0.63 0.0 0 0 586.78 231.66
  L 561.31 231.66
  A 0.61 0.60 -86.2 0 0 560.71 232.19
  L 557.78 255.93
  A 0.51 0.51 0.0 0 0 558.34 256.50
  C 563.33 256.03 572.42 255.47 576.13 259.13
  C 578.76 261.72 578.39 266.25 575.77 268.79
  C 571.92 272.53 561.80 270.70 558.22 268.52
  A 0.66 0.66 0.0 0 0 557.23 268.95
  L 555.75 276.15
  A 0.97 0.95 -74.4 0 0 556.35 277.24
  C 565.99 280.83 579.77 281.47 586.58 272.31
  C 591.69 265.43 590.32 254.59 582.21 250.44
  Q 576.61 247.57 568.39 248.05
  A 0.56 0.56 0.0 0 1 567.80 247.42"
/>
<path stroke="#839bb3" vector-effect="non-scaling-stroke" d="
  M 490.55 295.50
  A 3.07 3.07 0.0 0 0 487.48 292.43
  L 433.24 292.43
  A 3.07 3.07 0.0 0 0 430.17 295.50
  L 430.17 295.98
  A 3.07 3.07 0.0 0 0 433.24 299.05
  L 487.48 299.05
  A 3.07 3.07 0.0 0 0 490.55 295.98
  L 490.55 295.50"
/>
<path stroke="#839bb3" vector-effect="non-scaling-stroke" d="
  M 594.13 311.11
  A 3.67 3.67 0.0 0 0 590.46 307.44
  L 433.64 307.44
  A 3.67 3.67 0.0 0 0 429.97 311.11
  L 429.97 377.31
  A 3.67 3.67 0.0 0 0 433.64 380.98
  L 590.46 380.98
  A 3.67 3.67 0.0 0 0 594.13 377.31
  L 594.13 311.11"
/>
<path stroke="#839bb3" vector-effect="non-scaling-stroke" d="
  M 490.72 395.89
  A 3.14 3.14 0.0 0 0 487.58 392.75
  L 433.30 392.75
  A 3.14 3.14 0.0 0 0 430.16 395.89
  L 430.16 396.21
  A 3.14 3.14 0.0 0 0 433.30 399.35
  L 487.58 399.35
  A 3.14 3.14 0.0 0 0 490.72 396.21
  L 490.72 395.89"
/>
<path stroke="#839bb3" vector-effect="non-scaling-stroke" d="
  M 593.9099 395.9039
  A 3.23 3.23 0.0 0 0 590.6742 392.6796
  L 532.8743 392.7804
  A 3.23 3.23 0.0 0 0 529.6500 396.0161
  L 529.6501 396.1161
  A 3.23 3.23 0.0 0 0 532.8858 399.3404
  L 590.6857 399.2396
  A 3.23 3.23 0.0 0 0 593.9100 396.0039
  L 593.9099 395.9039"
/>
<path stroke="#839bb3" vector-effect="non-scaling-stroke" d="
  M 593.68 409.91
  A 3.25 3.25 0.0 0 0 590.43 406.66
  L 532.95 406.66
  A 3.25 3.25 0.0 0 0 529.70 409.91
  L 529.70 410.03
  A 3.25 3.25 0.0 0 0 532.95 413.28
  L 590.43 413.28
  A 3.25 3.25 0.0 0 0 593.68 410.03
  L 593.68 409.91"
/>
<path stroke="#839bb3" vector-effect="non-scaling-stroke" d="
  M 491.9069 239.0301
  A 16.29 7.06 -89.8 0 0 484.7900 255.2954
  A 16.29 7.06 -89.8 0 0 491.7931 271.6099
  A 16.29 7.06 -89.8 0 0 498.9100 255.3446
  A 16.29 7.06 -89.8 0 0 491.9069 239.0301"
/>
<path stroke="#839bb3" vector-effect="non-scaling-stroke" d="
  M 544.97 313.68
  A 0.51 0.51 0.0 0 0 544.46 313.17
  L 435.94 313.17
  A 0.51 0.51 0.0 0 0 435.43 313.68
  L 435.43 328.16
  A 0.51 0.51 0.0 0 0 435.94 328.67
  L 544.46 328.67
  A 0.51 0.51 0.0 0 0 544.97 328.16
  L 544.97 313.68"
/>
<path stroke="#839bb3" vector-effect="non-scaling-stroke" d="
  M 588.55 313.61
  A 0.46 0.46 0.0 0 0 588.09 313.15
  L 550.89 313.15
  A 0.46 0.46 0.0 0 0 550.43 313.61
  L 550.43 328.23
  A 0.46 0.46 0.0 0 0 550.89 328.69
  L 588.09 328.69
  A 0.46 0.46 0.0 0 0 588.55 328.23
  L 588.55 313.61"
/>
<path stroke="#839bb3" vector-effect="non-scaling-stroke" d="
  M 544.8649 334.6845
  A 0.38 0.38 0.0 0 0 544.4843 334.3051
  L 435.7244 334.4949
  A 0.38 0.38 0.0 0 0 435.3451 334.8756
  L 435.4151 374.9755
  A 0.38 0.38 0.0 0 0 435.7957 375.3549
  L 544.5556 375.1651
  A 0.38 0.38 0.0 0 0 544.9349 374.7844
  L 544.8649 334.6845"
/>
<path stroke="#839bb3" vector-effect="non-scaling-stroke" d="
  M 588.5651 334.7133
  A 0.27 0.27 0.0 0 0 588.2956 334.4428
  L 550.7357 334.3773
  A 0.27 0.27 0.0 0 0 550.4652 334.6468
  L 550.3949 374.9467
  A 0.27 0.27 0.0 0 0 550.6644 375.2172
  L 588.2243 375.2827
  A 0.27 0.27 0.0 0 0 588.4948 375.0132
  L 588.5651 334.7133"
/>
</g>
<path fill="#b4e2f8" d="
  M 1024.00 0.00
  L 1024.00 617.00
  L 0.00 617.00
  L 0.00 0.00
  L 1024.00 0.00
  Z
  M 309.19 304.25
  L 333.05 304.34
  A 0.78 0.78 0.0 0 0 333.83 303.58
  Q 334.49 285.42 338.15 267.78
  C 342.82 245.28 354.00 221.56 367.59 202.45
  C 383.43 180.15 403.68 162.46 427.53 149.02
  Q 452.83 134.78 482.00 129.76
  A 0.75 0.75 0.0 0 1 482.88 130.50
  L 482.88 163.94
  A 0.54 0.54 0.0 0 0 483.71 164.40
  C 492.21 159.15 499.70 152.65 508.39 146.23
  Q 544.02 119.92 562.68 105.94
  Q 563.27 105.50 563.32 104.13
  L 483.71 45.27
  A 0.53 0.53 0.0 0 0 482.86 45.69
  L 482.86 80.14
  A 1.07 1.07 0.0 0 1 481.93 81.20
  C 431.23 88.07 385.05 112.51 349.66 149.31
  Q 346.24 152.86 344.09 155.44
  C 339.17 161.36 335.02 165.91 331.01 171.45
  Q 288.93 229.49 286.31 301.75
  Q 286.27 302.71 286.45 303.49
  A 1.39 1.38 82.7 0 0 287.82 304.56
  L 309.19 304.25
  Z
  M 576.62 112.39
  L 551.54 130.88
  A 0.38 0.38 0.0 0 0 551.68 131.55
  Q 589.26 140.71 619.90 164.34
  C 655.18 191.57 678.70 230.52 687.18 274.27
  A 0.80 0.79 -5.5 0 0 687.98 274.92
  L 712.30 274.69
  L 734.12 274.72
  A 0.73 0.73 0.0 0 0 734.84 273.89
  C 732.93 259.74 729.86 246.19 724.92 232.47
  Q 720.25 219.51 719.25 217.24
  Q 684.22 137.74 605.84 99.93
  Q 601.42 97.81 585.83 91.74
  C 577.93 88.66 567.11 86.20 560.75 84.76
  Q 560.34 84.67 560.13 84.97
  A 0.50 0.49 -54.6 0 0 560.24 85.64
  L 585.14 104.07
  A 0.99 0.98 -45.9 0 1 585.16 105.63
  L 576.62 112.39
  Z
  M 618.08 193.00
  A 12.81 12.81 0.0 0 0 605.27 180.19
  L 418.83 180.19
  A 12.81 12.81 0.0 0 0 406.02 193.00
  L 406.02 424.00
  A 12.81 12.81 0.0 0 0 418.83 436.81
  L 605.27 436.81
  A 12.81 12.81 0.0 0 0 618.08 424.00
  L 618.08 193.00
  Z
  M 455.76 511.44
  Q 459.82 515.61 463.78 518.46
  Q 469.46 522.52 489.11 537.37
  Q 519.95 560.66 535.92 572.37
  A 0.38 0.38 0.0 0 0 536.53 572.06
  L 536.53 536.87
  A 0.66 0.65 86.5 0 1 537.10 536.22
  Q 588.51 529.89 631.72 502.14
  Q 670.43 477.28 695.91 440.86
  Q 735.81 383.81 737.60 313.40
  A 0.76 0.76 0.0 0 0 736.83 312.62
  L 714.34 312.82
  L 691.62 312.62
  A 1.24 1.24 0.0 0 0 690.37 313.81
  C 688.59 360.76 670.18 404.39 636.92 437.20
  C 609.98 463.76 575.05 481.66 537.43 487.81
  A 0.71 0.70 -4.6 0 1 536.61 487.12
  L 536.61 453.32
  A 0.82 0.82 0.0 0 0 535.31 452.66
  L 455.76 511.44
  Z
  M 444.11 503.29
  L 469.27 484.62
  A 0.39 0.38 33.7 0 0 469.13 483.94
  C 445.99 477.98 424.01 467.35 404.99 452.56
  Q 395.59 445.25 392.34 442.24
  Q 384.48 434.94 373.70 422.15
  C 366.05 413.08 358.65 401.31 353.69 391.60
  Q 341.73 368.18 336.83 342.40
  A 0.50 0.50 0.0 0 0 336.34 342.00
  L 310.93 342.21
  L 290.15 342.12
  A 1.23 1.23 0.0 0 0 288.93 343.54
  Q 294.13 376.07 307.28 404.76
  C 328.30 450.60 364.10 487.68 408.74 511.83
  Q 416.07 515.80 423.41 518.86
  Q 436.45 524.31 438.46 525.05
  Q 445.99 527.82 456.75 530.43
  A 0.43 0.43 0.0 0 0 457.11 529.67
  L 433.88 512.47
  A 1.18 1.17 45.4 0 1 433.89 510.57
  L 444.11 503.29
  Z"
/>
<path fill="#f1bf2a" d="
  M 563.32 104.13
  Q 560.12 105.58 555.88 104.95
  Q 552.42 104.44 551.59 104.45
  C 547.38 104.54 544.74 104.68 540.78 104.13
  Q 532.28 102.94 526.05 102.49
  Q 484.12 99.47 444.50 113.73
  Q 399.37 129.97 365.35 165.59
  Q 358.85 172.39 348.24 186.08
  C 344.79 190.54 342.17 195.34 339.30 199.64
  Q 335.65 205.14 333.07 210.11
  Q 322.32 230.87 315.80 254.16
  C 313.34 262.96 311.42 275.02 310.18 282.91
  Q 308.61 293.00 309.19 304.25
  L 287.82 304.56
  A 1.39 1.38 82.7 0 1 286.45 303.49
  Q 286.27 302.71 286.31 301.75
  Q 288.93 229.49 331.01 171.45
  C 335.02 165.91 339.17 161.36 344.09 155.44
  Q 346.24 152.86 349.66 149.31
  C 385.05 112.51 431.23 88.07 481.93 81.20
  A 1.07 1.07 0.0 0 0 482.86 80.14
  L 482.86 45.69
  A 0.53 0.53 0.0 0 1 483.71 45.27
  L 563.32 104.13
  Z"
/>
<path fill="#f1bf2a" d="
  M 712.30 274.69
  Q 710.13 260.39 707.17 250.34
  Q 705.93 246.11 701.28 233.17
  Q 698.21 224.63 693.89 216.52
  Q 686.46 202.55 681.58 194.43
  Q 679.37 190.75 676.78 187.52
  C 669.41 178.32 663.54 170.42 655.32 162.20
  Q 621.81 128.71 576.62 112.39
  L 585.16 105.63
  A 0.99 0.98 -45.9 0 0 585.14 104.07
  L 560.24 85.64
  A 0.50 0.49 -54.6 0 1 560.13 84.97
  Q 560.34 84.67 560.75 84.76
  C 567.11 86.20 577.93 88.66 585.83 91.74
  Q 601.42 97.81 605.84 99.93
  Q 684.22 137.74 719.25 217.24
  Q 720.25 219.51 724.92 232.47
  C 729.86 246.19 732.93 259.74 734.84 273.89
  A 0.73 0.73 0.0 0 1 734.12 274.72
  L 712.30 274.69
  Z"
/>
<path fill="#d99f1e" d="
  M 563.32 104.13
  Q 563.27 105.50 562.68 105.94
  Q 544.02 119.92 508.39 146.23
  C 499.70 152.65 492.21 159.15 483.71 164.40
  A 0.54 0.54 0.0 0 1 482.88 163.94
  L 482.88 130.50
  A 0.75 0.75 0.0 0 0 482.00 129.76
  Q 452.83 134.78 427.53 149.02
  C 403.68 162.46 383.43 180.15 367.59 202.45
  C 354.00 221.56 342.82 245.28 338.15 267.78
  Q 334.49 285.42 333.83 303.58
  A 0.78 0.78 0.0 0 1 333.05 304.34
  L 309.19 304.25
  Q 308.61 293.00 310.18 282.91
  C 311.42 275.02 313.34 262.96 315.80 254.16
  Q 322.32 230.87 333.07 210.11
  Q 335.65 205.14 339.30 199.64
  C 342.17 195.34 344.79 190.54 348.24 186.08
  Q 358.85 172.39 365.35 165.59
  Q 399.37 129.97 444.50 113.73
  Q 484.12 99.47 526.05 102.49
  Q 532.28 102.94 540.78 104.13
  C 544.74 104.68 547.38 104.54 551.59 104.45
  Q 552.42 104.44 555.88 104.95
  Q 560.12 105.58 563.32 104.13
  Z"
/>
<path fill="#d99f1e" d="
  M 576.62 112.39
  Q 621.81 128.71 655.32 162.20
  C 663.54 170.42 669.41 178.32 676.78 187.52
  Q 679.37 190.75 681.58 194.43
  Q 686.46 202.55 693.89 216.52
  Q 698.21 224.63 701.28 233.17
  Q 705.93 246.11 707.17 250.34
  Q 710.13 260.39 712.30 274.69
  L 687.98 274.92
  A 0.80 0.79 -5.5 0 1 687.18 274.27
  C 678.70 230.52 655.18 191.57 619.90 164.34
  Q 589.26 140.71 551.68 131.55
  A 0.38 0.38 0.0 0 1 551.54 130.88
  L 576.62 112.39
  Z"
/>
<path fill="#0f3f83" d="
  M 618.08 424.00
  A 12.81 12.81 0.0 0 1 605.27 436.81
  L 418.83 436.81
  A 12.81 12.81 0.0 0 1 406.02 424.00
  L 406.02 193.00
  A 12.81 12.81 0.0 0 1 418.83 180.19
  L 605.27 180.19
  A 12.81 12.81 0.0 0 1 618.08 193.00
  L 618.08 424.00
  Z
  M 512.00 427.94
  C 539.62 427.94 569.52 428.08 602.09 428.06
  Q 605.91 428.06 607.28 427.27
  Q 609.59 425.95 609.59 422.77
  Q 609.70 378.14 609.66 216.91
  A 0.55 0.54 89.8 0 0 609.11 216.36
  Q 542.75 216.37 511.99 216.37
  Q 481.23 216.38 414.86 216.37
  A 0.55 0.54 -89.8 0 0 414.32 216.92
  Q 414.29 378.15 414.41 422.78
  Q 414.41 425.96 416.72 427.28
  Q 418.09 428.07 421.91 428.07
  C 454.48 428.08 484.38 427.94 512.00 427.94
  Z"
/>
<path fill="#f7f7e2" d="
  M 511.99 216.37
  Q 542.75 216.37 609.11 216.36
  A 0.55 0.54 89.8 0 1 609.66 216.91
  Q 609.70 378.14 609.59 422.77
  Q 609.59 425.95 607.28 427.27
  Q 605.91 428.06 602.09 428.06
  C 569.52 428.08 539.62 427.94 512.00 427.94
  C 484.38 427.94 454.48 428.08 421.91 428.07
  Q 418.09 428.07 416.72 427.28
  Q 414.41 425.96 414.41 422.78
  Q 414.29 378.15 414.32 216.92
  A 0.55 0.54 -89.8 0 1 414.86 216.37
  Q 481.23 216.38 511.99 216.37
  Z
  M 450.54 269.78
  A 0.38 0.38 0.0 0 1 450.30 269.10
  C 458.07 262.80 469.88 253.17 466.45 241.49
  C 462.41 227.70 444.96 229.22 435.29 235.20
  A 1.38 1.38 0.0 0 0 434.75 236.93
  L 437.39 242.97
  A 0.90 0.89 -31.4 0 0 438.78 243.30
  C 442.62 240.18 449.21 238.19 453.30 241.25
  C 458.04 244.80 455.14 251.39 451.78 255.04
  Q 445.36 262.03 436.13 269.87
  C 433.27 272.30 433.80 275.30 434.02 278.48
  A 0.51 0.51 0.0 0 0 434.53 278.95
  L 467.35 278.95
  A 0.68 0.68 0.0 0 0 468.03 278.27
  L 468.03 270.38
  A 0.60 0.59 90.0 0 0 467.44 269.78
  L 450.54 269.78
  Z
  M 473.84 255.20
  C 473.78 262.89 475.09 270.08 480.84 275.61
  C 483.79 278.45 487.52 279.73 491.76 279.76
  C 496.01 279.79 499.76 278.56 502.75 275.76
  C 508.57 270.32 509.98 263.15 510.04 255.45
  C 510.09 247.76 508.78 240.57 503.04 235.04
  C 500.09 232.21 496.36 230.92 492.11 230.89
  C 487.87 230.86 484.12 232.09 481.13 234.89
  C 475.31 240.33 473.89 247.51 473.84 255.20
  Z
  M 531.70 269.77
  A 0.38 0.38 0.0 0 1 531.46 269.09
  C 539.20 262.77 550.98 253.11 547.51 241.45
  C 543.44 227.69 526.00 229.26 516.36 235.26
  A 1.38 1.38 0.0 0 0 515.83 236.99
  L 518.48 243.02
  A 0.90 0.89 -31.6 0 0 519.87 243.34
  C 523.70 240.22 530.28 238.21 534.37 241.25
  C 539.12 244.79 536.24 251.38 532.90 255.04
  Q 526.50 262.04 517.30 269.90
  C 514.45 272.34 514.99 275.33 515.22 278.51
  A 0.51 0.51 0.0 0 0 515.73 278.98
  L 548.53 278.88
  A 0.68 0.68 0.0 0 0 549.20 278.20
  L 549.18 270.32
  A 0.60 0.59 89.8 0 0 548.59 269.72
  L 531.70 269.77
  Z
  M 567.80 247.42
  L 568.56 241.21
  A 0.80 0.80 0.0 0 1 569.35 240.51
  L 586.88 240.51
  A 0.53 0.52 0.0 0 0 587.41 239.99
  L 587.41 232.29
  A 0.63 0.63 0.0 0 0 586.78 231.66
  L 561.31 231.66
  A 0.61 0.60 -86.2 0 0 560.71 232.19
  L 557.78 255.93
  A 0.51 0.51 0.0 0 0 558.34 256.50
  C 563.33 256.03 572.42 255.47 576.13 259.13
  C 578.76 261.72 578.39 266.25 575.77 268.79
  C 571.92 272.53 561.80 270.70 558.22 268.52
  A 0.66 0.66 0.0 0 0 557.23 268.95
  L 555.75 276.15
  A 0.97 0.95 -74.4 0 0 556.35 277.24
  C 565.99 280.83 579.77 281.47 586.58 272.31
  C 591.69 265.43 590.32 254.59 582.21 250.44
  Q 576.61 247.57 568.39 248.05
  A 0.56 0.56 0.0 0 1 567.80 247.42
  Z
  M 490.55 295.50
  A 3.07 3.07 0.0 0 0 487.48 292.43
  L 433.24 292.43
  A 3.07 3.07 0.0 0 0 430.17 295.50
  L 430.17 295.98
  A 3.07 3.07 0.0 0 0 433.24 299.05
  L 487.48 299.05
  A 3.07 3.07 0.0 0 0 490.55 295.98
  L 490.55 295.50
  Z
  M 594.13 311.11
  A 3.67 3.67 0.0 0 0 590.46 307.44
  L 433.64 307.44
  A 3.67 3.67 0.0 0 0 429.97 311.11
  L 429.97 377.31
  A 3.67 3.67 0.0 0 0 433.64 380.98
  L 590.46 380.98
  A 3.67 3.67 0.0 0 0 594.13 377.31
  L 594.13 311.11
  Z
  M 490.72 395.89
  A 3.14 3.14 0.0 0 0 487.58 392.75
  L 433.30 392.75
  A 3.14 3.14 0.0 0 0 430.16 395.89
  L 430.16 396.21
  A 3.14 3.14 0.0 0 0 433.30 399.35
  L 487.58 399.35
  A 3.14 3.14 0.0 0 0 490.72 396.21
  L 490.72 395.89
  Z
  M 593.9099 395.9039
  A 3.23 3.23 0.0 0 0 590.6742 392.6796
  L 532.8743 392.7804
  A 3.23 3.23 0.0 0 0 529.6500 396.0161
  L 529.6501 396.1161
  A 3.23 3.23 0.0 0 0 532.8858 399.3404
  L 590.6857 399.2396
  A 3.23 3.23 0.0 0 0 593.9100 396.0039
  L 593.9099 395.9039
  Z
  M 593.68 409.91
  A 3.25 3.25 0.0 0 0 590.43 406.66
  L 532.95 406.66
  A 3.25 3.25 0.0 0 0 529.70 409.91
  L 529.70 410.03
  A 3.25 3.25 0.0 0 0 532.95 413.28
  L 590.43 413.28
  A 3.25 3.25 0.0 0 0 593.68 410.03
  L 593.68 409.91
  Z"
/>
<path fill="#0f3f83" d="
  M 450.54 269.78
  L 467.44 269.78
  A 0.60 0.59 -90.0 0 1 468.03 270.38
  L 468.03 278.27
  A 0.68 0.68 0.0 0 1 467.35 278.95
  L 434.53 278.95
  A 0.51 0.51 0.0 0 1 434.02 278.48
  C 433.80 275.30 433.27 272.30 436.13 269.87
  Q 445.36 262.03 451.78 255.04
  C 455.14 251.39 458.04 244.80 453.30 241.25
  C 449.21 238.19 442.62 240.18 438.78 243.30
  A 0.90 0.89 -31.4 0 1 437.39 242.97
  L 434.75 236.93
  A 1.38 1.38 0.0 0 1 435.29 235.20
  C 444.96 229.22 462.41 227.70 466.45 241.49
  C 469.88 253.17 458.07 262.80 450.30 269.10
  A 0.38 0.38 0.0 0 0 450.54 269.78
  Z"
/>
<path fill="#0f3f83" d="
  M 492.11 230.89
  C 496.36 230.92 500.09 232.21 503.04 235.04
  C 508.78 240.57 510.09 247.76 510.04 255.45
  C 509.98 263.15 508.57 270.32 502.75 275.76
  C 499.76 278.56 496.01 279.79 491.76 279.76
  C 487.52 279.73 483.79 278.45 480.84 275.61
  C 475.09 270.08 473.78 262.89 473.84 255.20
  C 473.89 247.51 475.31 240.33 481.13 234.89
  C 484.12 232.09 487.87 230.86 492.11 230.89
  Z
  M 491.9069 239.0301
  A 16.29 7.06 -89.8 0 0 484.7900 255.2954
  A 16.29 7.06 -89.8 0 0 491.7931 271.6099
  A 16.29 7.06 -89.8 0 0 498.9100 255.3446
  A 16.29 7.06 -89.8 0 0 491.9069 239.0301
  Z"
/>
<path fill="#0f3f83" d="
  M 531.70 269.77
  L 548.59 269.72
  A 0.60 0.59 89.8 0 1 549.18 270.32
  L 549.20 278.20
  A 0.68 0.68 0.0 0 1 548.53 278.88
  L 515.73 278.98
  A 0.51 0.51 0.0 0 1 515.22 278.51
  C 514.99 275.33 514.45 272.34 517.30 269.90
  Q 526.50 262.04 532.90 255.04
  C 536.24 251.38 539.12 244.79 534.37 241.25
  C 530.28 238.21 523.70 240.22 519.87 243.34
  A 0.90 0.89 -31.6 0 1 518.48 243.02
  L 515.83 236.99
  A 1.38 1.38 0.0 0 1 516.36 235.26
  C 526.00 229.26 543.44 227.69 547.51 241.45
  C 550.98 253.11 539.20 262.77 531.46 269.09
  A 0.38 0.38 0.0 0 0 531.70 269.77
  Z"
/>
<path fill="#0f3f83" d="
  M 568.39 248.05
  Q 576.61 247.57 582.21 250.44
  C 590.32 254.59 591.69 265.43 586.58 272.31
  C 579.77 281.47 565.99 280.83 556.35 277.24
  A 0.97 0.95 -74.4 0 1 555.75 276.15
  L 557.23 268.95
  A 0.66 0.66 0.0 0 1 558.22 268.52
  C 561.80 270.70 571.92 272.53 575.77 268.79
  C 578.39 266.25 578.76 261.72 576.13 259.13
  C 572.42 255.47 563.33 256.03 558.34 256.50
  A 0.51 0.51 0.0 0 1 557.78 255.93
  L 560.71 232.19
  A 0.61 0.60 -86.2 0 1 561.31 231.66
  L 586.78 231.66
  A 0.63 0.63 0.0 0 1 587.41 232.29
  L 587.41 239.99
  A 0.53 0.52 0.0 0 1 586.88 240.51
  L 569.35 240.51
  A 0.80 0.80 0.0 0 0 568.56 241.21
  L 567.80 247.42
  A 0.56 0.56 0.0 0 0 568.39 248.05
  Z"
/>
<ellipse fill="#f7f7e2" cx="0.00" cy="0.00" transform="translate(491.85,255.32) rotate(-89.8)" rx="16.29" ry="7.06"/>
<rect fill="#0f3f83" x="430.17" y="292.43" width="60.38" height="6.62" rx="3.07"/>
<path fill="#0f3f83" d="
  M 594.13 377.31
  A 3.67 3.67 0.0 0 1 590.46 380.98
  L 433.64 380.98
  A 3.67 3.67 0.0 0 1 429.97 377.31
  L 429.97 311.11
  A 3.67 3.67 0.0 0 1 433.64 307.44
  L 590.46 307.44
  A 3.67 3.67 0.0 0 1 594.13 311.11
  L 594.13 377.31
  Z
  M 544.97 313.68
  A 0.51 0.51 0.0 0 0 544.46 313.17
  L 435.94 313.17
  A 0.51 0.51 0.0 0 0 435.43 313.68
  L 435.43 328.16
  A 0.51 0.51 0.0 0 0 435.94 328.67
  L 544.46 328.67
  A 0.51 0.51 0.0 0 0 544.97 328.16
  L 544.97 313.68
  Z
  M 588.55 313.61
  A 0.46 0.46 0.0 0 0 588.09 313.15
  L 550.89 313.15
  A 0.46 0.46 0.0 0 0 550.43 313.61
  L 550.43 328.23
  A 0.46 0.46 0.0 0 0 550.89 328.69
  L 588.09 328.69
  A 0.46 0.46 0.0 0 0 588.55 328.23
  L 588.55 313.61
  Z
  M 544.8649 334.6845
  A 0.38 0.38 0.0 0 0 544.4843 334.3051
  L 435.7244 334.4949
  A 0.38 0.38 0.0 0 0 435.3451 334.8756
  L 435.4151 374.9755
  A 0.38 0.38 0.0 0 0 435.7957 375.3549
  L 544.5556 375.1651
  A 0.38 0.38 0.0 0 0 544.9349 374.7844
  L 544.8649 334.6845
  Z
  M 588.5651 334.7133
  A 0.27 0.27 0.0 0 0 588.2956 334.4428
  L 550.7357 334.3773
  A 0.27 0.27 0.0 0 0 550.4652 334.6468
  L 550.3949 374.9467
  A 0.27 0.27 0.0 0 0 550.6644 375.2172
  L 588.2243 375.2827
  A 0.27 0.27 0.0 0 0 588.4948 375.0132
  L 588.5651 334.7133
  Z"
/>
<path fill="#f1bf2a" d="
  M 714.34 312.82
  Q 713.89 313.24 714.74 314.79
  A 1.97 1.91 32.8 0 1 714.98 315.83
  C 714.01 339.20 709.41 362.48 700.68 384.32
  Q 695.33 397.69 693.66 400.92
  Q 662.18 461.53 602.92 492.37
  Q 574.70 507.05 541.40 512.23
  C 523.64 515.00 504.15 514.92 485.56 513.54
  Q 470.85 512.45 455.76 511.44
  L 535.31 452.66
  A 0.82 0.82 0.0 0 1 536.61 453.32
  L 536.61 487.12
  A 0.71 0.70 -4.6 0 0 537.43 487.81
  C 575.05 481.66 609.98 463.76 636.92 437.20
  C 670.18 404.39 688.59 360.76 690.37 313.81
  A 1.24 1.24 0.0 0 1 691.62 312.62
  L 714.34 312.82
  Z"
/>
<path fill="#d99f1e" d="
  M 455.76 511.44
  Q 470.85 512.45 485.56 513.54
  C 504.15 514.92 523.64 515.00 541.40 512.23
  Q 574.70 507.05 602.92 492.37
  Q 662.18 461.53 693.66 400.92
  Q 695.33 397.69 700.68 384.32
  C 709.41 362.48 714.01 339.20 714.98 315.83
  A 1.97 1.91 32.8 0 0 714.74 314.79
  Q 713.89 313.24 714.34 312.82
  L 736.83 312.62
  A 0.76 0.76 0.0 0 1 737.60 313.40
  Q 735.81 383.81 695.91 440.86
  Q 670.43 477.28 631.72 502.14
  Q 588.51 529.89 537.10 536.22
  A 0.66 0.65 86.5 0 0 536.53 536.87
  L 536.53 572.06
  A 0.38 0.38 0.0 0 1 535.92 572.37
  Q 519.95 560.66 489.11 537.37
  Q 469.46 522.52 463.78 518.46
  Q 459.82 515.61 455.76 511.44
  Z"
/>
<rect fill="#f7f7e2" x="435.43" y="313.17" width="109.54" height="15.50" rx="0.51"/>
<rect fill="#f7f7e2" x="550.43" y="313.15" width="38.12" height="15.54" rx="0.46"/>
<rect fill="#f7f7e2" x="-54.76" y="-20.43" transform="translate(490.14,354.83) rotate(-0.1)" width="109.52" height="40.86" rx="0.38"/>
<rect fill="#f7f7e2" x="-19.05" y="-20.42" transform="translate(569.48,354.83) rotate(0.1)" width="38.10" height="40.84" rx="0.27"/>
<path fill="#f1bf2a" d="
  M 310.93 342.21
  Q 312.01 345.09 312.52 348.26
  Q 313.24 352.80 313.65 354.40
  Q 318.83 374.48 324.93 389.59
  Q 327.60 396.17 339.13 416.85
  C 342.74 423.34 347.24 428.41 351.78 434.79
  Q 356.11 440.86 362.28 447.31
  Q 374.62 460.22 383.52 467.72
  Q 401.99 483.27 425.20 494.47
  Q 434.46 498.94 444.11 503.29
  L 433.89 510.57
  A 1.18 1.17 45.4 0 0 433.88 512.47
  L 457.11 529.67
  A 0.43 0.43 0.0 0 1 456.75 530.43
  Q 445.99 527.82 438.46 525.05
  Q 436.45 524.31 423.41 518.86
  Q 416.07 515.80 408.74 511.83
  C 364.10 487.68 328.30 450.60 307.28 404.76
  Q 294.13 376.07 288.93 343.54
  A 1.23 1.23 0.0 0 1 290.15 342.12
  L 310.93 342.21
  Z"
/>
<path fill="#d99f1e" d="
  M 444.11 503.29
  Q 434.46 498.94 425.20 494.47
  Q 401.99 483.27 383.52 467.72
  Q 374.62 460.22 362.28 447.31
  Q 356.11 440.86 351.78 434.79
  C 347.24 428.41 342.74 423.34 339.13 416.85
  Q 327.60 396.17 324.93 389.59
  Q 318.83 374.48 313.65 354.40
  Q 313.24 352.80 312.52 348.26
  Q 312.01 345.09 310.93 342.21
  L 336.34 342.00
  A 0.50 0.50 0.0 0 1 336.83 342.40
  Q 341.73 368.18 353.69 391.60
  C 358.65 401.31 366.05 413.08 373.70 422.15
  Q 384.48 434.94 392.34 442.24
  Q 395.59 445.25 404.99 452.56
  C 424.01 467.35 445.99 477.98 469.13 483.94
  A 0.39 0.38 33.7 0 1 469.27 484.62
  L 444.11 503.29
  Z"
/>
<rect fill="#0f3f83" x="430.16" y="392.75" width="60.56" height="6.60" rx="3.14"/>
<rect fill="#0f3f83" x="-32.13" y="-3.28" transform="translate(561.78,396.01) rotate(-0.1)" width="64.26" height="6.56" rx="3.23"/>
<rect fill="#0f3f83" x="529.70" y="406.66" width="63.98" height="6.62" rx="3.25"/>
</svg>
