<svg xmlns="http://www.w3.org/2000/svg" xmlns:v="https://svgstorm.com"
viewBox = "0 0 1536 1024"
width="1536"
height="1024">
<g fill="None" fill-opacity="0.0" stroke="#CAEEFF" stroke-opacity="1.00" stroke-width="0.3"><path d="
M 0.00 1024.00 
L 1536.00 1024.00
L 1536.00 0.00
L 0.00 0.00
L 0.00 1024.00
M 313.00 174.00 
C 312.47 170.30 312.41 166.66 313.00 163.00
C 314.75 130.67 361.30 117.39 376.00 148.00
C 371.71 150.49 367.52 152.93 363.00 155.00
C 360.47 141.62 339.68 140.02 333.08 151.08 C 326.48 162.15 326.38 177.01 334.25 187.75 C 342.12 198.49 361.77 194.67 364.00 181.00
C 368.85 181.02 372.33 185.30 377.00 186.00
C 367.46 220.19 310.79 209.00 313.00 174.00
M 588.00 139.00 
C 588.04 143.97 581.74 146.30 581.00 151.00
C 576.58 145.73 555.08 137.79 552.70 149.70 C 550.31 161.60 569.06 161.17 578.02 164.98 C 586.99 168.78 594.46 180.84 589.67 191.67 C 584.88 202.51 574.62 207.72 563.00 207.00 C 551.38 206.28 541.93 202.74 535.00 193.00
C 537.57 190.24 540.57 187.09 543.00 184.00
C 547.25 193.02 575.60 200.85 575.97 185.97 C 576.35 171.10 551.89 176.60 543.75 167.25 C 535.62 157.90 534.67 140.70 548.25 134.25 C 561.82 127.80 576.51 130.86 588.00 139.00
M 686.00 148.00 
C 680.99 148.99 677.42 154.03 672.00 154.00
C 669.68 141.06 648.26 140.32 642.08 151.08 C 635.90 161.84 635.66 178.20 643.75 188.25 C 651.85 198.30 671.05 194.44 673.00 181.00
C 682.85 181.32 688.58 188.65 681.75 195.75 C 674.92 202.84 669.08 206.20 659.98 206.98 C 650.87 207.75 641.71 205.55 634.77 200.23 C 627.83 194.91 624.45 187.58 622.67 179.33 C 620.90 171.08 621.66 158.56 624.92 150.92 C 628.19 143.29 633.43 137.51 641.08 134.08 C 648.72 130.64 660.79 129.65 669.01 131.99 C 677.23 134.33 682.98 140.55 686.00 148.00
M 1078.00 148.00 
C 1073.64 150.35 1069.01 152.06 1065.00 155.00
C 1063.07 141.14 1041.70 140.33 1035.25 151.25 C 1028.80 162.16 1028.77 178.77 1037.25 188.75 C 1045.74 198.72 1064.30 193.87 1067.00 181.00
C 1071.31 181.74 1074.67 185.26 1079.00 186.00
C 1073.84 207.82 1043.72 213.15 1027.75 199.25 C 1011.78 185.35 1010.45 157.13 1024.25 141.25 C 1038.04 125.36 1070.51 126.95 1078.00 148.00
M 1171.00 148.00 
C 1166.35 149.45 1162.98 153.77 1158.00 154.00
C 1155.07 140.86 1134.18 140.79 1128.75 151.75 C 1123.31 162.70 1122.38 179.46 1130.75 189.25 C 1139.13 199.03 1158.04 193.56 1160.00 181.00
C 1164.47 182.19 1168.44 184.97 1173.00 186.00
C 1166.39 206.98 1137.54 213.59 1121.25 199.75 C 1104.97 185.90 1104.67 156.92 1118.25 141.25 C 1131.83 125.58 1163.64 127.12 1171.00 148.00
M 218.00 132.00 
C 218.00 152.33 218.00 172.67 218.00 193.00
C 229.00 193.00 240.00 193.00 251.00 193.00
C 251.00 197.33 251.00 201.67 251.00 206.00
C 235.00 206.00 219.00 206.00 203.00 206.00
C 203.00 181.33 203.00 156.67 203.00 132.00
C 208.00 132.00 213.00 132.00 218.00 132.00
M 261.00 206.00 
C 257.41 203.49 260.80 192.66 260.00 188.00 C 259.20 183.34 260.00 174.09 260.00 169.00 C 260.00 163.91 259.21 154.69 260.00 150.00 C 260.79 145.31 257.43 134.50 261.00 132.00
C 264.36 129.65 272.23 133.76 276.00 132.00
C 276.00 152.33 276.00 172.67 276.00 193.00
C 286.67 193.00 297.33 193.00 308.00 193.00
C 308.00 197.33 308.00 201.67 308.00 206.00
C 292.33 206.00 276.67 206.00 261.00 206.00
M 722.00 149.00 
C 757.61 150.90 751.08 212.18 716.00 207.00 C 680.92 201.82 686.79 147.12 722.00 149.00
M 977.00 165.00 
C 973.53 162.22 956.48 155.49 955.08 164.08 C 953.68 172.68 968.73 171.69 975.07 174.93 C 981.42 178.17 987.48 188.91 982.68 196.68 C 977.88 204.45 970.82 206.87 962.00 207.00 C 953.17 207.13 945.22 204.34 939.00 198.00
C 939.45 194.25 944.30 192.76 945.00 189.00
C 952.97 193.06 954.84 197.49 965.07 195.07 C 975.31 192.66 967.86 183.56 959.78 183.22 C 951.70 182.88 945.21 178.80 942.22 171.78 C 939.24 164.75 942.40 157.39 949.08 153.08 C 955.76 148.77 964.25 148.64 972.07 150.93 C 979.89 153.21 985.10 158.31 977.00 165.00
M 418.00 151.00 
C 422.58 154.54 421.91 164.82 424.93 170.07 C 427.94 175.33 428.09 184.42 431.00 190.00
C 436.01 177.59 439.59 163.94 444.00 151.00
C 445.77 149.42 457.59 148.75 459.00 151.00
C 460.76 153.82 454.97 160.72 454.23 164.23 C 453.49 167.74 451.57 174.13 450.02 178.02 C 448.47 181.92 446.93 188.12 445.02 192.02 C 443.12 195.93 443.39 202.01 440.22 205.22 C 437.06 208.44 426.18 204.42 422.00 206.00
C 416.89 187.43 408.72 169.73 404.00 151.00
C 405.51 148.65 416.22 149.62 418.00 151.00
M 500.00 165.00 
C 494.86 155.56 471.33 162.20 479.70 169.30 C 488.08 176.39 501.79 171.26 505.92 183.08 C 510.05 194.89 502.53 204.41 491.78 206.78 C 481.03 209.14 468.72 205.28 462.00 197.00
C 463.99 194.27 466.05 191.71 468.00 189.00
C 471.00 197.68 498.13 197.95 492.74 188.26 C 487.35 178.56 469.38 185.69 465.23 172.77 C 461.08 159.85 470.30 150.67 482.00 150.00 C 493.70 149.33 510.99 152.61 500.00 165.00
M 771.00 151.00 
C 771.99 152.13 770.25 155.65 771.00 157.00
C 775.91 151.28 782.34 148.71 790.00 150.00
C 790.00 154.67 790.00 159.33 790.00 164.00
C 764.69 157.21 771.66 190.68 771.00 206.00
C 766.00 206.00 761.00 206.00 756.00 206.00
C 756.00 187.67 756.00 169.33 756.00 151.00
C 757.46 148.91 769.46 149.24 771.00 151.00
M 814.00 151.00 
C 814.99 152.13 813.25 155.65 814.00 157.00
C 821.40 147.06 840.87 146.71 848.25 157.75 C 855.62 168.79 855.15 186.74 847.70 197.70 C 840.25 208.65 822.73 210.06 814.00 200.00
C 814.00 209.00 814.00 218.00 814.00 227.00
C 809.33 227.00 804.67 227.00 800.00 227.00
C 800.00 201.67 800.00 176.33 800.00 151.00
C 801.44 148.95 812.49 149.28 814.00 151.00
M 895.00 151.00 
C 899.58 154.54 898.91 164.82 901.93 170.07 C 904.94 175.33 905.09 184.42 908.00 190.00
C 912.88 177.88 917.13 164.72 921.00 152.00
C 922.78 149.58 935.22 148.15 937.00 151.00
C 938.86 153.97 932.40 160.35 932.22 164.22 C 932.04 168.10 928.18 174.01 927.22 178.22 C 926.26 182.44 923.72 186.86 922.23 191.23 C 920.74 195.60 918.89 201.34 918.00 206.00
C 911.67 206.00 905.33 206.00 899.00 206.00
C 893.68 187.79 886.49 170.18 881.00 152.00
C 881.18 149.46 891.62 148.38 895.00 151.00
M 1214.00 150.00 
C 1233.06 153.95 1238.58 185.25 1225.23 198.23 C 1211.88 211.21 1185.14 209.65 1180.02 187.98 C 1174.91 166.31 1188.91 144.80 1214.00 150.00
M 1258.00 151.00 
C 1258.99 152.13 1257.25 155.65 1258.00 157.00
C 1263.06 150.71 1270.01 148.72 1278.00 150.00
C 1278.00 154.67 1278.00 159.33 1278.00 164.00
C 1252.14 156.72 1258.32 190.11 1258.00 206.00
C 1253.33 206.00 1248.67 206.00 1244.00 206.00
C 1240.47 203.53 1243.75 193.68 1243.00 189.00 C 1242.25 184.32 1242.94 176.40 1243.00 171.00 C 1243.06 165.60 1242.21 157.52 1243.00 152.00
C 1243.05 151.65 1243.70 151.22 1244.00 151.00
C 1246.15 149.42 1256.09 148.82 1258.00 151.00
M 1301.00 156.00 
C 1306.03 156.10 1305.99 147.56 1313.00 150.00 C 1320.01 152.44 1320.55 146.91 1328.23 152.77 C 1335.90 158.64 1339.47 169.62 1339.00 179.00 C 1338.53 188.38 1339.07 185.25 1336.07 194.07 C 1333.08 202.89 1321.26 208.64 1312.78 206.22 C 1304.30 203.81 1306.26 204.69 1300.00 200.00
C 1300.00 209.00 1300.00 218.00 1300.00 227.00
C 1295.33 227.00 1290.67 227.00 1286.00 227.00
C 1286.00 201.67 1286.00 176.33 1286.00 151.00
C 1289.29 146.31 1301.51 149.37 1301.00 156.00
M 1360.00 351.00 
C 1362.66 359.41 1360.33 369.70 1361.00 379.00 C 1361.68 388.30 1360.83 399.42 1360.00 408.00
C 1360.00 426.24 1354.93 447.46 1348.23 463.23 C 1341.53 479.00 1334.36 492.95 1323.25 505.25 C 1312.14 517.55 1301.67 529.15 1287.77 536.77 C 1273.87 544.39 1258.42 558.00 1242.00 558.00
C 1243.24 580.91 1240.34 601.89 1242.00 625.00 C 1243.66 648.11 1238.83 668.19 1242.00 692.00 C 1245.17 715.81 1231.54 727.79 1208.00 725.00 C 1184.46 722.21 1162.95 726.28 1140.00 725.00 C 1117.05 723.72 1095.63 725.57 1073.00 725.00 C 1050.37 724.43 1028.52 725.25 1006.00 725.00 C 983.48 724.75 961.54 725.09 939.00 725.00 C 916.46 724.91 893.57 725.00 871.00 725.00
C 751.33 725.00 631.67 725.00 512.00 725.00
C 509.33 725.00 506.67 725.00 504.00 725.00
C 479.26 725.00 454.76 725.26 430.00 725.00 C 405.24 724.74 379.74 725.67 355.00 725.00 C 330.27 724.33 305.64 726.55 281.00 725.00 C 256.36 723.45 230.41 728.41 206.00 725.00
C 184.74 722.03 191.72 696.31 191.00 679.00 C 190.28 661.69 191.37 637.14 191.00 618.00 C 190.63 598.86 191.27 576.01 191.00 556.00 C 190.73 535.99 191.35 515.57 191.00 495.00 C 190.65 474.43 191.66 454.15 191.00 433.00 C 190.34 411.85 192.44 394.21 191.00 372.00 C 189.56 349.79 212.65 349.05 231.00 351.00 C 249.35 352.95 275.12 349.12 293.00 351.00 C 310.88 352.88 335.68 345.83 349.25 355.75 C 362.81 365.68 360.31 384.36 377.00 390.00
C 395.42 393.62 415.19 388.14 434.00 390.00 C 452.81 391.86 473.06 388.61 492.00 390.00
C 492.00 378.93 487.53 358.79 500.23 353.23 C 512.93 347.67 529.77 352.40 544.00 351.00 C 558.23 349.61 574.47 352.32 589.00 351.00 C 603.53 349.68 620.59 353.10 635.00 351.00 C 649.41 348.90 657.78 356.21 664.25 366.75 C 670.73 377.29 674.94 387.33 687.00 390.00
C 714.38 392.81 742.48 388.53 770.00 390.00 C 797.52 391.47 825.45 388.90 853.00 390.00
C 854.84 387.37 852.55 380.46 853.00 377.00 C 853.45 373.54 853.24 368.08 854.00 365.00
C 858.85 345.44 880.30 351.56 897.00 351.00 C 913.70 350.44 938.20 351.38 955.00 351.00 C 971.80 350.62 993.61 347.94 1004.30 359.70 C 1014.99 371.46 1016.41 386.14 1032.00 390.00
C 1062.20 393.74 1093.68 387.26 1124.00 390.00
C 1123.98 377.90 1122.24 363.14 1125.00 352.00
C 1128.36 338.41 1149.18 344.98 1160.22 341.22 C 1171.27 337.47 1186.32 338.15 1196.69 331.69 C 1207.07 325.23 1217.59 325.14 1226.70 315.70 C 1235.81 306.26 1247.58 305.84 1257.08 314.92 C 1266.58 324.00 1276.44 324.94 1287.07 330.93 C 1297.71 336.91 1311.96 336.93 1323.02 340.98 C 1334.09 345.02 1355.63 337.17 1360.00 351.00 Z"/>
</g>
<g fill="None" fill-opacity="0.0" stroke="#0E2C70" stroke-opacity="1.00" stroke-width="0.3"><path d="
M 313.00 163.00 
C 312.80 166.61 312.86 170.39 313.00 174.00
C 310.79 209.00 367.46 220.19 377.00 186.00
C 372.33 185.30 368.85 181.02 364.00 181.00
C 361.77 194.67 342.12 198.49 334.25 187.75 C 326.38 177.01 326.48 162.15 333.08 151.08 C 339.68 140.02 360.47 141.62 363.00 155.00
C 367.52 152.93 371.71 150.49 376.00 148.00
C 361.30 117.39 314.75 130.67 313.00 163.00 Z"/>
</g>
<g fill="None" fill-opacity="0.0" stroke="#0E2D71" stroke-opacity="1.00" stroke-width="0.3"><path d="
M 588.00 139.00 
C 576.51 130.86 561.82 127.80 548.25 134.25 C 534.67 140.70 535.62 157.90 543.75 167.25 C 551.89 176.60 576.35 171.10 575.97 185.97 C 575.60 200.85 547.25 193.02 543.00 184.00
C 540.57 187.09 537.57 190.24 535.00 193.00
C 541.93 202.74 551.38 206.28 563.00 207.00 C 574.62 207.72 584.88 202.51 589.67 191.67 C 594.46 180.84 586.99 168.78 578.02 164.98 C 569.06 161.17 550.31 161.60 552.70 149.70 C 555.08 137.79 576.58 145.73 581.00 151.00
C 581.74 146.30 588.04 143.97 588.00 139.00 Z"/>
</g>
<g fill="None" fill-opacity="0.0" stroke="#0E2D71" stroke-opacity="1.00" stroke-width="0.3"><path d="
M 686.00 148.00 
C 682.98 140.55 677.23 134.33 669.01 131.99 C 660.79 129.65 648.72 130.64 641.08 134.08 C 633.43 137.51 628.19 143.29 624.92 150.92 C 621.66 158.56 620.90 171.08 622.67 179.33 C 624.45 187.58 627.83 194.91 634.77 200.23 C 641.71 205.55 650.87 207.75 659.98 206.98 C 669.08 206.20 674.92 202.84 681.75 195.75 C 688.58 188.65 682.85 181.32 673.00 181.00
C 671.05 194.44 651.85 198.30 643.75 188.25 C 635.66 178.20 635.90 161.84 642.08 151.08 C 648.26 140.32 669.68 141.06 672.00 154.00
C 677.42 154.03 680.99 148.99 686.00 148.00 Z"/>
</g>
<g fill="None" fill-opacity="0.0" stroke="#0E2D71" stroke-opacity="1.00" stroke-width="0.3"><path d="
M 1078.00 148.00 
C 1070.51 126.95 1038.04 125.36 1024.25 141.25 C 1010.45 157.13 1011.78 185.35 1027.75 199.25 C 1043.72 213.15 1073.84 207.82 1079.00 186.00
C 1074.67 185.26 1071.31 181.74 1067.00 181.00
C 1064.30 193.87 1045.74 198.72 1037.25 188.75 C 1028.77 178.77 1028.80 162.16 1035.25 151.25 C 1041.70 140.33 1063.07 141.14 1065.00 155.00
C 1069.01 152.06 1073.64 150.35 1078.00 148.00 Z"/>
</g>
<g fill="None" fill-opacity="0.0" stroke="#0E2C70" stroke-opacity="1.00" stroke-width="0.3"><path d="
M 1171.00 148.00 
C 1163.64 127.12 1131.83 125.58 1118.25 141.25 C 1104.67 156.92 1104.97 185.90 1121.25 199.75 C 1137.54 213.59 1166.39 206.98 1173.00 186.00
C 1168.44 184.97 1164.47 182.19 1160.00 181.00
C 1158.04 193.56 1139.13 199.03 1130.75 189.25 C 1122.38 179.46 1123.31 162.70 1128.75 151.75 C 1134.18 140.79 1155.07 140.86 1158.00 154.00
C 1162.98 153.77 1166.35 149.45 1171.00 148.00 Z"/>
</g>
<g fill="None" fill-opacity="0.0" stroke="#0F2F73" stroke-opacity="1.00" stroke-width="0.3"><path d="
M 218.00 132.00 
C 213.00 132.00 208.00 132.00 203.00 132.00
C 203.00 156.67 203.00 181.33 203.00 206.00
C 219.00 206.00 235.00 206.00 251.00 206.00
C 251.00 201.67 251.00 197.33 251.00 193.00
C 240.00 193.00 229.00 193.00 218.00 193.00
C 218.00 172.67 218.00 152.33 218.00 132.00 Z"/>
</g>
<g fill="None" fill-opacity="0.0" stroke="#6B8AB4" stroke-opacity="1.00" stroke-width="0.3"><path d="
M 261.00 206.00 
C 261.00 181.33 261.00 156.67 261.00 132.00
C 257.43 134.50 260.79 145.31 260.00 150.00 C 259.21 154.69 260.00 163.91 260.00 169.00 C 260.00 174.09 259.20 183.34 260.00 188.00 C 260.80 192.66 257.41 203.49 261.00 206.00 Z"/>
</g>
<g fill="None" fill-opacity="0.0" stroke="#0D2D71" stroke-opacity="1.00" stroke-width="0.3"><path d="
M 261.00 206.00 
C 276.67 206.00 292.33 206.00 308.00 206.00
C 308.00 201.67 308.00 197.33 308.00 193.00
C 297.33 193.00 286.67 193.00 276.00 193.00
C 276.00 172.67 276.00 152.33 276.00 132.00
C 272.23 133.76 264.36 129.65 261.00 132.00
C 261.00 156.67 261.00 181.33 261.00 206.00 Z"/>
</g>
<g fill="None" fill-opacity="0.0" stroke="#0F2C70" stroke-opacity="1.00" stroke-width="0.3"><path d="
M 722.00 149.00 
C 686.79 147.12 680.92 201.82 716.00 207.00 C 751.08 212.18 757.61 150.90 722.00 149.00
M 722.00 161.00 
C 738.32 163.78 734.25 198.72 717.00 195.00 C 699.75 191.28 704.76 158.06 722.00 161.00 Z"/>
</g>
<g fill="None" fill-opacity="0.0" stroke="#0E2D71" stroke-opacity="1.00" stroke-width="0.3"><path d="
M 977.00 165.00 
C 985.10 158.31 979.89 153.21 972.07 150.93 C 964.25 148.64 955.76 148.77 949.08 153.08 C 942.40 157.39 939.24 164.75 942.22 171.78 C 945.21 178.80 951.70 182.88 959.78 183.22 C 967.86 183.56 975.31 192.66 965.07 195.07 C 954.84 197.49 952.97 193.06 945.00 189.00
C 944.30 192.76 939.45 194.25 939.00 198.00
C 945.22 204.34 953.17 207.13 962.00 207.00 C 970.82 206.87 977.88 204.45 982.68 196.68 C 987.48 188.91 981.42 178.17 975.07 174.93 C 968.73 171.69 953.68 172.68 955.08 164.08 C 956.48 155.49 973.53 162.22 977.00 165.00 Z"/>
</g>
<g fill="None" fill-opacity="0.0" stroke="#5F7EAA" stroke-opacity="1.00" stroke-width="0.3"><path d="
M 404.00 151.00 
C 407.89 152.45 414.37 149.06 418.00 151.00
C 416.22 149.62 405.51 148.65 404.00 151.00 Z"/>
</g>
<g fill="None" fill-opacity="0.0" stroke="#5F7FAC" stroke-opacity="1.00" stroke-width="0.3"><path d="
M 444.00 151.00 
C 449.00 151.00 454.00 151.00 459.00 151.00
C 457.59 148.75 445.77 149.42 444.00 151.00 Z"/>
</g>
<g fill="None" fill-opacity="0.0" stroke="#0E2D71" stroke-opacity="1.00" stroke-width="0.3"><path d="
M 500.00 165.00 
C 510.99 152.61 493.70 149.33 482.00 150.00 C 470.30 150.67 461.08 159.85 465.23 172.77 C 469.38 185.69 487.35 178.56 492.74 188.26 C 498.13 197.95 471.00 197.68 468.00 189.00
C 466.05 191.71 463.99 194.27 462.00 197.00
C 468.72 205.28 481.03 209.14 491.78 206.78 C 502.53 204.41 510.05 194.89 505.92 183.08 C 501.79 171.26 488.08 176.39 479.70 169.30 C 471.33 162.20 494.86 155.56 500.00 165.00 Z"/>
</g>
<g fill="None" fill-opacity="0.0" stroke="#607FAC" stroke-opacity="1.00" stroke-width="0.3"><path d="
M 756.00 151.00 
C 761.00 151.00 766.00 151.00 771.00 151.00
C 769.46 149.24 757.46 148.91 756.00 151.00 Z"/>
</g>
<g fill="None" fill-opacity="0.0" stroke="#0F2E71" stroke-opacity="1.00" stroke-width="0.3"><path d="
M 771.00 151.00 
C 766.00 151.00 761.00 151.00 756.00 151.00
C 756.00 169.33 756.00 187.67 756.00 206.00
C 761.00 206.00 766.00 206.00 771.00 206.00
C 771.66 190.68 764.69 157.21 790.00 164.00
C 790.00 159.33 790.00 154.67 790.00 150.00
C 782.34 148.71 775.91 151.28 771.00 157.00
C 770.25 155.65 771.99 152.13 771.00 151.00 Z"/>
</g>
<g fill="None" fill-opacity="0.0" stroke="#607FAB" stroke-opacity="1.00" stroke-width="0.3"><path d="
M 800.00 151.00 
C 804.67 151.00 809.33 151.00 814.00 151.00
C 812.49 149.28 801.44 148.95 800.00 151.00 Z"/>
</g>
<g fill="None" fill-opacity="0.0" stroke="#0D2B6E" stroke-opacity="1.00" stroke-width="0.3"><path d="
M 814.00 151.00 
C 809.33 151.00 804.67 151.00 800.00 151.00
C 800.00 176.33 800.00 201.67 800.00 227.00
C 804.67 227.00 809.33 227.00 814.00 227.00
C 814.00 218.00 814.00 209.00 814.00 200.00
C 822.73 210.06 840.25 208.65 847.70 197.70 C 855.15 186.74 855.62 168.79 848.25 157.75 C 840.87 146.71 821.40 147.06 814.00 157.00
C 813.25 155.65 814.99 152.13 814.00 151.00
M 829.00 161.00 
C 844.56 163.41 841.37 197.89 824.33 194.67 C 807.28 191.44 811.02 158.22 829.00 161.00 Z"/>
</g>
<g fill="None" fill-opacity="0.0" stroke="#5E7EAB" stroke-opacity="1.00" stroke-width="0.3"><path d="
M 881.00 152.00 
C 881.98 150.44 893.16 150.02 895.00 151.00
C 891.62 148.38 881.18 149.46 881.00 152.00 Z"/>
</g>
<g fill="None" fill-opacity="0.0" stroke="#5F7EAC" stroke-opacity="1.00" stroke-width="0.3"><path d="
M 921.00 152.00 
C 924.57 148.53 932.70 152.53 937.00 151.00
C 935.22 148.15 922.78 149.58 921.00 152.00 Z"/>
</g>
<g fill="None" fill-opacity="0.0" stroke="#0E2B6F" stroke-opacity="1.00" stroke-width="0.3"><path d="
M 1214.00 150.00 
C 1188.91 144.80 1174.91 166.31 1180.02 187.98 C 1185.14 209.65 1211.88 211.21 1225.23 198.23 C 1238.58 185.25 1233.06 153.95 1214.00 150.00
M 1209.00 161.00 
C 1225.44 164.51 1218.88 200.64 1202.00 195.00 C 1185.12 189.36 1191.80 157.33 1209.00 161.00 Z"/>
</g>
<g fill="None" fill-opacity="0.0" stroke="#607EAC" stroke-opacity="1.00" stroke-width="0.3"><path d="
M 1244.00 151.00 
C 1248.57 150.34 1253.40 151.49 1258.00 151.00
C 1256.09 148.82 1246.15 149.42 1244.00 151.00 Z"/>
</g>
<g fill="None" fill-opacity="0.0" stroke="#0D2B6F" stroke-opacity="1.00" stroke-width="0.3"><path d="
M 1258.00 151.00 
C 1253.40 151.49 1248.57 150.34 1244.00 151.00
C 1243.70 151.22 1243.05 151.65 1243.00 152.00
C 1247.89 168.33 1241.41 188.73 1244.00 206.00
C 1248.67 206.00 1253.33 206.00 1258.00 206.00
C 1258.32 190.11 1252.14 156.72 1278.00 164.00
C 1278.00 159.33 1278.00 154.67 1278.00 150.00
C 1270.01 148.72 1263.06 150.71 1258.00 157.00
C 1257.25 155.65 1258.99 152.13 1258.00 151.00 Z"/>
</g>
<g fill="None" fill-opacity="0.0" stroke="#5F7EAB" stroke-opacity="1.00" stroke-width="0.3"><path d="
M 1286.00 151.00 
C 1290.67 151.00 1295.33 151.00 1300.00 151.00
C 1300.24 152.18 1299.28 157.81 1301.00 156.00
C 1301.51 149.37 1289.29 146.31 1286.00 151.00 Z"/>
</g>
<g fill="None" fill-opacity="0.0" stroke="#0D2C70" stroke-opacity="1.00" stroke-width="0.3"><path d="
M 1301.00 156.00 
C 1299.28 157.81 1300.24 152.18 1300.00 151.00
C 1295.33 151.00 1290.67 151.00 1286.00 151.00
C 1286.00 176.33 1286.00 201.67 1286.00 227.00
C 1290.67 227.00 1295.33 227.00 1300.00 227.00
C 1300.00 218.00 1300.00 209.00 1300.00 200.00
C 1306.26 204.69 1304.30 203.81 1312.78 206.22 C 1321.26 208.64 1333.08 202.89 1336.07 194.07 C 1339.07 185.25 1338.53 188.38 1339.00 179.00 C 1339.47 169.62 1335.90 158.64 1328.23 152.77 C 1320.55 146.91 1320.01 152.44 1313.00 150.00 C 1305.99 147.56 1306.03 156.10 1301.00 156.00
M 1315.00 161.00 
C 1330.77 164.09 1326.82 197.98 1310.00 195.00 C 1293.18 192.01 1297.16 157.50 1315.00 161.00 Z"/>
</g>
<g fill="None" fill-opacity="0.0" stroke="#0D2D71" stroke-opacity="1.00" stroke-width="0.3"><path d="
M 459.00 151.00 
C 454.00 151.00 449.00 151.00 444.00 151.00
C 439.59 163.94 436.01 177.59 431.00 190.00
C 428.09 184.42 427.94 175.33 424.93 170.07 C 421.91 164.82 422.58 154.54 418.00 151.00
C 414.37 149.06 407.89 152.45 404.00 151.00
C 408.72 169.73 416.89 187.43 422.00 206.00
C 426.18 204.42 437.06 208.44 440.22 205.22 C 443.39 202.01 443.12 195.93 445.02 192.02 C 446.93 188.12 448.47 181.92 450.02 178.02 C 451.57 174.13 453.49 167.74 454.23 164.23 C 454.97 160.72 460.76 153.82 459.00 151.00 Z"/>
</g>
<g fill="None" fill-opacity="0.0" stroke="#0E2D72" stroke-opacity="1.00" stroke-width="0.3"><path d="
M 881.00 152.00 
C 886.49 170.18 893.68 187.79 899.00 206.00
C 905.33 206.00 911.67 206.00 918.00 206.00
C 918.89 201.34 920.74 195.60 922.23 191.23 C 923.72 186.86 926.26 182.44 927.22 178.22 C 928.18 174.01 932.04 168.10 932.22 164.22 C 932.40 160.35 938.86 153.97 937.00 151.00
C 932.70 152.53 924.57 148.53 921.00 152.00
C 917.13 164.72 912.88 177.88 908.00 190.00
C 905.09 184.42 904.94 175.33 901.93 170.07 C 898.91 164.82 899.58 154.54 895.00 151.00
C 893.16 150.02 881.98 150.44 881.00 152.00 Z"/>
</g>
<g fill="None" fill-opacity="0.0" stroke="#5B79A6" stroke-opacity="1.00" stroke-width="0.3"><path d="
M 1244.00 206.00 
C 1241.41 188.73 1247.89 168.33 1243.00 152.00
C 1242.21 157.52 1243.06 165.60 1243.00 171.00 C 1242.94 176.40 1242.25 184.32 1243.00 189.00 C 1243.75 193.68 1240.47 203.53 1244.00 206.00 Z"/>
</g>
<g fill="None" fill-opacity="0.0" stroke="#C5E8FB" stroke-opacity="1.00" stroke-width="0.3"><path d="
M 722.00 161.00 
C 704.76 158.06 699.75 191.28 717.00 195.00 C 734.25 198.72 738.32 163.78 722.00 161.00 Z"/>
</g>
<g fill="None" fill-opacity="0.0" stroke="#C5E7FA" stroke-opacity="1.00" stroke-width="0.3"><path d="
M 829.00 161.00 
C 811.02 158.22 807.28 191.44 824.33 194.67 C 841.37 197.89 844.56 163.41 829.00 161.00 Z"/>
</g>
<g fill="None" fill-opacity="0.0" stroke="#C5E8FB" stroke-opacity="1.00" stroke-width="0.3"><path d="
M 1209.00 161.00 
C 1191.80 157.33 1185.12 189.36 1202.00 195.00 C 1218.88 200.64 1225.44 164.51 1209.00 161.00 Z"/>
</g>
<g fill="None" fill-opacity="0.0" stroke="#C5E8FB" stroke-opacity="1.00" stroke-width="0.3"><path d="
M 1315.00 161.00 
C 1297.16 157.50 1293.18 192.01 1310.00 195.00 C 1326.82 197.98 1330.77 164.09 1315.00 161.00 Z"/>
</g>
<g fill="None" fill-opacity="0.0" stroke="#6685AE" stroke-opacity="1.00" stroke-width="0.3"><path d="
M 313.00 174.00 
C 312.86 170.39 312.80 166.61 313.00 163.00
C 312.41 166.66 312.47 170.30 313.00 174.00 Z"/>
</g>
<g fill="None" fill-opacity="0.0" stroke="#0D2D73" stroke-opacity="1.00" stroke-width="0.3"><path d="
M 1125.00 352.00 
C 1122.72 370.36 1125.00 390.48 1125.00 409.00
C 1125.00 426.63 1130.61 447.66 1136.78 463.22 C 1142.95 478.79 1150.71 493.43 1161.25 505.75 C 1171.78 518.08 1182.27 529.37 1195.70 537.30 C 1209.13 545.24 1225.80 558.00 1242.00 558.00
C 1258.42 558.00 1273.87 544.39 1287.77 536.77 C 1301.67 529.15 1312.14 517.55 1323.25 505.25 C 1334.36 492.95 1341.53 479.00 1348.23 463.23 C 1354.93 447.46 1360.00 426.24 1360.00 408.00
C 1360.00 389.97 1363.17 368.70 1360.00 351.00
C 1355.63 337.17 1334.09 345.02 1323.02 340.98 C 1311.96 336.93 1297.71 336.91 1287.07 330.93 C 1276.44 324.94 1266.58 324.00 1257.08 314.92 C 1247.58 305.84 1235.81 306.26 1226.70 315.70 C 1217.59 325.14 1207.07 325.23 1196.69 331.69 C 1186.32 338.15 1171.27 337.47 1160.22 341.22 C 1149.18 344.98 1128.36 338.41 1125.00 352.00
M 1341.00 363.00 
C 1341.27 381.09 1341.42 404.16 1339.07 421.07 C 1336.72 437.99 1332.65 453.73 1325.08 468.08 C 1317.51 482.42 1309.71 490.97 1298.75 502.75 C 1287.80 514.54 1276.59 519.08 1263.75 528.75 C 1250.92 538.43 1234.72 538.25 1221.31 529.70 C 1207.89 521.14 1197.69 515.32 1186.75 503.25 C 1175.81 491.17 1168.47 482.49 1161.08 467.92 C 1153.69 453.36 1148.17 439.27 1146.00 422.00 C 1143.83 404.73 1143.50 381.44 1144.00 363.00
C 1152.63 363.21 1161.96 361.66 1170.02 360.02 C 1178.09 358.39 1186.51 356.83 1194.02 354.02 C 1201.53 351.22 1208.17 349.01 1215.08 345.08 C 1221.98 341.15 1227.11 340.03 1233.25 334.25 C 1239.38 328.46 1244.89 328.15 1251.08 333.92 C 1257.27 339.69 1263.31 340.72 1270.08 344.92 C 1276.84 349.13 1283.18 350.44 1290.68 353.32 C 1298.17 356.20 1306.89 357.24 1315.00 359.00 C 1323.12 360.76 1332.43 362.52 1341.00 363.00 Z"/>
</g>
<g fill="None" fill-opacity="0.0" stroke="#C7EAFD" stroke-opacity="1.00" stroke-width="0.3"><path d="
M 1341.00 363.00 
C 1332.43 362.52 1323.12 360.76 1315.00 359.00 C 1306.89 357.24 1298.17 356.20 1290.68 353.32 C 1283.18 350.44 1276.84 349.13 1270.08 344.92 C 1263.31 340.72 1257.27 339.69 1251.08 333.92 C 1244.89 328.15 1239.38 328.46 1233.25 334.25 C 1227.11 340.03 1221.98 341.15 1215.08 345.08 C 1208.17 349.01 1201.53 351.22 1194.02 354.02 C 1186.51 356.83 1178.09 358.39 1170.02 360.02 C 1161.96 361.66 1152.63 363.21 1144.00 363.00
C 1143.50 381.44 1143.83 404.73 1146.00 422.00 C 1148.17 439.27 1153.69 453.36 1161.08 467.92 C 1168.47 482.49 1175.81 491.17 1186.75 503.25 C 1197.69 515.32 1207.89 521.14 1221.31 529.70 C 1234.72 538.25 1250.92 538.43 1263.75 528.75 C 1276.59 519.08 1287.80 514.54 1298.75 502.75 C 1309.71 490.97 1317.51 482.42 1325.08 468.08 C 1332.65 453.73 1336.72 437.99 1339.07 421.07 C 1341.42 404.16 1341.27 381.09 1341.00 363.00
M 1234.00 460.00 
C 1242.24 453.26 1249.30 443.03 1256.75 435.75 C 1264.20 428.48 1271.45 417.31 1278.75 410.75 C 1286.05 404.20 1293.89 385.67 1305.69 393.31 C 1317.50 400.95 1302.11 414.63 1295.75 421.75 C 1289.40 428.88 1279.99 438.62 1273.75 446.75 C 1267.50 454.87 1257.33 462.87 1251.75 471.75 C 1246.18 480.64 1231.86 491.28 1224.75 480.25 C 1217.64 469.22 1208.32 465.56 1202.75 455.25 C 1197.18 444.94 1180.48 440.67 1184.33 427.33 C 1188.18 413.99 1206.57 425.74 1211.25 434.75 C 1215.93 443.77 1228.70 451.06 1234.00 460.00 Z"/>
</g>
<g fill="None" fill-opacity="0.0" stroke="#FEDC46" stroke-opacity="1.00" stroke-width="0.3"><path d="
M 206.00 725.00 
C 254.55 727.11 305.65 721.45 355.00 724.00 C 404.35 726.55 455.52 720.31 504.00 725.00
C 506.67 725.00 509.33 725.00 512.00 725.00
C 511.96 725.00 512.00 724.00 512.00 724.00
C 502.61 723.64 494.68 719.48 492.00 710.00
C 486.53 690.66 492.82 667.70 491.00 647.00 C 489.18 626.30 491.83 604.05 491.00 583.00 C 490.17 561.95 491.39 540.20 491.00 519.00 C 490.61 497.80 491.20 476.26 491.00 455.00 C 490.80 433.74 491.15 412.28 491.00 391.00
C 453.17 390.33 414.01 392.33 377.00 390.00
C 360.31 384.36 362.81 365.68 349.25 355.75 C 335.68 345.83 310.88 352.88 293.00 351.00 C 275.12 349.12 249.35 352.95 231.00 351.00 C 212.65 349.05 189.56 349.79 191.00 372.00 C 192.44 394.21 190.34 411.85 191.00 433.00 C 191.66 454.15 190.65 474.43 191.00 495.00 C 191.35 515.57 190.73 535.99 191.00 556.00 C 191.27 576.01 190.63 598.86 191.00 618.00 C 191.37 637.14 190.28 661.69 191.00 679.00 C 191.72 696.31 184.74 722.03 206.00 725.00
M 414.00 521.00 
C 422.95 521.71 432.80 527.72 435.00 537.00
C 430.73 538.56 427.54 542.23 423.00 543.00
C 414.21 521.49 389.51 535.73 390.00 556.00 C 390.49 576.27 414.03 589.54 425.00 568.00
C 428.36 569.70 431.65 571.31 435.00 573.00
C 426.84 596.50 392.34 595.83 381.08 575.92 C 369.82 556.01 377.14 523.29 403.00 521.00
C 406.77 520.32 410.27 520.28 414.00 521.00
M 287.00 578.00 
C 296.94 578.67 307.08 577.10 317.00 578.00
C 318.64 579.57 318.99 588.61 317.00 590.00
C 312.08 593.45 301.07 588.20 295.00 590.00 C 288.93 591.80 279.39 588.65 273.00 590.00
C 273.00 567.67 273.00 545.33 273.00 523.00
C 274.51 520.84 283.33 521.76 286.00 522.00
C 289.69 525.54 285.96 534.68 287.00 540.00 C 288.04 545.32 286.46 553.20 287.00 559.00 C 287.54 564.80 286.59 572.06 287.00 578.00
M 372.00 579.00 
C 373.72 581.46 370.71 587.24 372.00 590.00
C 357.00 590.00 342.00 590.00 327.00 590.00
C 322.53 586.87 327.40 573.84 326.00 568.00 C 324.60 562.16 326.73 551.71 326.00 545.00 C 325.27 538.29 326.55 528.95 326.00 522.00
C 330.33 522.00 334.67 522.00 339.00 522.00
C 339.50 522.00 340.00 522.00 340.00 522.00
C 343.68 525.56 339.97 534.67 341.00 540.00 C 342.03 545.33 340.46 553.19 341.00 559.00 C 341.54 564.81 340.60 572.06 341.00 578.00
C 351.17 578.67 362.66 576.67 372.00 579.00 Z"/>
</g>
<g fill="None" fill-opacity="0.0" stroke="#6FC3FE" stroke-opacity="1.00" stroke-width="0.3"><path d="
M 492.00 390.00 
C 492.00 416.62 491.71 443.40 492.00 470.00 C 492.29 496.60 491.22 523.46 492.00 550.00 C 492.78 576.54 490.22 603.61 492.00 630.00 C 493.78 656.39 488.02 683.94 492.00 710.00
C 494.68 719.48 502.61 723.64 512.00 724.00
C 571.02 726.25 629.95 721.87 689.00 724.00 C 748.05 726.13 807.98 720.58 867.00 724.00
C 846.61 718.68 853.81 693.90 853.00 676.00 C 852.19 658.10 853.30 633.51 853.00 614.00 C 852.70 594.49 853.00 571.18 853.00 551.00 C 853.00 530.82 852.68 509.43 853.00 489.00 C 853.32 468.57 852.16 447.52 853.00 427.00 C 853.84 406.49 851.48 385.32 854.00 365.00
C 853.24 368.08 853.45 373.54 853.00 377.00 C 852.55 380.46 854.84 387.37 853.00 390.00
C 850.10 394.15 838.43 389.79 833.00 391.00 C 827.57 392.21 818.29 390.45 812.00 391.00 C 805.71 391.55 797.68 390.75 791.00 391.00 C 784.32 391.25 776.84 390.88 770.00 391.00 C 763.16 391.12 755.91 390.94 749.00 391.00 C 742.09 391.06 734.91 390.96 728.00 391.00 C 721.09 391.04 713.85 390.94 707.00 391.00 C 700.15 391.06 693.04 391.34 687.00 390.00
C 674.94 387.33 670.73 377.29 664.25 366.75 C 657.78 356.21 649.41 348.90 635.00 351.00 C 620.59 353.10 603.53 349.68 589.00 351.00 C 574.47 352.32 558.23 349.61 544.00 351.00 C 529.77 352.40 512.93 347.67 500.23 353.23 C 487.53 358.79 492.00 378.93 492.00 390.00
M 591.00 529.00 
C 588.15 532.59 585.49 536.49 583.00 540.00
C 579.33 534.73 560.91 525.71 558.08 537.08 C 555.26 548.45 573.23 548.83 581.68 552.32 C 590.13 555.82 596.56 567.95 591.69 577.69 C 586.82 587.44 576.47 591.70 566.00 591.00 C 555.53 590.30 545.22 586.91 541.00 577.00
C 543.91 574.94 546.74 572.30 548.00 569.00
C 555.07 574.07 564.21 585.54 574.69 577.69 C 585.18 569.84 572.41 560.55 562.33 560.67 C 552.25 560.79 543.94 551.07 544.00 541.00 C 544.06 530.93 551.45 522.10 562.01 521.01 C 572.56 519.92 582.73 521.55 591.00 529.00
M 680.00 538.00 
C 675.98 540.03 672.02 541.98 668.00 544.00
C 666.89 531.51 646.81 528.52 640.25 538.25 C 633.68 547.98 633.95 563.60 640.75 573.25 C 647.55 582.89 667.59 580.44 668.00 567.00
C 676.95 567.79 682.33 574.22 675.70 580.70 C 669.06 587.17 664.77 590.17 655.99 590.99 C 647.22 591.81 638.58 589.51 631.77 584.23 C 624.96 578.95 623.99 571.91 622.00 564.00 C 620.01 556.08 621.57 546.21 624.77 538.77 C 627.97 531.33 632.47 525.97 640.03 523.03 C 647.59 520.08 657.39 519.04 665.02 521.98 C 672.65 524.91 678.03 530.45 680.00 538.00
M 716.00 538.00 
C 746.24 544.26 734.99 598.67 704.33 590.67 C 673.67 582.67 682.53 531.07 716.00 538.00
M 755.00 539.00 
C 755.99 540.13 754.25 543.65 755.00 545.00
C 759.64 540.18 764.80 536.31 772.00 538.00
C 773.31 538.91 774.07 548.48 773.00 550.00
C 770.32 553.82 760.60 548.32 758.08 554.08 C 755.57 559.85 754.32 563.35 755.00 570.00 C 755.68 576.65 754.49 583.34 755.00 590.00
C 750.67 590.00 746.33 590.00 742.00 590.00
C 742.00 573.00 742.00 556.00 742.00 539.00
C 743.41 536.99 753.53 537.32 755.00 539.00
M 792.00 539.00 
C 792.83 539.76 791.37 543.02 792.00 544.00
C 809.06 528.07 828.46 544.53 828.00 564.00 C 827.54 583.47 809.86 600.78 792.00 585.00
C 792.00 593.00 792.00 601.00 792.00 609.00
C 788.71 613.71 776.59 609.88 779.00 603.00 C 781.41 596.12 777.79 588.93 779.00 582.00 C 780.21 575.07 778.17 567.94 779.00 561.00 C 779.83 554.06 778.01 546.90 779.00 540.00
C 779.05 539.65 779.70 539.22 780.00 539.00
C 782.21 537.37 789.91 537.08 792.00 539.00 Z"/>
</g>
<g fill="None" fill-opacity="0.0" stroke="#3688E9" stroke-opacity="1.00" stroke-width="0.3"><path d="
M 854.00 365.00 
C 851.48 385.32 853.84 406.49 853.00 427.00 C 852.16 447.52 853.32 468.57 853.00 489.00 C 852.68 509.43 853.00 530.82 853.00 551.00 C 853.00 571.18 852.70 594.49 853.00 614.00 C 853.30 633.51 852.19 658.10 853.00 676.00 C 853.81 693.90 846.61 718.68 867.00 724.00
C 868.58 724.09 870.03 724.83 871.00 725.00
C 893.57 725.00 916.46 724.91 939.00 725.00 C 961.54 725.09 983.48 724.75 1006.00 725.00 C 1028.52 725.25 1050.37 724.43 1073.00 725.00 C 1095.63 725.57 1117.05 723.72 1140.00 725.00 C 1162.95 726.28 1184.46 722.21 1208.00 725.00 C 1231.54 727.79 1245.17 715.81 1242.00 692.00 C 1238.83 668.19 1243.66 648.11 1242.00 625.00 C 1240.34 601.89 1243.24 580.91 1242.00 558.00
C 1225.80 558.00 1209.13 545.24 1195.70 537.30 C 1182.27 529.37 1171.78 518.08 1161.25 505.75 C 1150.71 493.43 1142.95 478.79 1136.78 463.22 C 1130.61 447.66 1125.00 426.63 1125.00 409.00
C 1124.48 403.63 1124.00 397.05 1124.00 391.00
C 1109.18 392.34 1092.83 391.27 1078.00 391.00 C 1063.17 390.73 1045.75 393.41 1032.00 390.00
C 1016.41 386.14 1014.99 371.46 1004.30 359.70 C 993.61 347.94 971.80 350.62 955.00 351.00 C 938.20 351.38 913.70 350.44 897.00 351.00 C 880.30 351.56 858.85 345.44 854.00 365.00
M 956.00 541.00 
C 951.46 541.52 947.28 543.47 943.00 545.00
C 943.72 532.27 923.63 528.21 917.25 538.25 C 910.87 548.29 911.23 562.59 917.25 572.75 C 923.28 582.90 943.29 580.40 943.00 567.00
C 947.67 566.71 951.71 568.81 956.00 570.00
C 952.79 591.26 922.43 598.07 908.25 583.75 C 894.07 569.44 894.37 542.56 908.25 528.25 C 922.12 513.94 954.14 518.39 956.00 541.00
M 1041.00 541.00 
C 1036.95 542.23 1032.99 543.59 1029.00 545.00
C 1029.55 532.00 1009.71 528.29 1003.25 538.25 C 996.79 548.20 997.36 562.53 1003.25 572.75 C 1009.15 582.96 1029.39 580.36 1029.00 567.00
C 1033.61 566.92 1037.63 569.06 1042.00 570.00
C 1039.09 591.39 1008.67 597.86 994.25 583.75 C 979.84 569.64 980.56 542.42 994.25 528.25 C 1007.94 514.08 1039.70 518.55 1041.00 541.00
M 1079.00 538.00 
C 1108.61 544.89 1094.53 600.71 1064.78 590.22 C 1035.03 579.74 1047.08 530.58 1079.00 538.00
M 1134.00 538.00 
C 1134.00 542.67 1134.00 547.33 1134.00 552.00
C 1110.52 544.72 1118.02 576.22 1117.00 590.00
C 1112.67 590.00 1108.33 590.00 1104.00 590.00
C 1104.00 573.00 1104.00 556.00 1104.00 539.00
C 1110.22 539.11 1118.39 536.96 1118.00 545.00
C 1119.70 538.01 1127.86 537.27 1134.00 538.00
M 1154.00 586.00 
C 1154.00 593.67 1154.00 601.33 1154.00 609.00
C 1149.67 609.00 1145.33 609.00 1141.00 609.00
C 1141.00 585.67 1141.00 562.33 1141.00 539.00
C 1145.23 540.19 1155.07 535.81 1154.00 543.00
C 1170.79 528.51 1188.72 545.85 1188.99 564.01 C 1189.27 582.16 1171.21 600.62 1154.00 586.00 Z"/>
</g>
<g fill="None" fill-opacity="0.0" stroke="#5275A1" stroke-opacity="1.00" stroke-width="0.3"><path d="
M 1360.00 408.00 
C 1360.83 399.42 1361.68 388.30 1361.00 379.00 C 1360.33 369.70 1362.66 359.41 1360.00 351.00
C 1363.17 368.70 1360.00 389.97 1360.00 408.00 Z"/>
</g>
<g fill="None" fill-opacity="0.0" stroke="#4066A5" stroke-opacity="1.00" stroke-width="0.3"><path d="
M 1124.00 390.00 
C 1124.00 390.50 1124.00 391.00 1124.00 391.00
C 1124.00 397.05 1124.48 403.63 1125.00 409.00
C 1125.00 390.48 1122.72 370.36 1125.00 352.00
C 1122.24 363.14 1123.98 377.90 1124.00 390.00 Z"/>
</g>
<g fill="None" fill-opacity="0.0" stroke="#CFD993" stroke-opacity="1.00" stroke-width="0.3"><path d="
M 492.00 710.00 
C 488.02 683.94 493.78 656.39 492.00 630.00 C 490.22 603.61 492.78 576.54 492.00 550.00 C 491.22 523.46 492.29 496.60 492.00 470.00 C 491.71 443.40 492.00 416.62 492.00 390.00
C 473.06 388.61 452.81 391.86 434.00 390.00 C 415.19 388.14 395.42 393.62 377.00 390.00
C 414.01 392.33 453.17 390.33 491.00 391.00
C 491.15 412.28 490.80 433.74 491.00 455.00 C 491.20 476.26 490.61 497.80 491.00 519.00 C 491.39 540.20 490.17 561.95 491.00 583.00 C 491.83 604.05 489.18 626.30 491.00 647.00 C 492.82 667.70 486.53 690.66 492.00 710.00 Z"/>
</g>
<g fill="None" fill-opacity="0.0" stroke="#A1D9F9" stroke-opacity="1.00" stroke-width="0.3"><path d="
M 853.00 390.00 
C 825.45 388.90 797.52 391.47 770.00 390.00 C 742.48 388.53 714.38 392.81 687.00 390.00
C 693.04 391.34 700.15 391.06 707.00 391.00 C 713.85 390.94 721.09 391.04 728.00 391.00 C 734.91 390.96 742.09 391.06 749.00 391.00 C 755.91 390.94 763.16 391.12 770.00 391.00 C 776.84 390.88 784.32 391.25 791.00 391.00 C 797.68 390.75 805.71 391.55 812.00 391.00 C 818.29 390.45 827.57 392.21 833.00 391.00 C 838.43 389.79 850.10 394.15 853.00 390.00 Z"/>
</g>
<g fill="None" fill-opacity="0.0" stroke="#80BBEF" stroke-opacity="1.00" stroke-width="0.3"><path d="
M 1124.00 391.00 
C 1124.00 391.00 1124.00 390.50 1124.00 390.00
C 1093.68 387.26 1062.20 393.74 1032.00 390.00
C 1045.75 393.41 1063.17 390.73 1078.00 391.00 C 1092.83 391.27 1109.18 392.34 1124.00 391.00 Z"/>
</g>
<g fill="None" fill-opacity="0.0" stroke="#0D2D72" stroke-opacity="1.00" stroke-width="0.3"><path d="
M 1234.00 460.00 
C 1228.70 451.06 1215.93 443.77 1211.25 434.75 C 1206.57 425.74 1188.18 413.99 1184.33 427.33 C 1180.48 440.67 1197.18 444.94 1202.75 455.25 C 1208.32 465.56 1217.64 469.22 1224.75 480.25 C 1231.86 491.28 1246.18 480.64 1251.75 471.75 C 1257.33 462.87 1267.50 454.87 1273.75 446.75 C 1279.99 438.62 1289.40 428.88 1295.75 421.75 C 1302.11 414.63 1317.50 400.95 1305.69 393.31 C 1293.89 385.67 1286.05 404.20 1278.75 410.75 C 1271.45 417.31 1264.20 428.48 1256.75 435.75 C 1249.30 443.03 1242.24 453.26 1234.00 460.00 Z"/>
</g>
<g fill="None" fill-opacity="0.0" stroke="#8B865D" stroke-opacity="1.00" stroke-width="0.3"><path d="
M 403.00 521.00 
C 406.53 520.76 410.47 520.72 414.00 521.00
C 410.27 520.28 406.77 520.32 403.00 521.00 Z"/>
</g>
<g fill="None" fill-opacity="0.0" stroke="#0D2E74" stroke-opacity="1.00" stroke-width="0.3"><path d="
M 591.00 529.00 
C 582.73 521.55 572.56 519.92 562.01 521.01 C 551.45 522.10 544.06 530.93 544.00 541.00 C 543.94 551.07 552.25 560.79 562.33 560.67 C 572.41 560.55 585.18 569.84 574.69 577.69 C 564.21 585.54 555.07 574.07 548.00 569.00
C 546.74 572.30 543.91 574.94 541.00 577.00
C 545.22 586.91 555.53 590.30 566.00 591.00 C 576.47 591.70 586.82 587.44 591.69 577.69 C 596.56 567.95 590.13 555.82 581.68 552.32 C 573.23 548.83 555.26 548.45 558.08 537.08 C 560.91 525.71 579.33 534.73 583.00 540.00
C 585.49 536.49 588.15 532.59 591.00 529.00 Z"/>
</g>
<g fill="None" fill-opacity="0.0" stroke="#0D2F74" stroke-opacity="1.00" stroke-width="0.3"><path d="
M 680.00 538.00 
C 678.03 530.45 672.65 524.91 665.02 521.98 C 657.39 519.04 647.59 520.08 640.03 523.03 C 632.47 525.97 627.97 531.33 624.77 538.77 C 621.57 546.21 620.01 556.08 622.00 564.00 C 623.99 571.91 624.96 578.95 631.77 584.23 C 638.58 589.51 647.22 591.81 655.99 590.99 C 664.77 590.17 669.06 587.17 675.70 580.70 C 682.33 574.22 676.95 567.79 668.00 567.00
C 667.59 580.44 647.55 582.89 640.75 573.25 C 633.95 563.60 633.68 547.98 640.25 538.25 C 646.81 528.52 666.89 531.51 668.00 544.00
C 672.02 541.98 675.98 540.03 680.00 538.00 Z"/>
</g>
<g fill="None" fill-opacity="0.0" stroke="#0D2E73" stroke-opacity="1.00" stroke-width="0.3"><path d="
M 956.00 541.00 
C 954.14 518.39 922.12 513.94 908.25 528.25 C 894.37 542.56 894.07 569.44 908.25 583.75 C 922.43 598.07 952.79 591.26 956.00 570.00
C 951.71 568.81 947.67 566.71 943.00 567.00
C 943.29 580.40 923.28 582.90 917.25 572.75 C 911.23 562.59 910.87 548.29 917.25 538.25 C 923.63 528.21 943.72 532.27 943.00 545.00
C 947.28 543.47 951.46 541.52 956.00 541.00 Z"/>
</g>
<g fill="None" fill-opacity="0.0" stroke="#0D2E73" stroke-opacity="1.00" stroke-width="0.3"><path d="
M 1041.00 541.00 
C 1039.70 518.55 1007.94 514.08 994.25 528.25 C 980.56 542.42 979.84 569.64 994.25 583.75 C 1008.67 597.86 1039.09 591.39 1042.00 570.00
C 1037.63 569.06 1033.61 566.92 1029.00 567.00
C 1029.39 580.36 1009.15 582.96 1003.25 572.75 C 997.36 562.53 996.79 548.20 1003.25 538.25 C 1009.71 528.29 1029.55 532.00 1029.00 545.00
C 1032.99 543.59 1036.95 542.23 1041.00 541.00 Z"/>
</g>
<g fill="None" fill-opacity="0.0" stroke="#0F2D72" stroke-opacity="1.00" stroke-width="0.3"><path d="
M 414.00 521.00 
C 410.47 520.72 406.53 520.76 403.00 521.00
C 377.14 523.29 369.82 556.01 381.08 575.92 C 392.34 595.83 426.84 596.50 435.00 573.00
C 431.65 571.31 428.36 569.70 425.00 568.00
C 414.03 589.54 390.49 576.27 390.00 556.00 C 389.51 535.73 414.21 521.49 423.00 543.00
C 427.54 542.23 430.73 538.56 435.00 537.00
C 432.80 527.72 422.95 521.71 414.00 521.00 Z"/>
</g>
<g fill="None" fill-opacity="0.0" stroke="#49535C" stroke-opacity="1.00" stroke-width="0.3"><path d="
M 273.00 523.00 
C 277.31 522.71 281.70 523.39 286.00 523.00
C 286.00 522.50 286.00 522.00 286.00 522.00
C 283.33 521.76 274.51 520.84 273.00 523.00 Z"/>
</g>
<g fill="None" fill-opacity="0.0" stroke="#988F58" stroke-opacity="1.00" stroke-width="0.3"><path d="
M 286.00 523.00 
C 286.00 528.76 285.62 535.32 286.00 541.00 C 286.38 546.68 285.07 554.69 286.00 560.00 C 286.93 565.31 283.43 574.43 287.00 578.00
C 286.59 572.06 287.54 564.80 287.00 559.00 C 286.46 553.20 288.04 545.32 287.00 540.00 C 285.96 534.68 289.69 525.54 286.00 522.00
C 286.00 522.00 286.00 522.50 286.00 523.00 Z"/>
</g>
<g fill="None" fill-opacity="0.0" stroke="#576061" stroke-opacity="1.00" stroke-width="0.3"><path d="
M 327.00 590.00 
C 327.00 567.67 327.00 545.33 327.00 523.00
C 330.83 522.37 335.99 524.28 339.00 522.00
C 334.67 522.00 330.33 522.00 326.00 522.00
C 326.55 528.95 325.27 538.29 326.00 545.00 C 326.73 551.71 324.60 562.16 326.00 568.00 C 327.40 573.84 322.53 586.87 327.00 590.00 Z"/>
</g>
<g fill="None" fill-opacity="0.0" stroke="#0C2B74" stroke-opacity="1.00" stroke-width="0.3"><path d="
M 327.00 590.00 
C 342.00 590.00 357.00 590.00 372.00 590.00
C 370.71 587.24 373.72 581.46 372.00 579.00
C 364.08 576.36 350.34 582.52 343.00 579.00 C 335.66 575.48 341.41 560.04 340.00 552.00 C 338.59 543.96 340.77 530.56 340.00 522.00
C 340.00 522.00 339.50 522.00 339.00 522.00
C 335.99 524.28 330.83 522.37 327.00 523.00
C 327.00 545.33 327.00 567.67 327.00 590.00 Z"/>
</g>
<g fill="None" fill-opacity="0.0" stroke="#88855B" stroke-opacity="1.00" stroke-width="0.3"><path d="
M 372.00 579.00 
C 362.66 576.67 351.17 578.67 341.00 578.00
C 340.60 572.06 341.54 564.81 341.00 559.00 C 340.46 553.19 342.03 545.33 341.00 540.00 C 339.97 534.67 343.68 525.56 340.00 522.00
C 340.77 530.56 338.59 543.96 340.00 552.00 C 341.41 560.04 335.66 575.48 343.00 579.00 C 350.34 582.52 364.08 576.36 372.00 579.00 Z"/>
</g>
<g fill="None" fill-opacity="0.0" stroke="#0B2B73" stroke-opacity="1.00" stroke-width="0.3"><path d="
M 317.00 590.00 
C 317.00 586.33 317.00 582.67 317.00 579.00
C 312.65 579.39 306.21 579.43 302.00 579.00 C 297.79 578.57 289.85 580.85 287.00 578.00
C 283.43 574.43 286.93 565.31 286.00 560.00 C 285.07 554.69 286.38 546.68 286.00 541.00 C 285.62 535.32 286.00 528.76 286.00 523.00
C 281.70 523.39 277.31 522.71 273.00 523.00
C 273.00 545.33 273.00 567.67 273.00 590.00
C 279.39 588.65 288.93 591.80 295.00 590.00 C 301.07 588.20 312.08 593.45 317.00 590.00 Z"/>
</g>
<g fill="None" fill-opacity="0.0" stroke="#0D2E74" stroke-opacity="1.00" stroke-width="0.3"><path d="
M 716.00 538.00 
C 682.53 531.07 673.67 582.67 704.33 590.67 C 734.99 598.67 746.24 544.26 716.00 538.00
M 711.00 548.00 
C 725.97 549.77 723.48 582.05 708.00 580.00 C 692.51 577.95 695.46 546.16 711.00 548.00 Z"/>
</g>
<g fill="None" fill-opacity="0.0" stroke="#4175B5" stroke-opacity="1.00" stroke-width="0.3"><path d="
M 742.00 539.00 
C 746.33 539.00 750.67 539.00 755.00 539.00
C 753.53 537.32 743.41 536.99 742.00 539.00 Z"/>
</g>
<g fill="None" fill-opacity="0.0" stroke="#0C2D72" stroke-opacity="1.00" stroke-width="0.3"><path d="
M 755.00 539.00 
C 750.67 539.00 746.33 539.00 742.00 539.00
C 742.00 556.00 742.00 573.00 742.00 590.00
C 746.33 590.00 750.67 590.00 755.00 590.00
C 754.49 583.34 755.68 576.65 755.00 570.00 C 754.32 563.35 755.57 559.85 758.08 554.08 C 760.60 548.32 770.32 553.82 773.00 550.00
C 770.82 546.91 772.57 541.84 772.00 538.00
C 764.80 536.31 759.64 540.18 755.00 545.00
C 754.25 543.65 755.99 540.13 755.00 539.00 Z"/>
</g>
<g fill="None" fill-opacity="0.0" stroke="#386BAB" stroke-opacity="1.00" stroke-width="0.3"><path d="
M 773.00 550.00 
C 774.07 548.48 773.31 538.91 772.00 538.00
C 772.57 541.84 770.82 546.91 773.00 550.00 Z"/>
</g>
<g fill="None" fill-opacity="0.0" stroke="#3D71B2" stroke-opacity="1.00" stroke-width="0.3"><path d="
M 780.00 539.00 
C 783.92 538.44 788.06 539.42 792.00 539.00
C 789.91 537.08 782.21 537.37 780.00 539.00 Z"/>
</g>
<g fill="None" fill-opacity="0.0" stroke="#0C2C72" stroke-opacity="1.00" stroke-width="0.3"><path d="
M 792.00 539.00 
C 788.06 539.42 783.92 538.44 780.00 539.00
C 779.70 539.22 779.05 539.65 779.00 540.00
C 785.26 560.92 776.39 587.03 780.00 609.00
C 784.00 609.00 788.00 609.00 792.00 609.00
C 792.00 601.00 792.00 593.00 792.00 585.00
C 809.86 600.78 827.54 583.47 828.00 564.00 C 828.46 544.53 809.06 528.07 792.00 544.00
C 791.37 543.02 792.83 539.76 792.00 539.00
M 807.00 549.00 
C 821.14 553.03 815.67 584.12 800.33 579.67 C 784.98 575.22 790.74 544.36 807.00 549.00 Z"/>
</g>
<g fill="None" fill-opacity="0.0" stroke="#0D2E73" stroke-opacity="1.00" stroke-width="0.3"><path d="
M 1079.00 538.00 
C 1047.08 530.58 1035.03 579.74 1064.78 590.22 C 1094.53 600.71 1108.61 544.89 1079.00 538.00
M 1075.00 549.00 
C 1088.64 552.89 1082.48 584.57 1068.33 579.67 C 1054.18 574.77 1059.68 544.63 1075.00 549.00 Z"/>
</g>
<g fill="None" fill-opacity="0.0" stroke="#0C2D72" stroke-opacity="1.00" stroke-width="0.3"><path d="
M 1134.00 538.00 
C 1127.86 537.27 1119.70 538.01 1118.00 545.00
C 1118.39 536.96 1110.22 539.11 1104.00 539.00
C 1104.00 556.00 1104.00 573.00 1104.00 590.00
C 1108.33 590.00 1112.67 590.00 1117.00 590.00
C 1118.02 576.22 1110.52 544.72 1134.00 552.00
C 1134.00 547.33 1134.00 542.67 1134.00 538.00 Z"/>
</g>
<g fill="None" fill-opacity="0.0" stroke="#0C2E73" stroke-opacity="1.00" stroke-width="0.3"><path d="
M 1154.00 586.00 
C 1171.21 600.62 1189.27 582.16 1188.99 564.01 C 1188.72 545.85 1170.79 528.51 1154.00 543.00
C 1155.07 535.81 1145.23 540.19 1141.00 539.00
C 1141.00 562.33 1141.00 585.67 1141.00 609.00
C 1145.33 609.00 1149.67 609.00 1154.00 609.00
C 1154.00 601.33 1154.00 593.67 1154.00 586.00
M 1170.00 550.00 
C 1183.45 554.96 1175.42 586.10 1160.78 579.22 C 1146.14 572.34 1154.33 544.22 1170.00 550.00 Z"/>
</g>
<g fill="None" fill-opacity="0.0" stroke="#386EAF" stroke-opacity="1.00" stroke-width="0.3"><path d="
M 792.00 609.00 
C 788.00 609.00 784.00 609.00 780.00 609.00
C 776.39 587.03 785.26 560.92 779.00 540.00
C 778.01 546.90 779.83 554.06 779.00 561.00 C 778.17 567.94 780.21 575.07 779.00 582.00 C 777.79 588.93 781.41 596.12 779.00 603.00 C 776.59 609.88 788.71 613.71 792.00 609.00 Z"/>
</g>
<g fill="None" fill-opacity="0.0" stroke="#70C1FA" stroke-opacity="1.00" stroke-width="0.3"><path d="
M 711.00 548.00 
C 695.46 546.16 692.51 577.95 708.00 580.00 C 723.48 582.05 725.97 549.77 711.00 548.00 Z"/>
</g>
<g fill="None" fill-opacity="0.0" stroke="#70C2FA" stroke-opacity="1.00" stroke-width="0.3"><path d="
M 807.00 549.00 
C 790.74 544.36 784.98 575.22 800.33 579.67 C 815.67 584.12 821.14 553.03 807.00 549.00 Z"/>
</g>
<g fill="None" fill-opacity="0.0" stroke="#3789EA" stroke-opacity="1.00" stroke-width="0.3"><path d="
M 1075.00 549.00 
C 1059.68 544.63 1054.18 574.77 1068.33 579.67 C 1082.48 584.57 1088.64 552.89 1075.00 549.00 Z"/>
</g>
<g fill="None" fill-opacity="0.0" stroke="#3688E9" stroke-opacity="1.00" stroke-width="0.3"><path d="
M 1170.00 550.00 
C 1154.33 544.22 1146.14 572.34 1160.78 579.22 C 1175.42 586.10 1183.45 554.96 1170.00 550.00 Z"/>
</g>
<g fill="None" fill-opacity="0.0" stroke="#79795E" stroke-opacity="1.00" stroke-width="0.3"><path d="
M 317.00 579.00 
C 317.00 578.50 317.00 578.00 317.00 578.00
C 307.08 577.10 296.94 578.67 287.00 578.00
C 289.85 580.85 297.79 578.57 302.00 579.00 C 306.21 579.43 312.65 579.39 317.00 579.00 Z"/>
</g>
<g fill="None" fill-opacity="0.0" stroke="#B6A853" stroke-opacity="1.00" stroke-width="0.3"><path d="
M 317.00 579.00 
C 317.00 582.67 317.00 586.33 317.00 590.00
C 318.99 588.61 318.64 579.57 317.00 578.00
C 317.00 578.00 317.00 578.50 317.00 579.00 Z"/>
</g>
<g fill="None" fill-opacity="0.0" stroke="#E4E39C" stroke-opacity="1.00" stroke-width="0.3"><path d="
M 206.00 725.00 
C 230.41 728.41 256.36 723.45 281.00 725.00 C 305.64 726.55 330.27 724.33 355.00 725.00 C 379.74 725.67 405.24 724.74 430.00 725.00 C 454.76 725.26 479.26 725.00 504.00 725.00
C 455.52 720.31 404.35 726.55 355.00 724.00 C 305.65 721.45 254.55 727.11 206.00 725.00 Z"/>
</g>
<g fill="None" fill-opacity="0.0" stroke="#9CD7FC" stroke-opacity="1.00" stroke-width="0.3"><path d="
M 512.00 725.00 
C 631.67 725.00 751.33 725.00 871.00 725.00
C 870.03 724.83 868.58 724.09 867.00 724.00
C 807.98 720.58 748.05 726.13 689.00 724.00 C 629.95 721.87 571.02 726.25 512.00 724.00
C 512.00 724.00 511.96 725.00 512.00 725.00 Z"/>
</g>
<g fill="#CAEEFF" fill-opacity="1.00" stroke="None">
<path d="
M 0.00 1024.00 
L 1536.00 1024.00
L 1536.00 0.00
L 0.00 0.00
L 0.00 1024.00
M 313.00 174.00 
C 312.47 170.30 312.41 166.66 313.00 163.00
C 314.75 130.67 361.30 117.39 376.00 148.00
C 371.71 150.49 367.52 152.93 363.00 155.00
C 360.47 141.62 339.68 140.02 333.08 151.08 C 326.48 162.15 326.38 177.01 334.25 187.75 C 342.12 198.49 361.77 194.67 364.00 181.00
C 368.85 181.02 372.33 185.30 377.00 186.00
C 367.46 220.19 310.79 209.00 313.00 174.00
M 588.00 139.00 
C 588.04 143.97 581.74 146.30 581.00 151.00
C 576.58 145.73 555.08 137.79 552.70 149.70 C 550.31 161.60 569.06 161.17 578.02 164.98 C 586.99 168.78 594.46 180.84 589.67 191.67 C 584.88 202.51 574.62 207.72 563.00 207.00 C 551.38 206.28 541.93 202.74 535.00 193.00
C 537.57 190.24 540.57 187.09 543.00 184.00
C 547.25 193.02 575.60 200.85 575.97 185.97 C 576.35 171.10 551.89 176.60 543.75 167.25 C 535.62 157.90 534.67 140.70 548.25 134.25 C 561.82 127.80 576.51 130.86 588.00 139.00
M 686.00 148.00 
C 680.99 148.99 677.42 154.03 672.00 154.00
C 669.68 141.06 648.26 140.32 642.08 151.08 C 635.90 161.84 635.66 178.20 643.75 188.25 C 651.85 198.30 671.05 194.44 673.00 181.00
C 682.85 181.32 688.58 188.65 681.75 195.75 C 674.92 202.84 669.08 206.20 659.98 206.98 C 650.87 207.75 641.71 205.55 634.77 200.23 C 627.83 194.91 624.45 187.58 622.67 179.33 C 620.90 171.08 621.66 158.56 624.92 150.92 C 628.19 143.29 633.43 137.51 641.08 134.08 C 648.72 130.64 660.79 129.65 669.01 131.99 C 677.23 134.33 682.98 140.55 686.00 148.00
M 1078.00 148.00 
C 1073.64 150.35 1069.01 152.06 1065.00 155.00
C 1063.07 141.14 1041.70 140.33 1035.25 151.25 C 1028.80 162.16 1028.77 178.77 1037.25 188.75 C 1045.74 198.72 1064.30 193.87 1067.00 181.00
C 1071.31 181.74 1074.67 185.26 1079.00 186.00
C 1073.84 207.82 1043.72 213.15 1027.75 199.25 C 1011.78 185.35 1010.45 157.13 1024.25 141.25 C 1038.04 125.36 1070.51 126.95 1078.00 148.00
M 1171.00 148.00 
C 1166.35 149.45 1162.98 153.77 1158.00 154.00
C 1155.07 140.86 1134.18 140.79 1128.75 151.75 C 1123.31 162.70 1122.38 179.46 1130.75 189.25 C 1139.13 199.03 1158.04 193.56 1160.00 181.00
C 1164.47 182.19 1168.44 184.97 1173.00 186.00
C 1166.39 206.98 1137.54 213.59 1121.25 199.75 C 1104.97 185.90 1104.67 156.92 1118.25 141.25 C 1131.83 125.58 1163.64 127.12 1171.00 148.00
M 218.00 132.00 
C 218.00 152.33 218.00 172.67 218.00 193.00
C 229.00 193.00 240.00 193.00 251.00 193.00
C 251.00 197.33 251.00 201.67 251.00 206.00
C 235.00 206.00 219.00 206.00 203.00 206.00
C 203.00 181.33 203.00 156.67 203.00 132.00
C 208.00 132.00 213.00 132.00 218.00 132.00
M 261.00 206.00 
C 257.41 203.49 260.80 192.66 260.00 188.00 C 259.20 183.34 260.00 174.09 260.00 169.00 C 260.00 163.91 259.21 154.69 260.00 150.00 C 260.79 145.31 257.43 134.50 261.00 132.00
C 264.36 129.65 272.23 133.76 276.00 132.00
C 276.00 152.33 276.00 172.67 276.00 193.00
C 286.67 193.00 297.33 193.00 308.00 193.00
C 308.00 197.33 308.00 201.67 308.00 206.00
C 292.33 206.00 276.67 206.00 261.00 206.00
M 722.00 149.00 
C 757.61 150.90 751.08 212.18 716.00 207.00 C 680.92 201.82 686.79 147.12 722.00 149.00
M 977.00 165.00 
C 973.53 162.22 956.48 155.49 955.08 164.08 C 953.68 172.68 968.73 171.69 975.07 174.93 C 981.42 178.17 987.48 188.91 982.68 196.68 C 977.88 204.45 970.82 206.87 962.00 207.00 C 953.17 207.13 945.22 204.34 939.00 198.00
C 939.45 194.25 944.30 192.76 945.00 189.00
C 952.97 193.06 954.84 197.49 965.07 195.07 C 975.31 192.66 967.86 183.56 959.78 183.22 C 951.70 182.88 945.21 178.80 942.22 171.78 C 939.24 164.75 942.40 157.39 949.08 153.08 C 955.76 148.77 964.25 148.64 972.07 150.93 C 979.89 153.21 985.10 158.31 977.00 165.00
M 418.00 151.00 
C 422.58 154.54 421.91 164.82 424.93 170.07 C 427.94 175.33 428.09 184.42 431.00 190.00
C 436.01 177.59 439.59 163.94 444.00 151.00
C 445.77 149.42 457.59 148.75 459.00 151.00
C 460.76 153.82 454.97 160.72 454.23 164.23 C 453.49 167.74 451.57 174.13 450.02 178.02 C 448.47 181.92 446.93 188.12 445.02 192.02 C 443.12 195.93 443.39 202.01 440.22 205.22 C 437.06 208.44 426.18 204.42 422.00 206.00
C 416.89 187.43 408.72 169.73 404.00 151.00
C 405.51 148.65 416.22 149.62 418.00 151.00
M 500.00 165.00 
C 494.86 155.56 471.33 162.20 479.70 169.30 C 488.08 176.39 501.79 171.26 505.92 183.08 C 510.05 194.89 502.53 204.41 491.78 206.78 C 481.03 209.14 468.72 205.28 462.00 197.00
C 463.99 194.27 466.05 191.71 468.00 189.00
C 471.00 197.68 498.13 197.95 492.74 188.26 C 487.35 178.56 469.38 185.69 465.23 172.77 C 461.08 159.85 470.30 150.67 482.00 150.00 C 493.70 149.33 510.99 152.61 500.00 165.00
M 771.00 151.00 
C 771.99 152.13 770.25 155.65 771.00 157.00
C 775.91 151.28 782.34 148.71 790.00 150.00
C 790.00 154.67 790.00 159.33 790.00 164.00
C 764.69 157.21 771.66 190.68 771.00 206.00
C 766.00 206.00 761.00 206.00 756.00 206.00
C 756.00 187.67 756.00 169.33 756.00 151.00
C 757.46 148.91 769.46 149.24 771.00 151.00
M 814.00 151.00 
C 814.99 152.13 813.25 155.65 814.00 157.00
C 821.40 147.06 840.87 146.71 848.25 157.75 C 855.62 168.79 855.15 186.74 847.70 197.70 C 840.25 208.65 822.73 210.06 814.00 200.00
C 814.00 209.00 814.00 218.00 814.00 227.00
C 809.33 227.00 804.67 227.00 800.00 227.00
C 800.00 201.67 800.00 176.33 800.00 151.00
C 801.44 148.95 812.49 149.28 814.00 151.00
M 895.00 151.00 
C 899.58 154.54 898.91 164.82 901.93 170.07 C 904.94 175.33 905.09 184.42 908.00 190.00
C 912.88 177.88 917.13 164.72 921.00 152.00
C 922.78 149.58 935.22 148.15 937.00 151.00
C 938.86 153.97 932.40 160.35 932.22 164.22 C 932.04 168.10 928.18 174.01 927.22 178.22 C 926.26 182.44 923.72 186.86 922.23 191.23 C 920.74 195.60 918.89 201.34 918.00 206.00
C 911.67 206.00 905.33 206.00 899.00 206.00
C 893.68 187.79 886.49 170.18 881.00 152.00
C 881.18 149.46 891.62 148.38 895.00 151.00
M 1214.00 150.00 
C 1233.06 153.95 1238.58 185.25 1225.23 198.23 C 1211.88 211.21 1185.14 209.65 1180.02 187.98 C 1174.91 166.31 1188.91 144.80 1214.00 150.00
M 1258.00 151.00 
C 1258.99 152.13 1257.25 155.65 1258.00 157.00
C 1263.06 150.71 1270.01 148.72 1278.00 150.00
C 1278.00 154.67 1278.00 159.33 1278.00 164.00
C 1252.14 156.72 1258.32 190.11 1258.00 206.00
C 1253.33 206.00 1248.67 206.00 1244.00 206.00
C 1240.47 203.53 1243.75 193.68 1243.00 189.00 C 1242.25 184.32 1242.94 176.40 1243.00 171.00 C 1243.06 165.60 1242.21 157.52 1243.00 152.00
C 1243.05 151.65 1243.70 151.22 1244.00 151.00
C 1246.15 149.42 1256.09 148.82 1258.00 151.00
M 1301.00 156.00 
C 1306.03 156.10 1305.99 147.56 1313.00 150.00 C 1320.01 152.44 1320.55 146.91 1328.23 152.77 C 1335.90 158.64 1339.47 169.62 1339.00 179.00 C 1338.53 188.38 1339.07 185.25 1336.07 194.07 C 1333.08 202.89 1321.26 208.64 1312.78 206.22 C 1304.30 203.81 1306.26 204.69 1300.00 200.00
C 1300.00 209.00 1300.00 218.00 1300.00 227.00
C 1295.33 227.00 1290.67 227.00 1286.00 227.00
C 1286.00 201.67 1286.00 176.33 1286.00 151.00
C 1289.29 146.31 1301.51 149.37 1301.00 156.00
M 1360.00 351.00 
C 1362.66 359.41 1360.33 369.70 1361.00 379.00 C 1361.68 388.30 1360.83 399.42 1360.00 408.00
C 1360.00 426.24 1354.93 447.46 1348.23 463.23 C 1341.53 479.00 1334.36 492.95 1323.25 505.25 C 1312.14 517.55 1301.67 529.15 1287.77 536.77 C 1273.87 544.39 1258.42 558.00 1242.00 558.00
C 1243.24 580.91 1240.34 601.89 1242.00 625.00 C 1243.66 648.11 1238.83 668.19 1242.00 692.00 C 1245.17 715.81 1231.54 727.79 1208.00 725.00 C 1184.46 722.21 1162.95 726.28 1140.00 725.00 C 1117.05 723.72 1095.63 725.57 1073.00 725.00 C 1050.37 724.43 1028.52 725.25 1006.00 725.00 C 983.48 724.75 961.54 725.09 939.00 725.00 C 916.46 724.91 893.57 725.00 871.00 725.00
C 751.33 725.00 631.67 725.00 512.00 725.00
C 509.33 725.00 506.67 725.00 504.00 725.00
C 479.26 725.00 454.76 725.26 430.00 725.00 C 405.24 724.74 379.74 725.67 355.00 725.00 C 330.27 724.33 305.64 726.55 281.00 725.00 C 256.36 723.45 230.41 728.41 206.00 725.00
C 184.74 722.03 191.72 696.31 191.00 679.00 C 190.28 661.69 191.37 637.14 191.00 618.00 C 190.63 598.86 191.27 576.01 191.00 556.00 C 190.73 535.99 191.35 515.57 191.00 495.00 C 190.65 474.43 191.66 454.15 191.00 433.00 C 190.34 411.85 192.44 394.21 191.00 372.00 C 189.56 349.79 212.65 349.05 231.00 351.00 C 249.35 352.95 275.12 349.12 293.00 351.00 C 310.88 352.88 335.68 345.83 349.25 355.75 C 362.81 365.68 360.31 384.36 377.00 390.00
C 395.42 393.62 415.19 388.14 434.00 390.00 C 452.81 391.86 473.06 388.61 492.00 390.00
C 492.00 378.93 487.53 358.79 500.23 353.23 C 512.93 347.67 529.77 352.40 544.00 351.00 C 558.23 349.61 574.47 352.32 589.00 351.00 C 603.53 349.68 620.59 353.10 635.00 351.00 C 649.41 348.90 657.78 356.21 664.25 366.75 C 670.73 377.29 674.94 387.33 687.00 390.00
C 714.38 392.81 742.48 388.53 770.00 390.00 C 797.52 391.47 825.45 388.90 853.00 390.00
C 854.84 387.37 852.55 380.46 853.00 377.00 C 853.45 373.54 853.24 368.08 854.00 365.00
C 858.85 345.44 880.30 351.56 897.00 351.00 C 913.70 350.44 938.20 351.38 955.00 351.00 C 971.80 350.62 993.61 347.94 1004.30 359.70 C 1014.99 371.46 1016.41 386.14 1032.00 390.00
C 1062.20 393.74 1093.68 387.26 1124.00 390.00
C 1123.98 377.90 1122.24 363.14 1125.00 352.00
C 1128.36 338.41 1149.18 344.98 1160.22 341.22 C 1171.27 337.47 1186.32 338.15 1196.69 331.69 C 1207.07 325.23 1217.59 325.14 1226.70 315.70 C 1235.81 306.26 1247.58 305.84 1257.08 314.92 C 1266.58 324.00 1276.44 324.94 1287.07 330.93 C 1297.71 336.91 1311.96 336.93 1323.02 340.98 C 1334.09 345.02 1355.63 337.17 1360.00 351.00 Z"/>
</g>
<g fill="#0E2C70" fill-opacity="1.00" stroke="None">
<path d="
M 313.00 163.00 
C 312.80 166.61 312.86 170.39 313.00 174.00
C 310.79 209.00 367.46 220.19 377.00 186.00
C 372.33 185.30 368.85 181.02 364.00 181.00
C 361.77 194.67 342.12 198.49 334.25 187.75 C 326.38 177.01 326.48 162.15 333.08 151.08 C 339.68 140.02 360.47 141.62 363.00 155.00
C 367.52 152.93 371.71 150.49 376.00 148.00
C 361.30 117.39 314.75 130.67 313.00 163.00 Z"/>
</g>
<g fill="#0E2D71" fill-opacity="1.00" stroke="None">
<path d="
M 588.00 139.00 
C 576.51 130.86 561.82 127.80 548.25 134.25 C 534.67 140.70 535.62 157.90 543.75 167.25 C 551.89 176.60 576.35 171.10 575.97 185.97 C 575.60 200.85 547.25 193.02 543.00 184.00
C 540.57 187.09 537.57 190.24 535.00 193.00
C 541.93 202.74 551.38 206.28 563.00 207.00 C 574.62 207.72 584.88 202.51 589.67 191.67 C 594.46 180.84 586.99 168.78 578.02 164.98 C 569.06 161.17 550.31 161.60 552.70 149.70 C 555.08 137.79 576.58 145.73 581.00 151.00
C 581.74 146.30 588.04 143.97 588.00 139.00 Z"/>
</g>
<g fill="#0E2D71" fill-opacity="1.00" stroke="None">
<path d="
M 686.00 148.00 
C 682.98 140.55 677.23 134.33 669.01 131.99 C 660.79 129.65 648.72 130.64 641.08 134.08 C 633.43 137.51 628.19 143.29 624.92 150.92 C 621.66 158.56 620.90 171.08 622.67 179.33 C 624.45 187.58 627.83 194.91 634.77 200.23 C 641.71 205.55 650.87 207.75 659.98 206.98 C 669.08 206.20 674.92 202.84 681.75 195.75 C 688.58 188.65 682.85 181.32 673.00 181.00
C 671.05 194.44 651.85 198.30 643.75 188.25 C 635.66 178.20 635.90 161.84 642.08 151.08 C 648.26 140.32 669.68 141.06 672.00 154.00
C 677.42 154.03 680.99 148.99 686.00 148.00 Z"/>
</g>
<g fill="#0E2D71" fill-opacity="1.00" stroke="None">
<path d="
M 1078.00 148.00 
C 1070.51 126.95 1038.04 125.36 1024.25 141.25 C 1010.45 157.13 1011.78 185.35 1027.75 199.25 C 1043.72 213.15 1073.84 207.82 1079.00 186.00
C 1074.67 185.26 1071.31 181.74 1067.00 181.00
C 1064.30 193.87 1045.74 198.72 1037.25 188.75 C 1028.77 178.77 1028.80 162.16 1035.25 151.25 C 1041.70 140.33 1063.07 141.14 1065.00 155.00
C 1069.01 152.06 1073.64 150.35 1078.00 148.00 Z"/>
</g>
<g fill="#0E2C70" fill-opacity="1.00" stroke="None">
<path d="
M 1171.00 148.00 
C 1163.64 127.12 1131.83 125.58 1118.25 141.25 C 1104.67 156.92 1104.97 185.90 1121.25 199.75 C 1137.54 213.59 1166.39 206.98 1173.00 186.00
C 1168.44 184.97 1164.47 182.19 1160.00 181.00
C 1158.04 193.56 1139.13 199.03 1130.75 189.25 C 1122.38 179.46 1123.31 162.70 1128.75 151.75 C 1134.18 140.79 1155.07 140.86 1158.00 154.00
C 1162.98 153.77 1166.35 149.45 1171.00 148.00 Z"/>
</g>
<g fill="#0F2F73" fill-opacity="1.00" stroke="None">
<path d="
M 218.00 132.00 
C 213.00 132.00 208.00 132.00 203.00 132.00
C 203.00 156.67 203.00 181.33 203.00 206.00
C 219.00 206.00 235.00 206.00 251.00 206.00
C 251.00 201.67 251.00 197.33 251.00 193.00
C 240.00 193.00 229.00 193.00 218.00 193.00
C 218.00 172.67 218.00 152.33 218.00 132.00 Z"/>
</g>
<g fill="#6B8AB4" fill-opacity="1.00" stroke="None">
<path d="
M 261.00 206.00 
C 261.00 181.33 261.00 156.67 261.00 132.00
C 257.43 134.50 260.79 145.31 260.00 150.00 C 259.21 154.69 260.00 163.91 260.00 169.00 C 260.00 174.09 259.20 183.34 260.00 188.00 C 260.80 192.66 257.41 203.49 261.00 206.00 Z"/>
</g>
<g fill="#0D2D71" fill-opacity="1.00" stroke="None">
<path d="
M 261.00 206.00 
C 276.67 206.00 292.33 206.00 308.00 206.00
C 308.00 201.67 308.00 197.33 308.00 193.00
C 297.33 193.00 286.67 193.00 276.00 193.00
C 276.00 172.67 276.00 152.33 276.00 132.00
C 272.23 133.76 264.36 129.65 261.00 132.00
C 261.00 156.67 261.00 181.33 261.00 206.00 Z"/>
</g>
<g fill="#0F2C70" fill-opacity="1.00" stroke="None">
<path d="
M 722.00 149.00 
C 686.79 147.12 680.92 201.82 716.00 207.00 C 751.08 212.18 757.61 150.90 722.00 149.00
M 722.00 161.00 
C 738.32 163.78 734.25 198.72 717.00 195.00 C 699.75 191.28 704.76 158.06 722.00 161.00 Z"/>
</g>
<g fill="#0E2D71" fill-opacity="1.00" stroke="None">
<path d="
M 977.00 165.00 
C 985.10 158.31 979.89 153.21 972.07 150.93 C 964.25 148.64 955.76 148.77 949.08 153.08 C 942.40 157.39 939.24 164.75 942.22 171.78 C 945.21 178.80 951.70 182.88 959.78 183.22 C 967.86 183.56 975.31 192.66 965.07 195.07 C 954.84 197.49 952.97 193.06 945.00 189.00
C 944.30 192.76 939.45 194.25 939.00 198.00
C 945.22 204.34 953.17 207.13 962.00 207.00 C 970.82 206.87 977.88 204.45 982.68 196.68 C 987.48 188.91 981.42 178.17 975.07 174.93 C 968.73 171.69 953.68 172.68 955.08 164.08 C 956.48 155.49 973.53 162.22 977.00 165.00 Z"/>
</g>
<g fill="#5F7EAA" fill-opacity="1.00" stroke="None">
<path d="
M 404.00 151.00 
C 407.89 152.45 414.37 149.06 418.00 151.00
C 416.22 149.62 405.51 148.65 404.00 151.00 Z"/>
</g>
<g fill="#5F7FAC" fill-opacity="1.00" stroke="None">
<path d="
M 444.00 151.00 
C 449.00 151.00 454.00 151.00 459.00 151.00
C 457.59 148.75 445.77 149.42 444.00 151.00 Z"/>
</g>
<g fill="#0E2D71" fill-opacity="1.00" stroke="None">
<path d="
M 500.00 165.00 
C 510.99 152.61 493.70 149.33 482.00 150.00 C 470.30 150.67 461.08 159.85 465.23 172.77 C 469.38 185.69 487.35 178.56 492.74 188.26 C 498.13 197.95 471.00 197.68 468.00 189.00
C 466.05 191.71 463.99 194.27 462.00 197.00
C 468.72 205.28 481.03 209.14 491.78 206.78 C 502.53 204.41 510.05 194.89 505.92 183.08 C 501.79 171.26 488.08 176.39 479.70 169.30 C 471.33 162.20 494.86 155.56 500.00 165.00 Z"/>
</g>
<g fill="#607FAC" fill-opacity="1.00" stroke="None">
<path d="
M 756.00 151.00 
C 761.00 151.00 766.00 151.00 771.00 151.00
C 769.46 149.24 757.46 148.91 756.00 151.00 Z"/>
</g>
<g fill="#0F2E71" fill-opacity="1.00" stroke="None">
<path d="
M 771.00 151.00 
C 766.00 151.00 761.00 151.00 756.00 151.00
C 756.00 169.33 756.00 187.67 756.00 206.00
C 761.00 206.00 766.00 206.00 771.00 206.00
C 771.66 190.68 764.69 157.21 790.00 164.00
C 790.00 159.33 790.00 154.67 790.00 150.00
C 782.34 148.71 775.91 151.28 771.00 157.00
C 770.25 155.65 771.99 152.13 771.00 151.00 Z"/>
</g>
<g fill="#607FAB" fill-opacity="1.00" stroke="None">
<path d="
M 800.00 151.00 
C 804.67 151.00 809.33 151.00 814.00 151.00
C 812.49 149.28 801.44 148.95 800.00 151.00 Z"/>
</g>
<g fill="#0D2B6E" fill-opacity="1.00" stroke="None">
<path d="
M 814.00 151.00 
C 809.33 151.00 804.67 151.00 800.00 151.00
C 800.00 176.33 800.00 201.67 800.00 227.00
C 804.67 227.00 809.33 227.00 814.00 227.00
C 814.00 218.00 814.00 209.00 814.00 200.00
C 822.73 210.06 840.25 208.65 847.70 197.70 C 855.15 186.74 855.62 168.79 848.25 157.75 C 840.87 146.71 821.40 147.06 814.00 157.00
C 813.25 155.65 814.99 152.13 814.00 151.00
M 829.00 161.00 
C 844.56 163.41 841.37 197.89 824.33 194.67 C 807.28 191.44 811.02 158.22 829.00 161.00 Z"/>
</g>
<g fill="#5E7EAB" fill-opacity="1.00" stroke="None">
<path d="
M 881.00 152.00 
C 881.98 150.44 893.16 150.02 895.00 151.00
C 891.62 148.38 881.18 149.46 881.00 152.00 Z"/>
</g>
<g fill="#5F7EAC" fill-opacity="1.00" stroke="None">
<path d="
M 921.00 152.00 
C 924.57 148.53 932.70 152.53 937.00 151.00
C 935.22 148.15 922.78 149.58 921.00 152.00 Z"/>
</g>
<g fill="#0E2B6F" fill-opacity="1.00" stroke="None">
<path d="
M 1214.00 150.00 
C 1188.91 144.80 1174.91 166.31 1180.02 187.98 C 1185.14 209.65 1211.88 211.21 1225.23 198.23 C 1238.58 185.25 1233.06 153.95 1214.00 150.00
M 1209.00 161.00 
C 1225.44 164.51 1218.88 200.64 1202.00 195.00 C 1185.12 189.36 1191.80 157.33 1209.00 161.00 Z"/>
</g>
<g fill="#607EAC" fill-opacity="1.00" stroke="None">
<path d="
M 1244.00 151.00 
C 1248.57 150.34 1253.40 151.49 1258.00 151.00
C 1256.09 148.82 1246.15 149.42 1244.00 151.00 Z"/>
</g>
<g fill="#0D2B6F" fill-opacity="1.00" stroke="None">
<path d="
M 1258.00 151.00 
C 1253.40 151.49 1248.57 150.34 1244.00 151.00
C 1243.70 151.22 1243.05 151.65 1243.00 152.00
C 1247.89 168.33 1241.41 188.73 1244.00 206.00
C 1248.67 206.00 1253.33 206.00 1258.00 206.00
C 1258.32 190.11 1252.14 156.72 1278.00 164.00
C 1278.00 159.33 1278.00 154.67 1278.00 150.00
C 1270.01 148.72 1263.06 150.71 1258.00 157.00
C 1257.25 155.65 1258.99 152.13 1258.00 151.00 Z"/>
</g>
<g fill="#5F7EAB" fill-opacity="1.00" stroke="None">
<path d="
M 1286.00 151.00 
C 1290.67 151.00 1295.33 151.00 1300.00 151.00
C 1300.24 152.18 1299.28 157.81 1301.00 156.00
C 1301.51 149.37 1289.29 146.31 1286.00 151.00 Z"/>
</g>
<g fill="#0D2C70" fill-opacity="1.00" stroke="None">
<path d="
M 1301.00 156.00 
C 1299.28 157.81 1300.24 152.18 1300.00 151.00
C 1295.33 151.00 1290.67 151.00 1286.00 151.00
C 1286.00 176.33 1286.00 201.67 1286.00 227.00
C 1290.67 227.00 1295.33 227.00 1300.00 227.00
C 1300.00 218.00 1300.00 209.00 1300.00 200.00
C 1306.26 204.69 1304.30 203.81 1312.78 206.22 C 1321.26 208.64 1333.08 202.89 1336.07 194.07 C 1339.07 185.25 1338.53 188.38 1339.00 179.00 C 1339.47 169.62 1335.90 158.64 1328.23 152.77 C 1320.55 146.91 1320.01 152.44 1313.00 150.00 C 1305.99 147.56 1306.03 156.10 1301.00 156.00
M 1315.00 161.00 
C 1330.77 164.09 1326.82 197.98 1310.00 195.00 C 1293.18 192.01 1297.16 157.50 1315.00 161.00 Z"/>
</g>
<g fill="#0D2D71" fill-opacity="1.00" stroke="None">
<path d="
M 459.00 151.00 
C 454.00 151.00 449.00 151.00 444.00 151.00
C 439.59 163.94 436.01 177.59 431.00 190.00
C 428.09 184.42 427.94 175.33 424.93 170.07 C 421.91 164.82 422.58 154.54 418.00 151.00
C 414.37 149.06 407.89 152.45 404.00 151.00
C 408.72 169.73 416.89 187.43 422.00 206.00
C 426.18 204.42 437.06 208.44 440.22 205.22 C 443.39 202.01 443.12 195.93 445.02 192.02 C 446.93 188.12 448.47 181.92 450.02 178.02 C 451.57 174.13 453.49 167.74 454.23 164.23 C 454.97 160.72 460.76 153.82 459.00 151.00 Z"/>
</g>
<g fill="#0E2D72" fill-opacity="1.00" stroke="None">
<path d="
M 881.00 152.00 
C 886.49 170.18 893.68 187.79 899.00 206.00
C 905.33 206.00 911.67 206.00 918.00 206.00
C 918.89 201.34 920.74 195.60 922.23 191.23 C 923.72 186.86 926.26 182.44 927.22 178.22 C 928.18 174.01 932.04 168.10 932.22 164.22 C 932.40 160.35 938.86 153.97 937.00 151.00
C 932.70 152.53 924.57 148.53 921.00 152.00
C 917.13 164.72 912.88 177.88 908.00 190.00
C 905.09 184.42 904.94 175.33 901.93 170.07 C 898.91 164.82 899.58 154.54 895.00 151.00
C 893.16 150.02 881.98 150.44 881.00 152.00 Z"/>
</g>
<g fill="#5B79A6" fill-opacity="1.00" stroke="None">
<path d="
M 1244.00 206.00 
C 1241.41 188.73 1247.89 168.33 1243.00 152.00
C 1242.21 157.52 1243.06 165.60 1243.00 171.00 C 1242.94 176.40 1242.25 184.32 1243.00 189.00 C 1243.75 193.68 1240.47 203.53 1244.00 206.00 Z"/>
</g>
<g fill="#C5E8FB" fill-opacity="1.00" stroke="None">
<path d="
M 722.00 161.00 
C 704.76 158.06 699.75 191.28 717.00 195.00 C 734.25 198.72 738.32 163.78 722.00 161.00 Z"/>
</g>
<g fill="#C5E7FA" fill-opacity="1.00" stroke="None">
<path d="
M 829.00 161.00 
C 811.02 158.22 807.28 191.44 824.33 194.67 C 841.37 197.89 844.56 163.41 829.00 161.00 Z"/>
</g>
<g fill="#C5E8FB" fill-opacity="1.00" stroke="None">
<path d="
M 1209.00 161.00 
C 1191.80 157.33 1185.12 189.36 1202.00 195.00 C 1218.88 200.64 1225.44 164.51 1209.00 161.00 Z"/>
</g>
<g fill="#C5E8FB" fill-opacity="1.00" stroke="None">
<path d="
M 1315.00 161.00 
C 1297.16 157.50 1293.18 192.01 1310.00 195.00 C 1326.82 197.98 1330.77 164.09 1315.00 161.00 Z"/>
</g>
<g fill="#6685AE" fill-opacity="1.00" stroke="None">
<path d="
M 313.00 174.00 
C 312.86 170.39 312.80 166.61 313.00 163.00
C 312.41 166.66 312.47 170.30 313.00 174.00 Z"/>
</g>
<g fill="#0D2D73" fill-opacity="1.00" stroke="None">
<path d="
M 1125.00 352.00 
C 1122.72 370.36 1125.00 390.48 1125.00 409.00
C 1125.00 426.63 1130.61 447.66 1136.78 463.22 C 1142.95 478.79 1150.71 493.43 1161.25 505.75 C 1171.78 518.08 1182.27 529.37 1195.70 537.30 C 1209.13 545.24 1225.80 558.00 1242.00 558.00
C 1258.42 558.00 1273.87 544.39 1287.77 536.77 C 1301.67 529.15 1312.14 517.55 1323.25 505.25 C 1334.36 492.95 1341.53 479.00 1348.23 463.23 C 1354.93 447.46 1360.00 426.24 1360.00 408.00
C 1360.00 389.97 1363.17 368.70 1360.00 351.00
C 1355.63 337.17 1334.09 345.02 1323.02 340.98 C 1311.96 336.93 1297.71 336.91 1287.07 330.93 C 1276.44 324.94 1266.58 324.00 1257.08 314.92 C 1247.58 305.84 1235.81 306.26 1226.70 315.70 C 1217.59 325.14 1207.07 325.23 1196.69 331.69 C 1186.32 338.15 1171.27 337.47 1160.22 341.22 C 1149.18 344.98 1128.36 338.41 1125.00 352.00
M 1341.00 363.00 
C 1341.27 381.09 1341.42 404.16 1339.07 421.07 C 1336.72 437.99 1332.65 453.73 1325.08 468.08 C 1317.51 482.42 1309.71 490.97 1298.75 502.75 C 1287.80 514.54 1276.59 519.08 1263.75 528.75 C 1250.92 538.43 1234.72 538.25 1221.31 529.70 C 1207.89 521.14 1197.69 515.32 1186.75 503.25 C 1175.81 491.17 1168.47 482.49 1161.08 467.92 C 1153.69 453.36 1148.17 439.27 1146.00 422.00 C 1143.83 404.73 1143.50 381.44 1144.00 363.00
C 1152.63 363.21 1161.96 361.66 1170.02 360.02 C 1178.09 358.39 1186.51 356.83 1194.02 354.02 C 1201.53 351.22 1208.17 349.01 1215.08 345.08 C 1221.98 341.15 1227.11 340.03 1233.25 334.25 C 1239.38 328.46 1244.89 328.15 1251.08 333.92 C 1257.27 339.69 1263.31 340.72 1270.08 344.92 C 1276.84 349.13 1283.18 350.44 1290.68 353.32 C 1298.17 356.20 1306.89 357.24 1315.00 359.00 C 1323.12 360.76 1332.43 362.52 1341.00 363.00 Z"/>
</g>
<g fill="#C7EAFD" fill-opacity="1.00" stroke="None">
<path d="
M 1341.00 363.00 
C 1332.43 362.52 1323.12 360.76 1315.00 359.00 C 1306.89 357.24 1298.17 356.20 1290.68 353.32 C 1283.18 350.44 1276.84 349.13 1270.08 344.92 C 1263.31 340.72 1257.27 339.69 1251.08 333.92 C 1244.89 328.15 1239.38 328.46 1233.25 334.25 C 1227.11 340.03 1221.98 341.15 1215.08 345.08 C 1208.17 349.01 1201.53 351.22 1194.02 354.02 C 1186.51 356.83 1178.09 358.39 1170.02 360.02 C 1161.96 361.66 1152.63 363.21 1144.00 363.00
C 1143.50 381.44 1143.83 404.73 1146.00 422.00 C 1148.17 439.27 1153.69 453.36 1161.08 467.92 C 1168.47 482.49 1175.81 491.17 1186.75 503.25 C 1197.69 515.32 1207.89 521.14 1221.31 529.70 C 1234.72 538.25 1250.92 538.43 1263.75 528.75 C 1276.59 519.08 1287.80 514.54 1298.75 502.75 C 1309.71 490.97 1317.51 482.42 1325.08 468.08 C 1332.65 453.73 1336.72 437.99 1339.07 421.07 C 1341.42 404.16 1341.27 381.09 1341.00 363.00
M 1234.00 460.00 
C 1242.24 453.26 1249.30 443.03 1256.75 435.75 C 1264.20 428.48 1271.45 417.31 1278.75 410.75 C 1286.05 404.20 1293.89 385.67 1305.69 393.31 C 1317.50 400.95 1302.11 414.63 1295.75 421.75 C 1289.40 428.88 1279.99 438.62 1273.75 446.75 C 1267.50 454.87 1257.33 462.87 1251.75 471.75 C 1246.18 480.64 1231.86 491.28 1224.75 480.25 C 1217.64 469.22 1208.32 465.56 1202.75 455.25 C 1197.18 444.94 1180.48 440.67 1184.33 427.33 C 1188.18 413.99 1206.57 425.74 1211.25 434.75 C 1215.93 443.77 1228.70 451.06 1234.00 460.00 Z"/>
</g>
<g fill="#FEDC46" fill-opacity="1.00" stroke="None">
<path d="
M 206.00 725.00 
C 254.55 727.11 305.65 721.45 355.00 724.00 C 404.35 726.55 455.52 720.31 504.00 725.00
C 506.67 725.00 509.33 725.00 512.00 725.00
C 511.96 725.00 512.00 724.00 512.00 724.00
C 502.61 723.64 494.68 719.48 492.00 710.00
C 486.53 690.66 492.82 667.70 491.00 647.00 C 489.18 626.30 491.83 604.05 491.00 583.00 C 490.17 561.95 491.39 540.20 491.00 519.00 C 490.61 497.80 491.20 476.26 491.00 455.00 C 490.80 433.74 491.15 412.28 491.00 391.00
C 453.17 390.33 414.01 392.33 377.00 390.00
C 360.31 384.36 362.81 365.68 349.25 355.75 C 335.68 345.83 310.88 352.88 293.00 351.00 C 275.12 349.12 249.35 352.95 231.00 351.00 C 212.65 349.05 189.56 349.79 191.00 372.00 C 192.44 394.21 190.34 411.85 191.00 433.00 C 191.66 454.15 190.65 474.43 191.00 495.00 C 191.35 515.57 190.73 535.99 191.00 556.00 C 191.27 576.01 190.63 598.86 191.00 618.00 C 191.37 637.14 190.28 661.69 191.00 679.00 C 191.72 696.31 184.74 722.03 206.00 725.00
M 414.00 521.00 
C 422.95 521.71 432.80 527.72 435.00 537.00
C 430.73 538.56 427.54 542.23 423.00 543.00
C 414.21 521.49 389.51 535.73 390.00 556.00 C 390.49 576.27 414.03 589.54 425.00 568.00
C 428.36 569.70 431.65 571.31 435.00 573.00
C 426.84 596.50 392.34 595.83 381.08 575.92 C 369.82 556.01 377.14 523.29 403.00 521.00
C 406.77 520.32 410.27 520.28 414.00 521.00
M 287.00 578.00 
C 296.94 578.67 307.08 577.10 317.00 578.00
C 318.64 579.57 318.99 588.61 317.00 590.00
C 312.08 593.45 301.07 588.20 295.00 590.00 C 288.93 591.80 279.39 588.65 273.00 590.00
C 273.00 567.67 273.00 545.33 273.00 523.00
C 274.51 520.84 283.33 521.76 286.00 522.00
C 289.69 525.54 285.96 534.68 287.00 540.00 C 288.04 545.32 286.46 553.20 287.00 559.00 C 287.54 564.80 286.59 572.06 287.00 578.00
M 372.00 579.00 
C 373.72 581.46 370.71 587.24 372.00 590.00
C 357.00 590.00 342.00 590.00 327.00 590.00
C 322.53 586.87 327.40 573.84 326.00 568.00 C 324.60 562.16 326.73 551.71 326.00 545.00 C 325.27 538.29 326.55 528.95 326.00 522.00
C 330.33 522.00 334.67 522.00 339.00 522.00
C 339.50 522.00 340.00 522.00 340.00 522.00
C 343.68 525.56 339.97 534.67 341.00 540.00 C 342.03 545.33 340.46 553.19 341.00 559.00 C 341.54 564.81 340.60 572.06 341.00 578.00
C 351.17 578.67 362.66 576.67 372.00 579.00 Z"/>
</g>
<g fill="#6FC3FE" fill-opacity="1.00" stroke="None">
<path d="
M 492.00 390.00 
C 492.00 416.62 491.71 443.40 492.00 470.00 C 492.29 496.60 491.22 523.46 492.00 550.00 C 492.78 576.54 490.22 603.61 492.00 630.00 C 493.78 656.39 488.02 683.94 492.00 710.00
C 494.68 719.48 502.61 723.64 512.00 724.00
C 571.02 726.25 629.95 721.87 689.00 724.00 C 748.05 726.13 807.98 720.58 867.00 724.00
C 846.61 718.68 853.81 693.90 853.00 676.00 C 852.19 658.10 853.30 633.51 853.00 614.00 C 852.70 594.49 853.00 571.18 853.00 551.00 C 853.00 530.82 852.68 509.43 853.00 489.00 C 853.32 468.57 852.16 447.52 853.00 427.00 C 853.84 406.49 851.48 385.32 854.00 365.00
C 853.24 368.08 853.45 373.54 853.00 377.00 C 852.55 380.46 854.84 387.37 853.00 390.00
C 850.10 394.15 838.43 389.79 833.00 391.00 C 827.57 392.21 818.29 390.45 812.00 391.00 C 805.71 391.55 797.68 390.75 791.00 391.00 C 784.32 391.25 776.84 390.88 770.00 391.00 C 763.16 391.12 755.91 390.94 749.00 391.00 C 742.09 391.06 734.91 390.96 728.00 391.00 C 721.09 391.04 713.85 390.94 707.00 391.00 C 700.15 391.06 693.04 391.34 687.00 390.00
C 674.94 387.33 670.73 377.29 664.25 366.75 C 657.78 356.21 649.41 348.90 635.00 351.00 C 620.59 353.10 603.53 349.68 589.00 351.00 C 574.47 352.32 558.23 349.61 544.00 351.00 C 529.77 352.40 512.93 347.67 500.23 353.23 C 487.53 358.79 492.00 378.93 492.00 390.00
M 591.00 529.00 
C 588.15 532.59 585.49 536.49 583.00 540.00
C 579.33 534.73 560.91 525.71 558.08 537.08 C 555.26 548.45 573.23 548.83 581.68 552.32 C 590.13 555.82 596.56 567.95 591.69 577.69 C 586.82 587.44 576.47 591.70 566.00 591.00 C 555.53 590.30 545.22 586.91 541.00 577.00
C 543.91 574.94 546.74 572.30 548.00 569.00
C 555.07 574.07 564.21 585.54 574.69 577.69 C 585.18 569.84 572.41 560.55 562.33 560.67 C 552.25 560.79 543.94 551.07 544.00 541.00 C 544.06 530.93 551.45 522.10 562.01 521.01 C 572.56 519.92 582.73 521.55 591.00 529.00
M 680.00 538.00 
C 675.98 540.03 672.02 541.98 668.00 544.00
C 666.89 531.51 646.81 528.52 640.25 538.25 C 633.68 547.98 633.95 563.60 640.75 573.25 C 647.55 582.89 667.59 580.44 668.00 567.00
C 676.95 567.79 682.33 574.22 675.70 580.70 C 669.06 587.17 664.77 590.17 655.99 590.99 C 647.22 591.81 638.58 589.51 631.77 584.23 C 624.96 578.95 623.99 571.91 622.00 564.00 C 620.01 556.08 621.57 546.21 624.77 538.77 C 627.97 531.33 632.47 525.97 640.03 523.03 C 647.59 520.08 657.39 519.04 665.02 521.98 C 672.65 524.91 678.03 530.45 680.00 538.00
M 716.00 538.00 
C 746.24 544.26 734.99 598.67 704.33 590.67 C 673.67 582.67 682.53 531.07 716.00 538.00
M 755.00 539.00 
C 755.99 540.13 754.25 543.65 755.00 545.00
C 759.64 540.18 764.80 536.31 772.00 538.00
C 773.31 538.91 774.07 548.48 773.00 550.00
C 770.32 553.82 760.60 548.32 758.08 554.08 C 755.57 559.85 754.32 563.35 755.00 570.00 C 755.68 576.65 754.49 583.34 755.00 590.00
C 750.67 590.00 746.33 590.00 742.00 590.00
C 742.00 573.00 742.00 556.00 742.00 539.00
C 743.41 536.99 753.53 537.32 755.00 539.00
M 792.00 539.00 
C 792.83 539.76 791.37 543.02 792.00 544.00
C 809.06 528.07 828.46 544.53 828.00 564.00 C 827.54 583.47 809.86 600.78 792.00 585.00
C 792.00 593.00 792.00 601.00 792.00 609.00
C 788.71 613.71 776.59 609.88 779.00 603.00 C 781.41 596.12 777.79 588.93 779.00 582.00 C 780.21 575.07 778.17 567.94 779.00 561.00 C 779.83 554.06 778.01 546.90 779.00 540.00
C 779.05 539.65 779.70 539.22 780.00 539.00
C 782.21 537.37 789.91 537.08 792.00 539.00 Z"/>
</g>
<g fill="#3688E9" fill-opacity="1.00" stroke="None">
<path d="
M 854.00 365.00 
C 851.48 385.32 853.84 406.49 853.00 427.00 C 852.16 447.52 853.32 468.57 853.00 489.00 C 852.68 509.43 853.00 530.82 853.00 551.00 C 853.00 571.18 852.70 594.49 853.00 614.00 C 853.30 633.51 852.19 658.10 853.00 676.00 C 853.81 693.90 846.61 718.68 867.00 724.00
C 868.58 724.09 870.03 724.83 871.00 725.00
C 893.57 725.00 916.46 724.91 939.00 725.00 C 961.54 725.09 983.48 724.75 1006.00 725.00 C 1028.52 725.25 1050.37 724.43 1073.00 725.00 C 1095.63 725.57 1117.05 723.72 1140.00 725.00 C 1162.95 726.28 1184.46 722.21 1208.00 725.00 C 1231.54 727.79 1245.17 715.81 1242.00 692.00 C 1238.83 668.19 1243.66 648.11 1242.00 625.00 C 1240.34 601.89 1243.24 580.91 1242.00 558.00
C 1225.80 558.00 1209.13 545.24 1195.70 537.30 C 1182.27 529.37 1171.78 518.08 1161.25 505.75 C 1150.71 493.43 1142.95 478.79 1136.78 463.22 C 1130.61 447.66 1125.00 426.63 1125.00 409.00
C 1124.48 403.63 1124.00 397.05 1124.00 391.00
C 1109.18 392.34 1092.83 391.27 1078.00 391.00 C 1063.17 390.73 1045.75 393.41 1032.00 390.00
C 1016.41 386.14 1014.99 371.46 1004.30 359.70 C 993.61 347.94 971.80 350.62 955.00 351.00 C 938.20 351.38 913.70 350.44 897.00 351.00 C 880.30 351.56 858.85 345.44 854.00 365.00
M 956.00 541.00 
C 951.46 541.52 947.28 543.47 943.00 545.00
C 943.72 532.27 923.63 528.21 917.25 538.25 C 910.87 548.29 911.23 562.59 917.25 572.75 C 923.28 582.90 943.29 580.40 943.00 567.00
C 947.67 566.71 951.71 568.81 956.00 570.00
C 952.79 591.26 922.43 598.07 908.25 583.75 C 894.07 569.44 894.37 542.56 908.25 528.25 C 922.12 513.94 954.14 518.39 956.00 541.00
M 1041.00 541.00 
C 1036.95 542.23 1032.99 543.59 1029.00 545.00
C 1029.55 532.00 1009.71 528.29 1003.25 538.25 C 996.79 548.20 997.36 562.53 1003.25 572.75 C 1009.15 582.96 1029.39 580.36 1029.00 567.00
C 1033.61 566.92 1037.63 569.06 1042.00 570.00
C 1039.09 591.39 1008.67 597.86 994.25 583.75 C 979.84 569.64 980.56 542.42 994.25 528.25 C 1007.94 514.08 1039.70 518.55 1041.00 541.00
M 1079.00 538.00 
C 1108.61 544.89 1094.53 600.71 1064.78 590.22 C 1035.03 579.74 1047.08 530.58 1079.00 538.00
M 1134.00 538.00 
C 1134.00 542.67 1134.00 547.33 1134.00 552.00
C 1110.52 544.72 1118.02 576.22 1117.00 590.00
C 1112.67 590.00 1108.33 590.00 1104.00 590.00
C 1104.00 573.00 1104.00 556.00 1104.00 539.00
C 1110.22 539.11 1118.39 536.96 1118.00 545.00
C 1119.70 538.01 1127.86 537.27 1134.00 538.00
M 1154.00 586.00 
C 1154.00 593.67 1154.00 601.33 1154.00 609.00
C 1149.67 609.00 1145.33 609.00 1141.00 609.00
C 1141.00 585.67 1141.00 562.33 1141.00 539.00
C 1145.23 540.19 1155.07 535.81 1154.00 543.00
C 1170.79 528.51 1188.72 545.85 1188.99 564.01 C 1189.27 582.16 1171.21 600.62 1154.00 586.00 Z"/>
</g>
<g fill="#5275A1" fill-opacity="1.00" stroke="None">
<path d="
M 1360.00 408.00 
C 1360.83 399.42 1361.68 388.30 1361.00 379.00 C 1360.33 369.70 1362.66 359.41 1360.00 351.00
C 1363.17 368.70 1360.00 389.97 1360.00 408.00 Z"/>
</g>
<g fill="#4066A5" fill-opacity="1.00" stroke="None">
<path d="
M 1124.00 390.00 
C 1124.00 390.50 1124.00 391.00 1124.00 391.00
C 1124.00 397.05 1124.48 403.63 1125.00 409.00
C 1125.00 390.48 1122.72 370.36 1125.00 352.00
C 1122.24 363.14 1123.98 377.90 1124.00 390.00 Z"/>
</g>
<g fill="#CFD993" fill-opacity="1.00" stroke="None">
<path d="
M 492.00 710.00 
C 488.02 683.94 493.78 656.39 492.00 630.00 C 490.22 603.61 492.78 576.54 492.00 550.00 C 491.22 523.46 492.29 496.60 492.00 470.00 C 491.71 443.40 492.00 416.62 492.00 390.00
C 473.06 388.61 452.81 391.86 434.00 390.00 C 415.19 388.14 395.42 393.62 377.00 390.00
C 414.01 392.33 453.17 390.33 491.00 391.00
C 491.15 412.28 490.80 433.74 491.00 455.00 C 491.20 476.26 490.61 497.80 491.00 519.00 C 491.39 540.20 490.17 561.95 491.00 583.00 C 491.83 604.05 489.18 626.30 491.00 647.00 C 492.82 667.70 486.53 690.66 492.00 710.00 Z"/>
</g>
<g fill="#A1D9F9" fill-opacity="1.00" stroke="None">
<path d="
M 853.00 390.00 
C 825.45 388.90 797.52 391.47 770.00 390.00 C 742.48 388.53 714.38 392.81 687.00 390.00
C 693.04 391.34 700.15 391.06 707.00 391.00 C 713.85 390.94 721.09 391.04 728.00 391.00 C 734.91 390.96 742.09 391.06 749.00 391.00 C 755.91 390.94 763.16 391.12 770.00 391.00 C 776.84 390.88 784.32 391.25 791.00 391.00 C 797.68 390.75 805.71 391.55 812.00 391.00 C 818.29 390.45 827.57 392.21 833.00 391.00 C 838.43 389.79 850.10 394.15 853.00 390.00 Z"/>
</g>
<g fill="#80BBEF" fill-opacity="1.00" stroke="None">
<path d="
M 1124.00 391.00 
C 1124.00 391.00 1124.00 390.50 1124.00 390.00
C 1093.68 387.26 1062.20 393.74 1032.00 390.00
C 1045.75 393.41 1063.17 390.73 1078.00 391.00 C 1092.83 391.27 1109.18 392.34 1124.00 391.00 Z"/>
</g>
<g fill="#0D2D72" fill-opacity="1.00" stroke="None">
<path d="
M 1234.00 460.00 
C 1228.70 451.06 1215.93 443.77 1211.25 434.75 C 1206.57 425.74 1188.18 413.99 1184.33 427.33 C 1180.48 440.67 1197.18 444.94 1202.75 455.25 C 1208.32 465.56 1217.64 469.22 1224.75 480.25 C 1231.86 491.28 1246.18 480.64 1251.75 471.75 C 1257.33 462.87 1267.50 454.87 1273.75 446.75 C 1279.99 438.62 1289.40 428.88 1295.75 421.75 C 1302.11 414.63 1317.50 400.95 1305.69 393.31 C 1293.89 385.67 1286.05 404.20 1278.75 410.75 C 1271.45 417.31 1264.20 428.48 1256.75 435.75 C 1249.30 443.03 1242.24 453.26 1234.00 460.00 Z"/>
</g>
<g fill="#8B865D" fill-opacity="1.00" stroke="None">
<path d="
M 403.00 521.00 
C 406.53 520.76 410.47 520.72 414.00 521.00
C 410.27 520.28 406.77 520.32 403.00 521.00 Z"/>
</g>
<g fill="#0D2E74" fill-opacity="1.00" stroke="None">
<path d="
M 591.00 529.00 
C 582.73 521.55 572.56 519.92 562.01 521.01 C 551.45 522.10 544.06 530.93 544.00 541.00 C 543.94 551.07 552.25 560.79 562.33 560.67 C 572.41 560.55 585.18 569.84 574.69 577.69 C 564.21 585.54 555.07 574.07 548.00 569.00
C 546.74 572.30 543.91 574.94 541.00 577.00
C 545.22 586.91 555.53 590.30 566.00 591.00 C 576.47 591.70 586.82 587.44 591.69 577.69 C 596.56 567.95 590.13 555.82 581.68 552.32 C 573.23 548.83 555.26 548.45 558.08 537.08 C 560.91 525.71 579.33 534.73 583.00 540.00
C 585.49 536.49 588.15 532.59 591.00 529.00 Z"/>
</g>
<g fill="#0D2F74" fill-opacity="1.00" stroke="None">
<path d="
M 680.00 538.00 
C 678.03 530.45 672.65 524.91 665.02 521.98 C 657.39 519.04 647.59 520.08 640.03 523.03 C 632.47 525.97 627.97 531.33 624.77 538.77 C 621.57 546.21 620.01 556.08 622.00 564.00 C 623.99 571.91 624.96 578.95 631.77 584.23 C 638.58 589.51 647.22 591.81 655.99 590.99 C 664.77 590.17 669.06 587.17 675.70 580.70 C 682.33 574.22 676.95 567.79 668.00 567.00
C 667.59 580.44 647.55 582.89 640.75 573.25 C 633.95 563.60 633.68 547.98 640.25 538.25 C 646.81 528.52 666.89 531.51 668.00 544.00
C 672.02 541.98 675.98 540.03 680.00 538.00 Z"/>
</g>
<g fill="#0D2E73" fill-opacity="1.00" stroke="None">
<path d="
M 956.00 541.00 
C 954.14 518.39 922.12 513.94 908.25 528.25 C 894.37 542.56 894.07 569.44 908.25 583.75 C 922.43 598.07 952.79 591.26 956.00 570.00
C 951.71 568.81 947.67 566.71 943.00 567.00
C 943.29 580.40 923.28 582.90 917.25 572.75 C 911.23 562.59 910.87 548.29 917.25 538.25 C 923.63 528.21 943.72 532.27 943.00 545.00
C 947.28 543.47 951.46 541.52 956.00 541.00 Z"/>
</g>
<g fill="#0D2E73" fill-opacity="1.00" stroke="None">
<path d="
M 1041.00 541.00 
C 1039.70 518.55 1007.94 514.08 994.25 528.25 C 980.56 542.42 979.84 569.64 994.25 583.75 C 1008.67 597.86 1039.09 591.39 1042.00 570.00
C 1037.63 569.06 1033.61 566.92 1029.00 567.00
C 1029.39 580.36 1009.15 582.96 1003.25 572.75 C 997.36 562.53 996.79 548.20 1003.25 538.25 C 1009.71 528.29 1029.55 532.00 1029.00 545.00
C 1032.99 543.59 1036.95 542.23 1041.00 541.00 Z"/>
</g>
<g fill="#0F2D72" fill-opacity="1.00" stroke="None">
<path d="
M 414.00 521.00 
C 410.47 520.72 406.53 520.76 403.00 521.00
C 377.14 523.29 369.82 556.01 381.08 575.92 C 392.34 595.83 426.84 596.50 435.00 573.00
C 431.65 571.31 428.36 569.70 425.00 568.00
C 414.03 589.54 390.49 576.27 390.00 556.00 C 389.51 535.73 414.21 521.49 423.00 543.00
C 427.54 542.23 430.73 538.56 435.00 537.00
C 432.80 527.72 422.95 521.71 414.00 521.00 Z"/>
</g>
<g fill="#49535C" fill-opacity="1.00" stroke="None">
<path d="
M 273.00 523.00 
C 277.31 522.71 281.70 523.39 286.00 523.00
C 286.00 522.50 286.00 522.00 286.00 522.00
C 283.33 521.76 274.51 520.84 273.00 523.00 Z"/>
</g>
<g fill="#988F58" fill-opacity="1.00" stroke="None">
<path d="
M 286.00 523.00 
C 286.00 528.76 285.62 535.32 286.00 541.00 C 286.38 546.68 285.07 554.69 286.00 560.00 C 286.93 565.31 283.43 574.43 287.00 578.00
C 286.59 572.06 287.54 564.80 287.00 559.00 C 286.46 553.20 288.04 545.32 287.00 540.00 C 285.96 534.68 289.69 525.54 286.00 522.00
C 286.00 522.00 286.00 522.50 286.00 523.00 Z"/>
</g>
<g fill="#576061" fill-opacity="1.00" stroke="None">
<path d="
M 327.00 590.00 
C 327.00 567.67 327.00 545.33 327.00 523.00
C 330.83 522.37 335.99 524.28 339.00 522.00
C 334.67 522.00 330.33 522.00 326.00 522.00
C 326.55 528.95 325.27 538.29 326.00 545.00 C 326.73 551.71 324.60 562.16 326.00 568.00 C 327.40 573.84 322.53 586.87 327.00 590.00 Z"/>
</g>
<g fill="#0C2B74" fill-opacity="1.00" stroke="None">
<path d="
M 327.00 590.00 
C 342.00 590.00 357.00 590.00 372.00 590.00
C 370.71 587.24 373.72 581.46 372.00 579.00
C 364.08 576.36 350.34 582.52 343.00 579.00 C 335.66 575.48 341.41 560.04 340.00 552.00 C 338.59 543.96 340.77 530.56 340.00 522.00
C 340.00 522.00 339.50 522.00 339.00 522.00
C 335.99 524.28 330.83 522.37 327.00 523.00
C 327.00 545.33 327.00 567.67 327.00 590.00 Z"/>
</g>
<g fill="#88855B" fill-opacity="1.00" stroke="None">
<path d="
M 372.00 579.00 
C 362.66 576.67 351.17 578.67 341.00 578.00
C 340.60 572.06 341.54 564.81 341.00 559.00 C 340.46 553.19 342.03 545.33 341.00 540.00 C 339.97 534.67 343.68 525.56 340.00 522.00
C 340.77 530.56 338.59 543.96 340.00 552.00 C 341.41 560.04 335.66 575.48 343.00 579.00 C 350.34 582.52 364.08 576.36 372.00 579.00 Z"/>
</g>
<g fill="#0B2B73" fill-opacity="1.00" stroke="None">
<path d="
M 317.00 590.00 
C 317.00 586.33 317.00 582.67 317.00 579.00
C 312.65 579.39 306.21 579.43 302.00 579.00 C 297.79 578.57 289.85 580.85 287.00 578.00
C 283.43 574.43 286.93 565.31 286.00 560.00 C 285.07 554.69 286.38 546.68 286.00 541.00 C 285.62 535.32 286.00 528.76 286.00 523.00
C 281.70 523.39 277.31 522.71 273.00 523.00
C 273.00 545.33 273.00 567.67 273.00 590.00
C 279.39 588.65 288.93 591.80 295.00 590.00 C 301.07 588.20 312.08 593.45 317.00 590.00 Z"/>
</g>
<g fill="#0D2E74" fill-opacity="1.00" stroke="None">
<path d="
M 716.00 538.00 
C 682.53 531.07 673.67 582.67 704.33 590.67 C 734.99 598.67 746.24 544.26 716.00 538.00
M 711.00 548.00 
C 725.97 549.77 723.48 582.05 708.00 580.00 C 692.51 577.95 695.46 546.16 711.00 548.00 Z"/>
</g>
<g fill="#4175B5" fill-opacity="1.00" stroke="None">
<path d="
M 742.00 539.00 
C 746.33 539.00 750.67 539.00 755.00 539.00
C 753.53 537.32 743.41 536.99 742.00 539.00 Z"/>
</g>
<g fill="#0C2D72" fill-opacity="1.00" stroke="None">
<path d="
M 755.00 539.00 
C 750.67 539.00 746.33 539.00 742.00 539.00
C 742.00 556.00 742.00 573.00 742.00 590.00
C 746.33 590.00 750.67 590.00 755.00 590.00
C 754.49 583.34 755.68 576.65 755.00 570.00 C 754.32 563.35 755.57 559.85 758.08 554.08 C 760.60 548.32 770.32 553.82 773.00 550.00
C 770.82 546.91 772.57 541.84 772.00 538.00
C 764.80 536.31 759.64 540.18 755.00 545.00
C 754.25 543.65 755.99 540.13 755.00 539.00 Z"/>
</g>
<g fill="#386BAB" fill-opacity="1.00" stroke="None">
<path d="
M 773.00 550.00 
C 774.07 548.48 773.31 538.91 772.00 538.00
C 772.57 541.84 770.82 546.91 773.00 550.00 Z"/>
</g>
<g fill="#3D71B2" fill-opacity="1.00" stroke="None">
<path d="
M 780.00 539.00 
C 783.92 538.44 788.06 539.42 792.00 539.00
C 789.91 537.08 782.21 537.37 780.00 539.00 Z"/>
</g>
<g fill="#0C2C72" fill-opacity="1.00" stroke="None">
<path d="
M 792.00 539.00 
C 788.06 539.42 783.92 538.44 780.00 539.00
C 779.70 539.22 779.05 539.65 779.00 540.00
C 785.26 560.92 776.39 587.03 780.00 609.00
C 784.00 609.00 788.00 609.00 792.00 609.00
C 792.00 601.00 792.00 593.00 792.00 585.00
C 809.86 600.78 827.54 583.47 828.00 564.00 C 828.46 544.53 809.06 528.07 792.00 544.00
C 791.37 543.02 792.83 539.76 792.00 539.00
M 807.00 549.00 
C 821.14 553.03 815.67 584.12 800.33 579.67 C 784.98 575.22 790.74 544.36 807.00 549.00 Z"/>
</g>
<g fill="#0D2E73" fill-opacity="1.00" stroke="None">
<path d="
M 1079.00 538.00 
C 1047.08 530.58 1035.03 579.74 1064.78 590.22 C 1094.53 600.71 1108.61 544.89 1079.00 538.00
M 1075.00 549.00 
C 1088.64 552.89 1082.48 584.57 1068.33 579.67 C 1054.18 574.77 1059.68 544.63 1075.00 549.00 Z"/>
</g>
<g fill="#0C2D72" fill-opacity="1.00" stroke="None">
<path d="
M 1134.00 538.00 
C 1127.86 537.27 1119.70 538.01 1118.00 545.00
C 1118.39 536.96 1110.22 539.11 1104.00 539.00
C 1104.00 556.00 1104.00 573.00 1104.00 590.00
C 1108.33 590.00 1112.67 590.00 1117.00 590.00
C 1118.02 576.22 1110.52 544.72 1134.00 552.00
C 1134.00 547.33 1134.00 542.67 1134.00 538.00 Z"/>
</g>
<g fill="#0C2E73" fill-opacity="1.00" stroke="None">
<path d="
M 1154.00 586.00 
C 1171.21 600.62 1189.27 582.16 1188.99 564.01 C 1188.72 545.85 1170.79 528.51 1154.00 543.00
C 1155.07 535.81 1145.23 540.19 1141.00 539.00
C 1141.00 562.33 1141.00 585.67 1141.00 609.00
C 1145.33 609.00 1149.67 609.00 1154.00 609.00
C 1154.00 601.33 1154.00 593.67 1154.00 586.00
M 1170.00 550.00 
C 1183.45 554.96 1175.42 586.10 1160.78 579.22 C 1146.14 572.34 1154.33 544.22 1170.00 550.00 Z"/>
</g>
<g fill="#386EAF" fill-opacity="1.00" stroke="None">
<path d="
M 792.00 609.00 
C 788.00 609.00 784.00 609.00 780.00 609.00
C 776.39 587.03 785.26 560.92 779.00 540.00
C 778.01 546.90 779.83 554.06 779.00 561.00 C 778.17 567.94 780.21 575.07 779.00 582.00 C 777.79 588.93 781.41 596.12 779.00 603.00 C 776.59 609.88 788.71 613.71 792.00 609.00 Z"/>
</g>
<g fill="#70C1FA" fill-opacity="1.00" stroke="None">
<path d="
M 711.00 548.00 
C 695.46 546.16 692.51 577.95 708.00 580.00 C 723.48 582.05 725.97 549.77 711.00 548.00 Z"/>
</g>
<g fill="#70C2FA" fill-opacity="1.00" stroke="None">
<path d="
M 807.00 549.00 
C 790.74 544.36 784.98 575.22 800.33 579.67 C 815.67 584.12 821.14 553.03 807.00 549.00 Z"/>
</g>
<g fill="#3789EA" fill-opacity="1.00" stroke="None">
<path d="
M 1075.00 549.00 
C 1059.68 544.63 1054.18 574.77 1068.33 579.67 C 1082.48 584.57 1088.64 552.89 1075.00 549.00 Z"/>
</g>
<g fill="#3688E9" fill-opacity="1.00" stroke="None">
<path d="
M 1170.00 550.00 
C 1154.33 544.22 1146.14 572.34 1160.78 579.22 C 1175.42 586.10 1183.45 554.96 1170.00 550.00 Z"/>
</g>
<g fill="#79795E" fill-opacity="1.00" stroke="None">
<path d="
M 317.00 579.00 
C 317.00 578.50 317.00 578.00 317.00 578.00
C 307.08 577.10 296.94 578.67 287.00 578.00
C 289.85 580.85 297.79 578.57 302.00 579.00 C 306.21 579.43 312.65 579.39 317.00 579.00 Z"/>
</g>
<g fill="#B6A853" fill-opacity="1.00" stroke="None">
<path d="
M 317.00 579.00 
C 317.00 582.67 317.00 586.33 317.00 590.00
C 318.99 588.61 318.64 579.57 317.00 578.00
C 317.00 578.00 317.00 578.50 317.00 579.00 Z"/>
</g>
<g fill="#E4E39C" fill-opacity="1.00" stroke="None">
<path d="
M 206.00 725.00 
C 230.41 728.41 256.36 723.45 281.00 725.00 C 305.64 726.55 330.27 724.33 355.00 725.00 C 379.74 725.67 405.24 724.74 430.00 725.00 C 454.76 725.26 479.26 725.00 504.00 725.00
C 455.52 720.31 404.35 726.55 355.00 724.00 C 305.65 721.45 254.55 727.11 206.00 725.00 Z"/>
</g>
<g fill="#9CD7FC" fill-opacity="1.00" stroke="None">
<path d="
M 512.00 725.00 
C 631.67 725.00 751.33 725.00 871.00 725.00
C 870.03 724.83 868.58 724.09 867.00 724.00
C 807.98 720.58 748.05 726.13 689.00 724.00 C 629.95 721.87 571.02 726.25 512.00 724.00
C 512.00 724.00 511.96 725.00 512.00 725.00 Z"/>
</g>
</svg>