<?xml version="1.0" encoding="UTF-8" standalone="no"?>
<!DOCTYPE svg PUBLIC "-//W3C//DTD SVG 1.1//EN" "http://www.w3.org/Graphics/SVG/1.1/DTD/svg11.dtd">
<svg xmlns="http://www.w3.org/2000/svg" version="1.1" viewBox="0.00 0.00 2164.00 1452.00">
<g stroke-width="2.00" fill="none" stroke-linecap="butt">
<path stroke="#5f84b3" vector-effect="non-scaling-stroke" d="
  M 544.24 294.00
  Q 542.78 298.42 540.88 302.25
  C 534.25 315.62 512.83 315.76 503.55 305.71
  C 495.21 296.68 495.09 283.90 495.86 271.72
  C 496.88 255.49 507.61 243.81 524.81 245.88
  Q 537.52 247.41 542.85 259.42
  A 1.45 1.45 0.0 0 0 544.90 260.07
  L 558.62 252.06
  A 1.01 1.00 66.1 0 0 559.07 250.88
  C 552.85 231.73 531.67 227.21 513.93 229.20
  C 493.42 231.50 479.44 246.05 475.85 266.31
  C 472.35 286.01 476.73 312.67 496.01 323.30
  Q 514.56 333.54 535.82 327.79
  C 549.32 324.15 556.50 315.17 560.68 302.09
  A 0.95 0.95 0.0 0 0 560.21 300.95
  L 545.26 293.58
  A 0.73 0.72 -67.4 0 0 544.24 294.00"
/>
<path stroke="#5f84b3" vector-effect="non-scaling-stroke" d="
  M 791.81 297.20
  L 780.74 310.49
  A 1.08 1.06 49.1 0 0 780.66 311.74
  C 790.47 327.01 809.54 330.80 826.42 329.61
  C 841.19 328.58 855.58 318.58 856.77 302.93
  C 857.38 294.87 855.92 285.76 849.77 280.20
  Q 840.84 272.11 827.46 269.60
  Q 815.23 267.30 814.44 267.08
  C 808.60 265.48 802.76 263.48 802.99 256.47
  C 803.23 248.88 809.37 246.24 816.05 245.62
  Q 827.42 244.55 836.44 250.86
  Q 838.84 252.54 841.26 254.35
  A 1.30 1.30 0.0 0 0 843.10 254.07
  L 852.38 241.12
  A 0.76 0.76 0.0 0 0 852.28 240.12
  C 845.56 233.77 836.44 230.22 827.03 229.21
  C 814.84 227.90 802.83 229.08 792.65 236.42
  C 785.49 241.58 783.03 250.22 783.21 258.73
  C 783.38 266.79 787.66 274.74 794.12 278.64
  Q 802.03 283.43 807.96 284.57
  Q 819.85 286.87 824.07 287.91
  C 830.13 289.40 836.34 292.96 836.26 300.29
  Q 836.14 310.46 825.53 312.05
  Q 812.33 314.04 801.79 306.75
  C 798.61 304.55 795.41 299.39 793.21 297.14
  A 0.94 0.94 0.0 0 0 791.81 297.20"
/>
<path stroke="#5f84b3" vector-effect="non-scaling-stroke" d="
  M 969.95 294.08
  Q 968.46 298.49 966.54 302.31
  C 959.84 315.64 938.43 315.66 929.21 305.57
  C 920.92 296.50 920.87 283.72 921.70 271.55
  C 922.81 255.33 933.60 243.71 950.78 245.87
  Q 963.48 247.47 968.74 259.50
  A 1.45 1.45 0.0 0 0 970.79 260.17
  L 984.54 252.23
  A 1.00 1.00 0.0 0 0 985.00 251.05
  C 978.88 231.88 957.74 227.25 939.99 229.14
  C 919.48 231.33 905.43 245.80 901.73 266.03
  C 898.13 285.71 902.36 312.38 921.58 323.11
  Q 940.07 333.44 961.35 327.81
  C 974.86 324.24 982.09 315.30 986.34 302.25
  A 0.95 0.95 0.0 0 0 985.87 301.11
  L 970.97 293.66
  A 0.73 0.72 -67.1 0 0 969.95 294.08"
/>
<path stroke="#5f84b3" vector-effect="non-scaling-stroke" d="
  M 1510.60 293.90
  Q 1509.13 298.31 1507.23 302.14
  C 1500.59 315.49 1479.20 315.61 1469.95 305.57
  C 1461.62 296.54 1461.52 283.78 1462.29 271.61
  C 1463.32 255.40 1474.05 243.74 1491.22 245.82
  Q 1503.92 247.37 1509.23 259.36
  A 1.45 1.45 0.0 0 0 1511.28 260.02
  L 1524.98 252.03
  A 1.00 1.00 0.0 0 0 1525.44 250.84
  C 1519.23 231.72 1498.09 227.19 1480.37 229.16
  C 1459.89 231.44 1445.92 245.96 1442.31 266.19
  C 1438.81 285.87 1443.15 312.49 1462.40 323.12
  Q 1480.92 333.36 1502.16 327.64
  C 1515.64 324.01 1522.82 315.05 1527.01 301.99
  A 0.95 0.95 0.0 0 0 1526.53 300.85
  L 1511.61 293.48
  A 0.73 0.72 -67.4 0 0 1510.60 293.90"
/>
<path stroke="#5f84b3" vector-effect="non-scaling-stroke" d="
  M 1638.35 294.18
  Q 1636.85 298.59 1634.93 302.41
  C 1628.21 315.75 1606.78 315.75 1597.56 305.64
  C 1589.27 296.56 1589.23 283.76 1590.07 271.58
  C 1591.20 255.35 1602.01 243.73 1619.20 245.91
  Q 1631.91 247.52 1637.17 259.57
  A 1.45 1.45 0.0 0 0 1639.22 260.24
  L 1652.99 252.30
  A 1.01 1.00 66.5 0 0 1653.45 251.12
  C 1647.34 231.93 1626.19 227.28 1608.42 229.15
  C 1587.89 231.33 1573.81 245.80 1570.09 266.04
  C 1566.47 285.74 1570.68 312.43 1589.91 323.19
  Q 1608.40 333.55 1629.71 327.93
  C 1643.23 324.37 1650.48 315.43 1654.75 302.37
  A 0.95 0.95 0.0 0 0 1654.28 301.23
  L 1639.37 293.76
  A 0.73 0.72 -67.0 0 0 1638.35 294.18"
/>
<path stroke="#5f84b3" vector-effect="non-scaling-stroke" d="
  M 319.87 231.13
  L 319.88 327.62
  A 0.77 0.76 90.0 0 0 320.64 328.39
  L 384.30 328.22
  A 0.67 0.67 0.0 0 0 384.97 327.54
  L 384.86 313.05
  A 1.07 1.07 0.0 0 0 383.79 311.99
  L 340.81 312.01
  A 1.02 1.02 0.0 0 1 339.79 310.99
  L 339.88 231.26
  A 0.66 0.66 0.0 0 0 339.21 230.60
  L 320.39 230.61
  A 0.52 0.51 -89.5 0 0 319.87 231.13"
/>
<path stroke="#5f84b3" vector-effect="non-scaling-stroke" d="
  M 419.84 231.30
  A 0.75 0.75 0.0 0 0 419.09 230.55
  L 400.62 230.55
  A 0.75 0.75 0.0 0 0 399.87 231.30
  L 399.87 327.53
  A 0.75 0.75 0.0 0 0 400.62 328.28
  L 464.12 328.28
  A 0.75 0.75 0.0 0 0 464.87 327.53
  L 464.87 312.73
  A 0.75 0.75 0.0 0 0 464.12 311.98
  L 420.59 311.98
  A 0.75 0.75 0.0 0 1 419.84 311.23
  L 419.84 231.30"
/>
<path stroke="#5f84b3" vector-effect="non-scaling-stroke" d="
  M 679.48 314.46
  A 1.00 1.00 0.0 0 0 679.35 315.73
  Q 683.72 322.37 690.89 325.65
  Q 698.97 329.35 707.67 329.78
  C 715.27 330.16 723.86 329.06 729.98 324.97
  Q 739.42 318.67 740.23 308.44
  C 741.04 298.09 736.29 289.28 726.25 286.00
  C 719.17 283.69 710.35 282.63 707.24 281.56
  C 703.08 280.13 699.31 278.36 699.68 273.57
  C 699.97 269.79 702.62 268.19 706.38 267.61
  C 713.33 266.55 718.64 267.66 723.38 271.75
  Q 725.54 273.61 726.10 274.03
  A 1.06 1.04 40.4 0 0 727.46 273.93
  L 737.24 264.15
  A 1.17 1.17 0.0 0 0 737.26 262.52
  C 727.63 252.33 714.87 251.33 700.87 253.41
  Q 696.36 254.08 690.16 258.36
  C 678.66 266.30 679.01 284.01 689.59 291.90
  Q 693.45 294.78 700.50 296.28
  Q 706.72 297.59 712.93 299.06
  C 717.84 300.22 723.12 302.91 721.35 308.84
  Q 720.00 313.35 714.69 313.99
  Q 700.10 315.74 691.01 304.44
  A 0.97 0.97 0.0 0 0 689.57 304.37
  L 679.48 314.46"
/>
<path stroke="#5f84b3" vector-effect="non-scaling-stroke" d="
  M 1337.69 314.38
  A 1.00 1.00 0.0 0 0 1337.55 315.66
  Q 1341.91 322.31 1349.08 325.61
  Q 1357.16 329.33 1365.86 329.78
  C 1373.47 330.17 1382.06 329.09 1388.20 325.01
  Q 1397.66 318.73 1398.49 308.50
  C 1399.32 298.14 1394.59 289.31 1384.55 286.01
  C 1377.47 283.68 1368.65 282.60 1365.54 281.53
  C 1361.38 280.09 1357.61 278.31 1357.99 273.51
  C 1358.29 269.73 1360.95 268.14 1364.71 267.56
  C 1371.67 266.52 1376.98 267.64 1381.71 271.74
  Q 1383.87 273.61 1384.43 274.03
  A 1.06 1.04 40.6 0 0 1385.79 273.94
  L 1395.60 264.17
  A 1.18 1.17 46.0 0 0 1395.62 262.54
  C 1386.01 252.32 1373.24 251.29 1359.23 253.34
  Q 1354.71 254.00 1348.50 258.27
  C 1336.97 266.19 1337.28 283.91 1347.85 291.83
  Q 1351.71 294.72 1358.76 296.24
  Q 1364.98 297.56 1371.19 299.05
  C 1376.10 300.22 1381.38 302.92 1379.60 308.85
  Q 1378.24 313.36 1372.92 313.99
  Q 1358.32 315.71 1349.25 304.38
  A 0.97 0.97 0.0 0 0 1347.81 304.31
  L 1337.69 314.38"
/>
<path stroke="#5f84b3" vector-effect="non-scaling-stroke" d="
  M 996.11 290.67
  C 995.80 313.51 1009.37 329.43 1032.73 329.75
  C 1056.09 330.06 1070.08 314.51 1070.39 291.67
  C 1070.70 268.84 1057.13 252.91 1033.77 252.60
  C 1010.41 252.28 996.41 267.84 996.11 290.67"
/>
<path stroke="#5f84b3" vector-effect="non-scaling-stroke" d="
  M 1163.71 319.56
  Q 1164.14 319.59 1164.40 319.89
  Q 1173.60 330.38 1187.78 329.63
  C 1202.12 328.86 1212.58 317.97 1215.73 304.46
  C 1220.05 285.88 1215.79 256.42 1192.35 253.20
  Q 1182.44 251.84 1175.73 254.50
  C 1170.23 256.68 1168.25 258.93 1164.41 263.11
  A 0.54 0.54 0.0 0 1 1163.48 262.74
  L 1163.48 254.73
  A 0.78 0.78 0.0 0 0 1162.70 253.95
  L 1144.94 253.95
  A 0.38 0.38 0.0 0 0 1144.56 254.33
  L 1144.56 356.10
  A 0.99 0.99 0.0 0 0 1145.55 357.09
  L 1162.80 357.09
  A 0.68 0.68 0.0 0 0 1163.48 356.41
  L 1163.48 319.78
  A 0.22 0.21 -87.6 0 1 1163.71 319.56"
/>
<path stroke="#5f84b3" vector-effect="non-scaling-stroke" d="
  M 1664.59 292.25
  C 1665.04 309.33 1671.79 322.82 1688.75 327.92
  C 1704.19 332.56 1721.86 328.90 1731.72 315.47
  C 1737.05 308.21 1738.67 299.00 1738.43 290.06
  C 1737.97 272.98 1731.23 259.49 1714.27 254.39
  C 1698.83 249.75 1681.16 253.41 1671.30 266.84
  C 1665.96 274.10 1664.35 283.31 1664.59 292.25"
/>
<path stroke="#5f84b3" vector-effect="non-scaling-stroke" d="
  M 1831.75 319.61
  Q 1832.18 319.64 1832.44 319.94
  Q 1841.69 330.37 1855.85 329.55
  C 1870.17 328.71 1880.56 317.78 1883.64 304.27
  C 1887.87 285.68 1883.46 256.28 1860.03 253.18
  Q 1850.12 251.87 1843.43 254.56
  C 1837.95 256.76 1835.98 259.02 1832.17 263.22
  A 0.54 0.53 66.2 0 1 1831.24 262.85
  L 1831.20 254.85
  A 0.78 0.78 0.0 0 0 1830.42 254.07
  L 1812.67 254.16
  A 0.38 0.38 0.0 0 0 1812.30 254.54
  L 1812.80 356.21
  A 0.99 0.99 0.0 0 0 1813.80 357.19
  L 1831.03 357.11
  A 0.68 0.68 0.0 0 0 1831.71 356.42
  L 1831.52 319.83
  A 0.22 0.21 -87.9 0 1 1831.75 319.61"
/>
<path stroke="#5f84b3" vector-effect="non-scaling-stroke" d="
  M 1104.96 264.31
  L 1105.02 254.94
  A 0.72 0.72 0.0 0 0 1104.31 254.22
  L 1087.17 254.10
  A 0.55 0.54 0.4 0 0 1086.62 254.64
  L 1086.11 327.05
  A 1.19 1.19 0.0 0 0 1087.30 328.25
  L 1104.75 328.37
  A 0.64 0.63 0.4 0 0 1105.40 327.75
  Q 1105.73 298.23 1105.78 291.51
  C 1105.86 279.78 1110.41 267.75 1125.16 271.36
  Q 1127.07 271.82 1129.40 272.68
  A 0.85 0.84 -73.3 0 0 1130.51 272.07
  L 1134.13 256.51
  A 0.74 0.73 20.3 0 0 1133.74 255.69
  C 1125.72 251.69 1114.32 252.25 1108.94 260.09
  Q 1106.34 263.88 1105.80 264.60
  A 0.47 0.47 0.0 0 1 1104.96 264.31"
/>
<path stroke="#5f84b3" vector-effect="non-scaling-stroke" d="
  M 1773.06 264.31
  L 1773.06 254.96
  A 0.72 0.72 0.0 0 0 1772.34 254.24
  L 1755.24 254.24
  A 0.55 0.54 0.0 0 0 1754.69 254.78
  L 1754.69 327.06
  A 1.19 1.19 0.0 0 0 1755.88 328.25
  L 1773.30 328.25
  A 0.64 0.63 0.0 0 0 1773.94 327.62
  Q 1774.07 298.16 1774.07 291.45
  C 1774.07 279.74 1778.53 267.70 1793.27 271.20
  Q 1795.18 271.65 1797.51 272.49
  A 0.84 0.84 0.0 0 0 1798.62 271.88
  L 1802.12 256.32
  A 0.74 0.73 19.9 0 0 1801.73 255.50
  C 1793.69 251.57 1782.32 252.21 1777.01 260.07
  Q 1774.44 263.87 1773.90 264.59
  A 0.47 0.46 63.3 0 1 1773.06 264.31"
/>
<path stroke="#5f84b3" vector-effect="non-scaling-stroke" d="
  M 673.57 253.79
  L 655.71 253.82
  A 1.31 1.30 -80.2 0 0 654.48 254.69
  L 636.10 306.07
  A 0.34 0.34 0.0 0 1 635.46 306.07
  L 616.98 255.16
  A 2.03 2.02 -9.8 0 0 615.09 253.83
  L 597.25 253.74
  A 0.51 0.51 0.0 0 0 596.78 254.42
  L 624.33 327.25
  A 1.39 1.39 0.0 0 0 625.61 328.14
  L 644.71 328.30
  A 2.13 2.12 10.4 0 0 646.72 326.92
  L 674.04 254.48
  A 0.51 0.50 -79.6 0 0 673.57 253.79"
/>
<path stroke="#5f84b3" vector-effect="non-scaling-stroke" d="
  M 1304.49 328.30
  A 0.34 0.34 0.0 0 0 1304.80 328.08
  L 1332.71 254.32
  A 0.34 0.34 0.0 0 0 1332.39 253.86
  L 1313.61 253.86
  A 0.34 0.34 0.0 0 0 1313.29 254.09
  L 1294.63 306.14
  A 0.34 0.34 0.0 0 1 1293.99 306.14
  L 1275.09 254.03
  A 0.34 0.34 0.0 0 0 1274.77 253.81
  L 1255.55 253.81
  A 0.34 0.34 0.0 0 0 1255.23 254.27
  L 1283.14 328.08
  A 0.34 0.34 0.0 0 0 1283.45 328.30
  L 1304.49 328.30"
/>
<path stroke="#75afea" vector-effect="non-scaling-stroke" d="
  M 1637.41 579.54
  Q 1584.90 579.19 1533.01 579.22
  Q 1514.71 579.23 1501.40 566.69
  Q 1498.89 564.32 1495.49 559.62
  Q 1493.10 556.32 1489.60 552.45
  C 1486.86 549.43 1483.99 544.43 1482.29 541.96
  Q 1480.52 539.39 1475.66 534.24
  C 1468.94 527.12 1456.57 523.09 1447.74 523.04
  Q 1400.95 522.73 1266.24 522.89
  Q 1249.82 522.91 1245.41 524.08
  Q 1232.77 527.44 1226.10 540.80
  Q 1222.53 547.95 1222.60 555.25
  Q 1222.71 566.99 1222.66 579.11"
/>
<path stroke="#94d2f7" vector-effect="non-scaling-stroke" d="
  M 1222.66 579.11
  Q 1113.18 579.56 1003.74 579.13
  C 995.64 579.10 988.13 578.67 981.50 576.74
  Q 966.00 572.22 956.25 558.28
  Q 944.92 542.08 940.40 536.67
  C 932.20 526.86 921.85 522.99 909.75 522.98
  Q 890.93 522.98 745.08 523.05
  C 735.90 523.06 730.84 524.01 724.00 528.75
  Q 712.97 536.40 711.62 550.05
  Q 710.48 561.64 711.14 571.82
  Q 711.49 577.27 710.96 580.65"
/>
<path stroke="#d5d9a0" vector-effect="non-scaling-stroke" d="
  M 710.96 580.65
  Q 707.81 579.11 702.06 579.12
  Q 584.40 579.27 565.24 579.14
  Q 539.70 578.98 525.01 558.50
  Q 517.91 548.61 511.09 539.39
  Q 499.04 523.09 477.74 523.10
  Q 386.27 523.14 321.30 523.13
  Q 314.89 523.13 312.19 524.16
  Q 296.79 530.06 292.17 544.79
  Q 290.72 549.43 290.72 562.38
  Q 290.75 917.89 290.76 988.00
  Q 290.76 1004.59 303.46 1014.05
  Q 310.49 1019.28 318.99 1019.44
  Q 330.63 1019.65 338.84 1019.66
  Q 557.90 1019.72 724.50 1019.62
  Q 728.41 1019.62 730.94 1018.36"
/>
<path stroke="#94d2f7" vector-effect="non-scaling-stroke" d="
  M 730.94 1018.36
  Q 736.50 1019.30 742.75 1019.32
  C 876.56 1019.64 1011.69 1019.41 1151.94 1019.47
  Q 1183.73 1019.48 1195.06 1019.33
  Q 1216.26 1019.07 1238.17 1019.31
  Q 1239.43 1019.32 1240.51 1018.58
  Q 1240.75 1018.41 1241.10 1017.26"
/>
<path stroke="#75afea" vector-effect="non-scaling-stroke" d="
  M 1241.10 1017.26
  Q 1245.36 1019.27 1251.25 1019.27
  Q 1386.66 1019.37 1755.00 1019.43
  Q 1764.24 1019.43 1771.33 1014.32
  Q 1784.04 1005.15 1784.13 989.01
  Q 1784.65 890.01 1784.36 790.95"
/>
<path stroke="#5f84b3" vector-effect="non-scaling-stroke" d="
  M 1784.36 790.95
  Q 1791.71 789.11 1797.11 786.37
  C 1816.49 776.54 1835.10 763.84 1851.53 750.33
  Q 1867.88 736.88 1882.99 718.24
  Q 1896.17 701.98 1903.04 687.33
  Q 1920.92 649.21 1923.15 605.74
  Q 1924.96 570.65 1923.70 543.92
  Q 1923.20 533.22 1922.28 530.57
  C 1920.59 525.71 1915.22 519.98 1909.36 519.89
  C 1898.21 519.71 1885.32 519.26 1874.52 516.97
  Q 1850.10 511.80 1827.44 501.32
  Q 1813.08 494.67 1801.71 486.80
  Q 1801.17 486.43 1792.03 479.96
  Q 1781.33 472.39 1770.02 479.59
  C 1762.92 484.11 1756.11 489.99 1748.02 494.50
  C 1723.62 508.07 1695.74 517.31 1667.84 519.37
  Q 1662.08 519.79 1651.38 520.07
  A 6.27 6.26 34.1 0 0 1649.29 520.47
  Q 1639.73 524.06 1638.47 533.18
  Q 1636.88 544.65 1637.06 561.25
  Q 1637.16 570.01 1637.41 579.54"
/>
<path stroke="#2557a9" vector-effect="non-scaling-stroke" d="
  M 1784.36 790.95
  Q 1776.14 791.42 1767.98 787.48
  C 1760.52 783.86 1753.40 780.55 1746.98 776.77
  C 1713.96 757.29 1684.79 731.62 1665.02 699.75
  Q 1655.17 683.88 1648.82 664.34
  C 1646.89 658.40 1645.72 652.72 1644.14 646.84
  Q 1642.42 640.46 1641.27 633.57
  Q 1636.83 606.80 1637.41 579.54"
/>
<path stroke="#5aa5ed" vector-effect="non-scaling-stroke" d="
  M 1241.10 1017.26
  Q 1228.62 1011.32 1224.36 999.06
  Q 1222.61 994.05 1222.60 986.90
  C 1222.59 976.63 1222.88 964.31 1222.88 955.98
  Q 1222.83 835.21 1222.72 821.51
  C 1222.57 801.70 1222.84 785.07 1222.81 765.84
  Q 1222.67 672.31 1222.66 579.11"
/>
<path stroke="#bacea3" vector-effect="non-scaling-stroke" d="
  M 710.96 580.65
  Q 711.31 588.80 711.31 592.75
  C 711.27 646.63 711.58 700.03 711.47 750.08
  Q 711.26 843.26 711.39 977.12
  Q 711.39 977.19 711.29 985.88
  Q 711.21 992.77 711.82 995.67
  Q 715.21 1011.82 730.94 1018.36"
/>
<path stroke="#5f84b3" vector-effect="non-scaling-stroke" d="
  M 1016.39 290.68
  C 1016.17 301.95 1019.46 313.18 1033.03 313.44
  C 1046.60 313.70 1050.32 302.61 1050.53 291.34
  C 1050.75 280.07 1047.47 268.85 1033.90 268.59
  C 1020.32 268.32 1016.61 279.41 1016.39 290.68"
/>
<path stroke="#5f84b3" vector-effect="non-scaling-stroke" d="
  M 1163.54 291.29
  C 1163.62 302.54 1167.19 313.65 1180.73 313.56
  C 1194.27 313.47 1197.69 302.31 1197.62 291.06
  C 1197.54 279.82 1193.97 268.71 1180.43 268.80
  C 1166.89 268.89 1163.47 280.05 1163.54 291.29"
/>
<path stroke="#5f84b3" vector-effect="non-scaling-stroke" d="
  M 1684.17 291.04
  C 1684.10 302.34 1687.54 313.55 1701.14 313.63
  C 1714.75 313.72 1718.33 302.55 1718.40 291.26
  C 1718.47 279.96 1715.03 268.75 1701.43 268.67
  C 1687.82 268.58 1684.24 279.74 1684.17 291.04"
/>
<path stroke="#5f84b3" vector-effect="non-scaling-stroke" d="
  M 1865.43 291.55
  C 1865.70 280.34 1862.49 269.17 1848.99 268.84
  C 1835.50 268.52 1831.75 279.53 1831.48 290.73
  C 1831.21 301.94 1834.42 313.11 1847.92 313.44
  C 1861.41 313.76 1865.16 302.75 1865.43 291.55"
/>
<path stroke="#5f84b3" vector-effect="non-scaling-stroke" d="
  M 1661.81 545.20
  Q 1659.67 589.86 1664.27 624.26
  C 1667.84 650.92 1676.84 675.65 1692.54 696.71
  Q 1712.22 723.09 1738.92 742.33
  Q 1757.83 755.96 1777.45 765.04
  Q 1779.41 765.95 1780.84 766.12
  A 2.35 2.33 -52.7 0 0 1782.00 765.96
  Q 1793.77 761.08 1806.03 753.55
  Q 1818.72 745.76 1829.19 737.36
  C 1848.42 721.93 1865.32 705.04 1877.54 683.58
  Q 1892.30 657.68 1896.31 628.29
  Q 1898.96 608.88 1899.33 598.00
  Q 1900.14 574.41 1899.04 544.88
  A 0.85 0.84 -88.9 0 0 1898.27 544.07
  C 1885.89 543.04 1871.68 541.46 1858.77 538.08
  Q 1839.91 533.14 1824.62 526.58
  Q 1802.22 516.98 1782.12 501.95
  A 1.19 1.19 0.0 0 0 1780.72 501.93
  Q 1731.38 537.18 1670.98 543.43
  Q 1667.00 543.85 1662.54 544.42
  A 0.83 0.83 0.0 0 0 1661.81 545.20"
/>
<path stroke="#5f84b3" vector-effect="non-scaling-stroke" d="
  M 1768.78 676.03
  C 1762.60 667.97 1757.13 662.06 1750.17 653.58
  Q 1739.43 640.51 1728.48 627.26
  Q 1724.31 622.21 1717.73 622.69
  C 1709.13 623.33 1704.62 631.57 1707.05 639.45
  Q 1707.73 641.63 1713.56 648.81
  C 1719.95 656.67 1724.60 661.75 1730.58 669.00
  Q 1752.34 695.36 1757.55 701.42
  C 1765.09 710.17 1776.17 708.41 1782.61 699.60
  C 1794.83 682.87 1805.64 669.63 1819.86 651.42
  Q 1836.43 630.20 1859.49 601.00
  C 1864.66 594.45 1864.72 586.24 1857.89 581.13
  C 1854.32 578.45 1848.07 578.29 1844.02 581.18
  Q 1840.46 583.73 1838.88 585.90
  Q 1830.48 597.44 1823.43 606.44
  Q 1779.31 662.81 1772.47 671.93
  Q 1770.05 675.16 1769.43 676.02
  A 0.41 0.41 0.0 0 1 1768.78 676.03"
/>
<path stroke="#2557a9" vector-effect="non-scaling-stroke" d="
  M 1353.63 807.63
  C 1349.99 818.11 1344.00 824.55 1332.14 824.24
  C 1309.72 823.66 1308.22 796.77 1311.66 780.96
  Q 1313.37 773.08 1318.95 768.41
  Q 1324.17 764.05 1332.71 763.87
  Q 1345.99 763.61 1352.86 776.40
  A 0.84 0.84 0.0 0 0 1354.02 776.73
  L 1365.52 770.09
  A 2.01 2.01 0.0 0 0 1366.36 767.54
  C 1362.19 757.97 1353.87 751.85 1343.26 749.88
  C 1327.58 746.95 1311.60 750.07 1301.50 762.48
  C 1291.20 775.14 1289.57 796.57 1294.50 812.12
  Q 1300.55 831.22 1318.92 837.07
  Q 1336.30 842.60 1353.63 834.13
  C 1361.33 830.36 1365.33 822.55 1367.96 814.88
  A 1.20 1.20 0.0 0 0 1367.36 813.42
  L 1354.83 807.14
  A 0.87 0.86 -66.9 0 0 1353.63 807.63"
/>
<path stroke="#2557a9" vector-effect="non-scaling-stroke" d="
  M 1480.20 768.24
  Q 1473.75 752.45 1456.06 749.72
  Q 1450.77 748.90 1443.73 749.07
  C 1424.68 749.52 1412.40 761.14 1407.34 779.13
  Q 1402.29 797.10 1409.17 814.78
  Q 1416.24 832.96 1435.26 837.94
  C 1440.44 839.29 1446.54 839.27 1451.56 838.84
  Q 1459.43 838.16 1466.77 834.47
  C 1470.62 832.53 1474.96 828.58 1476.68 825.20
  C 1478.65 821.33 1481.16 817.21 1481.13 814.48
  A 1.77 1.76 -77.2 0 0 1480.15 812.91
  L 1468.41 807.03
  A 1.07 1.07 0.0 0 0 1466.90 807.68
  C 1463.24 820.12 1453.39 826.89 1440.24 823.31
  Q 1429.54 820.40 1425.94 809.35
  Q 1423.32 801.31 1423.86 791.15
  Q 1424.36 781.82 1426.17 777.06
  C 1430.01 766.94 1439.63 763.45 1449.88 764.14
  C 1457.78 764.68 1462.80 769.96 1466.37 776.59
  A 0.72 0.71 60.8 0 0 1467.35 776.87
  L 1479.68 769.75
  A 1.22 1.21 -26.1 0 0 1480.20 768.24"
/>
<path stroke="#2557a9" vector-effect="non-scaling-stroke" d="
  M 1554.5596 800.7161
  A 29.53 29.53 0.0 0 0 1525.2365 770.9807
  L 1519.5567 770.9410
  A 29.53 29.53 0.0 0 0 1489.8212 800.2641
  L 1489.7604 808.9839
  A 29.53 29.53 0.0 0 0 1519.0835 838.7193
  L 1524.7633 838.7590
  A 29.53 29.53 0.0 0 0 1554.4988 809.4359
  L 1554.5596 800.7161"
/>
<path stroke="#2557a9" vector-effect="non-scaling-stroke" d="
  M 1638.37 830.69
  Q 1641.74 834.10 1645.68 836.40
  C 1652.05 840.12 1661.59 839.62 1668.03 836.86
  Q 1674.22 834.20 1678.43 828.28
  C 1684.57 819.65 1685.04 809.21 1684.21 798.52
  C 1683.35 787.53 1678.54 775.84 1667.61 772.38
  C 1657.33 769.13 1645.31 770.50 1638.44 779.76
  A 0.51 0.51 0.0 0 1 1637.52 779.45
  L 1637.52 773.17
  A 1.32 1.31 0.0 0 0 1636.20 771.86
  L 1621.48 771.86
  A 0.73 0.72 0.0 0 0 1620.75 772.58
  L 1620.75 862.79
  A 1.07 1.07 0.0 0 0 1621.82 863.86
  L 1636.59 863.86
  A 1.03 1.03 0.0 0 0 1637.62 862.83
  L 1637.62 831.00
  A 0.44 0.44 0.0 0 1 1638.37 830.69"
/>
<path stroke="#2557a9" vector-effect="non-scaling-stroke" d="
  M 1586.71 781.13
  A 0.30 0.30 0.0 0 1 1586.21 780.93
  L 1585.49 772.65
  A 0.81 0.81 0.0 0 0 1584.69 771.92
  L 1570.00 771.89
  A 0.57 0.56 0.1 0 0 1569.43 772.45
  L 1569.31 837.07
  A 0.74 0.74 0.0 0 0 1570.05 837.81
  L 1585.28 837.84
  A 1.21 1.20 0.8 0 0 1586.49 836.68
  C 1586.84 824.75 1586.20 813.32 1586.63 802.39
  C 1586.99 793.30 1592.02 785.82 1602.10 786.67
  Q 1603.78 786.80 1607.18 787.74
  A 0.99 0.99 0.0 0 0 1608.41 787.01
  L 1611.40 773.81
  A 1.07 1.06 16.0 0 0 1610.70 772.56
  C 1603.39 770.06 1594.05 770.60 1589.29 777.56
  Q 1587.06 780.82 1586.71 781.13"
/>
<path stroke="#85815f" vector-effect="non-scaling-stroke" d="
  M 601.32 807.05
  C 598.83 815.20 593.98 822.59 584.59 823.61
  Q 578.04 824.33 573.87 823.10
  C 564.77 820.42 560.64 813.58 558.94 804.10
  Q 557.21 794.42 558.65 784.63
  C 559.93 775.90 564.80 767.24 573.86 765.04
  Q 592.06 760.61 600.68 776.78
  A 0.51 0.51 0.0 0 0 601.39 776.98
  L 613.32 770.10
  A 1.87 1.87 0.0 0 0 614.08 767.70
  Q 606.71 751.47 588.45 749.35
  C 572.33 747.47 557.46 751.22 547.94 764.56
  C 539.53 776.35 538.88 792.39 540.84 806.20
  Q 542.28 816.40 548.83 824.66
  C 557.53 835.66 569.99 839.65 583.94 839.15
  Q 593.81 838.80 602.07 833.53
  Q 612.55 826.83 615.25 814.04
  A 0.95 0.94 -71.2 0 0 614.75 813.01
  L 602.15 806.70
  A 0.59 0.58 21.8 0 0 601.32 807.05"
/>
<path stroke="#85815f" vector-effect="non-scaling-stroke" d="
  M 421.95 750.90
  A 0.61 0.61 0.0 0 0 421.34 750.29
  L 404.81 750.29
  A 0.63 0.63 0.0 0 0 404.18 750.92
  L 404.33 837.35
  A 0.62 0.62 0.0 0 0 404.96 837.97
  L 460.85 837.73
  A 0.63 0.63 0.0 0 0 461.48 837.11
  L 461.53 824.05
  A 0.71 0.71 0.0 0 0 460.82 823.33
  L 422.59 823.42
  A 0.57 0.57 0.0 0 1 422.02 822.85
  L 421.95 750.90"
/>
<path stroke="#85815f" vector-effect="non-scaling-stroke" d="
  M 531.91 824.06
  A 0.70 0.70 0.0 0 0 531.21 823.36
  L 493.14 823.36
  A 0.70 0.70 0.0 0 1 492.44 822.66
  L 492.44 750.93
  A 0.70 0.70 0.0 0 0 491.74 750.23
  L 475.39 750.23
  A 0.70 0.70 0.0 0 0 474.69 750.93
  L 474.69 837.13
  A 0.70 0.70 0.0 0 0 475.39 837.83
  L 531.21 837.83
  A 0.70 0.70 0.0 0 0 531.91 837.13
  L 531.91 824.06"
/>
<path stroke="#447ab6" vector-effect="non-scaling-stroke" d="
  M 795.83 810.45
  L 786.69 821.42
  A 1.79 1.78 -43.6 0 0 786.63 823.62
  C 796.02 836.27 810.84 840.12 825.95 839.03
  C 841.64 837.90 853.43 829.40 854.11 812.51
  C 854.66 798.98 845.01 789.23 832.36 786.38
  Q 827.21 785.22 816.55 783.04
  C 811.72 782.05 806.68 779.25 806.44 773.73
  C 806.24 769.49 809.69 765.40 813.72 764.52
  Q 829.18 761.14 840.00 771.42
  A 1.28 1.27 -50.3 0 0 841.92 771.24
  L 849.79 760.27
  A 1.38 1.38 0.0 0 0 849.61 758.47
  C 839.30 748.73 825.40 747.34 811.33 749.61
  C 801.54 751.19 791.36 758.27 789.54 768.54
  C 787.62 779.30 790.27 788.45 799.99 794.15
  C 807.89 798.78 819.75 800.29 825.68 802.33
  C 829.70 803.72 833.88 805.82 834.78 809.72
  C 836.66 817.89 832.30 823.32 824.32 823.95
  C 816.45 824.56 809.73 822.25 803.57 817.13
  C 801.15 815.12 799.15 812.06 797.48 810.37
  A 1.12 1.11 42.2 0 0 795.83 810.45"
/>
<path stroke="#447ab6" vector-effect="non-scaling-stroke" d="
  M 954.25 807.20
  C 951.89 814.80 949.17 820.05 941.47 822.78
  Q 937.00 824.37 931.16 823.94
  C 922.06 823.28 915.44 816.35 913.16 807.82
  Q 909.67 794.81 912.56 781.56
  Q 914.25 773.82 920.15 768.61
  Q 924.89 764.43 932.64 764.05
  C 942.20 763.59 949.56 768.27 953.47 776.78
  A 0.67 0.67 0.0 0 0 954.42 777.08
  L 967.09 769.77
  A 1.44 1.43 -26.3 0 0 967.70 767.98
  Q 964.40 760.05 957.39 755.13
  C 949.74 749.78 941.97 748.47 932.41 748.68
  C 919.04 748.97 904.47 755.86 898.53 768.44
  C 892.15 781.96 891.65 797.71 895.68 812.04
  C 899.24 824.73 909.43 834.24 921.87 837.70
  Q 931.66 840.43 943.00 838.26
  Q 963.31 834.38 968.74 814.59
  A 1.17 1.17 0.0 0 0 968.14 813.24
  L 955.24 806.78
  A 0.71 0.71 0.0 0 0 954.25 807.20"
/>
<path stroke="#447ab6" vector-effect="non-scaling-stroke" d="
  M 1042.1888 799.2914
  A 29.52 29.52 0.0 0 0 1011.5573 770.9263
  L 1005.9015 771.1436
  A 29.52 29.52 0.0 0 0 977.5365 801.7751
  L 977.8712 810.4886
  A 29.52 29.52 0.0 0 0 1008.5027 838.8537
  L 1014.1585 838.6364
  A 29.52 29.52 0.0 0 0 1042.5235 808.0049
  L 1042.1888 799.2914"
/>
<path stroke="#447ab6" vector-effect="non-scaling-stroke" d="
  M 1125.00 779.39
  L 1125.00 772.74
  A 0.92 0.91 -0.0 0 0 1124.08 771.83
  L 1108.45 771.83
  A 0.37 0.36 -0.0 0 0 1108.08 772.19
  L 1108.08 863.13
  A 0.66 0.66 0.0 0 0 1108.74 863.79
  L 1124.59 863.79
  A 0.76 0.75 90.0 0 0 1125.34 863.03
  L 1125.34 830.60
  A 0.20 0.19 25.5 0 1 1125.69 830.48
  Q 1132.41 838.67 1142.95 839.05
  C 1153.04 839.42 1160.25 835.85 1166.29 827.75
  C 1173.55 818.02 1173.28 801.65 1170.23 790.45
  C 1168.36 783.58 1163.07 774.97 1156.17 772.57
  C 1145.39 768.81 1133.38 770.62 1125.92 779.72
  A 0.52 0.52 0.0 0 1 1125.00 779.39"
/>
<path stroke="#447ab6" vector-effect="non-scaling-stroke" d="
  M 1074.33 780.98
  A 0.30 0.30 0.0 0 1 1073.83 780.78
  L 1073.10 772.49
  A 0.81 0.81 0.0 0 0 1072.29 771.76
  L 1057.59 771.76
  A 0.57 0.56 -0.0 0 0 1057.02 772.32
  L 1057.02 837.01
  A 0.74 0.74 0.0 0 0 1057.76 837.75
  L 1073.01 837.75
  A 1.21 1.20 0.7 0 0 1074.22 836.58
  C 1074.54 824.64 1073.88 813.20 1074.29 802.26
  C 1074.64 793.16 1079.66 785.66 1089.75 786.49
  Q 1091.43 786.62 1094.83 787.56
  A 0.99 0.99 0.0 0 0 1096.06 786.82
  L 1099.03 773.60
  A 1.07 1.06 15.9 0 0 1098.33 772.35
  C 1091.01 769.87 1081.66 770.42 1076.91 777.40
  Q 1074.68 780.67 1074.33 780.98"
/>
<path stroke="#447ab6" vector-effect="non-scaling-stroke" d="
  M 994.65 804.92
  C 994.70 814.93 997.85 824.82 1009.90 824.77
  C 1021.95 824.72 1025.02 814.79 1024.97 804.79
  C 1024.93 794.78 1021.77 784.89 1009.72 784.94
  C 997.67 785.00 994.61 794.92 994.65 804.92"
/>
<path stroke="#447ab6" vector-effect="non-scaling-stroke" d="
  M 1125.17 805.02
  C 1125.28 814.58 1128.51 824.86 1140.19 824.73
  C 1151.87 824.59 1154.85 814.24 1154.74 804.69
  C 1154.64 795.14 1151.41 784.85 1139.73 784.99
  C 1128.05 785.12 1125.07 795.47 1125.17 805.02"
/>
<path stroke="#2557a9" vector-effect="non-scaling-stroke" d="
  M 1507.03 805.19
  C 1507.18 815.21 1510.44 825.09 1522.51 824.92
  C 1534.58 824.74 1537.56 814.77 1537.41 804.74
  C 1537.26 794.72 1534.00 784.83 1521.93 785.01
  C 1509.86 785.19 1506.88 795.16 1507.03 805.19"
/>
<path stroke="#2557a9" vector-effect="non-scaling-stroke" d="
  M 1637.50 804.65
  C 1637.42 814.26 1640.46 824.66 1652.21 824.76
  C 1663.96 824.86 1667.17 814.50 1667.25 804.90
  C 1667.33 795.29 1664.29 784.88 1652.54 784.79
  C 1640.79 784.69 1637.58 795.04 1637.50 804.65"
/>
</g>
<path fill="#aedcf4" d="
  M 2164.00 0.00
  L 2164.00 1452.00
  L 0.00 1452.00
  L 0.00 0.00
  L 2164.00 0.00
  Z
  M 544.24 294.00
  Q 542.78 298.42 540.88 302.25
  C 534.25 315.62 512.83 315.76 503.55 305.71
  C 495.21 296.68 495.09 283.90 495.86 271.72
  C 496.88 255.49 507.61 243.81 524.81 245.88
  Q 537.52 247.41 542.85 259.42
  A 1.45 1.45 0.0 0 0 544.90 260.07
  L 558.62 252.06
  A 1.01 1.00 66.1 0 0 559.07 250.88
  C 552.85 231.73 531.67 227.21 513.93 229.20
  C 493.42 231.50 479.44 246.05 475.85 266.31
  C 472.35 286.01 476.73 312.67 496.01 323.30
  Q 514.56 333.54 535.82 327.79
  C 549.32 324.15 556.50 315.17 560.68 302.09
  A 0.95 0.95 0.0 0 0 560.21 300.95
  L 545.26 293.58
  A 0.73 0.72 -67.4 0 0 544.24 294.00
  Z
  M 791.81 297.20
  L 780.74 310.49
  A 1.08 1.06 49.1 0 0 780.66 311.74
  C 790.47 327.01 809.54 330.80 826.42 329.61
  C 841.19 328.58 855.58 318.58 856.77 302.93
  C 857.38 294.87 855.92 285.76 849.77 280.20
  Q 840.84 272.11 827.46 269.60
  Q 815.23 267.30 814.44 267.08
  C 808.60 265.48 802.76 263.48 802.99 256.47
  C 803.23 248.88 809.37 246.24 816.05 245.62
  Q 827.42 244.55 836.44 250.86
  Q 838.84 252.54 841.26 254.35
  A 1.30 1.30 0.0 0 0 843.10 254.07
  L 852.38 241.12
  A 0.76 0.76 0.0 0 0 852.28 240.12
  C 845.56 233.77 836.44 230.22 827.03 229.21
  C 814.84 227.90 802.83 229.08 792.65 236.42
  C 785.49 241.58 783.03 250.22 783.21 258.73
  C 783.38 266.79 787.66 274.74 794.12 278.64
  Q 802.03 283.43 807.96 284.57
  Q 819.85 286.87 824.07 287.91
  C 830.13 289.40 836.34 292.96 836.26 300.29
  Q 836.14 310.46 825.53 312.05
  Q 812.33 314.04 801.79 306.75
  C 798.61 304.55 795.41 299.39 793.21 297.14
  A 0.94 0.94 0.0 0 0 791.81 297.20
  Z
  M 969.95 294.08
  Q 968.46 298.49 966.54 302.31
  C 959.84 315.64 938.43 315.66 929.21 305.57
  C 920.92 296.50 920.87 283.72 921.70 271.55
  C 922.81 255.33 933.60 243.71 950.78 245.87
  Q 963.48 247.47 968.74 259.50
  A 1.45 1.45 0.0 0 0 970.79 260.17
  L 984.54 252.23
  A 1.00 1.00 0.0 0 0 985.00 251.05
  C 978.88 231.88 957.74 227.25 939.99 229.14
  C 919.48 231.33 905.43 245.80 901.73 266.03
  C 898.13 285.71 902.36 312.38 921.58 323.11
  Q 940.07 333.44 961.35 327.81
  C 974.86 324.24 982.09 315.30 986.34 302.25
  A 0.95 0.95 0.0 0 0 985.87 301.11
  L 970.97 293.66
  A 0.73 0.72 -67.1 0 0 969.95 294.08
  Z
  M 1510.60 293.90
  Q 1509.13 298.31 1507.23 302.14
  C 1500.59 315.49 1479.20 315.61 1469.95 305.57
  C 1461.62 296.54 1461.52 283.78 1462.29 271.61
  C 1463.32 255.40 1474.05 243.74 1491.22 245.82
  Q 1503.92 247.37 1509.23 259.36
  A 1.45 1.45 0.0 0 0 1511.28 260.02
  L 1524.98 252.03
  A 1.00 1.00 0.0 0 0 1525.44 250.84
  C 1519.23 231.72 1498.09 227.19 1480.37 229.16
  C 1459.89 231.44 1445.92 245.96 1442.31 266.19
  C 1438.81 285.87 1443.15 312.49 1462.40 323.12
  Q 1480.92 333.36 1502.16 327.64
  C 1515.64 324.01 1522.82 315.05 1527.01 301.99
  A 0.95 0.95 0.0 0 0 1526.53 300.85
  L 1511.61 293.48
  A 0.73 0.72 -67.4 0 0 1510.60 293.90
  Z
  M 1638.35 294.18
  Q 1636.85 298.59 1634.93 302.41
  C 1628.21 315.75 1606.78 315.75 1597.56 305.64
  C 1589.27 296.56 1589.23 283.76 1590.07 271.58
  C 1591.20 255.35 1602.01 243.73 1619.20 245.91
  Q 1631.91 247.52 1637.17 259.57
  A 1.45 1.45 0.0 0 0 1639.22 260.24
  L 1652.99 252.30
  A 1.01 1.00 66.5 0 0 1653.45 251.12
  C 1647.34 231.93 1626.19 227.28 1608.42 229.15
  C 1587.89 231.33 1573.81 245.80 1570.09 266.04
  C 1566.47 285.74 1570.68 312.43 1589.91 323.19
  Q 1608.40 333.55 1629.71 327.93
  C 1643.23 324.37 1650.48 315.43 1654.75 302.37
  A 0.95 0.95 0.0 0 0 1654.28 301.23
  L 1639.37 293.76
  A 0.73 0.72 -67.0 0 0 1638.35 294.18
  Z
  M 319.87 231.13
  L 319.88 327.62
  A 0.77 0.76 90.0 0 0 320.64 328.39
  L 384.30 328.22
  A 0.67 0.67 0.0 0 0 384.97 327.54
  L 384.86 313.05
  A 1.07 1.07 0.0 0 0 383.79 311.99
  L 340.81 312.01
  A 1.02 1.02 0.0 0 1 339.79 310.99
  L 339.88 231.26
  A 0.66 0.66 0.0 0 0 339.21 230.60
  L 320.39 230.61
  A 0.52 0.51 -89.5 0 0 319.87 231.13
  Z
  M 419.84 231.30
  A 0.75 0.75 0.0 0 0 419.09 230.55
  L 400.62 230.55
  A 0.75 0.75 0.0 0 0 399.87 231.30
  L 399.87 327.53
  A 0.75 0.75 0.0 0 0 400.62 328.28
  L 464.12 328.28
  A 0.75 0.75 0.0 0 0 464.87 327.53
  L 464.87 312.73
  A 0.75 0.75 0.0 0 0 464.12 311.98
  L 420.59 311.98
  A 0.75 0.75 0.0 0 1 419.84 311.23
  L 419.84 231.30
  Z
  M 679.48 314.46
  A 1.00 1.00 0.0 0 0 679.35 315.73
  Q 683.72 322.37 690.89 325.65
  Q 698.97 329.35 707.67 329.78
  C 715.27 330.16 723.86 329.06 729.98 324.97
  Q 739.42 318.67 740.23 308.44
  C 741.04 298.09 736.29 289.28 726.25 286.00
  C 719.17 283.69 710.35 282.63 707.24 281.56
  C 703.08 280.13 699.31 278.36 699.68 273.57
  C 699.97 269.79 702.62 268.19 706.38 267.61
  C 713.33 266.55 718.64 267.66 723.38 271.75
  Q 725.54 273.61 726.10 274.03
  A 1.06 1.04 40.4 0 0 727.46 273.93
  L 737.24 264.15
  A 1.17 1.17 0.0 0 0 737.26 262.52
  C 727.63 252.33 714.87 251.33 700.87 253.41
  Q 696.36 254.08 690.16 258.36
  C 678.66 266.30 679.01 284.01 689.59 291.90
  Q 693.45 294.78 700.50 296.28
  Q 706.72 297.59 712.93 299.06
  C 717.84 300.22 723.12 302.91 721.35 308.84
  Q 720.00 313.35 714.69 313.99
  Q 700.10 315.74 691.01 304.44
  A 0.97 0.97 0.0 0 0 689.57 304.37
  L 679.48 314.46
  Z
  M 1337.69 314.38
  A 1.00 1.00 0.0 0 0 1337.55 315.66
  Q 1341.91 322.31 1349.08 325.61
  Q 1357.16 329.33 1365.86 329.78
  C 1373.47 330.17 1382.06 329.09 1388.20 325.01
  Q 1397.66 318.73 1398.49 308.50
  C 1399.32 298.14 1394.59 289.31 1384.55 286.01
  C 1377.47 283.68 1368.65 282.60 1365.54 281.53
  C 1361.38 280.09 1357.61 278.31 1357.99 273.51
  C 1358.29 269.73 1360.95 268.14 1364.71 267.56
  C 1371.67 266.52 1376.98 267.64 1381.71 271.74
  Q 1383.87 273.61 1384.43 274.03
  A 1.06 1.04 40.6 0 0 1385.79 273.94
  L 1395.60 264.17
  A 1.18 1.17 46.0 0 0 1395.62 262.54
  C 1386.01 252.32 1373.24 251.29 1359.23 253.34
  Q 1354.71 254.00 1348.50 258.27
  C 1336.97 266.19 1337.28 283.91 1347.85 291.83
  Q 1351.71 294.72 1358.76 296.24
  Q 1364.98 297.56 1371.19 299.05
  C 1376.10 300.22 1381.38 302.92 1379.60 308.85
  Q 1378.24 313.36 1372.92 313.99
  Q 1358.32 315.71 1349.25 304.38
  A 0.97 0.97 0.0 0 0 1347.81 304.31
  L 1337.69 314.38
  Z
  M 996.11 290.67
  C 995.80 313.51 1009.37 329.43 1032.73 329.75
  C 1056.09 330.06 1070.08 314.51 1070.39 291.67
  C 1070.70 268.84 1057.13 252.91 1033.77 252.60
  C 1010.41 252.28 996.41 267.84 996.11 290.67
  Z
  M 1163.71 319.56
  Q 1164.14 319.59 1164.40 319.89
  Q 1173.60 330.38 1187.78 329.63
  C 1202.12 328.86 1212.58 317.97 1215.73 304.46
  C 1220.05 285.88 1215.79 256.42 1192.35 253.20
  Q 1182.44 251.84 1175.73 254.50
  C 1170.23 256.68 1168.25 258.93 1164.41 263.11
  A 0.54 0.54 0.0 0 1 1163.48 262.74
  L 1163.48 254.73
  A 0.78 0.78 0.0 0 0 1162.70 253.95
  L 1144.94 253.95
  A 0.38 0.38 0.0 0 0 1144.56 254.33
  L 1144.56 356.10
  A 0.99 0.99 0.0 0 0 1145.55 357.09
  L 1162.80 357.09
  A 0.68 0.68 0.0 0 0 1163.48 356.41
  L 1163.48 319.78
  A 0.22 0.21 -87.6 0 1 1163.71 319.56
  Z
  M 1664.59 292.25
  C 1665.04 309.33 1671.79 322.82 1688.75 327.92
  C 1704.19 332.56 1721.86 328.90 1731.72 315.47
  C 1737.05 308.21 1738.67 299.00 1738.43 290.06
  C 1737.97 272.98 1731.23 259.49 1714.27 254.39
  C 1698.83 249.75 1681.16 253.41 1671.30 266.84
  C 1665.96 274.10 1664.35 283.31 1664.59 292.25
  Z
  M 1831.75 319.61
  Q 1832.18 319.64 1832.44 319.94
  Q 1841.69 330.37 1855.85 329.55
  C 1870.17 328.71 1880.56 317.78 1883.64 304.27
  C 1887.87 285.68 1883.46 256.28 1860.03 253.18
  Q 1850.12 251.87 1843.43 254.56
  C 1837.95 256.76 1835.98 259.02 1832.17 263.22
  A 0.54 0.53 66.2 0 1 1831.24 262.85
  L 1831.20 254.85
  A 0.78 0.78 0.0 0 0 1830.42 254.07
  L 1812.67 254.16
  A 0.38 0.38 0.0 0 0 1812.30 254.54
  L 1812.80 356.21
  A 0.99 0.99 0.0 0 0 1813.80 357.19
  L 1831.03 357.11
  A 0.68 0.68 0.0 0 0 1831.71 356.42
  L 1831.52 319.83
  A 0.22 0.21 -87.9 0 1 1831.75 319.61
  Z
  M 1104.96 264.31
  L 1105.02 254.94
  A 0.72 0.72 0.0 0 0 1104.31 254.22
  L 1087.17 254.10
  A 0.55 0.54 0.4 0 0 1086.62 254.64
  L 1086.11 327.05
  A 1.19 1.19 0.0 0 0 1087.30 328.25
  L 1104.75 328.37
  A 0.64 0.63 0.4 0 0 1105.40 327.75
  Q 1105.73 298.23 1105.78 291.51
  C 1105.86 279.78 1110.41 267.75 1125.16 271.36
  Q 1127.07 271.82 1129.40 272.68
  A 0.85 0.84 -73.3 0 0 1130.51 272.07
  L 1134.13 256.51
  A 0.74 0.73 20.3 0 0 1133.74 255.69
  C 1125.72 251.69 1114.32 252.25 1108.94 260.09
  Q 1106.34 263.88 1105.80 264.60
  A 0.47 0.47 0.0 0 1 1104.96 264.31
  Z
  M 1773.06 264.31
  L 1773.06 254.96
  A 0.72 0.72 0.0 0 0 1772.34 254.24
  L 1755.24 254.24
  A 0.55 0.54 0.0 0 0 1754.69 254.78
  L 1754.69 327.06
  A 1.19 1.19 0.0 0 0 1755.88 328.25
  L 1773.30 328.25
  A 0.64 0.63 0.0 0 0 1773.94 327.62
  Q 1774.07 298.16 1774.07 291.45
  C 1774.07 279.74 1778.53 267.70 1793.27 271.20
  Q 1795.18 271.65 1797.51 272.49
  A 0.84 0.84 0.0 0 0 1798.62 271.88
  L 1802.12 256.32
  A 0.74 0.73 19.9 0 0 1801.73 255.50
  C 1793.69 251.57 1782.32 252.21 1777.01 260.07
  Q 1774.44 263.87 1773.90 264.59
  A 0.47 0.46 63.3 0 1 1773.06 264.31
  Z
  M 673.57 253.79
  L 655.71 253.82
  A 1.31 1.30 -80.2 0 0 654.48 254.69
  L 636.10 306.07
  A 0.34 0.34 0.0 0 1 635.46 306.07
  L 616.98 255.16
  A 2.03 2.02 -9.8 0 0 615.09 253.83
  L 597.25 253.74
  A 0.51 0.51 0.0 0 0 596.78 254.42
  L 624.33 327.25
  A 1.39 1.39 0.0 0 0 625.61 328.14
  L 644.71 328.30
  A 2.13 2.12 10.4 0 0 646.72 326.92
  L 674.04 254.48
  A 0.51 0.50 -79.6 0 0 673.57 253.79
  Z
  M 1304.49 328.30
  A 0.34 0.34 0.0 0 0 1304.80 328.08
  L 1332.71 254.32
  A 0.34 0.34 0.0 0 0 1332.39 253.86
  L 1313.61 253.86
  A 0.34 0.34 0.0 0 0 1313.29 254.09
  L 1294.63 306.14
  A 0.34 0.34 0.0 0 1 1293.99 306.14
  L 1275.09 254.03
  A 0.34 0.34 0.0 0 0 1274.77 253.81
  L 1255.55 253.81
  A 0.34 0.34 0.0 0 0 1255.23 254.27
  L 1283.14 328.08
  A 0.34 0.34 0.0 0 0 1283.45 328.30
  L 1304.49 328.30
  Z
  M 1637.41 579.54
  Q 1584.90 579.19 1533.01 579.22
  Q 1514.71 579.23 1501.40 566.69
  Q 1498.89 564.32 1495.49 559.62
  Q 1493.10 556.32 1489.60 552.45
  C 1486.86 549.43 1483.99 544.43 1482.29 541.96
  Q 1480.52 539.39 1475.66 534.24
  C 1468.94 527.12 1456.57 523.09 1447.74 523.04
  Q 1400.95 522.73 1266.24 522.89
  Q 1249.82 522.91 1245.41 524.08
  Q 1232.77 527.44 1226.10 540.80
  Q 1222.53 547.95 1222.60 555.25
  Q 1222.71 566.99 1222.66 579.11
  Q 1113.18 579.56 1003.74 579.13
  C 995.64 579.10 988.13 578.67 981.50 576.74
  Q 966.00 572.22 956.25 558.28
  Q 944.92 542.08 940.40 536.67
  C 932.20 526.86 921.85 522.99 909.75 522.98
  Q 890.93 522.98 745.08 523.05
  C 735.90 523.06 730.84 524.01 724.00 528.75
  Q 712.97 536.40 711.62 550.05
  Q 710.48 561.64 711.14 571.82
  Q 711.49 577.27 710.96 580.65
  Q 707.81 579.11 702.06 579.12
  Q 584.40 579.27 565.24 579.14
  Q 539.70 578.98 525.01 558.50
  Q 517.91 548.61 511.09 539.39
  Q 499.04 523.09 477.74 523.10
  Q 386.27 523.14 321.30 523.13
  Q 314.89 523.13 312.19 524.16
  Q 296.79 530.06 292.17 544.79
  Q 290.72 549.43 290.72 562.38
  Q 290.75 917.89 290.76 988.00
  Q 290.76 1004.59 303.46 1014.05
  Q 310.49 1019.28 318.99 1019.44
  Q 330.63 1019.65 338.84 1019.66
  Q 557.90 1019.72 724.50 1019.62
  Q 728.41 1019.62 730.94 1018.36
  Q 736.50 1019.30 742.75 1019.32
  C 876.56 1019.64 1011.69 1019.41 1151.94 1019.47
  Q 1183.73 1019.48 1195.06 1019.33
  Q 1216.26 1019.07 1238.17 1019.31
  Q 1239.43 1019.32 1240.51 1018.58
  Q 1240.75 1018.41 1241.10 1017.26
  Q 1245.36 1019.27 1251.25 1019.27
  Q 1386.66 1019.37 1755.00 1019.43
  Q 1764.24 1019.43 1771.33 1014.32
  Q 1784.04 1005.15 1784.13 989.01
  Q 1784.65 890.01 1784.36 790.95
  Q 1791.71 789.11 1797.11 786.37
  C 1816.49 776.54 1835.10 763.84 1851.53 750.33
  Q 1867.88 736.88 1882.99 718.24
  Q 1896.17 701.98 1903.04 687.33
  Q 1920.92 649.21 1923.15 605.74
  Q 1924.96 570.65 1923.70 543.92
  Q 1923.20 533.22 1922.28 530.57
  C 1920.59 525.71 1915.22 519.98 1909.36 519.89
  C 1898.21 519.71 1885.32 519.26 1874.52 516.97
  Q 1850.10 511.80 1827.44 501.32
  Q 1813.08 494.67 1801.71 486.80
  Q 1801.17 486.43 1792.03 479.96
  Q 1781.33 472.39 1770.02 479.59
  C 1762.92 484.11 1756.11 489.99 1748.02 494.50
  C 1723.62 508.07 1695.74 517.31 1667.84 519.37
  Q 1662.08 519.79 1651.38 520.07
  A 6.27 6.26 34.1 0 0 1649.29 520.47
  Q 1639.73 524.06 1638.47 533.18
  Q 1636.88 544.65 1637.06 561.25
  Q 1637.16 570.01 1637.41 579.54
  Z"
/>
<path fill="#0f2c72" d="
  M 544.24 294.00
  A 0.73 0.72 -67.4 0 1 545.26 293.58
  L 560.21 300.95
  A 0.95 0.95 0.0 0 1 560.68 302.09
  C 556.50 315.17 549.32 324.15 535.82 327.79
  Q 514.56 333.54 496.01 323.30
  C 476.73 312.67 472.35 286.01 475.85 266.31
  C 479.44 246.05 493.42 231.50 513.93 229.20
  C 531.67 227.21 552.85 231.73 559.07 250.88
  A 1.01 1.00 66.1 0 1 558.62 252.06
  L 544.90 260.07
  A 1.45 1.45 0.0 0 1 542.85 259.42
  Q 537.52 247.41 524.81 245.88
  C 507.61 243.81 496.88 255.49 495.86 271.72
  C 495.09 283.90 495.21 296.68 503.55 305.71
  C 512.83 315.76 534.25 315.62 540.88 302.25
  Q 542.78 298.42 544.24 294.00
  Z"
/>
<path fill="#0f2c72" d="
  M 791.81 297.20
  A 0.94 0.94 0.0 0 1 793.21 297.14
  C 795.41 299.39 798.61 304.55 801.79 306.75
  Q 812.33 314.04 825.53 312.05
  Q 836.14 310.46 836.26 300.29
  C 836.34 292.96 830.13 289.40 824.07 287.91
  Q 819.85 286.87 807.96 284.57
  Q 802.03 283.43 794.12 278.64
  C 787.66 274.74 783.38 266.79 783.21 258.73
  C 783.03 250.22 785.49 241.58 792.65 236.42
  C 802.83 229.08 814.84 227.90 827.03 229.21
  C 836.44 230.22 845.56 233.77 852.28 240.12
  A 0.76 0.76 0.0 0 1 852.38 241.12
  L 843.10 254.07
  A 1.30 1.30 0.0 0 1 841.26 254.35
  Q 838.84 252.54 836.44 250.86
  Q 827.42 244.55 816.05 245.62
  C 809.37 246.24 803.23 248.88 802.99 256.47
  C 802.76 263.48 808.60 265.48 814.44 267.08
  Q 815.23 267.30 827.46 269.60
  Q 840.84 272.11 849.77 280.20
  C 855.92 285.76 857.38 294.87 856.77 302.93
  C 855.58 318.58 841.19 328.58 826.42 329.61
  C 809.54 330.80 790.47 327.01 780.66 311.74
  A 1.08 1.06 49.1 0 1 780.74 310.49
  L 791.81 297.20
  Z"
/>
<path fill="#0f2c72" d="
  M 969.95 294.08
  A 0.73 0.72 -67.1 0 1 970.97 293.66
  L 985.87 301.11
  A 0.95 0.95 0.0 0 1 986.34 302.25
  C 982.09 315.30 974.86 324.24 961.35 327.81
  Q 940.07 333.44 921.58 323.11
  C 902.36 312.38 898.13 285.71 901.73 266.03
  C 905.43 245.80 919.48 231.33 939.99 229.14
  C 957.74 227.25 978.88 231.88 985.00 251.05
  A 1.00 1.00 0.0 0 1 984.54 252.23
  L 970.79 260.17
  A 1.45 1.45 0.0 0 1 968.74 259.50
  Q 963.48 247.47 950.78 245.87
  C 933.60 243.71 922.81 255.33 921.70 271.55
  C 920.87 283.72 920.92 296.50 929.21 305.57
  C 938.43 315.66 959.84 315.64 966.54 302.31
  Q 968.46 298.49 969.95 294.08
  Z"
/>
<path fill="#0f2c72" d="
  M 1510.60 293.90
  A 0.73 0.72 -67.4 0 1 1511.61 293.48
  L 1526.53 300.85
  A 0.95 0.95 0.0 0 1 1527.01 301.99
  C 1522.82 315.05 1515.64 324.01 1502.16 327.64
  Q 1480.92 333.36 1462.40 323.12
  C 1443.15 312.49 1438.81 285.87 1442.31 266.19
  C 1445.92 245.96 1459.89 231.44 1480.37 229.16
  C 1498.09 227.19 1519.23 231.72 1525.44 250.84
  A 1.00 1.00 0.0 0 1 1524.98 252.03
  L 1511.28 260.02
  A 1.45 1.45 0.0 0 1 1509.23 259.36
  Q 1503.92 247.37 1491.22 245.82
  C 1474.05 243.74 1463.32 255.40 1462.29 271.61
  C 1461.52 283.78 1461.62 296.54 1469.95 305.57
  C 1479.20 315.61 1500.59 315.49 1507.23 302.14
  Q 1509.13 298.31 1510.60 293.90
  Z"
/>
<path fill="#0f2c72" d="
  M 1638.35 294.18
  A 0.73 0.72 -67.0 0 1 1639.37 293.76
  L 1654.28 301.23
  A 0.95 0.95 0.0 0 1 1654.75 302.37
  C 1650.48 315.43 1643.23 324.37 1629.71 327.93
  Q 1608.40 333.55 1589.91 323.19
  C 1570.68 312.43 1566.47 285.74 1570.09 266.04
  C 1573.81 245.80 1587.89 231.33 1608.42 229.15
  C 1626.19 227.28 1647.34 231.93 1653.45 251.12
  A 1.01 1.00 66.5 0 1 1652.99 252.30
  L 1639.22 260.24
  A 1.45 1.45 0.0 0 1 1637.17 259.57
  Q 1631.91 247.52 1619.20 245.91
  C 1602.01 243.73 1591.20 255.35 1590.07 271.58
  C 1589.23 283.76 1589.27 296.56 1597.56 305.64
  C 1606.78 315.75 1628.21 315.75 1634.93 302.41
  Q 1636.85 298.59 1638.35 294.18
  Z"
/>
<path fill="#0f2c72" d="
  M 319.87 231.13
  A 0.52 0.51 -89.5 0 1 320.39 230.61
  L 339.21 230.60
  A 0.66 0.66 0.0 0 1 339.88 231.26
  L 339.79 310.99
  A 1.02 1.02 0.0 0 0 340.81 312.01
  L 383.79 311.99
  A 1.07 1.07 0.0 0 1 384.86 313.05
  L 384.97 327.54
  A 0.67 0.67 0.0 0 1 384.30 328.22
  L 320.64 328.39
  A 0.77 0.76 90.0 0 1 319.88 327.62
  L 319.87 231.13
  Z"
/>
<path fill="#0f2c72" d="
  M 419.84 231.30
  L 419.84 311.23
  A 0.75 0.75 0.0 0 0 420.59 311.98
  L 464.12 311.98
  A 0.75 0.75 0.0 0 1 464.87 312.73
  L 464.87 327.53
  A 0.75 0.75 0.0 0 1 464.12 328.28
  L 400.62 328.28
  A 0.75 0.75 0.0 0 1 399.87 327.53
  L 399.87 231.30
  A 0.75 0.75 0.0 0 1 400.62 230.55
  L 419.09 230.55
  A 0.75 0.75 0.0 0 1 419.84 231.30
  Z"
/>
<path fill="#0f2c72" d="
  M 679.48 314.46
  L 689.57 304.37
  A 0.97 0.97 0.0 0 1 691.01 304.44
  Q 700.10 315.74 714.69 313.99
  Q 720.00 313.35 721.35 308.84
  C 723.12 302.91 717.84 300.22 712.93 299.06
  Q 706.72 297.59 700.50 296.28
  Q 693.45 294.78 689.59 291.90
  C 679.01 284.01 678.66 266.30 690.16 258.36
  Q 696.36 254.08 700.87 253.41
  C 714.87 251.33 727.63 252.33 737.26 262.52
  A 1.17 1.17 0.0 0 1 737.24 264.15
  L 727.46 273.93
  A 1.06 1.04 40.4 0 1 726.10 274.03
  Q 725.54 273.61 723.38 271.75
  C 718.64 267.66 713.33 266.55 706.38 267.61
  C 702.62 268.19 699.97 269.79 699.68 273.57
  C 699.31 278.36 703.08 280.13 707.24 281.56
  C 710.35 282.63 719.17 283.69 726.25 286.00
  C 736.29 289.28 741.04 298.09 740.23 308.44
  Q 739.42 318.67 729.98 324.97
  C 723.86 329.06 715.27 330.16 707.67 329.78
  Q 698.97 329.35 690.89 325.65
  Q 683.72 322.37 679.35 315.73
  A 1.00 1.00 0.0 0 1 679.48 314.46
  Z"
/>
<path fill="#0f2c72" d="
  M 1337.69 314.38
  L 1347.81 304.31
  A 0.97 0.97 0.0 0 1 1349.25 304.38
  Q 1358.32 315.71 1372.92 313.99
  Q 1378.24 313.36 1379.60 308.85
  C 1381.38 302.92 1376.10 300.22 1371.19 299.05
  Q 1364.98 297.56 1358.76 296.24
  Q 1351.71 294.72 1347.85 291.83
  C 1337.28 283.91 1336.97 266.19 1348.50 258.27
  Q 1354.71 254.00 1359.23 253.34
  C 1373.24 251.29 1386.01 252.32 1395.62 262.54
  A 1.18 1.17 46.0 0 1 1395.60 264.17
  L 1385.79 273.94
  A 1.06 1.04 40.6 0 1 1384.43 274.03
  Q 1383.87 273.61 1381.71 271.74
  C 1376.98 267.64 1371.67 266.52 1364.71 267.56
  C 1360.95 268.14 1358.29 269.73 1357.99 273.51
  C 1357.61 278.31 1361.38 280.09 1365.54 281.53
  C 1368.65 282.60 1377.47 283.68 1384.55 286.01
  C 1394.59 289.31 1399.32 298.14 1398.49 308.50
  Q 1397.66 318.73 1388.20 325.01
  C 1382.06 329.09 1373.47 330.17 1365.86 329.78
  Q 1357.16 329.33 1349.08 325.61
  Q 1341.91 322.31 1337.55 315.66
  A 1.00 1.00 0.0 0 1 1337.69 314.38
  Z"
/>
<path fill="#0f2c72" d="
  M 1033.77 252.60
  C 1057.13 252.91 1070.70 268.84 1070.39 291.67
  C 1070.08 314.51 1056.09 330.06 1032.73 329.75
  C 1009.37 329.43 995.80 313.51 996.11 290.67
  C 996.41 267.84 1010.41 252.28 1033.77 252.60
  Z
  M 1016.39 290.68
  C 1016.17 301.95 1019.46 313.18 1033.03 313.44
  C 1046.60 313.70 1050.32 302.61 1050.53 291.34
  C 1050.75 280.07 1047.47 268.85 1033.90 268.59
  C 1020.32 268.32 1016.61 279.41 1016.39 290.68
  Z"
/>
<path fill="#0f2c72" d="
  M 1163.71 319.56
  A 0.22 0.21 -87.6 0 0 1163.48 319.78
  L 1163.48 356.41
  A 0.68 0.68 0.0 0 1 1162.80 357.09
  L 1145.55 357.09
  A 0.99 0.99 0.0 0 1 1144.56 356.10
  L 1144.56 254.33
  A 0.38 0.38 0.0 0 1 1144.94 253.95
  L 1162.70 253.95
  A 0.78 0.78 0.0 0 1 1163.48 254.73
  L 1163.48 262.74
  A 0.54 0.54 0.0 0 0 1164.41 263.11
  C 1168.25 258.93 1170.23 256.68 1175.73 254.50
  Q 1182.44 251.84 1192.35 253.20
  C 1215.79 256.42 1220.05 285.88 1215.73 304.46
  C 1212.58 317.97 1202.12 328.86 1187.78 329.63
  Q 1173.60 330.38 1164.40 319.89
  Q 1164.14 319.59 1163.71 319.56
  Z
  M 1163.54 291.29
  C 1163.62 302.54 1167.19 313.65 1180.73 313.56
  C 1194.27 313.47 1197.69 302.31 1197.62 291.06
  C 1197.54 279.82 1193.97 268.71 1180.43 268.80
  C 1166.89 268.89 1163.47 280.05 1163.54 291.29
  Z"
/>
<path fill="#0f2c72" d="
  M 1664.59 292.25
  C 1664.35 283.31 1665.96 274.10 1671.30 266.84
  C 1681.16 253.41 1698.83 249.75 1714.27 254.39
  C 1731.23 259.49 1737.97 272.98 1738.43 290.06
  C 1738.67 299.00 1737.05 308.21 1731.72 315.47
  C 1721.86 328.90 1704.19 332.56 1688.75 327.92
  C 1671.79 322.82 1665.04 309.33 1664.59 292.25
  Z
  M 1684.17 291.04
  C 1684.10 302.34 1687.54 313.55 1701.14 313.63
  C 1714.75 313.72 1718.33 302.55 1718.40 291.26
  C 1718.47 279.96 1715.03 268.75 1701.43 268.67
  C 1687.82 268.58 1684.24 279.74 1684.17 291.04
  Z"
/>
<path fill="#0f2c72" d="
  M 1831.75 319.61
  A 0.22 0.21 -87.9 0 0 1831.52 319.83
  L 1831.71 356.42
  A 0.68 0.68 0.0 0 1 1831.03 357.11
  L 1813.80 357.19
  A 0.99 0.99 0.0 0 1 1812.80 356.21
  L 1812.30 254.54
  A 0.38 0.38 0.0 0 1 1812.67 254.16
  L 1830.42 254.07
  A 0.78 0.78 0.0 0 1 1831.20 254.85
  L 1831.24 262.85
  A 0.54 0.53 66.2 0 0 1832.17 263.22
  C 1835.98 259.02 1837.95 256.76 1843.43 254.56
  Q 1850.12 251.87 1860.03 253.18
  C 1883.46 256.28 1887.87 285.68 1883.64 304.27
  C 1880.56 317.78 1870.17 328.71 1855.85 329.55
  Q 1841.69 330.37 1832.44 319.94
  Q 1832.18 319.64 1831.75 319.61
  Z
  M 1865.43 291.55
  C 1865.70 280.34 1862.49 269.17 1848.99 268.84
  C 1835.50 268.52 1831.75 279.53 1831.48 290.73
  C 1831.21 301.94 1834.42 313.11 1847.92 313.44
  C 1861.41 313.76 1865.16 302.75 1865.43 291.55
  Z"
/>
<path fill="#0f2c72" d="
  M 1104.96 264.31
  A 0.47 0.47 0.0 0 0 1105.80 264.60
  Q 1106.34 263.88 1108.94 260.09
  C 1114.32 252.25 1125.72 251.69 1133.74 255.69
  A 0.74 0.73 20.3 0 1 1134.13 256.51
  L 1130.51 272.07
  A 0.85 0.84 -73.3 0 1 1129.40 272.68
  Q 1127.07 271.82 1125.16 271.36
  C 1110.41 267.75 1105.86 279.78 1105.78 291.51
  Q 1105.73 298.23 1105.40 327.75
  A 0.64 0.63 0.4 0 1 1104.75 328.37
  L 1087.30 328.25
  A 1.19 1.19 0.0 0 1 1086.11 327.05
  L 1086.62 254.64
  A 0.55 0.54 0.4 0 1 1087.17 254.10
  L 1104.31 254.22
  A 0.72 0.72 0.0 0 1 1105.02 254.94
  L 1104.96 264.31
  Z"
/>
<path fill="#0f2c72" d="
  M 1773.90 264.59
  Q 1774.44 263.87 1777.01 260.07
  C 1782.32 252.21 1793.69 251.57 1801.73 255.50
  A 0.74 0.73 19.9 0 1 1802.12 256.32
  L 1798.62 271.88
  A 0.84 0.84 0.0 0 1 1797.51 272.49
  Q 1795.18 271.65 1793.27 271.20
  C 1778.53 267.70 1774.07 279.74 1774.07 291.45
  Q 1774.07 298.16 1773.94 327.62
  A 0.64 0.63 0.0 0 1 1773.30 328.25
  L 1755.88 328.25
  A 1.19 1.19 0.0 0 1 1754.69 327.06
  L 1754.69 254.78
  A 0.55 0.54 0.0 0 1 1755.24 254.24
  L 1772.34 254.24
  A 0.72 0.72 0.0 0 1 1773.06 254.96
  L 1773.06 264.31
  A 0.47 0.46 63.3 0 0 1773.90 264.59
  Z"
/>
<path fill="#0f2c72" d="
  M 673.57 253.79
  A 0.51 0.50 -79.6 0 1 674.04 254.48
  L 646.72 326.92
  A 2.13 2.12 10.4 0 1 644.71 328.30
  L 625.61 328.14
  A 1.39 1.39 0.0 0 1 624.33 327.25
  L 596.78 254.42
  A 0.51 0.51 0.0 0 1 597.25 253.74
  L 615.09 253.83
  A 2.03 2.02 -9.8 0 1 616.98 255.16
  L 635.46 306.07
  A 0.34 0.34 0.0 0 0 636.10 306.07
  L 654.48 254.69
  A 1.31 1.30 -80.2 0 1 655.71 253.82
  L 673.57 253.79
  Z"
/>
<path fill="#0f2c72" d="
  M 1304.49 328.30
  L 1283.45 328.30
  A 0.34 0.34 0.0 0 1 1283.14 328.08
  L 1255.23 254.27
  A 0.34 0.34 0.0 0 1 1255.55 253.81
  L 1274.77 253.81
  A 0.34 0.34 0.0 0 1 1275.09 254.03
  L 1293.99 306.14
  A 0.34 0.34 0.0 0 0 1294.63 306.14
  L 1313.29 254.09
  A 0.34 0.34 0.0 0 1 1313.61 253.86
  L 1332.39 253.86
  A 0.34 0.34 0.0 0 1 1332.71 254.32
  L 1304.80 328.08
  A 0.34 0.34 0.0 0 1 1304.49 328.30
  Z"
/>
<path fill="#aedcf4" d="
  M 1033.90 268.59
  C 1047.47 268.85 1050.75 280.07 1050.53 291.34
  C 1050.32 302.61 1046.60 313.70 1033.03 313.44
  C 1019.46 313.18 1016.17 301.95 1016.39 290.68
  C 1016.61 279.41 1020.32 268.32 1033.90 268.59
  Z"
/>
<path fill="#aedcf4" d="
  M 1163.54 291.29
  C 1163.47 280.05 1166.89 268.89 1180.43 268.80
  C 1193.97 268.71 1197.54 279.82 1197.62 291.06
  C 1197.69 302.31 1194.27 313.47 1180.73 313.56
  C 1167.19 313.65 1163.62 302.54 1163.54 291.29
  Z"
/>
<path fill="#aedcf4" d="
  M 1684.17 291.04
  C 1684.24 279.74 1687.82 268.58 1701.43 268.67
  C 1715.03 268.75 1718.47 279.96 1718.40 291.26
  C 1718.33 302.55 1714.75 313.72 1701.14 313.63
  C 1687.54 313.55 1684.10 302.34 1684.17 291.04
  Z"
/>
<path fill="#aedcf4" d="
  M 1865.43 291.55
  C 1865.16 302.75 1861.41 313.76 1847.92 313.44
  C 1834.42 313.11 1831.21 301.94 1831.48 290.73
  C 1831.75 279.53 1835.50 268.52 1848.99 268.84
  C 1862.49 269.17 1865.70 280.34 1865.43 291.55
  Z"
/>
<path fill="#0f2c72" d="
  M 1784.36 790.95
  Q 1776.14 791.42 1767.98 787.48
  C 1760.52 783.86 1753.40 780.55 1746.98 776.77
  C 1713.96 757.29 1684.79 731.62 1665.02 699.75
  Q 1655.17 683.88 1648.82 664.34
  C 1646.89 658.40 1645.72 652.72 1644.14 646.84
  Q 1642.42 640.46 1641.27 633.57
  Q 1636.83 606.80 1637.41 579.54
  Q 1637.16 570.01 1637.06 561.25
  Q 1636.88 544.65 1638.47 533.18
  Q 1639.73 524.06 1649.29 520.47
  A 6.27 6.26 34.1 0 1 1651.38 520.07
  Q 1662.08 519.79 1667.84 519.37
  C 1695.74 517.31 1723.62 508.07 1748.02 494.50
  C 1756.11 489.99 1762.92 484.11 1770.02 479.59
  Q 1781.33 472.39 1792.03 479.96
  Q 1801.17 486.43 1801.71 486.80
  Q 1813.08 494.67 1827.44 501.32
  Q 1850.10 511.80 1874.52 516.97
  C 1885.32 519.26 1898.21 519.71 1909.36 519.89
  C 1915.22 519.98 1920.59 525.71 1922.28 530.57
  Q 1923.20 533.22 1923.70 543.92
  Q 1924.96 570.65 1923.15 605.74
  Q 1920.92 649.21 1903.04 687.33
  Q 1896.17 701.98 1882.99 718.24
  Q 1867.88 736.88 1851.53 750.33
  C 1835.10 763.84 1816.49 776.54 1797.11 786.37
  Q 1791.71 789.11 1784.36 790.95
  Z
  M 1661.81 545.20
  Q 1659.67 589.86 1664.27 624.26
  C 1667.84 650.92 1676.84 675.65 1692.54 696.71
  Q 1712.22 723.09 1738.92 742.33
  Q 1757.83 755.96 1777.45 765.04
  Q 1779.41 765.95 1780.84 766.12
  A 2.35 2.33 -52.7 0 0 1782.00 765.96
  Q 1793.77 761.08 1806.03 753.55
  Q 1818.72 745.76 1829.19 737.36
  C 1848.42 721.93 1865.32 705.04 1877.54 683.58
  Q 1892.30 657.68 1896.31 628.29
  Q 1898.96 608.88 1899.33 598.00
  Q 1900.14 574.41 1899.04 544.88
  A 0.85 0.84 -88.9 0 0 1898.27 544.07
  C 1885.89 543.04 1871.68 541.46 1858.77 538.08
  Q 1839.91 533.14 1824.62 526.58
  Q 1802.22 516.98 1782.12 501.95
  A 1.19 1.19 0.0 0 0 1780.72 501.93
  Q 1731.38 537.18 1670.98 543.43
  Q 1667.00 543.85 1662.54 544.42
  A 0.83 0.83 0.0 0 0 1661.81 545.20
  Z"
/>
<path fill="#aedcf4" d="
  M 1662.54 544.42
  Q 1667.00 543.85 1670.98 543.43
  Q 1731.38 537.18 1780.72 501.93
  A 1.19 1.19 0.0 0 1 1782.12 501.95
  Q 1802.22 516.98 1824.62 526.58
  Q 1839.91 533.14 1858.77 538.08
  C 1871.68 541.46 1885.89 543.04 1898.27 544.07
  A 0.85 0.84 -88.9 0 1 1899.04 544.88
  Q 1900.14 574.41 1899.33 598.00
  Q 1898.96 608.88 1896.31 628.29
  Q 1892.30 657.68 1877.54 683.58
  C 1865.32 705.04 1848.42 721.93 1829.19 737.36
  Q 1818.72 745.76 1806.03 753.55
  Q 1793.77 761.08 1782.00 765.96
  A 2.35 2.33 -52.7 0 1 1780.84 766.12
  Q 1779.41 765.95 1777.45 765.04
  Q 1757.83 755.96 1738.92 742.33
  Q 1712.22 723.09 1692.54 696.71
  C 1676.84 675.65 1667.84 650.92 1664.27 624.26
  Q 1659.67 589.86 1661.81 545.20
  A 0.83 0.83 0.0 0 1 1662.54 544.42
  Z
  M 1768.78 676.03
  C 1762.60 667.97 1757.13 662.06 1750.17 653.58
  Q 1739.43 640.51 1728.48 627.26
  Q 1724.31 622.21 1717.73 622.69
  C 1709.13 623.33 1704.62 631.57 1707.05 639.45
  Q 1707.73 641.63 1713.56 648.81
  C 1719.95 656.67 1724.60 661.75 1730.58 669.00
  Q 1752.34 695.36 1757.55 701.42
  C 1765.09 710.17 1776.17 708.41 1782.61 699.60
  C 1794.83 682.87 1805.64 669.63 1819.86 651.42
  Q 1836.43 630.20 1859.49 601.00
  C 1864.66 594.45 1864.72 586.24 1857.89 581.13
  C 1854.32 578.45 1848.07 578.29 1844.02 581.18
  Q 1840.46 583.73 1838.88 585.90
  Q 1830.48 597.44 1823.43 606.44
  Q 1779.31 662.81 1772.47 671.93
  Q 1770.05 675.16 1769.43 676.02
  A 0.41 0.41 0.0 0 1 1768.78 676.03
  Z"
/>
<path fill="#3b82e0" d="
  M 1637.41 579.54
  Q 1636.83 606.80 1641.27 633.57
  Q 1642.42 640.46 1644.14 646.84
  C 1645.72 652.72 1646.89 658.40 1648.82 664.34
  Q 1655.17 683.88 1665.02 699.75
  C 1684.79 731.62 1713.96 757.29 1746.98 776.77
  C 1753.40 780.55 1760.52 783.86 1767.98 787.48
  Q 1776.14 791.42 1784.36 790.95
  Q 1784.65 890.01 1784.13 989.01
  Q 1784.04 1005.15 1771.33 1014.32
  Q 1764.24 1019.43 1755.00 1019.43
  Q 1386.66 1019.37 1251.25 1019.27
  Q 1245.36 1019.27 1241.10 1017.26
  Q 1228.62 1011.32 1224.36 999.06
  Q 1222.61 994.05 1222.60 986.90
  C 1222.59 976.63 1222.88 964.31 1222.88 955.98
  Q 1222.83 835.21 1222.72 821.51
  C 1222.57 801.70 1222.84 785.07 1222.81 765.84
  Q 1222.67 672.31 1222.66 579.11
  Q 1222.71 566.99 1222.60 555.25
  Q 1222.53 547.95 1226.10 540.80
  Q 1232.77 527.44 1245.41 524.08
  Q 1249.82 522.91 1266.24 522.89
  Q 1400.95 522.73 1447.74 523.04
  C 1456.57 523.09 1468.94 527.12 1475.66 534.24
  Q 1480.52 539.39 1482.29 541.96
  C 1483.99 544.43 1486.86 549.43 1489.60 552.45
  Q 1493.10 556.32 1495.49 559.62
  Q 1498.89 564.32 1501.40 566.69
  Q 1514.71 579.23 1533.01 579.22
  Q 1584.90 579.19 1637.41 579.54
  Z
  M 1353.63 807.63
  C 1349.99 818.11 1344.00 824.55 1332.14 824.24
  C 1309.72 823.66 1308.22 796.77 1311.66 780.96
  Q 1313.37 773.08 1318.95 768.41
  Q 1324.17 764.05 1332.71 763.87
  Q 1345.99 763.61 1352.86 776.40
  A 0.84 0.84 0.0 0 0 1354.02 776.73
  L 1365.52 770.09
  A 2.01 2.01 0.0 0 0 1366.36 767.54
  C 1362.19 757.97 1353.87 751.85 1343.26 749.88
  C 1327.58 746.95 1311.60 750.07 1301.50 762.48
  C 1291.20 775.14 1289.57 796.57 1294.50 812.12
  Q 1300.55 831.22 1318.92 837.07
  Q 1336.30 842.60 1353.63 834.13
  C 1361.33 830.36 1365.33 822.55 1367.96 814.88
  A 1.20 1.20 0.0 0 0 1367.36 813.42
  L 1354.83 807.14
  A 0.87 0.86 -66.9 0 0 1353.63 807.63
  Z
  M 1480.20 768.24
  Q 1473.75 752.45 1456.06 749.72
  Q 1450.77 748.90 1443.73 749.07
  C 1424.68 749.52 1412.40 761.14 1407.34 779.13
  Q 1402.29 797.10 1409.17 814.78
  Q 1416.24 832.96 1435.26 837.94
  C 1440.44 839.29 1446.54 839.27 1451.56 838.84
  Q 1459.43 838.16 1466.77 834.47
  C 1470.62 832.53 1474.96 828.58 1476.68 825.20
  C 1478.65 821.33 1481.16 817.21 1481.13 814.48
  A 1.77 1.76 -77.2 0 0 1480.15 812.91
  L 1468.41 807.03
  A 1.07 1.07 0.0 0 0 1466.90 807.68
  C 1463.24 820.12 1453.39 826.89 1440.24 823.31
  Q 1429.54 820.40 1425.94 809.35
  Q 1423.32 801.31 1423.86 791.15
  Q 1424.36 781.82 1426.17 777.06
  C 1430.01 766.94 1439.63 763.45 1449.88 764.14
  C 1457.78 764.68 1462.80 769.96 1466.37 776.59
  A 0.72 0.71 60.8 0 0 1467.35 776.87
  L 1479.68 769.75
  A 1.22 1.21 -26.1 0 0 1480.20 768.24
  Z
  M 1554.5596 800.7161
  A 29.53 29.53 0.0 0 0 1525.2365 770.9807
  L 1519.5567 770.9410
  A 29.53 29.53 0.0 0 0 1489.8212 800.2641
  L 1489.7604 808.9839
  A 29.53 29.53 0.0 0 0 1519.0835 838.7193
  L 1524.7633 838.7590
  A 29.53 29.53 0.0 0 0 1554.4988 809.4359
  L 1554.5596 800.7161
  Z
  M 1638.37 830.69
  Q 1641.74 834.10 1645.68 836.40
  C 1652.05 840.12 1661.59 839.62 1668.03 836.86
  Q 1674.22 834.20 1678.43 828.28
  C 1684.57 819.65 1685.04 809.21 1684.21 798.52
  C 1683.35 787.53 1678.54 775.84 1667.61 772.38
  C 1657.33 769.13 1645.31 770.50 1638.44 779.76
  A 0.51 0.51 0.0 0 1 1637.52 779.45
  L 1637.52 773.17
  A 1.32 1.31 0.0 0 0 1636.20 771.86
  L 1621.48 771.86
  A 0.73 0.72 0.0 0 0 1620.75 772.58
  L 1620.75 862.79
  A 1.07 1.07 0.0 0 0 1621.82 863.86
  L 1636.59 863.86
  A 1.03 1.03 0.0 0 0 1637.62 862.83
  L 1637.62 831.00
  A 0.44 0.44 0.0 0 1 1638.37 830.69
  Z
  M 1586.71 781.13
  A 0.30 0.30 0.0 0 1 1586.21 780.93
  L 1585.49 772.65
  A 0.81 0.81 0.0 0 0 1584.69 771.92
  L 1570.00 771.89
  A 0.57 0.56 0.1 0 0 1569.43 772.45
  L 1569.31 837.07
  A 0.74 0.74 0.0 0 0 1570.05 837.81
  L 1585.28 837.84
  A 1.21 1.20 0.8 0 0 1586.49 836.68
  C 1586.84 824.75 1586.20 813.32 1586.63 802.39
  C 1586.99 793.30 1592.02 785.82 1602.10 786.67
  Q 1603.78 786.80 1607.18 787.74
  A 0.99 0.99 0.0 0 0 1608.41 787.01
  L 1611.40 773.81
  A 1.07 1.06 16.0 0 0 1610.70 772.56
  C 1603.39 770.06 1594.05 770.60 1589.29 777.56
  Q 1587.06 780.82 1586.71 781.13
  Z"
/>
<path fill="#fbd54c" d="
  M 710.96 580.65
  Q 711.31 588.80 711.31 592.75
  C 711.27 646.63 711.58 700.03 711.47 750.08
  Q 711.26 843.26 711.39 977.12
  Q 711.39 977.19 711.29 985.88
  Q 711.21 992.77 711.82 995.67
  Q 715.21 1011.82 730.94 1018.36
  Q 728.41 1019.62 724.50 1019.62
  Q 557.90 1019.72 338.84 1019.66
  Q 330.63 1019.65 318.99 1019.44
  Q 310.49 1019.28 303.46 1014.05
  Q 290.76 1004.59 290.76 988.00
  Q 290.75 917.89 290.72 562.38
  Q 290.72 549.43 292.17 544.79
  Q 296.79 530.06 312.19 524.16
  Q 314.89 523.13 321.30 523.13
  Q 386.27 523.14 477.74 523.10
  Q 499.04 523.09 511.09 539.39
  Q 517.91 548.61 525.01 558.50
  Q 539.70 578.98 565.24 579.14
  Q 584.40 579.27 702.06 579.12
  Q 707.81 579.11 710.96 580.65
  Z
  M 601.32 807.05
  C 598.83 815.20 593.98 822.59 584.59 823.61
  Q 578.04 824.33 573.87 823.10
  C 564.77 820.42 560.64 813.58 558.94 804.10
  Q 557.21 794.42 558.65 784.63
  C 559.93 775.90 564.80 767.24 573.86 765.04
  Q 592.06 760.61 600.68 776.78
  A 0.51 0.51 0.0 0 0 601.39 776.98
  L 613.32 770.10
  A 1.87 1.87 0.0 0 0 614.08 767.70
  Q 606.71 751.47 588.45 749.35
  C 572.33 747.47 557.46 751.22 547.94 764.56
  C 539.53 776.35 538.88 792.39 540.84 806.20
  Q 542.28 816.40 548.83 824.66
  C 557.53 835.66 569.99 839.65 583.94 839.15
  Q 593.81 838.80 602.07 833.53
  Q 612.55 826.83 615.25 814.04
  A 0.95 0.94 -71.2 0 0 614.75 813.01
  L 602.15 806.70
  A 0.59 0.58 21.8 0 0 601.32 807.05
  Z
  M 421.95 750.90
  A 0.61 0.61 0.0 0 0 421.34 750.29
  L 404.81 750.29
  A 0.63 0.63 0.0 0 0 404.18 750.92
  L 404.33 837.35
  A 0.62 0.62 0.0 0 0 404.96 837.97
  L 460.85 837.73
  A 0.63 0.63 0.0 0 0 461.48 837.11
  L 461.53 824.05
  A 0.71 0.71 0.0 0 0 460.82 823.33
  L 422.59 823.42
  A 0.57 0.57 0.0 0 1 422.02 822.85
  L 421.95 750.90
  Z
  M 531.91 824.06
  A 0.70 0.70 0.0 0 0 531.21 823.36
  L 493.14 823.36
  A 0.70 0.70 0.0 0 1 492.44 822.66
  L 492.44 750.93
  A 0.70 0.70 0.0 0 0 491.74 750.23
  L 475.39 750.23
  A 0.70 0.70 0.0 0 0 474.69 750.93
  L 474.69 837.13
  A 0.70 0.70 0.0 0 0 475.39 837.83
  L 531.21 837.83
  A 0.70 0.70 0.0 0 0 531.91 837.13
  L 531.91 824.06
  Z"
/>
<path fill="#79c7f9" d="
  M 1222.66 579.11
  Q 1222.67 672.31 1222.81 765.84
  C 1222.84 785.07 1222.57 801.70 1222.72 821.51
  Q 1222.83 835.21 1222.88 955.98
  C 1222.88 964.31 1222.59 976.63 1222.60 986.90
  Q 1222.61 994.05 1224.36 999.06
  Q 1228.62 1011.32 1241.10 1017.26
  Q 1240.75 1018.41 1240.51 1018.58
  Q 1239.43 1019.32 1238.17 1019.31
  Q 1216.26 1019.07 1195.06 1019.33
  Q 1183.73 1019.48 1151.94 1019.47
  C 1011.69 1019.41 876.56 1019.64 742.75 1019.32
  Q 736.50 1019.30 730.94 1018.36
  Q 715.21 1011.82 711.82 995.67
  Q 711.21 992.77 711.29 985.88
  Q 711.39 977.19 711.39 977.12
  Q 711.26 843.26 711.47 750.08
  C 711.58 700.03 711.27 646.63 711.31 592.75
  Q 711.31 588.80 710.96 580.65
  Q 711.49 577.27 711.14 571.82
  Q 710.48 561.64 711.62 550.05
  Q 712.97 536.40 724.00 528.75
  C 730.84 524.01 735.90 523.06 745.08 523.05
  Q 890.93 522.98 909.75 522.98
  C 921.85 522.99 932.20 526.86 940.40 536.67
  Q 944.92 542.08 956.25 558.28
  Q 966.00 572.22 981.50 576.74
  C 988.13 578.67 995.64 579.10 1003.74 579.13
  Q 1113.18 579.56 1222.66 579.11
  Z
  M 795.83 810.45
  L 786.69 821.42
  A 1.79 1.78 -43.6 0 0 786.63 823.62
  C 796.02 836.27 810.84 840.12 825.95 839.03
  C 841.64 837.90 853.43 829.40 854.11 812.51
  C 854.66 798.98 845.01 789.23 832.36 786.38
  Q 827.21 785.22 816.55 783.04
  C 811.72 782.05 806.68 779.25 806.44 773.73
  C 806.24 769.49 809.69 765.40 813.72 764.52
  Q 829.18 761.14 840.00 771.42
  A 1.28 1.27 -50.3 0 0 841.92 771.24
  L 849.79 760.27
  A 1.38 1.38 0.0 0 0 849.61 758.47
  C 839.30 748.73 825.40 747.34 811.33 749.61
  C 801.54 751.19 791.36 758.27 789.54 768.54
  C 787.62 779.30 790.27 788.45 799.99 794.15
  C 807.89 798.78 819.75 800.29 825.68 802.33
  C 829.70 803.72 833.88 805.82 834.78 809.72
  C 836.66 817.89 832.30 823.32 824.32 823.95
  C 816.45 824.56 809.73 822.25 803.57 817.13
  C 801.15 815.12 799.15 812.06 797.48 810.37
  A 1.12 1.11 42.2 0 0 795.83 810.45
  Z
  M 954.25 807.20
  C 951.89 814.80 949.17 820.05 941.47 822.78
  Q 937.00 824.37 931.16 823.94
  C 922.06 823.28 915.44 816.35 913.16 807.82
  Q 909.67 794.81 912.56 781.56
  Q 914.25 773.82 920.15 768.61
  Q 924.89 764.43 932.64 764.05
  C 942.20 763.59 949.56 768.27 953.47 776.78
  A 0.67 0.67 0.0 0 0 954.42 777.08
  L 967.09 769.77
  A 1.44 1.43 -26.3 0 0 967.70 767.98
  Q 964.40 760.05 957.39 755.13
  C 949.74 749.78 941.97 748.47 932.41 748.68
  C 919.04 748.97 904.47 755.86 898.53 768.44
  C 892.15 781.96 891.65 797.71 895.68 812.04
  C 899.24 824.73 909.43 834.24 921.87 837.70
  Q 931.66 840.43 943.00 838.26
  Q 963.31 834.38 968.74 814.59
  A 1.17 1.17 0.0 0 0 968.14 813.24
  L 955.24 806.78
  A 0.71 0.71 0.0 0 0 954.25 807.20
  Z
  M 1042.1888 799.2914
  A 29.52 29.52 0.0 0 0 1011.5573 770.9263
  L 1005.9015 771.1436
  A 29.52 29.52 0.0 0 0 977.5365 801.7751
  L 977.8712 810.4886
  A 29.52 29.52 0.0 0 0 1008.5027 838.8537
  L 1014.1585 838.6364
  A 29.52 29.52 0.0 0 0 1042.5235 808.0049
  L 1042.1888 799.2914
  Z
  M 1125.00 779.39
  L 1125.00 772.74
  A 0.92 0.91 -0.0 0 0 1124.08 771.83
  L 1108.45 771.83
  A 0.37 0.36 -0.0 0 0 1108.08 772.19
  L 1108.08 863.13
  A 0.66 0.66 0.0 0 0 1108.74 863.79
  L 1124.59 863.79
  A 0.76 0.75 90.0 0 0 1125.34 863.03
  L 1125.34 830.60
  A 0.20 0.19 25.5 0 1 1125.69 830.48
  Q 1132.41 838.67 1142.95 839.05
  C 1153.04 839.42 1160.25 835.85 1166.29 827.75
  C 1173.55 818.02 1173.28 801.65 1170.23 790.45
  C 1168.36 783.58 1163.07 774.97 1156.17 772.57
  C 1145.39 768.81 1133.38 770.62 1125.92 779.72
  A 0.52 0.52 0.0 0 1 1125.00 779.39
  Z
  M 1074.33 780.98
  A 0.30 0.30 0.0 0 1 1073.83 780.78
  L 1073.10 772.49
  A 0.81 0.81 0.0 0 0 1072.29 771.76
  L 1057.59 771.76
  A 0.57 0.56 -0.0 0 0 1057.02 772.32
  L 1057.02 837.01
  A 0.74 0.74 0.0 0 0 1057.76 837.75
  L 1073.01 837.75
  A 1.21 1.20 0.7 0 0 1074.22 836.58
  C 1074.54 824.64 1073.88 813.20 1074.29 802.26
  C 1074.64 793.16 1079.66 785.66 1089.75 786.49
  Q 1091.43 786.62 1094.83 787.56
  A 0.99 0.99 0.0 0 0 1096.06 786.82
  L 1099.03 773.60
  A 1.07 1.06 15.9 0 0 1098.33 772.35
  C 1091.01 769.87 1081.66 770.42 1076.91 777.40
  Q 1074.68 780.67 1074.33 780.98
  Z"
/>
<path fill="#0f2c72" d="
  M 1769.43 676.02
  Q 1770.05 675.16 1772.47 671.93
  Q 1779.31 662.81 1823.43 606.44
  Q 1830.48 597.44 1838.88 585.90
  Q 1840.46 583.73 1844.02 581.18
  C 1848.07 578.29 1854.32 578.45 1857.89 581.13
  C 1864.72 586.24 1864.66 594.45 1859.49 601.00
  Q 1836.43 630.20 1819.86 651.42
  C 1805.64 669.63 1794.83 682.87 1782.61 699.60
  C 1776.17 708.41 1765.09 710.17 1757.55 701.42
  Q 1752.34 695.36 1730.58 669.00
  C 1724.60 661.75 1719.95 656.67 1713.56 648.81
  Q 1707.73 641.63 1707.05 639.45
  C 1704.62 631.57 1709.13 623.33 1717.73 622.69
  Q 1724.31 622.21 1728.48 627.26
  Q 1739.43 640.51 1750.17 653.58
  C 1757.13 662.06 1762.60 667.97 1768.78 676.03
  A 0.41 0.41 0.0 0 0 1769.43 676.02
  Z"
/>
<path fill="#0f2c72" d="
  M 601.32 807.05
  A 0.59 0.58 21.8 0 1 602.15 806.70
  L 614.75 813.01
  A 0.95 0.94 -71.2 0 1 615.25 814.04
  Q 612.55 826.83 602.07 833.53
  Q 593.81 838.80 583.94 839.15
  C 569.99 839.65 557.53 835.66 548.83 824.66
  Q 542.28 816.40 540.84 806.20
  C 538.88 792.39 539.53 776.35 547.94 764.56
  C 557.46 751.22 572.33 747.47 588.45 749.35
  Q 606.71 751.47 614.08 767.70
  A 1.87 1.87 0.0 0 1 613.32 770.10
  L 601.39 776.98
  A 0.51 0.51 0.0 0 1 600.68 776.78
  Q 592.06 760.61 573.86 765.04
  C 564.80 767.24 559.93 775.90 558.65 784.63
  Q 557.21 794.42 558.94 804.10
  C 560.64 813.58 564.77 820.42 573.87 823.10
  Q 578.04 824.33 584.59 823.61
  C 593.98 822.59 598.83 815.20 601.32 807.05
  Z"
/>
<path fill="#0f2c72" d="
  M 797.48 810.37
  C 799.15 812.06 801.15 815.12 803.57 817.13
  C 809.73 822.25 816.45 824.56 824.32 823.95
  C 832.30 823.32 836.66 817.89 834.78 809.72
  C 833.88 805.82 829.70 803.72 825.68 802.33
  C 819.75 800.29 807.89 798.78 799.99 794.15
  C 790.27 788.45 787.62 779.30 789.54 768.54
  C 791.36 758.27 801.54 751.19 811.33 749.61
  C 825.40 747.34 839.30 748.73 849.61 758.47
  A 1.38 1.38 0.0 0 1 849.79 760.27
  L 841.92 771.24
  A 1.28 1.27 -50.3 0 1 840.00 771.42
  Q 829.18 761.14 813.72 764.52
  C 809.69 765.40 806.24 769.49 806.44 773.73
  C 806.68 779.25 811.72 782.05 816.55 783.04
  Q 827.21 785.22 832.36 786.38
  C 845.01 789.23 854.66 798.98 854.11 812.51
  C 853.43 829.40 841.64 837.90 825.95 839.03
  C 810.84 840.12 796.02 836.27 786.63 823.62
  A 1.79 1.78 -43.6 0 1 786.69 821.42
  L 795.83 810.45
  A 1.12 1.11 42.2 0 1 797.48 810.37
  Z"
/>
<path fill="#0f2c72" d="
  M 954.25 807.20
  A 0.71 0.71 0.0 0 1 955.24 806.78
  L 968.14 813.24
  A 1.17 1.17 0.0 0 1 968.74 814.59
  Q 963.31 834.38 943.00 838.26
  Q 931.66 840.43 921.87 837.70
  C 909.43 834.24 899.24 824.73 895.68 812.04
  C 891.65 797.71 892.15 781.96 898.53 768.44
  C 904.47 755.86 919.04 748.97 932.41 748.68
  C 941.97 748.47 949.74 749.78 957.39 755.13
  Q 964.40 760.05 967.70 767.98
  A 1.44 1.43 -26.3 0 1 967.09 769.77
  L 954.42 777.08
  A 0.67 0.67 0.0 0 1 953.47 776.78
  C 949.56 768.27 942.20 763.59 932.64 764.05
  Q 924.89 764.43 920.15 768.61
  Q 914.25 773.82 912.56 781.56
  Q 909.67 794.81 913.16 807.82
  C 915.44 816.35 922.06 823.28 931.16 823.94
  Q 937.00 824.37 941.47 822.78
  C 949.17 820.05 951.89 814.80 954.25 807.20
  Z"
/>
<path fill="#0f2c72" d="
  M 1353.63 807.63
  A 0.87 0.86 -66.9 0 1 1354.83 807.14
  L 1367.36 813.42
  A 1.20 1.20 0.0 0 1 1367.96 814.88
  C 1365.33 822.55 1361.33 830.36 1353.63 834.13
  Q 1336.30 842.60 1318.92 837.07
  Q 1300.55 831.22 1294.50 812.12
  C 1289.57 796.57 1291.20 775.14 1301.50 762.48
  C 1311.60 750.07 1327.58 746.95 1343.26 749.88
  C 1353.87 751.85 1362.19 757.97 1366.36 767.54
  A 2.01 2.01 0.0 0 1 1365.52 770.09
  L 1354.02 776.73
  A 0.84 0.84 0.0 0 1 1352.86 776.40
  Q 1345.99 763.61 1332.71 763.87
  Q 1324.17 764.05 1318.95 768.41
  Q 1313.37 773.08 1311.66 780.96
  C 1308.22 796.77 1309.72 823.66 1332.14 824.24
  C 1344.00 824.55 1349.99 818.11 1353.63 807.63
  Z"
/>
<path fill="#0f2c72" d="
  M 1480.20 768.24
  A 1.22 1.21 -26.1 0 1 1479.68 769.75
  L 1467.35 776.87
  A 0.72 0.71 60.8 0 1 1466.37 776.59
  C 1462.80 769.96 1457.78 764.68 1449.88 764.14
  C 1439.63 763.45 1430.01 766.94 1426.17 777.06
  Q 1424.36 781.82 1423.86 791.15
  Q 1423.32 801.31 1425.94 809.35
  Q 1429.54 820.40 1440.24 823.31
  C 1453.39 826.89 1463.24 820.12 1466.90 807.68
  A 1.07 1.07 0.0 0 1 1468.41 807.03
  L 1480.15 812.91
  A 1.77 1.76 -77.2 0 1 1481.13 814.48
  C 1481.16 817.21 1478.65 821.33 1476.68 825.20
  C 1474.96 828.58 1470.62 832.53 1466.77 834.47
  Q 1459.43 838.16 1451.56 838.84
  C 1446.54 839.27 1440.44 839.29 1435.26 837.94
  Q 1416.24 832.96 1409.17 814.78
  Q 1402.29 797.10 1407.34 779.13
  C 1412.40 761.14 1424.68 749.52 1443.73 749.07
  Q 1450.77 748.90 1456.06 749.72
  Q 1473.75 752.45 1480.20 768.24
  Z"
/>
<path fill="#0f2c72" d="
  M 421.95 750.90
  L 422.02 822.85
  A 0.57 0.57 0.0 0 0 422.59 823.42
  L 460.82 823.33
  A 0.71 0.71 0.0 0 1 461.53 824.05
  L 461.48 837.11
  A 0.63 0.63 0.0 0 1 460.85 837.73
  L 404.96 837.97
  A 0.62 0.62 0.0 0 1 404.33 837.35
  L 404.18 750.92
  A 0.63 0.63 0.0 0 1 404.81 750.29
  L 421.34 750.29
  A 0.61 0.61 0.0 0 1 421.95 750.90
  Z"
/>
<path fill="#0f2c72" d="
  M 531.91 824.06
  L 531.91 837.13
  A 0.70 0.70 0.0 0 1 531.21 837.83
  L 475.39 837.83
  A 0.70 0.70 0.0 0 1 474.69 837.13
  L 474.69 750.93
  A 0.70 0.70 0.0 0 1 475.39 750.23
  L 491.74 750.23
  A 0.70 0.70 0.0 0 1 492.44 750.93
  L 492.44 822.66
  A 0.70 0.70 0.0 0 0 493.14 823.36
  L 531.21 823.36
  A 0.70 0.70 0.0 0 1 531.91 824.06
  Z"
/>
<path fill="#0f2c72" d="
  M 1042.5235 808.0049
  A 29.52 29.52 0.0 0 1 1014.1585 838.6364
  L 1008.5027 838.8537
  A 29.52 29.52 0.0 0 1 977.8712 810.4886
  L 977.5365 801.7751
  A 29.52 29.52 0.0 0 1 1005.9015 771.1436
  L 1011.5573 770.9263
  A 29.52 29.52 0.0 0 1 1042.1888 799.2914
  L 1042.5235 808.0049
  Z
  M 994.65 804.92
  C 994.70 814.93 997.85 824.82 1009.90 824.77
  C 1021.95 824.72 1025.02 814.79 1024.97 804.79
  C 1024.93 794.78 1021.77 784.89 1009.72 784.94
  C 997.67 785.00 994.61 794.92 994.65 804.92
  Z"
/>
<path fill="#0f2c72" d="
  M 1125.00 779.39
  A 0.52 0.52 0.0 0 0 1125.92 779.72
  C 1133.38 770.62 1145.39 768.81 1156.17 772.57
  C 1163.07 774.97 1168.36 783.58 1170.23 790.45
  C 1173.28 801.65 1173.55 818.02 1166.29 827.75
  C 1160.25 835.85 1153.04 839.42 1142.95 839.05
  Q 1132.41 838.67 1125.69 830.48
  A 0.20 0.19 25.5 0 0 1125.34 830.60
  L 1125.34 863.03
  A 0.76 0.75 -90.0 0 1 1124.59 863.79
  L 1108.74 863.79
  A 0.66 0.66 0.0 0 1 1108.08 863.13
  L 1108.08 772.19
  A 0.37 0.36 -0.0 0 1 1108.45 771.83
  L 1124.08 771.83
  A 0.92 0.91 -0.0 0 1 1125.00 772.74
  L 1125.00 779.39
  Z
  M 1125.17 805.02
  C 1125.28 814.58 1128.51 824.86 1140.19 824.73
  C 1151.87 824.59 1154.85 814.24 1154.74 804.69
  C 1154.64 795.14 1151.41 784.85 1139.73 784.99
  C 1128.05 785.12 1125.07 795.47 1125.17 805.02
  Z"
/>
<path fill="#0f2c72" d="
  M 1074.33 780.98
  Q 1074.68 780.67 1076.91 777.40
  C 1081.66 770.42 1091.01 769.87 1098.33 772.35
  A 1.07 1.06 15.9 0 1 1099.03 773.60
  L 1096.06 786.82
  A 0.99 0.99 0.0 0 1 1094.83 787.56
  Q 1091.43 786.62 1089.75 786.49
  C 1079.66 785.66 1074.64 793.16 1074.29 802.26
  C 1073.88 813.20 1074.54 824.64 1074.22 836.58
  A 1.21 1.20 0.7 0 1 1073.01 837.75
  L 1057.76 837.75
  A 0.74 0.74 0.0 0 1 1057.02 837.01
  L 1057.02 772.32
  A 0.57 0.56 -0.0 0 1 1057.59 771.76
  L 1072.29 771.76
  A 0.81 0.81 0.0 0 1 1073.10 772.49
  L 1073.83 780.78
  A 0.30 0.30 0.0 0 0 1074.33 780.98
  Z"
/>
<path fill="#0f2c72" d="
  M 1554.4988 809.4359
  A 29.53 29.53 0.0 0 1 1524.7633 838.7590
  L 1519.0835 838.7193
  A 29.53 29.53 0.0 0 1 1489.7604 808.9839
  L 1489.8212 800.2641
  A 29.53 29.53 0.0 0 1 1519.5567 770.9410
  L 1525.2365 770.9807
  A 29.53 29.53 0.0 0 1 1554.5596 800.7161
  L 1554.4988 809.4359
  Z
  M 1507.03 805.19
  C 1507.18 815.21 1510.44 825.09 1522.51 824.92
  C 1534.58 824.74 1537.56 814.77 1537.41 804.74
  C 1537.26 794.72 1534.00 784.83 1521.93 785.01
  C 1509.86 785.19 1506.88 795.16 1507.03 805.19
  Z"
/>
<path fill="#0f2c72" d="
  M 1638.37 830.69
  A 0.44 0.44 0.0 0 0 1637.62 831.00
  L 1637.62 862.83
  A 1.03 1.03 0.0 0 1 1636.59 863.86
  L 1621.82 863.86
  A 1.07 1.07 0.0 0 1 1620.75 862.79
  L 1620.75 772.58
  A 0.73 0.72 0.0 0 1 1621.48 771.86
  L 1636.20 771.86
  A 1.32 1.31 -0.0 0 1 1637.52 773.17
  L 1637.52 779.45
  A 0.51 0.51 0.0 0 0 1638.44 779.76
  C 1645.31 770.50 1657.33 769.13 1667.61 772.38
  C 1678.54 775.84 1683.35 787.53 1684.21 798.52
  C 1685.04 809.21 1684.57 819.65 1678.43 828.28
  Q 1674.22 834.20 1668.03 836.86
  C 1661.59 839.62 1652.05 840.12 1645.68 836.40
  Q 1641.74 834.10 1638.37 830.69
  Z
  M 1637.50 804.65
  C 1637.42 814.26 1640.46 824.66 1652.21 824.76
  C 1663.96 824.86 1667.17 814.50 1667.25 804.90
  C 1667.33 795.29 1664.29 784.88 1652.54 784.79
  C 1640.79 784.69 1637.58 795.04 1637.50 804.65
  Z"
/>
<path fill="#0f2c72" d="
  M 1586.71 781.13
  Q 1587.06 780.82 1589.29 777.56
  C 1594.05 770.60 1603.39 770.06 1610.70 772.56
  A 1.07 1.06 16.0 0 1 1611.40 773.81
  L 1608.41 787.01
  A 0.99 0.99 0.0 0 1 1607.18 787.74
  Q 1603.78 786.80 1602.10 786.67
  C 1592.02 785.82 1586.99 793.30 1586.63 802.39
  C 1586.20 813.32 1586.84 824.75 1586.49 836.68
  A 1.21 1.20 0.8 0 1 1585.28 837.84
  L 1570.05 837.81
  A 0.74 0.74 0.0 0 1 1569.31 837.07
  L 1569.43 772.45
  A 0.57 0.56 0.1 0 1 1570.00 771.89
  L 1584.69 771.92
  A 0.81 0.81 0.0 0 1 1585.49 772.65
  L 1586.21 780.93
  A 0.30 0.30 0.0 0 0 1586.71 781.13
  Z"
/>
<path fill="#79c7f9" d="
  M 994.65 804.92
  C 994.61 794.92 997.67 785.00 1009.72 784.94
  C 1021.77 784.89 1024.93 794.78 1024.97 804.79
  C 1025.02 814.79 1021.95 824.72 1009.90 824.77
  C 997.85 824.82 994.70 814.93 994.65 804.92
  Z"
/>
<path fill="#3b82e0" d="
  M 1652.54 784.79
  C 1664.29 784.88 1667.33 795.29 1667.25 804.90
  C 1667.17 814.50 1663.96 824.86 1652.21 824.76
  C 1640.46 824.66 1637.42 814.26 1637.50 804.65
  C 1637.58 795.04 1640.79 784.69 1652.54 784.79
  Z"
/>
<path fill="#79c7f9" d="
  M 1125.17 805.02
  C 1125.07 795.47 1128.05 785.12 1139.73 784.99
  C 1151.41 784.85 1154.64 795.14 1154.74 804.69
  C 1154.85 814.24 1151.87 824.59 1140.19 824.73
  C 1128.51 824.86 1125.28 814.58 1125.17 805.02
  Z"
/>
<path fill="#3b82e0" d="
  M 1507.03 805.19
  C 1506.88 795.16 1509.86 785.19 1521.93 785.01
  C 1534.00 784.83 1537.26 794.72 1537.41 804.74
  C 1537.56 814.77 1534.58 824.74 1522.51 824.92
  C 1510.44 825.09 1507.18 815.21 1507.03 805.19
  Z"
/>
</svg>
