<svg xmlns="http://www.w3.org/2000/svg" xmlns:v="https://svgstorm.com"
viewBox = "0 0 1536 1024"
width="1536"
height="1024">
<g fill="None" fill-opacity="0.0" stroke="#ACDFFB" stroke-opacity="1.00" stroke-width="0.3"><path d="
M 0.00 1024.00 
L 1536.00 1024.00
L 1536.00 0.00
L 0.00 0.00
L 0.00 1024.00
M 277.00 235.00 
C 276.74 235.25 276.00 235.00 276.00 235.00
C 261.67 235.00 247.33 235.00 233.00 235.00
C 232.50 235.00 232.00 235.00 232.00 235.00
C 228.09 231.22 231.50 217.90 231.00 212.00 C 230.50 206.10 229.91 194.02 231.00 188.00 C 232.09 181.98 226.97 169.54 232.26 165.26 C 237.54 160.98 249.97 165.79 247.00 174.00 C 244.03 182.21 248.49 189.78 247.00 198.00 C 245.51 206.22 248.12 214.75 247.00 223.00
C 257.81 224.87 284.53 216.15 277.00 235.00
M 398.00 182.00 
C 393.87 182.82 391.15 187.19 387.00 188.00
C 383.88 175.32 364.85 173.28 357.75 183.75 C 350.65 194.23 350.71 210.06 359.25 219.75 C 367.78 229.45 385.58 225.02 388.00 212.00
C 404.22 213.34 394.89 230.69 383.31 234.30 C 371.72 237.92 354.98 236.85 347.08 225.92 C 339.18 214.99 337.72 201.60 340.78 188.78 C 343.84 175.96 352.82 167.15 366.00 166.00 C 379.18 164.85 393.71 168.27 398.00 182.00
M 595.00 185.00 
C 589.45 180.60 573.80 169.76 567.75 180.75 C 561.71 191.74 580.51 193.37 589.02 195.98 C 597.54 198.58 606.93 208.93 603.22 219.22 C 599.51 229.51 591.26 236.05 580.00 236.00 C 568.74 235.95 558.62 233.31 552.00 224.00
C 554.26 220.57 556.46 217.22 559.00 214.00
C 566.23 219.59 576.37 231.23 586.69 222.69 C 597.02 214.16 582.24 204.80 571.78 204.22 C 561.31 203.65 550.36 192.15 554.33 180.33 C 558.30 168.51 570.52 165.32 582.00 166.00 C 593.48 166.68 605.31 174.10 595.00 185.00
M 693.00 182.00 
C 689.01 183.48 686.29 187.38 682.00 188.00
C 678.95 175.04 659.23 173.50 652.70 183.70 C 646.16 193.90 645.33 210.73 653.75 220.25 C 662.18 229.76 681.06 224.70 683.00 212.00
C 699.49 213.05 689.69 231.05 678.31 234.31 C 666.92 237.56 649.85 237.14 641.75 226.25 C 633.65 215.36 632.89 201.51 635.78 188.78 C 638.67 176.05 647.93 167.24 661.00 166.00 C 674.08 164.77 688.80 168.26 693.00 182.00
M 1055.00 188.00 
C 1051.65 175.37 1032.72 173.17 1025.75 183.75 C 1018.78 194.33 1019.07 209.82 1027.25 219.75 C 1035.43 229.68 1053.83 224.86 1056.00 212.00
C 1059.63 212.43 1062.35 215.58 1066.00 216.00
C 1064.09 229.99 1052.01 235.80 1039.00 236.00 C 1025.99 236.20 1013.90 229.98 1010.07 216.93 C 1006.24 203.87 1005.74 190.08 1012.92 177.92 C 1020.10 165.77 1036.20 165.02 1048.22 166.78 C 1060.24 168.54 1071.82 184.29 1055.00 188.00
M 1154.00 182.00 
C 1150.27 184.33 1146.94 187.09 1143.00 189.00
C 1140.82 176.43 1121.45 172.62 1114.25 183.25 C 1107.04 193.88 1106.36 209.60 1115.25 219.75 C 1124.14 229.90 1141.06 223.98 1145.00 212.00
C 1147.35 214.12 1150.95 214.95 1154.00 216.00
C 1151.41 236.95 1120.54 242.86 1106.30 229.70 C 1092.07 216.53 1091.28 189.39 1103.75 174.75 C 1116.23 160.12 1146.91 162.61 1154.00 182.00
M 300.00 167.00 
C 300.00 186.00 300.00 205.00 300.00 224.00
C 310.33 224.00 320.67 224.00 331.00 224.00
C 331.00 227.67 331.00 231.33 331.00 235.00
C 316.33 235.00 301.67 235.00 287.00 235.00
C 287.00 212.33 287.00 189.67 287.00 167.00
C 291.33 167.00 295.67 167.00 300.00 167.00
M 516.00 198.00 
C 512.97 193.96 492.43 189.01 494.01 198.01 C 495.59 207.00 510.85 202.29 516.69 208.31 C 522.54 214.32 525.42 223.37 518.25 230.25 C 511.08 237.13 501.72 237.33 492.32 234.68 C 482.92 232.03 479.93 224.13 487.00 217.00
C 492.38 220.64 500.80 231.48 508.23 224.23 C 515.66 216.97 501.48 213.62 493.78 212.22 C 486.07 210.83 479.39 199.19 484.31 191.31 C 489.22 183.43 497.39 181.04 506.22 182.78 C 515.06 184.52 523.65 188.90 516.00 198.00
M 731.00 182.00 
C 762.85 187.71 753.59 242.71 721.00 236.00 C 688.41 229.29 697.34 175.97 731.00 182.00
M 776.00 207.00 
C 775.64 210.98 776.78 217.28 776.00 221.00 C 775.22 224.72 778.07 232.85 775.00 235.00
C 772.32 236.88 766.01 233.59 763.00 235.00
C 763.00 218.00 763.00 201.00 763.00 184.00
C 769.87 183.39 776.53 183.02 776.00 191.00
C 778.89 183.44 787.71 180.14 795.00 183.00
C 795.72 187.61 793.84 191.51 794.00 196.00
C 786.49 189.58 775.28 198.28 776.00 207.00
M 816.00 229.00 
C 815.38 232.94 816.82 239.31 816.00 243.00 C 815.18 246.69 818.04 253.87 815.00 256.00
C 812.32 257.88 806.01 254.59 803.00 256.00
C 803.00 232.00 803.00 208.00 803.00 184.00
C 808.12 184.41 817.47 181.51 815.00 190.00
C 830.69 171.70 852.45 188.27 852.99 208.01 C 853.54 227.75 832.14 247.13 816.00 229.00
M 969.00 199.00 
C 966.09 187.87 943.27 194.11 950.75 201.25 C 958.24 208.38 971.25 202.65 975.77 213.23 C 980.29 223.81 973.60 233.14 963.78 235.78 C 953.95 238.41 942.68 234.06 936.00 227.00
C 936.62 223.58 939.90 221.31 941.00 218.00
C 946.27 219.39 956.63 233.18 963.22 224.22 C 969.82 215.27 952.97 214.39 946.32 211.68 C 939.67 208.97 934.12 198.87 939.31 191.31 C 944.49 183.74 952.96 181.00 962.02 182.98 C 971.09 184.95 978.20 191.50 969.00 199.00
M 1192.00 182.00 
C 1223.97 187.73 1214.65 242.94 1182.00 236.00 C 1149.35 229.06 1159.06 176.10 1192.00 182.00
M 1256.00 196.00 
C 1232.45 186.72 1236.72 220.43 1237.00 235.00
C 1232.66 235.00 1228.34 235.00 1224.00 235.00
C 1224.00 218.00 1224.00 201.00 1224.00 184.00
C 1230.94 183.67 1238.68 182.47 1238.00 191.00
C 1241.34 185.85 1241.86 183.67 1249.03 182.02 C 1256.19 180.38 1257.49 189.76 1256.00 196.00
M 1277.00 229.00 
C 1277.00 238.00 1277.00 247.00 1277.00 256.00
C 1273.00 256.00 1269.00 256.00 1265.00 256.00
C 1265.00 232.00 1265.00 208.00 1265.00 184.00
C 1271.12 183.85 1278.33 182.43 1278.00 190.00
C 1292.16 170.88 1314.55 189.43 1314.00 209.00 C 1313.45 228.57 1294.16 246.66 1277.00 229.00
M 438.00 184.00 
C 441.83 196.42 446.18 209.24 451.00 221.00
C 455.16 208.71 459.85 196.59 463.00 184.00
C 467.33 184.00 471.67 184.00 476.00 184.00
C 473.26 193.70 470.39 202.91 466.22 212.22 C 462.06 221.54 463.21 234.58 451.00 235.00 C 438.79 235.42 439.16 222.39 435.08 212.92 C 430.99 203.45 429.00 193.48 425.00 184.00
C 429.33 184.00 433.67 184.00 438.00 184.00
M 893.00 184.00 
C 897.05 196.34 900.66 209.43 906.00 221.00
C 911.12 209.29 914.31 196.15 919.00 184.00
C 923.33 184.00 927.67 184.00 932.00 184.00
C 927.32 193.05 926.16 202.49 921.68 211.68 C 917.20 220.87 918.23 234.62 906.00 235.00 C 893.77 235.38 893.95 222.49 890.07 212.93 C 886.20 203.36 883.44 193.70 880.00 184.00
C 884.33 184.00 888.67 184.00 893.00 184.00
M 1245.00 555.00 
C 1239.86 561.19 1245.60 573.80 1244.00 582.00 C 1242.40 590.20 1244.75 602.09 1244.00 611.00 C 1243.25 619.91 1244.40 630.90 1244.00 640.00 C 1243.60 649.10 1244.30 658.96 1244.00 668.00 C 1243.70 677.04 1244.40 688.32 1244.00 697.00 C 1243.60 705.68 1235.97 709.56 1229.00 711.00
C 1200.82 716.84 1169.44 710.04 1140.00 712.00 C 1110.56 713.96 1079.74 711.14 1050.00 712.00 C 1020.26 712.86 989.86 711.68 960.00 712.00 C 930.14 712.32 899.90 712.00 870.00 712.00
C 850.24 712.00 830.79 712.07 811.00 712.00 C 791.21 711.93 770.80 712.19 751.00 712.00 C 731.20 711.81 710.66 712.42 691.00 712.00 C 671.34 711.58 651.40 712.96 632.00 712.00 C 612.60 711.04 590.88 714.10 572.00 712.00 C 553.12 709.90 530.77 717.58 514.00 710.00
C 513.51 710.01 505.20 713.27 500.00 712.00 C 494.80 710.73 487.66 712.57 482.00 712.00 C 476.34 711.43 469.89 712.26 464.00 712.00 C 458.11 711.74 452.04 712.11 446.00 712.00 C 439.96 711.89 433.08 712.05 427.00 712.00 C 420.92 711.95 415.05 712.02 409.00 712.00 C 402.95 711.98 397.06 712.01 391.00 712.00 C 384.94 711.99 379.12 712.01 373.00 712.00 C 366.88 711.99 360.13 712.01 354.00 712.00 C 347.87 711.99 342.10 712.02 336.00 712.00 C 329.90 711.98 324.13 712.03 318.00 712.00 C 311.87 711.97 306.26 712.07 300.00 712.00 C 293.74 711.93 287.41 712.15 281.00 712.00 C 274.59 711.85 269.76 712.35 263.00 712.00 C 256.24 711.65 252.61 712.79 245.00 712.00 C 237.39 711.21 236.80 713.91 227.33 711.67 C 217.86 709.43 212.65 697.04 214.00 688.00 C 215.35 678.96 213.39 677.39 214.00 670.00 C 214.61 662.61 213.73 658.66 214.00 652.00 C 214.27 645.34 213.88 640.37 214.00 634.00 C 214.12 627.63 213.94 621.24 214.00 615.00 C 214.06 608.76 213.97 603.13 214.00 597.00 C 214.03 590.87 213.99 585.10 214.00 579.00 C 214.01 572.90 213.99 567.14 214.00 561.00 C 214.01 554.86 213.99 548.15 214.00 542.00 C 214.01 535.85 213.99 530.14 214.00 524.00 C 214.01 517.86 213.98 512.23 214.00 506.00 C 214.02 499.77 213.96 494.47 214.00 488.00 C 214.04 481.53 213.91 475.86 214.00 469.00 C 214.09 462.14 213.79 458.80 214.00 451.00 C 214.21 443.20 213.52 442.95 214.00 433.00 C 214.48 423.05 213.30 406.73 214.00 397.00 C 214.70 387.27 213.24 374.94 225.23 371.23 C 237.22 367.52 244.94 370.32 260.00 370.00 C 275.06 369.68 299.99 370.01 315.00 370.00 C 330.01 369.99 339.38 368.65 351.22 370.78 C 363.06 372.91 362.18 382.13 369.25 388.75 C 376.32 395.38 378.08 403.56 388.00 407.00
C 396.97 408.83 406.87 405.95 416.00 407.00 C 425.13 408.05 435.97 405.99 445.00 407.00 C 454.03 408.01 465.50 405.36 474.00 407.00 C 482.50 408.64 495.47 403.16 502.00 408.00
C 502.32 408.24 503.00 408.00 503.00 408.00
C 501.31 389.94 501.24 367.71 524.00 370.00 C 546.76 372.29 564.04 368.40 585.00 370.00 C 605.96 371.60 627.46 368.01 647.00 370.00 C 666.54 371.99 665.01 388.36 678.25 399.75 C 691.49 411.14 714.00 406.51 733.00 407.00 C 752.00 407.49 774.25 406.75 794.00 407.00 C 813.75 407.25 836.02 406.81 856.00 407.00
C 856.66 399.50 854.67 390.67 857.00 384.00
C 862.52 361.70 890.92 371.14 910.00 370.00 C 929.08 368.86 957.63 370.18 977.00 370.00 C 996.37 369.82 1022.43 364.98 1034.25 380.75 C 1046.07 396.52 1052.38 409.74 1074.00 408.00 C 1095.62 406.26 1120.18 409.97 1142.00 408.00
C 1142.00 407.50 1142.00 407.00 1142.00 407.00
C 1142.00 399.97 1142.39 392.28 1143.00 386.00
C 1143.00 371.88 1146.84 364.56 1161.00 367.00 C 1175.16 369.44 1181.22 362.96 1192.22 361.22 C 1203.23 359.49 1209.84 353.21 1219.08 350.08 C 1228.32 346.95 1233.35 336.42 1243.02 337.02 C 1252.70 337.63 1257.68 348.12 1267.08 350.92 C 1276.47 353.73 1282.07 360.67 1293.02 361.98 C 1303.98 363.28 1311.44 369.81 1325.00 367.00 C 1338.56 364.19 1342.67 376.93 1341.00 389.00 C 1339.33 401.07 1341.54 413.71 1340.02 425.02 C 1338.51 436.34 1338.35 448.13 1335.22 458.22 C 1332.10 468.32 1329.73 476.48 1325.23 485.23 C 1320.73 493.98 1316.33 500.06 1310.25 507.25 C 1304.16 514.44 1298.37 520.37 1291.25 526.25 C 1284.13 532.13 1277.63 537.24 1269.77 541.77 C 1261.91 546.30 1253.92 552.68 1245.00 555.00 Z"/>
</g>
<g fill="None" fill-opacity="0.0" stroke="#C2F2FE" stroke-opacity="1.00" stroke-width="0.3"><path d="
M 232.00 235.00 
C 231.36 227.95 231.84 218.94 232.00 212.00 C 232.16 205.06 230.92 195.34 232.00 189.00 C 233.08 182.66 228.82 171.18 233.00 167.00
C 234.83 165.17 243.22 165.22 245.00 167.00
C 248.68 170.68 244.98 179.56 246.00 185.00 C 247.02 190.44 245.49 198.00 246.00 204.00 C 246.51 210.00 245.62 217.83 246.00 224.00
C 256.00 224.00 266.00 224.00 276.00 224.00
C 277.92 225.85 277.25 232.23 277.00 235.00
C 284.53 216.15 257.81 224.87 247.00 223.00
C 248.12 214.75 245.51 206.22 247.00 198.00 C 248.49 189.78 244.03 182.21 247.00 174.00 C 249.97 165.79 237.54 160.98 232.26 165.26 C 226.97 169.54 232.09 181.98 231.00 188.00 C 229.91 194.02 230.50 206.10 231.00 212.00 C 231.50 217.90 228.09 231.22 232.00 235.00 Z"/>
</g>
<g fill="None" fill-opacity="0.0" stroke="#93C1DF" stroke-opacity="1.00" stroke-width="0.3"><path d="
M 233.00 167.00 
C 237.00 167.00 241.00 167.00 245.00 167.00
C 243.22 165.22 234.83 165.17 233.00 167.00 Z"/>
</g>
<g fill="None" fill-opacity="0.0" stroke="#082872" stroke-opacity="1.00" stroke-width="0.3"><path d="
M 398.00 182.00 
C 393.71 168.27 379.18 164.85 366.00 166.00 C 352.82 167.15 343.84 175.96 340.78 188.78 C 337.72 201.60 339.18 214.99 347.08 225.92 C 354.98 236.85 371.72 237.92 383.31 234.30 C 394.89 230.69 404.22 213.34 388.00 212.00
C 385.58 225.02 367.78 229.45 359.25 219.75 C 350.71 210.06 350.65 194.23 357.75 183.75 C 364.85 173.28 383.88 175.32 387.00 188.00
C 391.15 187.19 393.87 182.82 398.00 182.00 Z"/>
</g>
<g fill="None" fill-opacity="0.0" stroke="#082872" stroke-opacity="1.00" stroke-width="0.3"><path d="
M 595.00 185.00 
C 605.31 174.10 593.48 166.68 582.00 166.00 C 570.52 165.32 558.30 168.51 554.33 180.33 C 550.36 192.15 561.31 203.65 571.78 204.22 C 582.24 204.80 597.02 214.16 586.69 222.69 C 576.37 231.23 566.23 219.59 559.00 214.00
C 556.46 217.22 554.26 220.57 552.00 224.00
C 558.62 233.31 568.74 235.95 580.00 236.00 C 591.26 236.05 599.51 229.51 603.22 219.22 C 606.93 208.93 597.54 198.58 589.02 195.98 C 580.51 193.37 561.71 191.74 567.75 180.75 C 573.80 169.76 589.45 180.60 595.00 185.00 Z"/>
</g>
<g fill="None" fill-opacity="0.0" stroke="#082771" stroke-opacity="1.00" stroke-width="0.3"><path d="
M 693.00 182.00 
C 688.80 168.26 674.08 164.77 661.00 166.00 C 647.93 167.24 638.67 176.05 635.78 188.78 C 632.89 201.51 633.65 215.36 641.75 226.25 C 649.85 237.14 666.92 237.56 678.31 234.31 C 689.69 231.05 699.49 213.05 683.00 212.00
C 681.06 224.70 662.18 229.76 653.75 220.25 C 645.33 210.73 646.16 193.90 652.70 183.70 C 659.23 173.50 678.95 175.04 682.00 188.00
C 686.29 187.38 689.01 183.48 693.00 182.00 Z"/>
</g>
<g fill="None" fill-opacity="0.0" stroke="#082771" stroke-opacity="1.00" stroke-width="0.3"><path d="
M 1055.00 188.00 
C 1071.82 184.29 1060.24 168.54 1048.22 166.78 C 1036.20 165.02 1020.10 165.77 1012.92 177.92 C 1005.74 190.08 1006.24 203.87 1010.07 216.93 C 1013.90 229.98 1025.99 236.20 1039.00 236.00 C 1052.01 235.80 1064.09 229.99 1066.00 216.00
C 1062.35 215.58 1059.63 212.43 1056.00 212.00
C 1053.83 224.86 1035.43 229.68 1027.25 219.75 C 1019.07 209.82 1018.78 194.33 1025.75 183.75 C 1032.72 173.17 1051.65 175.37 1055.00 188.00 Z"/>
</g>
<g fill="None" fill-opacity="0.0" stroke="#082772" stroke-opacity="1.00" stroke-width="0.3"><path d="
M 1154.00 182.00 
C 1146.91 162.61 1116.23 160.12 1103.75 174.75 C 1091.28 189.39 1092.07 216.53 1106.30 229.70 C 1120.54 242.86 1151.41 236.95 1154.00 216.00
C 1150.95 214.95 1147.35 214.12 1145.00 212.00
C 1141.06 223.98 1124.14 229.90 1115.25 219.75 C 1106.36 209.60 1107.04 193.88 1114.25 183.25 C 1121.45 172.62 1140.82 176.43 1143.00 189.00
C 1146.94 187.09 1150.27 184.33 1154.00 182.00 Z"/>
</g>
<g fill="None" fill-opacity="0.0" stroke="#2C4E8C" stroke-opacity="1.00" stroke-width="0.3"><path d="
M 232.00 235.00 
C 232.00 235.00 232.50 235.00 233.00 235.00
C 235.03 212.52 231.48 189.53 233.00 167.00
C 228.82 171.18 233.08 182.66 232.00 189.00 C 230.92 195.34 232.16 205.06 232.00 212.00 C 231.84 218.94 231.36 227.95 232.00 235.00 Z"/>
</g>
<g fill="None" fill-opacity="0.0" stroke="#052470" stroke-opacity="1.00" stroke-width="0.3"><path d="
M 233.00 235.00 
C 247.33 235.00 261.67 235.00 276.00 235.00
C 275.70 231.73 276.00 228.29 276.00 225.00
C 262.20 226.24 242.23 229.06 245.00 212.00 C 247.77 194.94 242.92 183.54 245.00 167.00
C 241.00 167.00 237.00 167.00 233.00 167.00
C 231.48 189.53 235.03 212.52 233.00 235.00 Z"/>
</g>
<g fill="None" fill-opacity="0.0" stroke="#4E72A5" stroke-opacity="1.00" stroke-width="0.3"><path d="
M 276.00 225.00 
C 276.00 224.50 276.00 224.00 276.00 224.00
C 266.00 224.00 256.00 224.00 246.00 224.00
C 245.62 217.83 246.51 210.00 246.00 204.00 C 245.49 198.00 247.02 190.44 246.00 185.00 C 244.98 179.56 248.68 170.68 245.00 167.00
C 242.92 183.54 247.77 194.94 245.00 212.00 C 242.23 229.06 262.20 226.24 276.00 225.00 Z"/>
</g>
<g fill="None" fill-opacity="0.0" stroke="#082771" stroke-opacity="1.00" stroke-width="0.3"><path d="
M 300.00 167.00 
C 295.67 167.00 291.33 167.00 287.00 167.00
C 287.00 189.67 287.00 212.33 287.00 235.00
C 301.67 235.00 316.33 235.00 331.00 235.00
C 331.00 231.33 331.00 227.67 331.00 224.00
C 320.67 224.00 310.33 224.00 300.00 224.00
C 300.00 205.00 300.00 186.00 300.00 167.00 Z"/>
</g>
<g fill="None" fill-opacity="0.0" stroke="#092872" stroke-opacity="1.00" stroke-width="0.3"><path d="
M 516.00 198.00 
C 523.65 188.90 515.06 184.52 506.22 182.78 C 497.39 181.04 489.22 183.43 484.31 191.31 C 479.39 199.19 486.07 210.83 493.78 212.22 C 501.48 213.62 515.66 216.97 508.23 224.23 C 500.80 231.48 492.38 220.64 487.00 217.00
C 479.93 224.13 482.92 232.03 492.32 234.68 C 501.72 237.33 511.08 237.13 518.25 230.25 C 525.42 223.37 522.54 214.32 516.69 208.31 C 510.85 202.29 495.59 207.00 494.01 198.01 C 492.43 189.01 512.97 193.96 516.00 198.00 Z"/>
</g>
<g fill="None" fill-opacity="0.0" stroke="#082872" stroke-opacity="1.00" stroke-width="0.3"><path d="
M 731.00 182.00 
C 697.34 175.97 688.41 229.29 721.00 236.00 C 753.59 242.71 762.85 187.71 731.00 182.00
M 727.00 192.00 
C 742.50 193.65 741.52 226.65 724.98 225.98 C 708.43 225.30 709.63 190.15 727.00 192.00 Z"/>
</g>
<g fill="None" fill-opacity="0.0" stroke="#072670" stroke-opacity="1.00" stroke-width="0.3"><path d="
M 775.00 235.00 
C 775.23 225.74 774.25 215.46 776.00 207.00
C 775.28 198.28 786.49 189.58 794.00 196.00
C 793.84 191.51 795.72 187.61 795.00 183.00
C 787.71 180.14 778.89 183.44 776.00 191.00
C 776.53 183.02 769.87 183.39 763.00 184.00
C 763.00 201.00 763.00 218.00 763.00 235.00
C 766.01 233.59 772.32 236.88 775.00 235.00 Z"/>
</g>
<g fill="None" fill-opacity="0.0" stroke="#082771" stroke-opacity="1.00" stroke-width="0.3"><path d="
M 815.00 256.00 
C 815.67 247.17 813.67 237.01 816.00 229.00
C 832.14 247.13 853.54 227.75 852.99 208.01 C 852.45 188.27 830.69 171.70 815.00 190.00
C 817.47 181.51 808.12 184.41 803.00 184.00
C 803.00 208.00 803.00 232.00 803.00 256.00
C 806.01 254.59 812.32 257.88 815.00 256.00
M 831.00 193.00 
C 845.62 196.12 841.82 228.56 825.78 225.22 C 809.73 221.88 813.15 189.19 831.00 193.00 Z"/>
</g>
<g fill="None" fill-opacity="0.0" stroke="#082872" stroke-opacity="1.00" stroke-width="0.3"><path d="
M 969.00 199.00 
C 978.20 191.50 971.09 184.95 962.02 182.98 C 952.96 181.00 944.49 183.74 939.31 191.31 C 934.12 198.87 939.67 208.97 946.32 211.68 C 952.97 214.39 969.82 215.27 963.22 224.22 C 956.63 233.18 946.27 219.39 941.00 218.00
C 939.90 221.31 936.62 223.58 936.00 227.00
C 942.68 234.06 953.95 238.41 963.78 235.78 C 973.60 233.14 980.29 223.81 975.77 213.23 C 971.25 202.65 958.24 208.38 950.75 201.25 C 943.27 194.11 966.09 187.87 969.00 199.00 Z"/>
</g>
<g fill="None" fill-opacity="0.0" stroke="#082771" stroke-opacity="1.00" stroke-width="0.3"><path d="
M 1192.00 182.00 
C 1159.06 176.10 1149.35 229.06 1182.00 236.00 C 1214.65 242.94 1223.97 187.73 1192.00 182.00
M 1192.00 193.00 
C 1206.47 198.34 1198.52 231.51 1182.93 225.07 C 1167.33 218.64 1174.23 186.44 1192.00 193.00 Z"/>
</g>
<g fill="None" fill-opacity="0.0" stroke="#092872" stroke-opacity="1.00" stroke-width="0.3"><path d="
M 1256.00 196.00 
C 1257.49 189.76 1256.19 180.38 1249.03 182.02 C 1241.86 183.67 1241.34 185.85 1238.00 191.00
C 1238.68 182.47 1230.94 183.67 1224.00 184.00
C 1224.00 201.00 1224.00 218.00 1224.00 235.00
C 1228.34 235.00 1232.66 235.00 1237.00 235.00
C 1236.72 220.43 1232.45 186.72 1256.00 196.00 Z"/>
</g>
<g fill="None" fill-opacity="0.0" stroke="#072670" stroke-opacity="1.00" stroke-width="0.3"><path d="
M 1277.00 229.00 
C 1294.16 246.66 1313.45 228.57 1314.00 209.00 C 1314.55 189.43 1292.16 170.88 1278.00 190.00
C 1278.33 182.43 1271.12 183.85 1265.00 184.00
C 1265.00 208.00 1265.00 232.00 1265.00 256.00
C 1269.00 256.00 1273.00 256.00 1277.00 256.00
C 1277.00 247.00 1277.00 238.00 1277.00 229.00
M 1293.00 193.00 
C 1307.96 197.27 1301.71 230.48 1285.98 225.02 C 1270.24 219.57 1276.11 188.18 1293.00 193.00 Z"/>
</g>
<g fill="None" fill-opacity="0.0" stroke="#082772" stroke-opacity="1.00" stroke-width="0.3"><path d="
M 438.00 184.00 
C 433.67 184.00 429.33 184.00 425.00 184.00
C 429.00 193.48 430.99 203.45 435.08 212.92 C 439.16 222.39 438.79 235.42 451.00 235.00 C 463.21 234.58 462.06 221.54 466.22 212.22 C 470.39 202.91 473.26 193.70 476.00 184.00
C 471.67 184.00 467.33 184.00 463.00 184.00
C 459.85 196.59 455.16 208.71 451.00 221.00
C 446.18 209.24 441.83 196.42 438.00 184.00 Z"/>
</g>
<g fill="None" fill-opacity="0.0" stroke="#072771" stroke-opacity="1.00" stroke-width="0.3"><path d="
M 893.00 184.00 
C 888.67 184.00 884.33 184.00 880.00 184.00
C 883.44 193.70 886.20 203.36 890.07 212.93 C 893.95 222.49 893.77 235.38 906.00 235.00 C 918.23 234.62 917.20 220.87 921.68 211.68 C 926.16 202.49 927.32 193.05 932.00 184.00
C 927.67 184.00 923.33 184.00 919.00 184.00
C 914.31 196.15 911.12 209.29 906.00 221.00
C 900.66 209.43 897.05 196.34 893.00 184.00 Z"/>
</g>
<g fill="None" fill-opacity="0.0" stroke="#AEE0FB" stroke-opacity="1.00" stroke-width="0.3"><path d="
M 727.00 192.00 
C 709.63 190.15 708.43 225.30 724.98 225.98 C 741.52 226.65 742.50 193.65 727.00 192.00 Z"/>
</g>
<g fill="None" fill-opacity="0.0" stroke="#AEDFFA" stroke-opacity="1.00" stroke-width="0.3"><path d="
M 831.00 193.00 
C 813.15 189.19 809.73 221.88 825.78 225.22 C 841.82 228.56 845.62 196.12 831.00 193.00 Z"/>
</g>
<g fill="None" fill-opacity="0.0" stroke="#ADDFFA" stroke-opacity="1.00" stroke-width="0.3"><path d="
M 1192.00 193.00 
C 1174.23 186.44 1167.33 218.64 1182.93 225.07 C 1198.52 231.51 1206.47 198.34 1192.00 193.00 Z"/>
</g>
<g fill="None" fill-opacity="0.0" stroke="#AFE0FB" stroke-opacity="1.00" stroke-width="0.3"><path d="
M 1293.00 193.00 
C 1276.11 188.18 1270.24 219.57 1285.98 225.02 C 1301.71 230.48 1307.96 197.27 1293.00 193.00 Z"/>
</g>
<g fill="None" fill-opacity="0.0" stroke="#537AA9" stroke-opacity="1.00" stroke-width="0.3"><path d="
M 775.00 235.00 
C 778.07 232.85 775.22 224.72 776.00 221.00 C 776.78 217.28 775.64 210.98 776.00 207.00
C 774.25 215.46 775.23 225.74 775.00 235.00 Z"/>
</g>
<g fill="None" fill-opacity="0.0" stroke="#6890BD" stroke-opacity="1.00" stroke-width="0.3"><path d="
M 276.00 225.00 
C 276.00 228.29 275.70 231.73 276.00 235.00
C 276.00 235.00 276.74 235.25 277.00 235.00
C 277.25 232.23 277.92 225.85 276.00 224.00
C 276.00 224.00 276.00 224.50 276.00 225.00 Z"/>
</g>
<g fill="None" fill-opacity="0.0" stroke="#587FAB" stroke-opacity="1.00" stroke-width="0.3"><path d="
M 815.00 256.00 
C 818.04 253.87 815.18 246.69 816.00 243.00 C 816.82 239.31 815.38 232.94 816.00 229.00
C 813.67 237.01 815.67 247.17 815.00 256.00 Z"/>
</g>
<g fill="None" fill-opacity="0.0" stroke="#072773" stroke-opacity="1.00" stroke-width="0.3"><path d="
M 1143.00 386.00 
C 1143.00 393.00 1143.00 400.00 1143.00 407.00
C 1143.00 411.67 1143.00 416.33 1143.00 421.00
C 1143.00 437.07 1146.45 457.17 1151.78 471.22 C 1157.10 485.27 1163.82 498.86 1173.77 509.23 C 1183.72 519.60 1193.74 530.42 1205.25 536.75 C 1216.76 543.09 1231.82 558.43 1245.00 555.00
C 1253.92 552.68 1261.91 546.30 1269.77 541.77 C 1277.63 537.24 1284.13 532.13 1291.25 526.25 C 1298.37 520.37 1304.16 514.44 1310.25 507.25 C 1316.33 500.06 1320.73 493.98 1325.23 485.23 C 1329.73 476.48 1332.10 468.32 1335.22 458.22 C 1338.35 448.13 1338.51 436.34 1340.02 425.02 C 1341.54 413.71 1339.33 401.07 1341.00 389.00 C 1342.67 376.93 1338.56 364.19 1325.00 367.00 C 1311.44 369.81 1303.98 363.28 1293.02 361.98 C 1282.07 360.67 1276.47 353.73 1267.08 350.92 C 1257.68 348.12 1252.70 337.63 1243.02 337.02 C 1233.35 336.42 1228.32 346.95 1219.08 350.08 C 1209.84 353.21 1203.23 359.49 1192.22 361.22 C 1181.22 362.96 1175.16 369.44 1161.00 367.00 C 1146.84 364.56 1143.00 371.88 1143.00 386.00
M 1244.00 357.00 
C 1250.82 358.12 1254.74 367.02 1262.25 368.75 C 1269.75 370.49 1274.86 376.32 1283.23 377.77 C 1291.60 379.22 1298.04 383.53 1308.00 383.00 C 1317.96 382.46 1326.25 385.63 1324.00 397.00 C 1321.75 408.37 1324.93 416.27 1323.00 426.00 C 1321.07 435.73 1321.49 443.56 1319.01 452.01 C 1316.52 460.46 1314.34 466.72 1311.08 474.08 C 1307.81 481.43 1304.08 486.43 1299.75 492.75 C 1295.41 499.06 1290.45 502.62 1285.25 508.25 C 1280.04 513.88 1274.59 516.73 1268.75 521.75 C 1262.92 526.78 1256.67 528.21 1250.25 533.25 C 1243.84 538.30 1236.10 535.38 1229.77 531.23 C 1223.44 527.08 1217.12 524.36 1211.30 519.70 C 1205.48 515.03 1200.52 511.24 1195.25 505.75 C 1189.98 500.26 1185.19 496.30 1181.08 489.92 C 1176.97 483.54 1173.18 478.36 1170.08 470.92 C 1166.97 463.49 1165.29 456.40 1163.02 447.98 C 1160.75 439.56 1161.36 430.47 1160.00 421.00 C 1158.64 411.53 1160.00 402.60 1159.00 392.00 C 1158.00 381.41 1171.46 383.76 1179.67 382.67 C 1187.88 381.58 1195.79 378.36 1203.23 376.23 C 1210.67 374.10 1217.51 369.57 1224.08 367.08 C 1230.66 364.59 1237.19 355.88 1244.00 357.00 Z"/>
</g>
<g fill="None" fill-opacity="0.0" stroke="#AEE1FD" stroke-opacity="1.00" stroke-width="0.3"><path d="
M 1244.00 357.00 
C 1237.19 355.88 1230.66 364.59 1224.08 367.08 C 1217.51 369.57 1210.67 374.10 1203.23 376.23 C 1195.79 378.36 1187.88 381.58 1179.67 382.67 C 1171.46 383.76 1158.00 381.41 1159.00 392.00 C 1160.00 402.60 1158.64 411.53 1160.00 421.00 C 1161.36 430.47 1160.75 439.56 1163.02 447.98 C 1165.29 456.40 1166.97 463.49 1170.08 470.92 C 1173.18 478.36 1176.97 483.54 1181.08 489.92 C 1185.19 496.30 1189.98 500.26 1195.25 505.75 C 1200.52 511.24 1205.48 515.03 1211.30 519.70 C 1217.12 524.36 1223.44 527.08 1229.77 531.23 C 1236.10 535.38 1243.84 538.30 1250.25 533.25 C 1256.67 528.21 1262.92 526.78 1268.75 521.75 C 1274.59 516.73 1280.04 513.88 1285.25 508.25 C 1290.45 502.62 1295.41 499.06 1299.75 492.75 C 1304.08 486.43 1307.81 481.43 1311.08 474.08 C 1314.34 466.72 1316.52 460.46 1319.01 452.01 C 1321.49 443.56 1321.07 435.73 1323.00 426.00 C 1324.93 416.27 1321.75 408.37 1324.00 397.00 C 1326.25 385.63 1317.96 382.46 1308.00 383.00 C 1298.04 383.53 1291.60 379.22 1283.23 377.77 C 1274.86 376.32 1269.75 370.49 1262.25 368.75 C 1254.74 367.02 1250.82 358.12 1244.00 357.00
M 1234.00 475.00 
C 1240.05 467.48 1246.37 457.76 1252.77 450.77 C 1259.17 443.78 1265.43 432.89 1271.77 426.77 C 1278.11 420.65 1283.70 403.03 1294.68 409.32 C 1305.66 415.61 1292.12 428.94 1286.75 435.75 C 1281.38 442.57 1273.07 451.91 1267.75 459.75 C 1262.43 467.59 1253.66 475.18 1248.75 483.75 C 1243.84 492.32 1231.99 503.68 1225.23 492.77 C 1218.47 481.86 1210.98 478.98 1206.25 468.75 C 1201.51 458.53 1187.40 455.10 1190.93 442.93 C 1194.46 430.76 1210.09 442.80 1213.92 451.08 C 1217.74 459.37 1228.32 467.86 1234.00 475.00 Z"/>
</g>
<g fill="None" fill-opacity="0.0" stroke="#FEDE4D" stroke-opacity="1.00" stroke-width="0.3"><path d="
M 514.00 710.00 
C 508.37 707.46 504.75 704.18 503.00 698.00
C 498.05 680.53 503.51 659.76 502.00 641.00 C 500.49 622.24 502.55 602.08 502.00 583.00 C 501.45 563.92 501.95 544.24 502.00 525.00 C 502.05 505.76 501.31 486.33 502.00 467.00 C 502.69 447.67 500.26 427.30 502.00 408.00
C 483.58 406.27 463.23 410.31 445.00 408.00 C 426.77 405.69 404.78 412.81 388.00 407.00
C 378.08 403.56 376.32 395.38 369.25 388.75 C 362.18 382.13 363.06 372.91 351.22 370.78 C 339.38 368.65 330.01 369.99 315.00 370.00 C 299.99 370.01 275.06 369.68 260.00 370.00 C 244.94 370.32 237.22 367.52 225.23 371.23 C 213.24 374.94 214.70 387.27 214.00 397.00 C 213.30 406.73 214.48 423.05 214.00 433.00 C 213.52 442.95 214.21 443.20 214.00 451.00 C 213.79 458.80 214.09 462.14 214.00 469.00 C 213.91 475.86 214.04 481.53 214.00 488.00 C 213.96 494.47 214.02 499.77 214.00 506.00 C 213.98 512.23 214.01 517.86 214.00 524.00 C 213.99 530.14 214.01 535.85 214.00 542.00 C 213.99 548.15 214.01 554.86 214.00 561.00 C 213.99 567.14 214.01 572.90 214.00 579.00 C 213.99 585.10 214.03 590.87 214.00 597.00 C 213.97 603.13 214.06 608.76 214.00 615.00 C 213.94 621.24 214.12 627.63 214.00 634.00 C 213.88 640.37 214.27 645.34 214.00 652.00 C 213.73 658.66 214.61 662.61 214.00 670.00 C 213.39 677.39 215.35 678.96 214.00 688.00 C 212.65 697.04 217.86 709.43 227.33 711.67 C 236.80 713.91 237.39 711.21 245.00 712.00 C 252.61 712.79 256.24 711.65 263.00 712.00 C 269.76 712.35 274.59 711.85 281.00 712.00 C 287.41 712.15 293.74 711.93 300.00 712.00 C 306.26 712.07 311.87 711.97 318.00 712.00 C 324.13 712.03 329.90 711.98 336.00 712.00 C 342.10 712.02 347.87 711.99 354.00 712.00 C 360.13 712.01 366.88 711.99 373.00 712.00 C 379.12 712.01 384.94 711.99 391.00 712.00 C 397.06 712.01 402.95 711.98 409.00 712.00 C 415.05 712.02 420.92 711.95 427.00 712.00 C 433.08 712.05 439.96 711.89 446.00 712.00 C 452.04 712.11 458.11 711.74 464.00 712.00 C 469.89 712.26 476.34 711.43 482.00 712.00 C 487.66 712.57 494.80 710.73 500.00 712.00 C 505.20 713.27 513.51 710.01 514.00 710.00
M 436.00 539.00 
C 432.77 540.72 430.39 543.62 427.00 545.00
C 424.06 534.68 406.69 532.15 400.75 540.75 C 394.81 549.36 394.74 565.13 401.75 573.25 C 408.77 581.36 427.29 577.16 427.00 565.00
C 444.32 570.19 428.63 587.21 414.98 587.98 C 401.32 588.74 386.75 579.52 385.02 564.98 C 383.30 550.43 385.40 534.81 399.08 528.08 C 412.76 521.34 429.61 524.86 436.00 539.00
M 352.00 527.00 
C 353.49 543.53 350.88 560.43 352.00 577.00
C 355.00 579.10 361.20 575.98 365.00 577.00 C 368.80 578.02 374.98 576.23 379.00 577.00
C 379.00 580.33 379.00 583.67 379.00 587.00
C 366.00 587.00 353.00 587.00 340.00 587.00
C 336.46 584.52 339.50 572.84 339.00 568.00 C 338.50 563.16 338.45 552.10 339.00 547.00 C 339.55 541.90 336.56 530.44 340.00 527.00
C 341.80 525.20 350.26 525.19 352.00 527.00
M 304.00 527.00 
C 304.00 543.67 304.00 560.33 304.00 577.00
C 313.00 577.00 322.00 577.00 331.00 577.00
C 331.00 580.33 331.00 583.67 331.00 587.00
C 318.00 587.00 305.00 587.00 292.00 587.00
C 292.00 567.00 292.00 547.00 292.00 527.00
C 296.00 527.00 300.00 527.00 304.00 527.00 Z"/>
</g>
<g fill="None" fill-opacity="0.0" stroke="#77C8FE" stroke-opacity="1.00" stroke-width="0.3"><path d="
M 503.00 408.00 
C 505.24 431.88 501.74 455.99 503.00 480.00 C 504.26 504.01 501.85 528.98 503.00 553.00 C 504.15 577.02 501.20 601.07 503.00 625.00 C 504.80 648.93 499.39 674.32 503.00 698.00
C 504.75 704.18 508.37 707.46 514.00 710.00
C 530.77 717.58 553.12 709.90 572.00 712.00 C 590.88 714.10 612.60 711.04 632.00 712.00 C 651.40 712.96 671.34 711.58 691.00 712.00 C 710.66 712.42 731.20 711.81 751.00 712.00 C 770.80 712.19 791.21 711.93 811.00 712.00 C 830.79 712.07 850.24 712.00 870.00 712.00
C 869.96 712.00 870.00 711.00 870.00 711.00
C 851.11 707.61 857.70 683.96 857.00 668.00 C 856.30 652.04 857.24 628.58 857.00 611.00 C 856.76 593.42 856.94 572.25 857.00 554.00 C 857.06 535.75 856.59 516.56 857.00 498.00 C 857.41 479.44 855.98 459.67 857.00 441.00 C 858.02 422.33 854.70 402.56 857.00 384.00
C 854.67 390.67 856.66 399.50 856.00 407.00
C 836.02 406.81 813.75 407.25 794.00 407.00 C 774.25 406.75 752.00 407.49 733.00 407.00 C 714.00 406.51 691.49 411.14 678.25 399.75 C 665.01 388.36 666.54 371.99 647.00 370.00 C 627.46 368.01 605.96 371.60 585.00 370.00 C 564.04 368.40 546.76 372.29 524.00 370.00 C 501.24 367.71 501.31 389.94 503.00 408.00
M 591.00 542.00 
C 587.49 537.83 573.26 530.22 568.75 538.75 C 564.25 547.29 579.46 549.30 586.02 550.98 C 592.59 552.65 601.20 558.70 601.00 567.00 C 600.80 575.30 597.83 583.28 588.92 585.92 C 580.02 588.57 571.92 588.71 563.31 584.69 C 554.69 580.68 553.87 573.28 561.00 567.00
C 565.88 572.85 577.54 583.37 586.08 575.08 C 594.61 566.78 579.59 559.72 570.98 559.02 C 562.36 558.33 552.27 546.29 556.98 536.98 C 561.69 527.66 571.81 523.96 582.00 525.00 C 592.19 526.04 602.04 533.87 591.00 542.00
M 680.00 540.00 
C 676.51 540.47 674.63 544.75 671.00 545.00
C 667.42 534.94 651.04 532.08 645.08 541.08 C 639.13 550.09 638.81 564.47 646.25 572.75 C 653.69 581.04 670.70 577.43 671.00 565.00
C 674.25 566.63 677.54 568.00 681.00 569.00
C 677.94 587.96 652.33 593.74 638.75 582.25 C 625.18 570.76 624.28 546.69 635.30 533.30 C 646.33 519.92 675.13 521.98 680.00 540.00
M 713.00 540.00 
C 741.77 544.67 733.77 593.64 705.00 588.00 C 676.23 582.36 683.60 535.23 713.00 540.00
M 771.00 542.00 
C 769.82 545.08 769.92 548.58 770.00 552.00
C 749.19 545.95 752.75 574.00 753.00 587.00
C 749.33 587.00 745.67 587.00 742.00 587.00
C 742.00 571.67 742.00 556.33 742.00 541.00
C 748.82 540.09 754.33 540.62 754.00 548.00
C 756.32 541.44 765.22 537.65 771.00 542.00
M 790.00 582.00 
C 789.69 587.24 786.99 593.95 789.00 600.00 C 791.01 606.05 779.87 609.09 777.00 605.00
C 773.68 600.26 778.53 590.01 777.00 584.00 C 775.47 577.99 777.76 569.62 777.00 563.00 C 776.24 556.39 777.57 547.79 777.00 541.00
C 783.82 540.09 789.33 540.62 789.00 548.00
C 800.94 530.88 820.43 544.59 821.00 562.00 C 821.57 579.41 805.72 597.69 790.00 582.00 Z"/>
</g>
<g fill="None" fill-opacity="0.0" stroke="#3683E4" stroke-opacity="1.00" stroke-width="0.3"><path d="
M 857.00 384.00 
C 854.70 402.56 858.02 422.33 857.00 441.00 C 855.98 459.67 857.41 479.44 857.00 498.00 C 856.59 516.56 857.06 535.75 857.00 554.00 C 856.94 572.25 856.76 593.42 857.00 611.00 C 857.24 628.58 856.30 652.04 857.00 668.00 C 857.70 683.96 851.11 707.61 870.00 711.00
C 909.49 707.42 949.33 713.14 989.00 711.00 C 1028.67 708.86 1069.27 713.16 1109.00 711.00 C 1148.73 708.84 1189.38 714.60 1229.00 711.00
C 1235.97 709.56 1243.60 705.68 1244.00 697.00 C 1244.40 688.32 1243.70 677.04 1244.00 668.00 C 1244.30 658.96 1243.60 649.10 1244.00 640.00 C 1244.40 630.90 1243.25 619.91 1244.00 611.00 C 1244.75 602.09 1242.40 590.20 1244.00 582.00 C 1245.60 573.80 1239.86 561.19 1245.00 555.00
C 1231.82 558.43 1216.76 543.09 1205.25 536.75 C 1193.74 530.42 1183.72 519.60 1173.77 509.23 C 1163.82 498.86 1157.10 485.27 1151.78 471.22 C 1146.45 457.17 1143.00 437.07 1143.00 421.00
C 1142.64 417.27 1142.00 412.41 1142.00 408.00
C 1120.18 409.97 1095.62 406.26 1074.00 408.00 C 1052.38 409.74 1046.07 396.52 1034.25 380.75 C 1022.43 364.98 996.37 369.82 977.00 370.00 C 957.63 370.18 929.08 368.86 910.00 370.00 C 890.92 371.14 862.52 361.70 857.00 384.00
M 957.00 539.00 
C 953.72 541.17 950.99 544.40 947.00 545.00
C 944.33 534.30 925.87 532.26 920.75 541.75 C 915.63 551.25 915.34 564.97 922.75 573.25 C 930.17 581.53 947.30 576.72 948.00 565.00
C 951.06 566.27 953.71 568.45 957.00 569.00
C 954.91 587.56 928.68 594.18 915.25 582.75 C 901.83 571.31 900.87 546.33 912.25 533.25 C 923.63 520.17 950.09 522.19 957.00 539.00
M 1035.00 540.00 
C 1025.99 549.31 1024.91 539.13 1015.92 536.08 C 1006.94 533.02 996.45 540.92 996.07 550.07 C 995.70 559.22 995.25 571.17 1004.23 575.77 C 1013.21 580.37 1024.32 575.71 1026.00 566.00
C 1029.65 565.91 1032.40 568.77 1036.00 569.00
C 1033.86 588.35 1007.09 593.65 993.75 582.25 C 980.41 570.84 979.07 546.43 990.25 533.25 C 1001.43 520.08 1030.16 521.70 1035.00 540.00
M 1067.00 540.00 
C 1095.37 544.05 1088.83 592.80 1060.00 588.00 C 1031.17 583.20 1037.17 535.74 1067.00 540.00
M 1125.00 541.00 
C 1124.38 544.56 1123.61 548.16 1124.00 552.00
C 1103.10 546.02 1106.74 573.90 1107.00 587.00
C 1103.33 587.00 1099.67 587.00 1096.00 587.00
C 1096.00 571.67 1096.00 556.33 1096.00 541.00
C 1102.87 540.39 1109.53 540.02 1109.00 548.00
C 1110.92 541.79 1119.07 538.18 1125.00 541.00
M 1142.00 581.00 
C 1142.00 589.00 1142.00 597.00 1142.00 605.00
C 1138.33 605.00 1134.67 605.00 1131.00 605.00
C 1131.00 583.66 1131.00 562.33 1131.00 541.00
C 1136.01 541.15 1144.41 538.99 1142.00 547.00
C 1156.96 531.03 1175.37 545.92 1175.00 564.00 C 1174.63 582.08 1156.51 597.06 1142.00 581.00 Z"/>
</g>
<g fill="None" fill-opacity="0.0" stroke="#6790BE" stroke-opacity="1.00" stroke-width="0.3"><path d="
M 1142.00 407.00 
C 1142.25 406.75 1143.00 407.00 1143.00 407.00
C 1143.00 400.00 1143.00 393.00 1143.00 386.00
C 1142.39 392.28 1142.00 399.97 1142.00 407.00 Z"/>
</g>
<g fill="None" fill-opacity="0.0" stroke="#D2DCA9" stroke-opacity="1.00" stroke-width="0.3"><path d="
M 502.00 408.00 
C 495.47 403.16 482.50 408.64 474.00 407.00 C 465.50 405.36 454.03 408.01 445.00 407.00 C 435.97 405.99 425.13 408.05 416.00 407.00 C 406.87 405.95 396.97 408.83 388.00 407.00
C 404.78 412.81 426.77 405.69 445.00 408.00 C 463.23 410.31 483.58 406.27 502.00 408.00 Z"/>
</g>
<g fill="None" fill-opacity="0.0" stroke="#265EB6" stroke-opacity="1.00" stroke-width="0.3"><path d="
M 1142.00 408.00 
C 1142.00 412.41 1142.64 417.27 1143.00 421.00
C 1143.00 416.33 1143.00 411.67 1143.00 407.00
C 1143.00 407.00 1142.25 406.75 1142.00 407.00
C 1142.00 407.00 1142.00 407.50 1142.00 408.00 Z"/>
</g>
<g fill="None" fill-opacity="0.0" stroke="#A3CCBB" stroke-opacity="1.00" stroke-width="0.3"><path d="
M 503.00 698.00 
C 499.39 674.32 504.80 648.93 503.00 625.00 C 501.20 601.07 504.15 577.02 503.00 553.00 C 501.85 528.98 504.26 504.01 503.00 480.00 C 501.74 455.99 505.24 431.88 503.00 408.00
C 503.00 408.00 502.32 408.24 502.00 408.00
C 500.26 427.30 502.69 447.67 502.00 467.00 C 501.31 486.33 502.05 505.76 502.00 525.00 C 501.95 544.24 501.45 563.92 502.00 583.00 C 502.55 602.08 500.49 622.24 502.00 641.00 C 503.51 659.76 498.05 680.53 503.00 698.00 Z"/>
</g>
<g fill="None" fill-opacity="0.0" stroke="#072772" stroke-opacity="1.00" stroke-width="0.3"><path d="
M 1234.00 475.00 
C 1228.32 467.86 1217.74 459.37 1213.92 451.08 C 1210.09 442.80 1194.46 430.76 1190.93 442.93 C 1187.40 455.10 1201.51 458.53 1206.25 468.75 C 1210.98 478.98 1218.47 481.86 1225.23 492.77 C 1231.99 503.68 1243.84 492.32 1248.75 483.75 C 1253.66 475.18 1262.43 467.59 1267.75 459.75 C 1273.07 451.91 1281.38 442.57 1286.75 435.75 C 1292.12 428.94 1305.66 415.61 1294.68 409.32 C 1283.70 403.03 1278.11 420.65 1271.77 426.77 C 1265.43 432.89 1259.17 443.78 1252.77 450.77 C 1246.37 457.76 1240.05 467.48 1234.00 475.00 Z"/>
</g>
<g fill="None" fill-opacity="0.0" stroke="#0B2871" stroke-opacity="1.00" stroke-width="0.3"><path d="
M 436.00 539.00 
C 429.61 524.86 412.76 521.34 399.08 528.08 C 385.40 534.81 383.30 550.43 385.02 564.98 C 386.75 579.52 401.32 588.74 414.98 587.98 C 428.63 587.21 444.32 570.19 427.00 565.00
C 427.29 577.16 408.77 581.36 401.75 573.25 C 394.74 565.13 394.81 549.36 400.75 540.75 C 406.69 532.15 424.06 534.68 427.00 545.00
C 430.39 543.62 432.77 540.72 436.00 539.00 Z"/>
</g>
<g fill="None" fill-opacity="0.0" stroke="#072773" stroke-opacity="1.00" stroke-width="0.3"><path d="
M 591.00 542.00 
C 602.04 533.87 592.19 526.04 582.00 525.00 C 571.81 523.96 561.69 527.66 556.98 536.98 C 552.27 546.29 562.36 558.33 570.98 559.02 C 579.59 559.72 594.61 566.78 586.08 575.08 C 577.54 583.37 565.88 572.85 561.00 567.00
C 553.87 573.28 554.69 580.68 563.31 584.69 C 571.92 588.71 580.02 588.57 588.92 585.92 C 597.83 583.28 600.80 575.30 601.00 567.00 C 601.20 558.70 592.59 552.65 586.02 550.98 C 579.46 549.30 564.25 547.29 568.75 538.75 C 573.26 530.22 587.49 537.83 591.00 542.00 Z"/>
</g>
<g fill="None" fill-opacity="0.0" stroke="#072873" stroke-opacity="1.00" stroke-width="0.3"><path d="
M 680.00 540.00 
C 675.13 521.98 646.33 519.92 635.30 533.30 C 624.28 546.69 625.18 570.76 638.75 582.25 C 652.33 593.74 677.94 587.96 681.00 569.00
C 677.54 568.00 674.25 566.63 671.00 565.00
C 670.70 577.43 653.69 581.04 646.25 572.75 C 638.81 564.47 639.13 550.09 645.08 541.08 C 651.04 532.08 667.42 534.94 671.00 545.00
C 674.63 544.75 676.51 540.47 680.00 540.00 Z"/>
</g>
<g fill="None" fill-opacity="0.0" stroke="#072774" stroke-opacity="1.00" stroke-width="0.3"><path d="
M 957.00 539.00 
C 950.09 522.19 923.63 520.17 912.25 533.25 C 900.87 546.33 901.83 571.31 915.25 582.75 C 928.68 594.18 954.91 587.56 957.00 569.00
C 953.71 568.45 951.06 566.27 948.00 565.00
C 947.30 576.72 930.17 581.53 922.75 573.25 C 915.34 564.97 915.63 551.25 920.75 541.75 C 925.87 532.26 944.33 534.30 947.00 545.00
C 950.99 544.40 953.72 541.17 957.00 539.00 Z"/>
</g>
<g fill="None" fill-opacity="0.0" stroke="#072874" stroke-opacity="1.00" stroke-width="0.3"><path d="
M 1035.00 540.00 
C 1030.16 521.70 1001.43 520.08 990.25 533.25 C 979.07 546.43 980.41 570.84 993.75 582.25 C 1007.09 593.65 1033.86 588.35 1036.00 569.00
C 1032.40 568.77 1029.65 565.91 1026.00 566.00
C 1024.32 575.71 1013.21 580.37 1004.23 575.77 C 995.25 571.17 995.70 559.22 996.07 550.07 C 996.45 540.92 1006.94 533.02 1015.92 536.08 C 1024.91 539.13 1025.99 549.31 1035.00 540.00 Z"/>
</g>
<g fill="None" fill-opacity="0.0" stroke="#C6B95A" stroke-opacity="1.00" stroke-width="0.3"><path d="
M 340.00 527.00 
C 343.67 527.00 347.33 527.00 351.00 527.00
C 351.50 527.00 352.00 527.00 352.00 527.00
C 350.26 525.19 341.80 525.20 340.00 527.00 Z"/>
</g>
<g fill="None" fill-opacity="0.0" stroke="#092771" stroke-opacity="1.00" stroke-width="0.3"><path d="
M 304.00 527.00 
C 300.00 527.00 296.00 527.00 292.00 527.00
C 292.00 547.00 292.00 567.00 292.00 587.00
C 305.00 587.00 318.00 587.00 331.00 587.00
C 331.00 583.67 331.00 580.33 331.00 577.00
C 322.00 577.00 313.00 577.00 304.00 577.00
C 304.00 560.33 304.00 543.67 304.00 527.00 Z"/>
</g>
<g fill="None" fill-opacity="0.0" stroke="#9A9360" stroke-opacity="1.00" stroke-width="0.3"><path d="
M 340.00 587.00 
C 340.00 567.00 340.00 547.00 340.00 527.00
C 336.56 530.44 339.55 541.90 339.00 547.00 C 338.45 552.10 338.50 563.16 339.00 568.00 C 339.50 572.84 336.46 584.52 340.00 587.00 Z"/>
</g>
<g fill="None" fill-opacity="0.0" stroke="#072672" stroke-opacity="1.00" stroke-width="0.3"><path d="
M 340.00 587.00 
C 353.00 587.00 366.00 587.00 379.00 587.00
C 379.00 583.67 379.00 580.33 379.00 577.00
C 374.98 576.23 368.80 578.02 365.00 577.00 C 361.20 575.98 355.00 579.10 352.00 577.00
C 348.60 574.62 351.77 565.41 351.00 561.00 C 350.23 556.59 351.12 548.99 351.00 544.00 C 350.88 539.01 350.54 532.11 351.00 527.00
C 347.33 527.00 343.67 527.00 340.00 527.00
C 340.00 547.00 340.00 567.00 340.00 587.00 Z"/>
</g>
<g fill="None" fill-opacity="0.0" stroke="#666D5F" stroke-opacity="1.00" stroke-width="0.3"><path d="
M 352.00 577.00 
C 350.88 560.43 353.49 543.53 352.00 527.00
C 352.00 527.00 351.50 527.00 351.00 527.00
C 350.54 532.11 350.88 539.01 351.00 544.00 C 351.12 548.99 350.23 556.59 351.00 561.00 C 351.77 565.41 348.60 574.62 352.00 577.00 Z"/>
</g>
<g fill="None" fill-opacity="0.0" stroke="#072873" stroke-opacity="1.00" stroke-width="0.3"><path d="
M 713.00 540.00 
C 683.60 535.23 676.23 582.36 705.00 588.00 C 733.77 593.64 741.77 544.67 713.00 540.00
M 713.00 550.00 
C 725.96 553.93 718.76 583.56 705.33 577.67 C 691.90 571.78 698.19 545.50 713.00 550.00 Z"/>
</g>
<g fill="None" fill-opacity="0.0" stroke="#062672" stroke-opacity="1.00" stroke-width="0.3"><path d="
M 771.00 542.00 
C 765.22 537.65 756.32 541.44 754.00 548.00
C 754.33 540.62 748.82 540.09 742.00 541.00
C 742.00 556.33 742.00 571.67 742.00 587.00
C 745.67 587.00 749.33 587.00 753.00 587.00
C 752.75 574.00 749.19 545.95 770.00 552.00
C 769.92 548.58 769.82 545.08 771.00 542.00 Z"/>
</g>
<g fill="None" fill-opacity="0.0" stroke="#072772" stroke-opacity="1.00" stroke-width="0.3"><path d="
M 777.00 605.00 
C 780.67 605.00 784.33 605.00 788.00 605.00
C 788.29 601.34 787.61 595.43 788.00 592.00 C 788.39 588.57 786.45 580.49 790.00 582.00
C 805.72 597.69 821.57 579.41 821.00 562.00 C 820.43 544.59 800.94 530.88 789.00 548.00
C 789.33 540.62 783.82 540.09 777.00 541.00
C 777.57 547.79 776.24 556.39 777.00 563.00 C 777.76 569.62 775.47 577.99 777.00 584.00 C 778.53 590.01 773.68 600.26 777.00 605.00
M 802.00 550.00 
C 814.70 552.49 811.37 581.04 797.33 577.67 C 783.29 574.30 787.25 547.11 802.00 550.00 Z"/>
</g>
<g fill="None" fill-opacity="0.0" stroke="#072874" stroke-opacity="1.00" stroke-width="0.3"><path d="
M 1067.00 540.00 
C 1037.17 535.74 1031.17 583.20 1060.00 588.00 C 1088.83 592.80 1095.37 544.05 1067.00 540.00
M 1067.00 550.00 
C 1079.84 553.90 1074.03 582.47 1060.33 577.67 C 1046.63 572.87 1051.60 545.33 1067.00 550.00 Z"/>
</g>
<g fill="None" fill-opacity="0.0" stroke="#072773" stroke-opacity="1.00" stroke-width="0.3"><path d="
M 1125.00 541.00 
C 1119.07 538.18 1110.92 541.79 1109.00 548.00
C 1109.53 540.02 1102.87 540.39 1096.00 541.00
C 1096.00 556.33 1096.00 571.67 1096.00 587.00
C 1099.67 587.00 1103.33 587.00 1107.00 587.00
C 1106.74 573.90 1103.10 546.02 1124.00 552.00
C 1123.61 548.16 1124.38 544.56 1125.00 541.00 Z"/>
</g>
<g fill="None" fill-opacity="0.0" stroke="#062773" stroke-opacity="1.00" stroke-width="0.3"><path d="
M 1142.00 581.00 
C 1156.51 597.06 1174.63 582.08 1175.00 564.00 C 1175.37 545.92 1156.96 531.03 1142.00 547.00
C 1144.41 538.99 1136.01 541.15 1131.00 541.00
C 1131.00 562.33 1131.00 583.66 1131.00 605.00
C 1134.67 605.00 1138.33 605.00 1142.00 605.00
C 1142.00 597.00 1142.00 589.00 1142.00 581.00
M 1156.00 550.00 
C 1168.64 553.20 1164.43 581.05 1150.78 577.22 C 1137.13 573.39 1142.01 546.45 1156.00 550.00 Z"/>
</g>
<g fill="None" fill-opacity="0.0" stroke="#7AC7FB" stroke-opacity="1.00" stroke-width="0.3"><path d="
M 713.00 550.00 
C 698.19 545.50 691.90 571.78 705.33 577.67 C 718.76 583.56 725.96 553.93 713.00 550.00 Z"/>
</g>
<g fill="None" fill-opacity="0.0" stroke="#79C6FA" stroke-opacity="1.00" stroke-width="0.3"><path d="
M 802.00 550.00 
C 787.25 547.11 783.29 574.30 797.33 577.67 C 811.37 581.04 814.70 552.49 802.00 550.00 Z"/>
</g>
<g fill="None" fill-opacity="0.0" stroke="#3783E2" stroke-opacity="1.00" stroke-width="0.3"><path d="
M 1067.00 550.00 
C 1051.60 545.33 1046.63 572.87 1060.33 577.67 C 1074.03 582.47 1079.84 553.90 1067.00 550.00 Z"/>
</g>
<g fill="None" fill-opacity="0.0" stroke="#3783E3" stroke-opacity="1.00" stroke-width="0.3"><path d="
M 1156.00 550.00 
C 1142.01 546.45 1137.13 573.39 1150.78 577.22 C 1164.43 581.05 1168.64 553.20 1156.00 550.00 Z"/>
</g>
<g fill="None" fill-opacity="0.0" stroke="#3B6EAD" stroke-opacity="1.00" stroke-width="0.3"><path d="
M 777.00 605.00 
C 779.87 609.09 791.01 606.05 789.00 600.00 C 786.99 593.95 789.69 587.24 790.00 582.00
C 786.45 580.49 788.39 588.57 788.00 592.00 C 787.61 595.43 788.29 601.34 788.00 605.00
C 784.33 605.00 780.67 605.00 777.00 605.00 Z"/>
</g>
<g fill="None" fill-opacity="0.0" stroke="#5598DF" stroke-opacity="1.00" stroke-width="0.3"><path d="
M 870.00 712.00 
C 899.90 712.00 930.14 712.32 960.00 712.00 C 989.86 711.68 1020.26 712.86 1050.00 712.00 C 1079.74 711.14 1110.56 713.96 1140.00 712.00 C 1169.44 710.04 1200.82 716.84 1229.00 711.00
C 1189.38 714.60 1148.73 708.84 1109.00 711.00 C 1069.27 713.16 1028.67 708.86 989.00 711.00 C 949.33 713.14 909.49 707.42 870.00 711.00
C 870.00 711.00 869.96 712.00 870.00 712.00 Z"/>
</g>
<g fill="#ACDFFB" fill-opacity="1.00" stroke="None">
<path d="
M 0.00 1024.00 
L 1536.00 1024.00
L 1536.00 0.00
L 0.00 0.00
L 0.00 1024.00
M 277.00 235.00 
C 276.74 235.25 276.00 235.00 276.00 235.00
C 261.67 235.00 247.33 235.00 233.00 235.00
C 232.50 235.00 232.00 235.00 232.00 235.00
C 228.09 231.22 231.50 217.90 231.00 212.00 C 230.50 206.10 229.91 194.02 231.00 188.00 C 232.09 181.98 226.97 169.54 232.26 165.26 C 237.54 160.98 249.97 165.79 247.00 174.00 C 244.03 182.21 248.49 189.78 247.00 198.00 C 245.51 206.22 248.12 214.75 247.00 223.00
C 257.81 224.87 284.53 216.15 277.00 235.00
M 398.00 182.00 
C 393.87 182.82 391.15 187.19 387.00 188.00
C 383.88 175.32 364.85 173.28 357.75 183.75 C 350.65 194.23 350.71 210.06 359.25 219.75 C 367.78 229.45 385.58 225.02 388.00 212.00
C 404.22 213.34 394.89 230.69 383.31 234.30 C 371.72 237.92 354.98 236.85 347.08 225.92 C 339.18 214.99 337.72 201.60 340.78 188.78 C 343.84 175.96 352.82 167.15 366.00 166.00 C 379.18 164.85 393.71 168.27 398.00 182.00
M 595.00 185.00 
C 589.45 180.60 573.80 169.76 567.75 180.75 C 561.71 191.74 580.51 193.37 589.02 195.98 C 597.54 198.58 606.93 208.93 603.22 219.22 C 599.51 229.51 591.26 236.05 580.00 236.00 C 568.74 235.95 558.62 233.31 552.00 224.00
C 554.26 220.57 556.46 217.22 559.00 214.00
C 566.23 219.59 576.37 231.23 586.69 222.69 C 597.02 214.16 582.24 204.80 571.78 204.22 C 561.31 203.65 550.36 192.15 554.33 180.33 C 558.30 168.51 570.52 165.32 582.00 166.00 C 593.48 166.68 605.31 174.10 595.00 185.00
M 693.00 182.00 
C 689.01 183.48 686.29 187.38 682.00 188.00
C 678.95 175.04 659.23 173.50 652.70 183.70 C 646.16 193.90 645.33 210.73 653.75 220.25 C 662.18 229.76 681.06 224.70 683.00 212.00
C 699.49 213.05 689.69 231.05 678.31 234.31 C 666.92 237.56 649.85 237.14 641.75 226.25 C 633.65 215.36 632.89 201.51 635.78 188.78 C 638.67 176.05 647.93 167.24 661.00 166.00 C 674.08 164.77 688.80 168.26 693.00 182.00
M 1055.00 188.00 
C 1051.65 175.37 1032.72 173.17 1025.75 183.75 C 1018.78 194.33 1019.07 209.82 1027.25 219.75 C 1035.43 229.68 1053.83 224.86 1056.00 212.00
C 1059.63 212.43 1062.35 215.58 1066.00 216.00
C 1064.09 229.99 1052.01 235.80 1039.00 236.00 C 1025.99 236.20 1013.90 229.98 1010.07 216.93 C 1006.24 203.87 1005.74 190.08 1012.92 177.92 C 1020.10 165.77 1036.20 165.02 1048.22 166.78 C 1060.24 168.54 1071.82 184.29 1055.00 188.00
M 1154.00 182.00 
C 1150.27 184.33 1146.94 187.09 1143.00 189.00
C 1140.82 176.43 1121.45 172.62 1114.25 183.25 C 1107.04 193.88 1106.36 209.60 1115.25 219.75 C 1124.14 229.90 1141.06 223.98 1145.00 212.00
C 1147.35 214.12 1150.95 214.95 1154.00 216.00
C 1151.41 236.95 1120.54 242.86 1106.30 229.70 C 1092.07 216.53 1091.28 189.39 1103.75 174.75 C 1116.23 160.12 1146.91 162.61 1154.00 182.00
M 300.00 167.00 
C 300.00 186.00 300.00 205.00 300.00 224.00
C 310.33 224.00 320.67 224.00 331.00 224.00
C 331.00 227.67 331.00 231.33 331.00 235.00
C 316.33 235.00 301.67 235.00 287.00 235.00
C 287.00 212.33 287.00 189.67 287.00 167.00
C 291.33 167.00 295.67 167.00 300.00 167.00
M 516.00 198.00 
C 512.97 193.96 492.43 189.01 494.01 198.01 C 495.59 207.00 510.85 202.29 516.69 208.31 C 522.54 214.32 525.42 223.37 518.25 230.25 C 511.08 237.13 501.72 237.33 492.32 234.68 C 482.92 232.03 479.93 224.13 487.00 217.00
C 492.38 220.64 500.80 231.48 508.23 224.23 C 515.66 216.97 501.48 213.62 493.78 212.22 C 486.07 210.83 479.39 199.19 484.31 191.31 C 489.22 183.43 497.39 181.04 506.22 182.78 C 515.06 184.52 523.65 188.90 516.00 198.00
M 731.00 182.00 
C 762.85 187.71 753.59 242.71 721.00 236.00 C 688.41 229.29 697.34 175.97 731.00 182.00
M 776.00 207.00 
C 775.64 210.98 776.78 217.28 776.00 221.00 C 775.22 224.72 778.07 232.85 775.00 235.00
C 772.32 236.88 766.01 233.59 763.00 235.00
C 763.00 218.00 763.00 201.00 763.00 184.00
C 769.87 183.39 776.53 183.02 776.00 191.00
C 778.89 183.44 787.71 180.14 795.00 183.00
C 795.72 187.61 793.84 191.51 794.00 196.00
C 786.49 189.58 775.28 198.28 776.00 207.00
M 816.00 229.00 
C 815.38 232.94 816.82 239.31 816.00 243.00 C 815.18 246.69 818.04 253.87 815.00 256.00
C 812.32 257.88 806.01 254.59 803.00 256.00
C 803.00 232.00 803.00 208.00 803.00 184.00
C 808.12 184.41 817.47 181.51 815.00 190.00
C 830.69 171.70 852.45 188.27 852.99 208.01 C 853.54 227.75 832.14 247.13 816.00 229.00
M 969.00 199.00 
C 966.09 187.87 943.27 194.11 950.75 201.25 C 958.24 208.38 971.25 202.65 975.77 213.23 C 980.29 223.81 973.60 233.14 963.78 235.78 C 953.95 238.41 942.68 234.06 936.00 227.00
C 936.62 223.58 939.90 221.31 941.00 218.00
C 946.27 219.39 956.63 233.18 963.22 224.22 C 969.82 215.27 952.97 214.39 946.32 211.68 C 939.67 208.97 934.12 198.87 939.31 191.31 C 944.49 183.74 952.96 181.00 962.02 182.98 C 971.09 184.95 978.20 191.50 969.00 199.00
M 1192.00 182.00 
C 1223.97 187.73 1214.65 242.94 1182.00 236.00 C 1149.35 229.06 1159.06 176.10 1192.00 182.00
M 1256.00 196.00 
C 1232.45 186.72 1236.72 220.43 1237.00 235.00
C 1232.66 235.00 1228.34 235.00 1224.00 235.00
C 1224.00 218.00 1224.00 201.00 1224.00 184.00
C 1230.94 183.67 1238.68 182.47 1238.00 191.00
C 1241.34 185.85 1241.86 183.67 1249.03 182.02 C 1256.19 180.38 1257.49 189.76 1256.00 196.00
M 1277.00 229.00 
C 1277.00 238.00 1277.00 247.00 1277.00 256.00
C 1273.00 256.00 1269.00 256.00 1265.00 256.00
C 1265.00 232.00 1265.00 208.00 1265.00 184.00
C 1271.12 183.85 1278.33 182.43 1278.00 190.00
C 1292.16 170.88 1314.55 189.43 1314.00 209.00 C 1313.45 228.57 1294.16 246.66 1277.00 229.00
M 438.00 184.00 
C 441.83 196.42 446.18 209.24 451.00 221.00
C 455.16 208.71 459.85 196.59 463.00 184.00
C 467.33 184.00 471.67 184.00 476.00 184.00
C 473.26 193.70 470.39 202.91 466.22 212.22 C 462.06 221.54 463.21 234.58 451.00 235.00 C 438.79 235.42 439.16 222.39 435.08 212.92 C 430.99 203.45 429.00 193.48 425.00 184.00
C 429.33 184.00 433.67 184.00 438.00 184.00
M 893.00 184.00 
C 897.05 196.34 900.66 209.43 906.00 221.00
C 911.12 209.29 914.31 196.15 919.00 184.00
C 923.33 184.00 927.67 184.00 932.00 184.00
C 927.32 193.05 926.16 202.49 921.68 211.68 C 917.20 220.87 918.23 234.62 906.00 235.00 C 893.77 235.38 893.95 222.49 890.07 212.93 C 886.20 203.36 883.44 193.70 880.00 184.00
C 884.33 184.00 888.67 184.00 893.00 184.00
M 1245.00 555.00 
C 1239.86 561.19 1245.60 573.80 1244.00 582.00 C 1242.40 590.20 1244.75 602.09 1244.00 611.00 C 1243.25 619.91 1244.40 630.90 1244.00 640.00 C 1243.60 649.10 1244.30 658.96 1244.00 668.00 C 1243.70 677.04 1244.40 688.32 1244.00 697.00 C 1243.60 705.68 1235.97 709.56 1229.00 711.00
C 1200.82 716.84 1169.44 710.04 1140.00 712.00 C 1110.56 713.96 1079.74 711.14 1050.00 712.00 C 1020.26 712.86 989.86 711.68 960.00 712.00 C 930.14 712.32 899.90 712.00 870.00 712.00
C 850.24 712.00 830.79 712.07 811.00 712.00 C 791.21 711.93 770.80 712.19 751.00 712.00 C 731.20 711.81 710.66 712.42 691.00 712.00 C 671.34 711.58 651.40 712.96 632.00 712.00 C 612.60 711.04 590.88 714.10 572.00 712.00 C 553.12 709.90 530.77 717.58 514.00 710.00
C 513.51 710.01 505.20 713.27 500.00 712.00 C 494.80 710.73 487.66 712.57 482.00 712.00 C 476.34 711.43 469.89 712.26 464.00 712.00 C 458.11 711.74 452.04 712.11 446.00 712.00 C 439.96 711.89 433.08 712.05 427.00 712.00 C 420.92 711.95 415.05 712.02 409.00 712.00 C 402.95 711.98 397.06 712.01 391.00 712.00 C 384.94 711.99 379.12 712.01 373.00 712.00 C 366.88 711.99 360.13 712.01 354.00 712.00 C 347.87 711.99 342.10 712.02 336.00 712.00 C 329.90 711.98 324.13 712.03 318.00 712.00 C 311.87 711.97 306.26 712.07 300.00 712.00 C 293.74 711.93 287.41 712.15 281.00 712.00 C 274.59 711.85 269.76 712.35 263.00 712.00 C 256.24 711.65 252.61 712.79 245.00 712.00 C 237.39 711.21 236.80 713.91 227.33 711.67 C 217.86 709.43 212.65 697.04 214.00 688.00 C 215.35 678.96 213.39 677.39 214.00 670.00 C 214.61 662.61 213.73 658.66 214.00 652.00 C 214.27 645.34 213.88 640.37 214.00 634.00 C 214.12 627.63 213.94 621.24 214.00 615.00 C 214.06 608.76 213.97 603.13 214.00 597.00 C 214.03 590.87 213.99 585.10 214.00 579.00 C 214.01 572.90 213.99 567.14 214.00 561.00 C 214.01 554.86 213.99 548.15 214.00 542.00 C 214.01 535.85 213.99 530.14 214.00 524.00 C 214.01 517.86 213.98 512.23 214.00 506.00 C 214.02 499.77 213.96 494.47 214.00 488.00 C 214.04 481.53 213.91 475.86 214.00 469.00 C 214.09 462.14 213.79 458.80 214.00 451.00 C 214.21 443.20 213.52 442.95 214.00 433.00 C 214.48 423.05 213.30 406.73 214.00 397.00 C 214.70 387.27 213.24 374.94 225.23 371.23 C 237.22 367.52 244.94 370.32 260.00 370.00 C 275.06 369.68 299.99 370.01 315.00 370.00 C 330.01 369.99 339.38 368.65 351.22 370.78 C 363.06 372.91 362.18 382.13 369.25 388.75 C 376.32 395.38 378.08 403.56 388.00 407.00
C 396.97 408.83 406.87 405.95 416.00 407.00 C 425.13 408.05 435.97 405.99 445.00 407.00 C 454.03 408.01 465.50 405.36 474.00 407.00 C 482.50 408.64 495.47 403.16 502.00 408.00
C 502.32 408.24 503.00 408.00 503.00 408.00
C 501.31 389.94 501.24 367.71 524.00 370.00 C 546.76 372.29 564.04 368.40 585.00 370.00 C 605.96 371.60 627.46 368.01 647.00 370.00 C 666.54 371.99 665.01 388.36 678.25 399.75 C 691.49 411.14 714.00 406.51 733.00 407.00 C 752.00 407.49 774.25 406.75 794.00 407.00 C 813.75 407.25 836.02 406.81 856.00 407.00
C 856.66 399.50 854.67 390.67 857.00 384.00
C 862.52 361.70 890.92 371.14 910.00 370.00 C 929.08 368.86 957.63 370.18 977.00 370.00 C 996.37 369.82 1022.43 364.98 1034.25 380.75 C 1046.07 396.52 1052.38 409.74 1074.00 408.00 C 1095.62 406.26 1120.18 409.97 1142.00 408.00
C 1142.00 407.50 1142.00 407.00 1142.00 407.00
C 1142.00 399.97 1142.39 392.28 1143.00 386.00
C 1143.00 371.88 1146.84 364.56 1161.00 367.00 C 1175.16 369.44 1181.22 362.96 1192.22 361.22 C 1203.23 359.49 1209.84 353.21 1219.08 350.08 C 1228.32 346.95 1233.35 336.42 1243.02 337.02 C 1252.70 337.63 1257.68 348.12 1267.08 350.92 C 1276.47 353.73 1282.07 360.67 1293.02 361.98 C 1303.98 363.28 1311.44 369.81 1325.00 367.00 C 1338.56 364.19 1342.67 376.93 1341.00 389.00 C 1339.33 401.07 1341.54 413.71 1340.02 425.02 C 1338.51 436.34 1338.35 448.13 1335.22 458.22 C 1332.10 468.32 1329.73 476.48 1325.23 485.23 C 1320.73 493.98 1316.33 500.06 1310.25 507.25 C 1304.16 514.44 1298.37 520.37 1291.25 526.25 C 1284.13 532.13 1277.63 537.24 1269.77 541.77 C 1261.91 546.30 1253.92 552.68 1245.00 555.00 Z"/>
</g>
<g fill="#C2F2FE" fill-opacity="1.00" stroke="None">
<path d="
M 232.00 235.00 
C 231.36 227.95 231.84 218.94 232.00 212.00 C 232.16 205.06 230.92 195.34 232.00 189.00 C 233.08 182.66 228.82 171.18 233.00 167.00
C 234.83 165.17 243.22 165.22 245.00 167.00
C 248.68 170.68 244.98 179.56 246.00 185.00 C 247.02 190.44 245.49 198.00 246.00 204.00 C 246.51 210.00 245.62 217.83 246.00 224.00
C 256.00 224.00 266.00 224.00 276.00 224.00
C 277.92 225.85 277.25 232.23 277.00 235.00
C 284.53 216.15 257.81 224.87 247.00 223.00
C 248.12 214.75 245.51 206.22 247.00 198.00 C 248.49 189.78 244.03 182.21 247.00 174.00 C 249.97 165.79 237.54 160.98 232.26 165.26 C 226.97 169.54 232.09 181.98 231.00 188.00 C 229.91 194.02 230.50 206.10 231.00 212.00 C 231.50 217.90 228.09 231.22 232.00 235.00 Z"/>
</g>
<g fill="#93C1DF" fill-opacity="1.00" stroke="None">
<path d="
M 233.00 167.00 
C 237.00 167.00 241.00 167.00 245.00 167.00
C 243.22 165.22 234.83 165.17 233.00 167.00 Z"/>
</g>
<g fill="#082872" fill-opacity="1.00" stroke="None">
<path d="
M 398.00 182.00 
C 393.71 168.27 379.18 164.85 366.00 166.00 C 352.82 167.15 343.84 175.96 340.78 188.78 C 337.72 201.60 339.18 214.99 347.08 225.92 C 354.98 236.85 371.72 237.92 383.31 234.30 C 394.89 230.69 404.22 213.34 388.00 212.00
C 385.58 225.02 367.78 229.45 359.25 219.75 C 350.71 210.06 350.65 194.23 357.75 183.75 C 364.85 173.28 383.88 175.32 387.00 188.00
C 391.15 187.19 393.87 182.82 398.00 182.00 Z"/>
</g>
<g fill="#082872" fill-opacity="1.00" stroke="None">
<path d="
M 595.00 185.00 
C 605.31 174.10 593.48 166.68 582.00 166.00 C 570.52 165.32 558.30 168.51 554.33 180.33 C 550.36 192.15 561.31 203.65 571.78 204.22 C 582.24 204.80 597.02 214.16 586.69 222.69 C 576.37 231.23 566.23 219.59 559.00 214.00
C 556.46 217.22 554.26 220.57 552.00 224.00
C 558.62 233.31 568.74 235.95 580.00 236.00 C 591.26 236.05 599.51 229.51 603.22 219.22 C 606.93 208.93 597.54 198.58 589.02 195.98 C 580.51 193.37 561.71 191.74 567.75 180.75 C 573.80 169.76 589.45 180.60 595.00 185.00 Z"/>
</g>
<g fill="#082771" fill-opacity="1.00" stroke="None">
<path d="
M 693.00 182.00 
C 688.80 168.26 674.08 164.77 661.00 166.00 C 647.93 167.24 638.67 176.05 635.78 188.78 C 632.89 201.51 633.65 215.36 641.75 226.25 C 649.85 237.14 666.92 237.56 678.31 234.31 C 689.69 231.05 699.49 213.05 683.00 212.00
C 681.06 224.70 662.18 229.76 653.75 220.25 C 645.33 210.73 646.16 193.90 652.70 183.70 C 659.23 173.50 678.95 175.04 682.00 188.00
C 686.29 187.38 689.01 183.48 693.00 182.00 Z"/>
</g>
<g fill="#082771" fill-opacity="1.00" stroke="None">
<path d="
M 1055.00 188.00 
C 1071.82 184.29 1060.24 168.54 1048.22 166.78 C 1036.20 165.02 1020.10 165.77 1012.92 177.92 C 1005.74 190.08 1006.24 203.87 1010.07 216.93 C 1013.90 229.98 1025.99 236.20 1039.00 236.00 C 1052.01 235.80 1064.09 229.99 1066.00 216.00
C 1062.35 215.58 1059.63 212.43 1056.00 212.00
C 1053.83 224.86 1035.43 229.68 1027.25 219.75 C 1019.07 209.82 1018.78 194.33 1025.75 183.75 C 1032.72 173.17 1051.65 175.37 1055.00 188.00 Z"/>
</g>
<g fill="#082772" fill-opacity="1.00" stroke="None">
<path d="
M 1154.00 182.00 
C 1146.91 162.61 1116.23 160.12 1103.75 174.75 C 1091.28 189.39 1092.07 216.53 1106.30 229.70 C 1120.54 242.86 1151.41 236.95 1154.00 216.00
C 1150.95 214.95 1147.35 214.12 1145.00 212.00
C 1141.06 223.98 1124.14 229.90 1115.25 219.75 C 1106.36 209.60 1107.04 193.88 1114.25 183.25 C 1121.45 172.62 1140.82 176.43 1143.00 189.00
C 1146.94 187.09 1150.27 184.33 1154.00 182.00 Z"/>
</g>
<g fill="#2C4E8C" fill-opacity="1.00" stroke="None">
<path d="
M 232.00 235.00 
C 232.00 235.00 232.50 235.00 233.00 235.00
C 235.03 212.52 231.48 189.53 233.00 167.00
C 228.82 171.18 233.08 182.66 232.00 189.00 C 230.92 195.34 232.16 205.06 232.00 212.00 C 231.84 218.94 231.36 227.95 232.00 235.00 Z"/>
</g>
<g fill="#052470" fill-opacity="1.00" stroke="None">
<path d="
M 233.00 235.00 
C 247.33 235.00 261.67 235.00 276.00 235.00
C 275.70 231.73 276.00 228.29 276.00 225.00
C 262.20 226.24 242.23 229.06 245.00 212.00 C 247.77 194.94 242.92 183.54 245.00 167.00
C 241.00 167.00 237.00 167.00 233.00 167.00
C 231.48 189.53 235.03 212.52 233.00 235.00 Z"/>
</g>
<g fill="#4E72A5" fill-opacity="1.00" stroke="None">
<path d="
M 276.00 225.00 
C 276.00 224.50 276.00 224.00 276.00 224.00
C 266.00 224.00 256.00 224.00 246.00 224.00
C 245.62 217.83 246.51 210.00 246.00 204.00 C 245.49 198.00 247.02 190.44 246.00 185.00 C 244.98 179.56 248.68 170.68 245.00 167.00
C 242.92 183.54 247.77 194.94 245.00 212.00 C 242.23 229.06 262.20 226.24 276.00 225.00 Z"/>
</g>
<g fill="#082771" fill-opacity="1.00" stroke="None">
<path d="
M 300.00 167.00 
C 295.67 167.00 291.33 167.00 287.00 167.00
C 287.00 189.67 287.00 212.33 287.00 235.00
C 301.67 235.00 316.33 235.00 331.00 235.00
C 331.00 231.33 331.00 227.67 331.00 224.00
C 320.67 224.00 310.33 224.00 300.00 224.00
C 300.00 205.00 300.00 186.00 300.00 167.00 Z"/>
</g>
<g fill="#092872" fill-opacity="1.00" stroke="None">
<path d="
M 516.00 198.00 
C 523.65 188.90 515.06 184.52 506.22 182.78 C 497.39 181.04 489.22 183.43 484.31 191.31 C 479.39 199.19 486.07 210.83 493.78 212.22 C 501.48 213.62 515.66 216.97 508.23 224.23 C 500.80 231.48 492.38 220.64 487.00 217.00
C 479.93 224.13 482.92 232.03 492.32 234.68 C 501.72 237.33 511.08 237.13 518.25 230.25 C 525.42 223.37 522.54 214.32 516.69 208.31 C 510.85 202.29 495.59 207.00 494.01 198.01 C 492.43 189.01 512.97 193.96 516.00 198.00 Z"/>
</g>
<g fill="#082872" fill-opacity="1.00" stroke="None">
<path d="
M 731.00 182.00 
C 697.34 175.97 688.41 229.29 721.00 236.00 C 753.59 242.71 762.85 187.71 731.00 182.00
M 727.00 192.00 
C 742.50 193.65 741.52 226.65 724.98 225.98 C 708.43 225.30 709.63 190.15 727.00 192.00 Z"/>
</g>
<g fill="#072670" fill-opacity="1.00" stroke="None">
<path d="
M 775.00 235.00 
C 775.23 225.74 774.25 215.46 776.00 207.00
C 775.28 198.28 786.49 189.58 794.00 196.00
C 793.84 191.51 795.72 187.61 795.00 183.00
C 787.71 180.14 778.89 183.44 776.00 191.00
C 776.53 183.02 769.87 183.39 763.00 184.00
C 763.00 201.00 763.00 218.00 763.00 235.00
C 766.01 233.59 772.32 236.88 775.00 235.00 Z"/>
</g>
<g fill="#082771" fill-opacity="1.00" stroke="None">
<path d="
M 815.00 256.00 
C 815.67 247.17 813.67 237.01 816.00 229.00
C 832.14 247.13 853.54 227.75 852.99 208.01 C 852.45 188.27 830.69 171.70 815.00 190.00
C 817.47 181.51 808.12 184.41 803.00 184.00
C 803.00 208.00 803.00 232.00 803.00 256.00
C 806.01 254.59 812.32 257.88 815.00 256.00
M 831.00 193.00 
C 845.62 196.12 841.82 228.56 825.78 225.22 C 809.73 221.88 813.15 189.19 831.00 193.00 Z"/>
</g>
<g fill="#082872" fill-opacity="1.00" stroke="None">
<path d="
M 969.00 199.00 
C 978.20 191.50 971.09 184.95 962.02 182.98 C 952.96 181.00 944.49 183.74 939.31 191.31 C 934.12 198.87 939.67 208.97 946.32 211.68 C 952.97 214.39 969.82 215.27 963.22 224.22 C 956.63 233.18 946.27 219.39 941.00 218.00
C 939.90 221.31 936.62 223.58 936.00 227.00
C 942.68 234.06 953.95 238.41 963.78 235.78 C 973.60 233.14 980.29 223.81 975.77 213.23 C 971.25 202.65 958.24 208.38 950.75 201.25 C 943.27 194.11 966.09 187.87 969.00 199.00 Z"/>
</g>
<g fill="#082771" fill-opacity="1.00" stroke="None">
<path d="
M 1192.00 182.00 
C 1159.06 176.10 1149.35 229.06 1182.00 236.00 C 1214.65 242.94 1223.97 187.73 1192.00 182.00
M 1192.00 193.00 
C 1206.47 198.34 1198.52 231.51 1182.93 225.07 C 1167.33 218.64 1174.23 186.44 1192.00 193.00 Z"/>
</g>
<g fill="#092872" fill-opacity="1.00" stroke="None">
<path d="
M 1256.00 196.00 
C 1257.49 189.76 1256.19 180.38 1249.03 182.02 C 1241.86 183.67 1241.34 185.85 1238.00 191.00
C 1238.68 182.47 1230.94 183.67 1224.00 184.00
C 1224.00 201.00 1224.00 218.00 1224.00 235.00
C 1228.34 235.00 1232.66 235.00 1237.00 235.00
C 1236.72 220.43 1232.45 186.72 1256.00 196.00 Z"/>
</g>
<g fill="#072670" fill-opacity="1.00" stroke="None">
<path d="
M 1277.00 229.00 
C 1294.16 246.66 1313.45 228.57 1314.00 209.00 C 1314.55 189.43 1292.16 170.88 1278.00 190.00
C 1278.33 182.43 1271.12 183.85 1265.00 184.00
C 1265.00 208.00 1265.00 232.00 1265.00 256.00
C 1269.00 256.00 1273.00 256.00 1277.00 256.00
C 1277.00 247.00 1277.00 238.00 1277.00 229.00
M 1293.00 193.00 
C 1307.96 197.27 1301.71 230.48 1285.98 225.02 C 1270.24 219.57 1276.11 188.18 1293.00 193.00 Z"/>
</g>
<g fill="#082772" fill-opacity="1.00" stroke="None">
<path d="
M 438.00 184.00 
C 433.67 184.00 429.33 184.00 425.00 184.00
C 429.00 193.48 430.99 203.45 435.08 212.92 C 439.16 222.39 438.79 235.42 451.00 235.00 C 463.21 234.58 462.06 221.54 466.22 212.22 C 470.39 202.91 473.26 193.70 476.00 184.00
C 471.67 184.00 467.33 184.00 463.00 184.00
C 459.85 196.59 455.16 208.71 451.00 221.00
C 446.18 209.24 441.83 196.42 438.00 184.00 Z"/>
</g>
<g fill="#072771" fill-opacity="1.00" stroke="None">
<path d="
M 893.00 184.00 
C 888.67 184.00 884.33 184.00 880.00 184.00
C 883.44 193.70 886.20 203.36 890.07 212.93 C 893.95 222.49 893.77 235.38 906.00 235.00 C 918.23 234.62 917.20 220.87 921.68 211.68 C 926.16 202.49 927.32 193.05 932.00 184.00
C 927.67 184.00 923.33 184.00 919.00 184.00
C 914.31 196.15 911.12 209.29 906.00 221.00
C 900.66 209.43 897.05 196.34 893.00 184.00 Z"/>
</g>
<g fill="#AEE0FB" fill-opacity="1.00" stroke="None">
<path d="
M 727.00 192.00 
C 709.63 190.15 708.43 225.30 724.98 225.98 C 741.52 226.65 742.50 193.65 727.00 192.00 Z"/>
</g>
<g fill="#AEDFFA" fill-opacity="1.00" stroke="None">
<path d="
M 831.00 193.00 
C 813.15 189.19 809.73 221.88 825.78 225.22 C 841.82 228.56 845.62 196.12 831.00 193.00 Z"/>
</g>
<g fill="#ADDFFA" fill-opacity="1.00" stroke="None">
<path d="
M 1192.00 193.00 
C 1174.23 186.44 1167.33 218.64 1182.93 225.07 C 1198.52 231.51 1206.47 198.34 1192.00 193.00 Z"/>
</g>
<g fill="#AFE0FB" fill-opacity="1.00" stroke="None">
<path d="
M 1293.00 193.00 
C 1276.11 188.18 1270.24 219.57 1285.98 225.02 C 1301.71 230.48 1307.96 197.27 1293.00 193.00 Z"/>
</g>
<g fill="#537AA9" fill-opacity="1.00" stroke="None">
<path d="
M 775.00 235.00 
C 778.07 232.85 775.22 224.72 776.00 221.00 C 776.78 217.28 775.64 210.98 776.00 207.00
C 774.25 215.46 775.23 225.74 775.00 235.00 Z"/>
</g>
<g fill="#6890BD" fill-opacity="1.00" stroke="None">
<path d="
M 276.00 225.00 
C 276.00 228.29 275.70 231.73 276.00 235.00
C 276.00 235.00 276.74 235.25 277.00 235.00
C 277.25 232.23 277.92 225.85 276.00 224.00
C 276.00 224.00 276.00 224.50 276.00 225.00 Z"/>
</g>
<g fill="#587FAB" fill-opacity="1.00" stroke="None">
<path d="
M 815.00 256.00 
C 818.04 253.87 815.18 246.69 816.00 243.00 C 816.82 239.31 815.38 232.94 816.00 229.00
C 813.67 237.01 815.67 247.17 815.00 256.00 Z"/>
</g>
<g fill="#072773" fill-opacity="1.00" stroke="None">
<path d="
M 1143.00 386.00 
C 1143.00 393.00 1143.00 400.00 1143.00 407.00
C 1143.00 411.67 1143.00 416.33 1143.00 421.00
C 1143.00 437.07 1146.45 457.17 1151.78 471.22 C 1157.10 485.27 1163.82 498.86 1173.77 509.23 C 1183.72 519.60 1193.74 530.42 1205.25 536.75 C 1216.76 543.09 1231.82 558.43 1245.00 555.00
C 1253.92 552.68 1261.91 546.30 1269.77 541.77 C 1277.63 537.24 1284.13 532.13 1291.25 526.25 C 1298.37 520.37 1304.16 514.44 1310.25 507.25 C 1316.33 500.06 1320.73 493.98 1325.23 485.23 C 1329.73 476.48 1332.10 468.32 1335.22 458.22 C 1338.35 448.13 1338.51 436.34 1340.02 425.02 C 1341.54 413.71 1339.33 401.07 1341.00 389.00 C 1342.67 376.93 1338.56 364.19 1325.00 367.00 C 1311.44 369.81 1303.98 363.28 1293.02 361.98 C 1282.07 360.67 1276.47 353.73 1267.08 350.92 C 1257.68 348.12 1252.70 337.63 1243.02 337.02 C 1233.35 336.42 1228.32 346.95 1219.08 350.08 C 1209.84 353.21 1203.23 359.49 1192.22 361.22 C 1181.22 362.96 1175.16 369.44 1161.00 367.00 C 1146.84 364.56 1143.00 371.88 1143.00 386.00
M 1244.00 357.00 
C 1250.82 358.12 1254.74 367.02 1262.25 368.75 C 1269.75 370.49 1274.86 376.32 1283.23 377.77 C 1291.60 379.22 1298.04 383.53 1308.00 383.00 C 1317.96 382.46 1326.25 385.63 1324.00 397.00 C 1321.75 408.37 1324.93 416.27 1323.00 426.00 C 1321.07 435.73 1321.49 443.56 1319.01 452.01 C 1316.52 460.46 1314.34 466.72 1311.08 474.08 C 1307.81 481.43 1304.08 486.43 1299.75 492.75 C 1295.41 499.06 1290.45 502.62 1285.25 508.25 C 1280.04 513.88 1274.59 516.73 1268.75 521.75 C 1262.92 526.78 1256.67 528.21 1250.25 533.25 C 1243.84 538.30 1236.10 535.38 1229.77 531.23 C 1223.44 527.08 1217.12 524.36 1211.30 519.70 C 1205.48 515.03 1200.52 511.24 1195.25 505.75 C 1189.98 500.26 1185.19 496.30 1181.08 489.92 C 1176.97 483.54 1173.18 478.36 1170.08 470.92 C 1166.97 463.49 1165.29 456.40 1163.02 447.98 C 1160.75 439.56 1161.36 430.47 1160.00 421.00 C 1158.64 411.53 1160.00 402.60 1159.00 392.00 C 1158.00 381.41 1171.46 383.76 1179.67 382.67 C 1187.88 381.58 1195.79 378.36 1203.23 376.23 C 1210.67 374.10 1217.51 369.57 1224.08 367.08 C 1230.66 364.59 1237.19 355.88 1244.00 357.00 Z"/>
</g>
<g fill="#AEE1FD" fill-opacity="1.00" stroke="None">
<path d="
M 1244.00 357.00 
C 1237.19 355.88 1230.66 364.59 1224.08 367.08 C 1217.51 369.57 1210.67 374.10 1203.23 376.23 C 1195.79 378.36 1187.88 381.58 1179.67 382.67 C 1171.46 383.76 1158.00 381.41 1159.00 392.00 C 1160.00 402.60 1158.64 411.53 1160.00 421.00 C 1161.36 430.47 1160.75 439.56 1163.02 447.98 C 1165.29 456.40 1166.97 463.49 1170.08 470.92 C 1173.18 478.36 1176.97 483.54 1181.08 489.92 C 1185.19 496.30 1189.98 500.26 1195.25 505.75 C 1200.52 511.24 1205.48 515.03 1211.30 519.70 C 1217.12 524.36 1223.44 527.08 1229.77 531.23 C 1236.10 535.38 1243.84 538.30 1250.25 533.25 C 1256.67 528.21 1262.92 526.78 1268.75 521.75 C 1274.59 516.73 1280.04 513.88 1285.25 508.25 C 1290.45 502.62 1295.41 499.06 1299.75 492.75 C 1304.08 486.43 1307.81 481.43 1311.08 474.08 C 1314.34 466.72 1316.52 460.46 1319.01 452.01 C 1321.49 443.56 1321.07 435.73 1323.00 426.00 C 1324.93 416.27 1321.75 408.37 1324.00 397.00 C 1326.25 385.63 1317.96 382.46 1308.00 383.00 C 1298.04 383.53 1291.60 379.22 1283.23 377.77 C 1274.86 376.32 1269.75 370.49 1262.25 368.75 C 1254.74 367.02 1250.82 358.12 1244.00 357.00
M 1234.00 475.00 
C 1240.05 467.48 1246.37 457.76 1252.77 450.77 C 1259.17 443.78 1265.43 432.89 1271.77 426.77 C 1278.11 420.65 1283.70 403.03 1294.68 409.32 C 1305.66 415.61 1292.12 428.94 1286.75 435.75 C 1281.38 442.57 1273.07 451.91 1267.75 459.75 C 1262.43 467.59 1253.66 475.18 1248.75 483.75 C 1243.84 492.32 1231.99 503.68 1225.23 492.77 C 1218.47 481.86 1210.98 478.98 1206.25 468.75 C 1201.51 458.53 1187.40 455.10 1190.93 442.93 C 1194.46 430.76 1210.09 442.80 1213.92 451.08 C 1217.74 459.37 1228.32 467.86 1234.00 475.00 Z"/>
</g>
<g fill="#FEDE4D" fill-opacity="1.00" stroke="None">
<path d="
M 514.00 710.00 
C 508.37 707.46 504.75 704.18 503.00 698.00
C 498.05 680.53 503.51 659.76 502.00 641.00 C 500.49 622.24 502.55 602.08 502.00 583.00 C 501.45 563.92 501.95 544.24 502.00 525.00 C 502.05 505.76 501.31 486.33 502.00 467.00 C 502.69 447.67 500.26 427.30 502.00 408.00
C 483.58 406.27 463.23 410.31 445.00 408.00 C 426.77 405.69 404.78 412.81 388.00 407.00
C 378.08 403.56 376.32 395.38 369.25 388.75 C 362.18 382.13 363.06 372.91 351.22 370.78 C 339.38 368.65 330.01 369.99 315.00 370.00 C 299.99 370.01 275.06 369.68 260.00 370.00 C 244.94 370.32 237.22 367.52 225.23 371.23 C 213.24 374.94 214.70 387.27 214.00 397.00 C 213.30 406.73 214.48 423.05 214.00 433.00 C 213.52 442.95 214.21 443.20 214.00 451.00 C 213.79 458.80 214.09 462.14 214.00 469.00 C 213.91 475.86 214.04 481.53 214.00 488.00 C 213.96 494.47 214.02 499.77 214.00 506.00 C 213.98 512.23 214.01 517.86 214.00 524.00 C 213.99 530.14 214.01 535.85 214.00 542.00 C 213.99 548.15 214.01 554.86 214.00 561.00 C 213.99 567.14 214.01 572.90 214.00 579.00 C 213.99 585.10 214.03 590.87 214.00 597.00 C 213.97 603.13 214.06 608.76 214.00 615.00 C 213.94 621.24 214.12 627.63 214.00 634.00 C 213.88 640.37 214.27 645.34 214.00 652.00 C 213.73 658.66 214.61 662.61 214.00 670.00 C 213.39 677.39 215.35 678.96 214.00 688.00 C 212.65 697.04 217.86 709.43 227.33 711.67 C 236.80 713.91 237.39 711.21 245.00 712.00 C 252.61 712.79 256.24 711.65 263.00 712.00 C 269.76 712.35 274.59 711.85 281.00 712.00 C 287.41 712.15 293.74 711.93 300.00 712.00 C 306.26 712.07 311.87 711.97 318.00 712.00 C 324.13 712.03 329.90 711.98 336.00 712.00 C 342.10 712.02 347.87 711.99 354.00 712.00 C 360.13 712.01 366.88 711.99 373.00 712.00 C 379.12 712.01 384.94 711.99 391.00 712.00 C 397.06 712.01 402.95 711.98 409.00 712.00 C 415.05 712.02 420.92 711.95 427.00 712.00 C 433.08 712.05 439.96 711.89 446.00 712.00 C 452.04 712.11 458.11 711.74 464.00 712.00 C 469.89 712.26 476.34 711.43 482.00 712.00 C 487.66 712.57 494.80 710.73 500.00 712.00 C 505.20 713.27 513.51 710.01 514.00 710.00
M 436.00 539.00 
C 432.77 540.72 430.39 543.62 427.00 545.00
C 424.06 534.68 406.69 532.15 400.75 540.75 C 394.81 549.36 394.74 565.13 401.75 573.25 C 408.77 581.36 427.29 577.16 427.00 565.00
C 444.32 570.19 428.63 587.21 414.98 587.98 C 401.32 588.74 386.75 579.52 385.02 564.98 C 383.30 550.43 385.40 534.81 399.08 528.08 C 412.76 521.34 429.61 524.86 436.00 539.00
M 352.00 527.00 
C 353.49 543.53 350.88 560.43 352.00 577.00
C 355.00 579.10 361.20 575.98 365.00 577.00 C 368.80 578.02 374.98 576.23 379.00 577.00
C 379.00 580.33 379.00 583.67 379.00 587.00
C 366.00 587.00 353.00 587.00 340.00 587.00
C 336.46 584.52 339.50 572.84 339.00 568.00 C 338.50 563.16 338.45 552.10 339.00 547.00 C 339.55 541.90 336.56 530.44 340.00 527.00
C 341.80 525.20 350.26 525.19 352.00 527.00
M 304.00 527.00 
C 304.00 543.67 304.00 560.33 304.00 577.00
C 313.00 577.00 322.00 577.00 331.00 577.00
C 331.00 580.33 331.00 583.67 331.00 587.00
C 318.00 587.00 305.00 587.00 292.00 587.00
C 292.00 567.00 292.00 547.00 292.00 527.00
C 296.00 527.00 300.00 527.00 304.00 527.00 Z"/>
</g>
<g fill="#77C8FE" fill-opacity="1.00" stroke="None">
<path d="
M 503.00 408.00 
C 505.24 431.88 501.74 455.99 503.00 480.00 C 504.26 504.01 501.85 528.98 503.00 553.00 C 504.15 577.02 501.20 601.07 503.00 625.00 C 504.80 648.93 499.39 674.32 503.00 698.00
C 504.75 704.18 508.37 707.46 514.00 710.00
C 530.77 717.58 553.12 709.90 572.00 712.00 C 590.88 714.10 612.60 711.04 632.00 712.00 C 651.40 712.96 671.34 711.58 691.00 712.00 C 710.66 712.42 731.20 711.81 751.00 712.00 C 770.80 712.19 791.21 711.93 811.00 712.00 C 830.79 712.07 850.24 712.00 870.00 712.00
C 869.96 712.00 870.00 711.00 870.00 711.00
C 851.11 707.61 857.70 683.96 857.00 668.00 C 856.30 652.04 857.24 628.58 857.00 611.00 C 856.76 593.42 856.94 572.25 857.00 554.00 C 857.06 535.75 856.59 516.56 857.00 498.00 C 857.41 479.44 855.98 459.67 857.00 441.00 C 858.02 422.33 854.70 402.56 857.00 384.00
C 854.67 390.67 856.66 399.50 856.00 407.00
C 836.02 406.81 813.75 407.25 794.00 407.00 C 774.25 406.75 752.00 407.49 733.00 407.00 C 714.00 406.51 691.49 411.14 678.25 399.75 C 665.01 388.36 666.54 371.99 647.00 370.00 C 627.46 368.01 605.96 371.60 585.00 370.00 C 564.04 368.40 546.76 372.29 524.00 370.00 C 501.24 367.71 501.31 389.94 503.00 408.00
M 591.00 542.00 
C 587.49 537.83 573.26 530.22 568.75 538.75 C 564.25 547.29 579.46 549.30 586.02 550.98 C 592.59 552.65 601.20 558.70 601.00 567.00 C 600.80 575.30 597.83 583.28 588.92 585.92 C 580.02 588.57 571.92 588.71 563.31 584.69 C 554.69 580.68 553.87 573.28 561.00 567.00
C 565.88 572.85 577.54 583.37 586.08 575.08 C 594.61 566.78 579.59 559.72 570.98 559.02 C 562.36 558.33 552.27 546.29 556.98 536.98 C 561.69 527.66 571.81 523.96 582.00 525.00 C 592.19 526.04 602.04 533.87 591.00 542.00
M 680.00 540.00 
C 676.51 540.47 674.63 544.75 671.00 545.00
C 667.42 534.94 651.04 532.08 645.08 541.08 C 639.13 550.09 638.81 564.47 646.25 572.75 C 653.69 581.04 670.70 577.43 671.00 565.00
C 674.25 566.63 677.54 568.00 681.00 569.00
C 677.94 587.96 652.33 593.74 638.75 582.25 C 625.18 570.76 624.28 546.69 635.30 533.30 C 646.33 519.92 675.13 521.98 680.00 540.00
M 713.00 540.00 
C 741.77 544.67 733.77 593.64 705.00 588.00 C 676.23 582.36 683.60 535.23 713.00 540.00
M 771.00 542.00 
C 769.82 545.08 769.92 548.58 770.00 552.00
C 749.19 545.95 752.75 574.00 753.00 587.00
C 749.33 587.00 745.67 587.00 742.00 587.00
C 742.00 571.67 742.00 556.33 742.00 541.00
C 748.82 540.09 754.33 540.62 754.00 548.00
C 756.32 541.44 765.22 537.65 771.00 542.00
M 790.00 582.00 
C 789.69 587.24 786.99 593.95 789.00 600.00 C 791.01 606.05 779.87 609.09 777.00 605.00
C 773.68 600.26 778.53 590.01 777.00 584.00 C 775.47 577.99 777.76 569.62 777.00 563.00 C 776.24 556.39 777.57 547.79 777.00 541.00
C 783.82 540.09 789.33 540.62 789.00 548.00
C 800.94 530.88 820.43 544.59 821.00 562.00 C 821.57 579.41 805.72 597.69 790.00 582.00 Z"/>
</g>
<g fill="#3683E4" fill-opacity="1.00" stroke="None">
<path d="
M 857.00 384.00 
C 854.70 402.56 858.02 422.33 857.00 441.00 C 855.98 459.67 857.41 479.44 857.00 498.00 C 856.59 516.56 857.06 535.75 857.00 554.00 C 856.94 572.25 856.76 593.42 857.00 611.00 C 857.24 628.58 856.30 652.04 857.00 668.00 C 857.70 683.96 851.11 707.61 870.00 711.00
C 909.49 707.42 949.33 713.14 989.00 711.00 C 1028.67 708.86 1069.27 713.16 1109.00 711.00 C 1148.73 708.84 1189.38 714.60 1229.00 711.00
C 1235.97 709.56 1243.60 705.68 1244.00 697.00 C 1244.40 688.32 1243.70 677.04 1244.00 668.00 C 1244.30 658.96 1243.60 649.10 1244.00 640.00 C 1244.40 630.90 1243.25 619.91 1244.00 611.00 C 1244.75 602.09 1242.40 590.20 1244.00 582.00 C 1245.60 573.80 1239.86 561.19 1245.00 555.00
C 1231.82 558.43 1216.76 543.09 1205.25 536.75 C 1193.74 530.42 1183.72 519.60 1173.77 509.23 C 1163.82 498.86 1157.10 485.27 1151.78 471.22 C 1146.45 457.17 1143.00 437.07 1143.00 421.00
C 1142.64 417.27 1142.00 412.41 1142.00 408.00
C 1120.18 409.97 1095.62 406.26 1074.00 408.00 C 1052.38 409.74 1046.07 396.52 1034.25 380.75 C 1022.43 364.98 996.37 369.82 977.00 370.00 C 957.63 370.18 929.08 368.86 910.00 370.00 C 890.92 371.14 862.52 361.70 857.00 384.00
M 957.00 539.00 
C 953.72 541.17 950.99 544.40 947.00 545.00
C 944.33 534.30 925.87 532.26 920.75 541.75 C 915.63 551.25 915.34 564.97 922.75 573.25 C 930.17 581.53 947.30 576.72 948.00 565.00
C 951.06 566.27 953.71 568.45 957.00 569.00
C 954.91 587.56 928.68 594.18 915.25 582.75 C 901.83 571.31 900.87 546.33 912.25 533.25 C 923.63 520.17 950.09 522.19 957.00 539.00
M 1035.00 540.00 
C 1025.99 549.31 1024.91 539.13 1015.92 536.08 C 1006.94 533.02 996.45 540.92 996.07 550.07 C 995.70 559.22 995.25 571.17 1004.23 575.77 C 1013.21 580.37 1024.32 575.71 1026.00 566.00
C 1029.65 565.91 1032.40 568.77 1036.00 569.00
C 1033.86 588.35 1007.09 593.65 993.75 582.25 C 980.41 570.84 979.07 546.43 990.25 533.25 C 1001.43 520.08 1030.16 521.70 1035.00 540.00
M 1067.00 540.00 
C 1095.37 544.05 1088.83 592.80 1060.00 588.00 C 1031.17 583.20 1037.17 535.74 1067.00 540.00
M 1125.00 541.00 
C 1124.38 544.56 1123.61 548.16 1124.00 552.00
C 1103.10 546.02 1106.74 573.90 1107.00 587.00
C 1103.33 587.00 1099.67 587.00 1096.00 587.00
C 1096.00 571.67 1096.00 556.33 1096.00 541.00
C 1102.87 540.39 1109.53 540.02 1109.00 548.00
C 1110.92 541.79 1119.07 538.18 1125.00 541.00
M 1142.00 581.00 
C 1142.00 589.00 1142.00 597.00 1142.00 605.00
C 1138.33 605.00 1134.67 605.00 1131.00 605.00
C 1131.00 583.66 1131.00 562.33 1131.00 541.00
C 1136.01 541.15 1144.41 538.99 1142.00 547.00
C 1156.96 531.03 1175.37 545.92 1175.00 564.00 C 1174.63 582.08 1156.51 597.06 1142.00 581.00 Z"/>
</g>
<g fill="#6790BE" fill-opacity="1.00" stroke="None">
<path d="
M 1142.00 407.00 
C 1142.25 406.75 1143.00 407.00 1143.00 407.00
C 1143.00 400.00 1143.00 393.00 1143.00 386.00
C 1142.39 392.28 1142.00 399.97 1142.00 407.00 Z"/>
</g>
<g fill="#D2DCA9" fill-opacity="1.00" stroke="None">
<path d="
M 502.00 408.00 
C 495.47 403.16 482.50 408.64 474.00 407.00 C 465.50 405.36 454.03 408.01 445.00 407.00 C 435.97 405.99 425.13 408.05 416.00 407.00 C 406.87 405.95 396.97 408.83 388.00 407.00
C 404.78 412.81 426.77 405.69 445.00 408.00 C 463.23 410.31 483.58 406.27 502.00 408.00 Z"/>
</g>
<g fill="#265EB6" fill-opacity="1.00" stroke="None">
<path d="
M 1142.00 408.00 
C 1142.00 412.41 1142.64 417.27 1143.00 421.00
C 1143.00 416.33 1143.00 411.67 1143.00 407.00
C 1143.00 407.00 1142.25 406.75 1142.00 407.00
C 1142.00 407.00 1142.00 407.50 1142.00 408.00 Z"/>
</g>
<g fill="#A3CCBB" fill-opacity="1.00" stroke="None">
<path d="
M 503.00 698.00 
C 499.39 674.32 504.80 648.93 503.00 625.00 C 501.20 601.07 504.15 577.02 503.00 553.00 C 501.85 528.98 504.26 504.01 503.00 480.00 C 501.74 455.99 505.24 431.88 503.00 408.00
C 503.00 408.00 502.32 408.24 502.00 408.00
C 500.26 427.30 502.69 447.67 502.00 467.00 C 501.31 486.33 502.05 505.76 502.00 525.00 C 501.95 544.24 501.45 563.92 502.00 583.00 C 502.55 602.08 500.49 622.24 502.00 641.00 C 503.51 659.76 498.05 680.53 503.00 698.00 Z"/>
</g>
<g fill="#072772" fill-opacity="1.00" stroke="None">
<path d="
M 1234.00 475.00 
C 1228.32 467.86 1217.74 459.37 1213.92 451.08 C 1210.09 442.80 1194.46 430.76 1190.93 442.93 C 1187.40 455.10 1201.51 458.53 1206.25 468.75 C 1210.98 478.98 1218.47 481.86 1225.23 492.77 C 1231.99 503.68 1243.84 492.32 1248.75 483.75 C 1253.66 475.18 1262.43 467.59 1267.75 459.75 C 1273.07 451.91 1281.38 442.57 1286.75 435.75 C 1292.12 428.94 1305.66 415.61 1294.68 409.32 C 1283.70 403.03 1278.11 420.65 1271.77 426.77 C 1265.43 432.89 1259.17 443.78 1252.77 450.77 C 1246.37 457.76 1240.05 467.48 1234.00 475.00 Z"/>
</g>
<g fill="#0B2871" fill-opacity="1.00" stroke="None">
<path d="
M 436.00 539.00 
C 429.61 524.86 412.76 521.34 399.08 528.08 C 385.40 534.81 383.30 550.43 385.02 564.98 C 386.75 579.52 401.32 588.74 414.98 587.98 C 428.63 587.21 444.32 570.19 427.00 565.00
C 427.29 577.16 408.77 581.36 401.75 573.25 C 394.74 565.13 394.81 549.36 400.75 540.75 C 406.69 532.15 424.06 534.68 427.00 545.00
C 430.39 543.62 432.77 540.72 436.00 539.00 Z"/>
</g>
<g fill="#072773" fill-opacity="1.00" stroke="None">
<path d="
M 591.00 542.00 
C 602.04 533.87 592.19 526.04 582.00 525.00 C 571.81 523.96 561.69 527.66 556.98 536.98 C 552.27 546.29 562.36 558.33 570.98 559.02 C 579.59 559.72 594.61 566.78 586.08 575.08 C 577.54 583.37 565.88 572.85 561.00 567.00
C 553.87 573.28 554.69 580.68 563.31 584.69 C 571.92 588.71 580.02 588.57 588.92 585.92 C 597.83 583.28 600.80 575.30 601.00 567.00 C 601.20 558.70 592.59 552.65 586.02 550.98 C 579.46 549.30 564.25 547.29 568.75 538.75 C 573.26 530.22 587.49 537.83 591.00 542.00 Z"/>
</g>
<g fill="#072873" fill-opacity="1.00" stroke="None">
<path d="
M 680.00 540.00 
C 675.13 521.98 646.33 519.92 635.30 533.30 C 624.28 546.69 625.18 570.76 638.75 582.25 C 652.33 593.74 677.94 587.96 681.00 569.00
C 677.54 568.00 674.25 566.63 671.00 565.00
C 670.70 577.43 653.69 581.04 646.25 572.75 C 638.81 564.47 639.13 550.09 645.08 541.08 C 651.04 532.08 667.42 534.94 671.00 545.00
C 674.63 544.75 676.51 540.47 680.00 540.00 Z"/>
</g>
<g fill="#072774" fill-opacity="1.00" stroke="None">
<path d="
M 957.00 539.00 
C 950.09 522.19 923.63 520.17 912.25 533.25 C 900.87 546.33 901.83 571.31 915.25 582.75 C 928.68 594.18 954.91 587.56 957.00 569.00
C 953.71 568.45 951.06 566.27 948.00 565.00
C 947.30 576.72 930.17 581.53 922.75 573.25 C 915.34 564.97 915.63 551.25 920.75 541.75 C 925.87 532.26 944.33 534.30 947.00 545.00
C 950.99 544.40 953.72 541.17 957.00 539.00 Z"/>
</g>
<g fill="#072874" fill-opacity="1.00" stroke="None">
<path d="
M 1035.00 540.00 
C 1030.16 521.70 1001.43 520.08 990.25 533.25 C 979.07 546.43 980.41 570.84 993.75 582.25 C 1007.09 593.65 1033.86 588.35 1036.00 569.00
C 1032.40 568.77 1029.65 565.91 1026.00 566.00
C 1024.32 575.71 1013.21 580.37 1004.23 575.77 C 995.25 571.17 995.70 559.22 996.07 550.07 C 996.45 540.92 1006.94 533.02 1015.92 536.08 C 1024.91 539.13 1025.99 549.31 1035.00 540.00 Z"/>
</g>
<g fill="#C6B95A" fill-opacity="1.00" stroke="None">
<path d="
M 340.00 527.00 
C 343.67 527.00 347.33 527.00 351.00 527.00
C 351.50 527.00 352.00 527.00 352.00 527.00
C 350.26 525.19 341.80 525.20 340.00 527.00 Z"/>
</g>
<g fill="#092771" fill-opacity="1.00" stroke="None">
<path d="
M 304.00 527.00 
C 300.00 527.00 296.00 527.00 292.00 527.00
C 292.00 547.00 292.00 567.00 292.00 587.00
C 305.00 587.00 318.00 587.00 331.00 587.00
C 331.00 583.67 331.00 580.33 331.00 577.00
C 322.00 577.00 313.00 577.00 304.00 577.00
C 304.00 560.33 304.00 543.67 304.00 527.00 Z"/>
</g>
<g fill="#9A9360" fill-opacity="1.00" stroke="None">
<path d="
M 340.00 587.00 
C 340.00 567.00 340.00 547.00 340.00 527.00
C 336.56 530.44 339.55 541.90 339.00 547.00 C 338.45 552.10 338.50 563.16 339.00 568.00 C 339.50 572.84 336.46 584.52 340.00 587.00 Z"/>
</g>
<g fill="#072672" fill-opacity="1.00" stroke="None">
<path d="
M 340.00 587.00 
C 353.00 587.00 366.00 587.00 379.00 587.00
C 379.00 583.67 379.00 580.33 379.00 577.00
C 374.98 576.23 368.80 578.02 365.00 577.00 C 361.20 575.98 355.00 579.10 352.00 577.00
C 348.60 574.62 351.77 565.41 351.00 561.00 C 350.23 556.59 351.12 548.99 351.00 544.00 C 350.88 539.01 350.54 532.11 351.00 527.00
C 347.33 527.00 343.67 527.00 340.00 527.00
C 340.00 547.00 340.00 567.00 340.00 587.00 Z"/>
</g>
<g fill="#666D5F" fill-opacity="1.00" stroke="None">
<path d="
M 352.00 577.00 
C 350.88 560.43 353.49 543.53 352.00 527.00
C 352.00 527.00 351.50 527.00 351.00 527.00
C 350.54 532.11 350.88 539.01 351.00 544.00 C 351.12 548.99 350.23 556.59 351.00 561.00 C 351.77 565.41 348.60 574.62 352.00 577.00 Z"/>
</g>
<g fill="#072873" fill-opacity="1.00" stroke="None">
<path d="
M 713.00 540.00 
C 683.60 535.23 676.23 582.36 705.00 588.00 C 733.77 593.64 741.77 544.67 713.00 540.00
M 713.00 550.00 
C 725.96 553.93 718.76 583.56 705.33 577.67 C 691.90 571.78 698.19 545.50 713.00 550.00 Z"/>
</g>
<g fill="#062672" fill-opacity="1.00" stroke="None">
<path d="
M 771.00 542.00 
C 765.22 537.65 756.32 541.44 754.00 548.00
C 754.33 540.62 748.82 540.09 742.00 541.00
C 742.00 556.33 742.00 571.67 742.00 587.00
C 745.67 587.00 749.33 587.00 753.00 587.00
C 752.75 574.00 749.19 545.95 770.00 552.00
C 769.92 548.58 769.82 545.08 771.00 542.00 Z"/>
</g>
<g fill="#072772" fill-opacity="1.00" stroke="None">
<path d="
M 777.00 605.00 
C 780.67 605.00 784.33 605.00 788.00 605.00
C 788.29 601.34 787.61 595.43 788.00 592.00 C 788.39 588.57 786.45 580.49 790.00 582.00
C 805.72 597.69 821.57 579.41 821.00 562.00 C 820.43 544.59 800.94 530.88 789.00 548.00
C 789.33 540.62 783.82 540.09 777.00 541.00
C 777.57 547.79 776.24 556.39 777.00 563.00 C 777.76 569.62 775.47 577.99 777.00 584.00 C 778.53 590.01 773.68 600.26 777.00 605.00
M 802.00 550.00 
C 814.70 552.49 811.37 581.04 797.33 577.67 C 783.29 574.30 787.25 547.11 802.00 550.00 Z"/>
</g>
<g fill="#072874" fill-opacity="1.00" stroke="None">
<path d="
M 1067.00 540.00 
C 1037.17 535.74 1031.17 583.20 1060.00 588.00 C 1088.83 592.80 1095.37 544.05 1067.00 540.00
M 1067.00 550.00 
C 1079.84 553.90 1074.03 582.47 1060.33 577.67 C 1046.63 572.87 1051.60 545.33 1067.00 550.00 Z"/>
</g>
<g fill="#072773" fill-opacity="1.00" stroke="None">
<path d="
M 1125.00 541.00 
C 1119.07 538.18 1110.92 541.79 1109.00 548.00
C 1109.53 540.02 1102.87 540.39 1096.00 541.00
C 1096.00 556.33 1096.00 571.67 1096.00 587.00
C 1099.67 587.00 1103.33 587.00 1107.00 587.00
C 1106.74 573.90 1103.10 546.02 1124.00 552.00
C 1123.61 548.16 1124.38 544.56 1125.00 541.00 Z"/>
</g>
<g fill="#062773" fill-opacity="1.00" stroke="None">
<path d="
M 1142.00 581.00 
C 1156.51 597.06 1174.63 582.08 1175.00 564.00 C 1175.37 545.92 1156.96 531.03 1142.00 547.00
C 1144.41 538.99 1136.01 541.15 1131.00 541.00
C 1131.00 562.33 1131.00 583.66 1131.00 605.00
C 1134.67 605.00 1138.33 605.00 1142.00 605.00
C 1142.00 597.00 1142.00 589.00 1142.00 581.00
M 1156.00 550.00 
C 1168.64 553.20 1164.43 581.05 1150.78 577.22 C 1137.13 573.39 1142.01 546.45 1156.00 550.00 Z"/>
</g>
<g fill="#7AC7FB" fill-opacity="1.00" stroke="None">
<path d="
M 713.00 550.00 
C 698.19 545.50 691.90 571.78 705.33 577.67 C 718.76 583.56 725.96 553.93 713.00 550.00 Z"/>
</g>
<g fill="#79C6FA" fill-opacity="1.00" stroke="None">
<path d="
M 802.00 550.00 
C 787.25 547.11 783.29 574.30 797.33 577.67 C 811.37 581.04 814.70 552.49 802.00 550.00 Z"/>
</g>
<g fill="#3783E2" fill-opacity="1.00" stroke="None">
<path d="
M 1067.00 550.00 
C 1051.60 545.33 1046.63 572.87 1060.33 577.67 C 1074.03 582.47 1079.84 553.90 1067.00 550.00 Z"/>
</g>
<g fill="#3783E3" fill-opacity="1.00" stroke="None">
<path d="
M 1156.00 550.00 
C 1142.01 546.45 1137.13 573.39 1150.78 577.22 C 1164.43 581.05 1168.64 553.20 1156.00 550.00 Z"/>
</g>
<g fill="#3B6EAD" fill-opacity="1.00" stroke="None">
<path d="
M 777.00 605.00 
C 779.87 609.09 791.01 606.05 789.00 600.00 C 786.99 593.95 789.69 587.24 790.00 582.00
C 786.45 580.49 788.39 588.57 788.00 592.00 C 787.61 595.43 788.29 601.34 788.00 605.00
C 784.33 605.00 780.67 605.00 777.00 605.00 Z"/>
</g>
<g fill="#5598DF" fill-opacity="1.00" stroke="None">
<path d="
M 870.00 712.00 
C 899.90 712.00 930.14 712.32 960.00 712.00 C 989.86 711.68 1020.26 712.86 1050.00 712.00 C 1079.74 711.14 1110.56 713.96 1140.00 712.00 C 1169.44 710.04 1200.82 716.84 1229.00 711.00
C 1189.38 714.60 1148.73 708.84 1109.00 711.00 C 1069.27 713.16 1028.67 708.86 989.00 711.00 C 949.33 713.14 909.49 707.42 870.00 711.00
C 870.00 711.00 869.96 712.00 870.00 712.00 Z"/>
</g>
</svg>