<?xml version="1.0" encoding="UTF-8" standalone="no"?>
<!DOCTYPE svg PUBLIC "-//W3C//DTD SVG 1.1//EN" "http://www.w3.org/Graphics/SVG/1.1/DTD/svg11.dtd">
<svg xmlns="http://www.w3.org/2000/svg" version="1.1" viewBox="0.00 0.00 1264.00 848.00">
<g stroke-width="2.00" fill="none" stroke-linecap="butt">
<path stroke="#d6eff8" vector-effect="non-scaling-stroke" d="
  M 993.96 452.51
  Q 994.72 450.97 993.49 450.33"
/>
<path stroke="#dfd89c" vector-effect="non-scaling-stroke" d="
  M 993.49 450.33
  Q 998.68 453.19 1001.38 456.87
  Q 1002.26 458.08 1003.00 460.61
  A 3.31 3.25 -79.6 0 0 1004.14 462.29
  Q 1004.66 462.70 1008.88 467.00
  Q 1009.41 467.54 1010.09 467.82
  C 1011.37 468.34 1011.99 469.73 1013.39 470.55
  Q 1015.45 471.77 1021.75 476.28
  Q 1023.00 477.18 1023.07 477.35
  A 0.80 0.79 -9.4 0 0 1023.76 477.84
  Q 1025.68 477.96 1027.35 479.52
  A 2.66 2.57 77.6 0 0 1028.09 480.01
  L 1032.34 481.92
  A 1.55 1.49 77.1 0 1 1032.69 482.15
  Q 1034.79 483.98 1039.16 485.54
  Q 1049.01 489.07 1056.94 490.55"
/>
<path stroke="#d5c792" vector-effect="non-scaling-stroke" d="
  M 1056.94 490.55
  C 1064.12 492.21 1072.27 493.36 1079.59 492.31
  Q 1082.43 491.90 1086.33 491.73
  A 1.12 1.10 21.4 0 0 1087.05 491.42
  Q 1087.14 491.33 1087.23 491.26
  A 1.83 1.78 18.4 0 1 1088.12 490.83
  Q 1094.95 489.68 1095.01 489.68
  Q 1095.50 489.64 1096.01 489.20
  A 1.06 1.03 -67.6 0 1 1096.61 488.94
  Q 1099.34 488.70 1102.91 487.09
  A 2.39 2.26 -57.9 0 1 1103.72 486.88
  Q 1104.92 486.80 1105.79 486.45
  Q 1120.16 480.74 1131.56 470.31
  Q 1136.48 465.80 1139.65 461.91
  Q 1143.33 457.38 1147.56 450.84
  Q 1153.29 441.99 1156.01 432.30
  Q 1156.67 429.95 1157.46 424.40
  Q 1158.16 419.46 1158.78 416.48
  A 4.46 4.42 51.1 0 0 1158.87 415.59
  L 1158.87 402.68
  A 0.56 0.26 -70.1 0 0 1158.86 402.57
  L 1157.90 398.99
  A 2.82 2.75 41.1 0 1 1157.82 398.00
  Q 1158.35 391.95 1156.10 387.35
  A 2.35 2.24 -58.2 0 1 1155.87 386.26
  C 1155.94 384.10 1154.57 381.13 1152.90 376.34
  A 1.56 1.54 9.8 0 0 1152.37 375.60
  Q 1151.51 374.91 1150.56 372.01
  Q 1150.21 370.95 1148.09 367.12"
/>
<path stroke="#dfd89c" vector-effect="non-scaling-stroke" d="
  M 1148.09 367.12
  Q 1144.49 359.45 1140.71 354.76
  Q 1134.63 347.23 1123.09 336.47
  A 1.90 1.81 -9.5 0 0 1122.59 336.13
  L 1120.29 334.97
  A 1.16 1.13 -6.0 0 1 1119.96 334.71
  Q 1117.48 331.88 1114.35 330.46
  A 4.05 3.50 -10.5 0 1 1113.75 330.11
  Q 1098.84 319.61 1080.92 316.19
  Q 1079.37 315.89 1074.98 315.94
  A 1.48 1.46 -29.3 0 1 1074.17 315.72
  Q 1073.15 315.10 1069.51 315.10
  Q 1055.19 315.07 1051.14 316.32
  C 1048.93 317.00 1046.53 317.43 1042.76 318.04
  A 3.47 3.44 -62.3 0 0 1041.84 318.33
  L 1033.65 322.17"
/>
<path stroke="#6c9ac9" vector-effect="non-scaling-stroke" d="
  M 1033.65 322.17
  Q 1035.31 311.46 1037.19 300.99
  C 1049.61 231.97 1059.44 173.05 1065.72 138.46
  C 1066.89 132.00 1064.52 125.44 1057.93 124.36
  Q 1004.01 115.55 796.80 82.46
  C 786.24 80.77 783.51 86.61 782.23 95.97
  C 781.21 103.37 779.60 110.55 778.10 119.43
  Q 761.27 219.22 752.11 273.17
  Q 749.37 289.27 746.55 305.36
  Q 737.58 356.58 727.28 415.00
  C 725.74 423.73 730.95 425.77 738.83 426.69
  C 746.89 427.63 755.28 429.56 764.72 431.10
  Q 834.17 442.43 924.20 456.92
  Q 929.78 457.82 952.49 461.48
  C 964.16 463.36 977.90 465.97 991.50 467.70
  C 995.65 468.23 999.70 467.81 1001.42 463.91
  C 1002.51 461.44 1001.13 459.78 999.62 457.71
  Q 997.15 454.31 993.96 452.51"
/>
<path stroke="#8b8d69" vector-effect="non-scaling-stroke" d="
  M 1033.65 322.17
  Q 1024.69 326.17 1016.51 332.25
  A 0.34 0.33 -22.3 0 1 1015.98 332.03
  L 1015.90 331.54"
/>
<path stroke="#83a3c5" vector-effect="non-scaling-stroke" d="
  M 1015.90 331.54
  L 1049.11 140.22
  A 0.82 0.81 9.4 0 0 1048.43 139.28
  L 798.90 99.26
  A 0.69 0.68 -81.3 0 0 798.12 99.84
  Q 795.65 117.91 792.65 134.51
  Q 778.64 211.90 763.19 301.42
  Q 748.42 387.00 744.20 411.63
  A 0.72 0.72 0.0 0 0 744.80 412.46
  L 993.96 452.51"
/>
<path stroke="#f4ba32" vector-effect="non-scaling-stroke" d="
  M 1148.09 367.12
  Q 1144.87 362.74 1141.99 358.24
  Q 1139.60 354.49 1136.07 351.43
  A 0.22 0.22 0.0 0 0 1135.74 351.72
  Q 1152.23 375.24 1151.80 404.49
  Q 1151.59 419.20 1147.16 431.66
  Q 1143.51 441.90 1135.88 453.02
  C 1128.79 463.34 1118.85 471.09 1108.25 477.78
  Q 1100.29 482.81 1088.76 485.77
  Q 1072.36 489.99 1055.98 488.82
  A 0.20 0.20 0.0 0 0 1055.81 489.14
  L 1056.94 490.55"
/>
<path stroke="#f6e298" vector-effect="non-scaling-stroke" d="
  M 1015.90 331.54
  L 1015.85 332.80
  A 1.00 0.99 -15.2 0 1 1015.39 333.60
  Q 1008.15 338.27 1003.27 344.29
  Q 998.93 349.64 994.27 356.77
  Q 984.94 371.06 982.14 387.89
  A 3.02 2.97 -27.8 0 1 981.90 388.64
  Q 981.09 390.30 980.87 393.01
  Q 979.96 404.69 980.13 410.32
  A 6.24 5.52 41.5 0 0 980.24 411.22
  Q 980.92 414.37 980.99 414.98
  Q 982.10 425.21 984.44 431.82
  Q 987.63 440.82 993.49 450.33"
/>
<path stroke="#7eb2e7" vector-effect="non-scaling-stroke" d="
  M 540.54 390.74
  Q 539.90 390.29 539.19 389.33
  Q 533.75 381.92 532.30 380.96
  A 2.58 1.94 42.2 0 0 529.81 380.73
  C 527.63 382.09 528.26 387.41 528.45 389.96
  C 528.64 392.59 530.11 395.03 530.68 396.93
  A 6.59 6.58 -54.7 0 1 531.01 398.86
  L 531.13 405.16
  A 0.65 0.34 54.5 0 0 531.15 405.31
  Q 532.53 411.68 537.90 415.50
  C 542.20 418.57 556.97 419.87 552.69 429.24
  Q 551.07 432.77 548.64 436.74
  A 2.88 2.81 -24.1 0 0 548.25 437.73
  Q 547.65 440.75 548.11 442.23
  C 550.37 449.48 554.11 455.39 559.39 461.73
  C 563.50 466.66 567.60 472.90 570.80 477.76
  C 573.93 482.52 579.11 486.29 582.40 489.49
  C 586.08 493.06 588.87 496.09 587.91 500.97
  A 1.61 1.61 0.0 0 0 588.86 502.77
  C 594.22 505.06 593.82 512.09 592.65 516.49
  C 591.09 522.38 589.00 529.11 595.91 532.58
  C 607.35 538.32 622.02 535.49 632.98 538.94
  C 637.00 540.21 641.53 544.26 645.65 547.35
  Q 652.37 552.39 660.48 553.81
  C 667.34 555.01 673.69 557.43 672.76 565.77
  A 0.93 0.93 0.0 0 0 673.88 566.79
  C 679.58 565.59 683.60 566.41 689.06 569.92
  Q 702.93 578.84 712.95 590.34
  C 715.03 592.73 717.29 596.11 717.66 598.83
  C 719.00 608.59 719.06 621.39 732.83 619.18
  Q 742.29 617.65 745.04 617.19
  A 19.50 19.27 -49.3 0 1 748.38 616.92
  Q 758.61 616.93 768.48 615.02
  C 774.43 613.86 780.24 613.86 785.72 613.67
  C 791.48 613.47 797.39 611.78 802.52 611.52
  C 806.49 611.31 811.05 612.05 814.44 610.70
  Q 819.97 608.49 820.27 602.56
  C 820.46 598.91 818.70 596.59 815.01 596.03
  A 1.47 1.46 -86.9 0 1 813.77 594.64
  Q 813.62 590.66 813.05 586.10
  C 812.40 580.94 814.43 578.27 817.22 574.06
  A 6.82 6.79 66.3 0 0 818.24 571.42
  Q 819.38 564.33 818.20 556.93
  C 817.20 550.66 826.23 549.24 829.56 544.75
  A 1.52 1.50 60.3 0 0 829.85 543.67
  Q 829.54 541.27 828.61 540.38
  Q 824.16 536.13 822.28 534.17
  Q 820.63 532.46 819.28 528.35
  Q 818.47 525.88 814.59 520.10
  A 15.13 14.79 -73.6 0 1 813.22 517.52
  C 812.16 514.95 811.22 511.07 808.95 509.15
  Q 803.53 504.54 790.21 491.32
  Q 760.86 462.16 747.32 448.61
  C 741.04 442.32 732.74 436.01 727.58 429.81
  C 722.92 424.19 713.54 416.75 707.28 410.22
  C 702.46 405.20 698.27 401.59 693.96 397.11
  C 682.78 385.47 671.37 375.27 660.82 364.64
  Q 647.24 350.95 630.25 335.01
  Q 625.57 330.62 625.80 324.26
  Q 628.96 237.35 630.48 208.51
  C 630.90 200.62 632.39 191.00 622.36 190.60
  Q 599.41 189.67 593.75 189.24
  Q 548.62 185.75 511.71 183.72
  C 505.76 183.39 499.89 182.33 493.93 182.21
  Q 488.88 182.11 488.06 182.36
  C 481.22 184.46 483.61 194.33 485.32 199.22
  C 487.14 204.43 488.84 212.21 486.66 217.43
  Q 486.23 218.46 484.69 221.73
  A 7.91 7.49 65.2 0 0 484.11 223.45
  C 482.19 232.52 481.96 237.32 477.56 243.21
  Q 473.61 248.47 473.43 249.13
  C 471.75 255.27 473.81 260.63 477.64 265.69
  Q 482.46 272.07 485.63 277.35
  C 488.93 282.85 489.74 287.24 488.64 293.26
  Q 486.98 302.36 487.36 304.78
  Q 488.35 310.99 488.73 312.66
  A 5.50 5.27 -52.5 0 1 488.86 313.84
  Q 488.84 318.71 489.57 321.67
  A 6.46 6.38 -70.2 0 0 490.61 323.92
  Q 495.01 329.99 499.94 335.79
  C 502.36 338.64 504.44 340.06 507.93 342.82
  C 511.17 345.37 512.35 348.20 512.81 352.44
  C 513.32 357.23 513.34 365.40 518.10 367.83
  Q 523.24 370.44 527.33 374.63
  Q 528.38 375.71 530.71 375.40
  A 0.84 0.83 -6.1 0 0 531.44 374.50
  C 531.25 372.37 531.35 366.96 533.04 365.47
  A 1.84 1.84 0.0 0 1 536.10 366.88
  C 536.02 371.57 535.49 375.54 537.42 378.42
  C 540.40 382.89 542.46 385.76 541.53 390.34
  A 0.64 0.64 0.0 0 1 540.54 390.74"
/>
<path stroke="#6c9ac9" vector-effect="non-scaling-stroke" d="
  M 218.6740 298.8052
  A 39.60 39.08 -97.0 0 0 184.7113 342.8727
  A 39.60 39.08 -97.0 0 0 228.3260 377.4148
  A 39.60 39.08 -97.0 0 0 262.2887 333.3473
  A 39.60 39.08 -97.0 0 0 218.6740 298.8052"
/>
<path stroke="#6c9ac9" vector-effect="non-scaling-stroke" d="
  M 364.3476 325.7737
  A 38.26 37.86 -105.0 0 0 337.6800 372.5289
  A 38.26 37.86 -105.0 0 0 384.1524 399.6863
  A 38.26 37.86 -105.0 0 0 410.8200 352.9311
  A 38.26 37.86 -105.0 0 0 364.3476 325.7737"
/>
<path stroke="#acdafb" vector-effect="non-scaling-stroke" d="
  M 180.81 706.36
  Q 168.71 706.98 156.72 707.07
  Q 155.33 707.08 149.01 707.58
  Q 145.16 707.89 141.27 707.43"
/>
<path stroke="#6c9ac9" vector-effect="non-scaling-stroke" d="
  M 141.27 707.43
  Q 143.31 704.26 143.37 701.50
  Q 144.12 662.37 144.31 630.27
  A 0.37 0.36 -66.4 0 1 144.94 630.02
  C 148.88 634.21 157.74 645.58 164.21 641.55
  C 169.81 638.05 168.62 630.50 164.74 626.24
  Q 157.22 617.99 147.83 608.53
  C 142.88 603.56 137.55 599.71 131.38 598.94
  Q 123.12 597.91 112.99 599.00
  Q 103.34 600.03 97.52 605.33
  Q 91.32 610.96 86.59 620.08
  Q 80.44 631.95 77.27 637.77
  C 75.31 641.34 74.34 645.80 77.08 649.16
  C 80.68 653.60 87.18 651.41 90.01 647.34
  Q 92.35 643.97 98.10 634.31
  A 0.49 0.49 0.0 0 1 99.01 634.53
  C 99.47 641.96 99.15 649.42 99.18 656.50
  Q 99.31 692.91 99.31 701.75
  Q 99.32 705.62 102.80 708.71"
/>
<path stroke="#acdafb" vector-effect="non-scaling-stroke" d="
  M 102.80 708.71
  L 96.31 711.51
  A 1.34 1.34 0.0 0 0 95.85 713.65
  Q 96.91 714.79 98.92 715.17
  Q 105.66 716.42 112.29 716.88
  Q 134.04 718.40 152.97 719.21
  C 166.69 719.80 178.87 719.15 191.17 719.85
  Q 202.81 720.52 219.84 720.29
  Q 260.54 719.75 302.62 717.77
  C 312.62 717.31 320.56 715.98 329.83 716.39
  Q 336.82 716.69 343.38 717.43
  C 354.55 718.68 367.39 718.49 376.79 718.40
  Q 380.60 718.36 388.64 718.52
  C 403.92 718.81 419.70 717.41 436.12 716.23
  Q 443.64 715.70 449.37 716.25
  Q 462.29 717.50 462.63 717.56
  Q 468.78 718.69 476.56 718.36
  Q 481.12 718.16 502.00 718.80
  Q 512.91 719.14 534.02 718.70
  C 542.16 718.53 551.07 717.64 559.00 717.94
  Q 564.06 718.13 569.47 717.47
  Q 579.09 716.29 579.91 716.15
  Q 582.83 715.67 584.92 714.71
  A 1.67 1.32 -25.8 0 0 585.87 712.76
  Q 585.60 712.24 584.41 711.86
  Q 580.89 710.73 577.27 709.98
  Q 576.32 709.78 574.39 710.31
  Q 572.45 710.84 571.50 710.15"
/>
<path stroke="#6c9ac9" vector-effect="non-scaling-stroke" d="
  M 571.50 710.15
  Q 581.00 701.56 577.42 689.85
  C 576.09 685.48 572.79 682.73 568.26 680.30
  Q 556.18 673.81 550.53 660.42
  A 1.48 1.48 0.0 0 1 551.16 658.56
  Q 571.77 646.77 579.39 624.22
  Q 582.89 613.86 583.32 612.33
  C 585.10 605.95 586.41 596.11 576.99 596.42
  C 561.20 596.94 540.96 597.04 511.01 596.96
  Q 504.09 596.94 500.75 591.49
  C 497.49 586.16 495.06 581.23 491.20 575.30
  Q 483.90 564.09 478.75 554.99
  Q 472.75 544.37 461.38 528.63
  Q 458.75 524.97 457.39 519.87
  C 451.94 499.41 449.34 488.90 443.93 470.41
  Q 439.59 455.55 435.94 442.56
  Q 433.70 434.61 431.00 428.51
  C 424.36 413.51 408.09 406.72 392.55 405.55
  C 384.58 404.96 370.79 405.28 361.24 405.48
  Q 352.60 405.66 342.94 408.70
  C 332.80 411.88 324.77 417.71 319.47 426.46
  Q 314.64 434.44 313.21 440.34
  Q 308.40 460.27 305.59 471.26
  A 0.34 0.34 0.0 0 1 304.92 471.23
  Q 300.98 446.30 299.58 437.45
  Q 297.27 422.80 291.03 411.18
  C 284.50 399.00 270.02 390.59 257.06 387.17
  Q 248.05 384.79 238.24 383.68
  Q 235.06 383.32 225.13 383.38
  Q 212.32 383.45 212.00 383.46
  Q 202.95 383.66 192.81 385.58
  C 179.06 388.19 168.28 394.43 158.99 404.38
  C 149.13 414.92 146.03 428.61 143.32 442.41
  Q 141.90 449.61 141.67 452.24
  Q 138.38 489.61 136.53 520.28
  C 136.21 525.61 136.03 533.11 137.29 537.21
  Q 140.90 548.95 152.25 548.87
  C 162.24 548.80 166.39 540.36 167.33 531.67
  Q 168.31 522.63 168.99 517.29
  Q 172.64 488.52 177.17 451.57
  A 0.22 0.20 -84.9 0 1 177.37 451.39
  L 177.64 451.39
  A 0.19 0.18 -90.0 0 1 177.82 451.58
  Q 178.31 482.26 177.97 514.74
  Q 177.76 535.73 177.82 577.75
  Q 177.93 655.12 177.85 695.00
  Q 177.84 701.02 180.81 706.36"
/>
<path stroke="#598fc8" vector-effect="non-scaling-stroke" d="
  M 571.50 710.15
  Q 566.45 713.80 560.00 713.40
  Q 551.09 712.84 545.81 706.13"
/>
<path stroke="#6c9ac9" vector-effect="non-scaling-stroke" d="
  M 545.81 706.13
  C 541.92 699.12 542.90 692.60 546.47 685.74
  C 547.80 683.18 547.74 680.33 546.32 678.40
  Q 542.31 672.96 539.03 667.57
  A 2.68 2.67 77.6 0 0 537.05 666.30
  C 532.19 665.76 527.71 666.38 521.85 667.32
  C 513.05 668.73 503.89 667.37 494.65 665.61
  A 0.86 0.86 0.0 0 0 493.70 666.10
  L 491.79 670.23
  A 2.71 2.54 -16.5 0 1 491.49 670.74
  Q 486.98 676.95 486.30 678.03
  C 483.86 681.96 484.89 684.22 487.04 687.95
  C 490.28 693.61 489.74 700.39 486.38 705.99"
/>
<path stroke="#598fc8" vector-effect="non-scaling-stroke" d="
  M 486.38 705.99
  Q 482.45 711.48 475.77 713.03
  Q 466.39 715.21 459.27 708.77"
/>
<path stroke="#6c9ac9" vector-effect="non-scaling-stroke" d="
  M 459.27 708.77
  C 452.02 700.78 452.08 687.49 461.40 681.29
  Q 463.10 680.16 467.05 678.75
  Q 472.29 676.88 475.86 671.04
  Q 478.38 666.92 481.34 660.77
  A 1.33 1.32 -62.9 0 0 480.78 659.03
  C 461.74 648.59 449.37 627.99 446.94 607.01
  Q 446.21 600.78 450.28 598.24
  Q 452.49 596.86 459.94 596.89
  Q 481.18 596.98 486.84 597.11
  A 0.58 0.57 74.0 0 0 487.33 596.22
  Q 479.03 583.51 461.24 555.55
  Q 458.62 551.44 457.92 549.97
  C 455.39 544.63 453.70 540.10 447.87 537.61
  Q 443.63 535.79 440.69 534.77
  C 433.82 532.38 430.46 529.24 427.99 522.23
  C 425.82 516.10 424.06 508.43 421.94 502.22
  Q 418.52 492.18 415.13 479.63
  C 413.93 475.19 412.50 471.29 410.75 465.76
  A 0.44 0.44 0.0 0 0 409.91 465.78
  C 408.09 472.47 406.43 479.72 408.20 486.52
  C 411.36 498.68 414.23 510.60 417.20 521.29
  Q 422.93 541.89 424.55 548.63
  C 428.05 563.19 432.46 577.14 436.66 592.40
  Q 438.21 598.01 437.62 599.81
  C 436.24 604.08 430.85 604.49 427.00 604.46
  Q 418.94 604.39 413.44 604.52
  A 0.64 0.64 0.0 0 0 412.81 605.14
  Q 410.63 657.05 409.09 695.87
  Q 408.79 703.39 404.51 708.34"
/>
<path stroke="#598fc8" vector-effect="non-scaling-stroke" d="
  M 404.51 708.34
  Q 396.83 714.11 387.10 708.90"
/>
<path stroke="#6c9ac9" vector-effect="non-scaling-stroke" d="
  M 387.10 708.90
  Q 383.44 704.37 383.03 697.02
  Q 382.80 693.09 382.80 692.98
  Q 379.48 655.50 377.97 629.25
  Q 377.19 615.59 377.03 605.60
  Q 377.01 604.28 375.61 603.82
  C 372.22 602.69 370.23 607.81 370.14 610.42
  Q 369.80 621.02 369.06 632.80
  Q 366.84 668.06 365.60 685.31
  C 365.05 692.94 366.38 700.41 362.50 707.45"
/>
<path stroke="#598fc8" vector-effect="non-scaling-stroke" d="
  M 362.50 707.45
  Q 353.95 716.99 342.87 709.68"
/>
<path stroke="#6c9ac9" vector-effect="non-scaling-stroke" d="
  M 342.87 709.68
  C 338.15 703.99 338.61 696.02 338.07 687.75
  Q 337.32 676.19 333.88 605.28
  A 0.57 0.57 0.0 0 0 333.28 604.74
  C 327.96 605.04 307.83 606.26 309.76 596.75
  Q 310.92 591.03 316.03 573.72
  C 318.11 566.65 319.78 559.62 321.55 553.74
  C 327.76 533.02 333.37 512.12 339.30 491.03
  C 341.94 481.62 340.93 474.11 338.28 465.49
  A 0.62 0.62 0.0 0 0 337.10 465.46
  Q 332.39 478.12 328.77 490.21
  C 326.01 499.39 322.18 509.18 319.50 515.93
  C 317.57 520.80 316.75 524.33 315.20 529.45
  C 312.30 538.96 307.93 550.57 295.55 547.94
  C 287.68 546.27 283.20 539.06 282.04 531.70
  Q 280.30 520.56 279.77 515.24
  Q 279.72 514.76 276.76 498.92
  Q 272.84 477.92 271.07 465.18
  Q 270.25 459.27 268.66 452.22
  Q 268.45 451.28 267.82 450.67
  A 0.27 0.26 23.6 0 0 267.37 450.84
  Q 267.08 457.52 267.12 465.75
  Q 267.57 556.50 267.42 582.75
  Q 267.39 588.26 267.40 593.75
  Q 267.55 652.24 267.29 694.50
  Q 267.25 701.17 263.79 706.84"
/>
<path stroke="#598fc8" vector-effect="non-scaling-stroke" d="
  M 263.79 706.84
  Q 259.45 712.70 252.47 713.95
  Q 240.85 716.03 233.70 705.70"
/>
<path stroke="#6c9ac9" vector-effect="non-scaling-stroke" d="
  M 233.70 705.70
  C 230.47 698.93 230.13 691.63 229.68 683.50
  Q 226.97 635.09 222.78 562.83
  A 0.45 0.44 -79.3 0 0 222.54 562.47
  L 222.27 562.34
  A 0.42 0.41 -75.2 0 0 221.68 562.69
  Q 217.17 636.96 215.25 689.00
  Q 214.92 697.91 211.45 706.11"
/>
<path stroke="#598fc8" vector-effect="non-scaling-stroke" d="
  M 211.45 706.11
  Q 207.16 712.47 199.81 713.82
  Q 188.30 715.93 180.81 706.36"
/>
<path stroke="#acdafb" vector-effect="non-scaling-stroke" d="
  M 459.27 708.77
  L 459.18 709.47
  A 0.56 0.56 0.0 0 1 458.43 709.92
  C 454.50 708.40 447.44 711.54 441.23 710.63
  Q 427.80 708.68 424.75 708.66
  Q 414.60 708.60 404.51 708.34"
/>
<path stroke="#acdafb" vector-effect="non-scaling-stroke" d="
  M 387.10 708.90
  Q 386.60 709.45 383.49 707.53
  A 1.46 1.39 -28.0 0 0 382.74 707.32
  L 362.50 707.45"
/>
<path stroke="#acdafb" vector-effect="non-scaling-stroke" d="
  M 545.81 706.13
  Q 543.77 706.22 541.77 706.16
  Q 539.59 706.09 537.75 706.23
  Q 525.65 707.16 513.52 707.20
  Q 513.20 707.20 500.44 706.13
  Q 493.51 705.55 486.38 705.99"
/>
<path stroke="#acdafb" vector-effect="non-scaling-stroke" d="
  M 233.70 705.70
  L 211.45 706.11"
/>
<path stroke="#acdafb" vector-effect="non-scaling-stroke" d="
  M 342.87 709.68
  Q 338.62 708.73 336.50 708.73
  Q 330.65 708.76 323.22 709.63
  A 12.70 12.69 -43.8 0 1 319.71 709.56
  C 308.65 707.80 295.64 708.02 283.09 707.29
  Q 280.53 707.14 272.24 706.88
  Q 268.17 706.76 263.79 706.84"
/>
<path stroke="#598fc8" vector-effect="non-scaling-stroke" d="
  M 141.27 707.43
  Q 137.54 711.21 132.44 710.58
  C 124.96 709.65 124.16 701.70 124.09 695.88
  Q 123.92 679.53 123.19 670.06
  A 0.87 0.86 -23.0 0 0 121.75 669.48
  L 121.74 669.49
  A 4.14 4.13 -18.5 0 0 120.35 672.27
  Q 119.41 683.54 118.52 691.40
  C 118.16 694.52 118.53 700.53 117.62 702.83
  Q 113.68 712.77 102.80 708.71"
/>
<path stroke="#acdafb" vector-effect="non-scaling-stroke" d="
  M 928.81 709.19
  Q 922.94 708.96 912.75 709.78
  Q 882.87 712.21 879.52 712.75
  Q 877.69 713.05 876.19 713.96
  A 1.18 1.17 -50.8 0 0 876.40 716.07
  Q 881.24 717.84 886.96 718.52
  Q 902.78 720.43 920.67 721.48
  Q 947.00 723.04 947.14 723.04
  C 974.85 724.48 996.15 723.86 1032.07 723.68
  C 1050.65 723.58 1068.57 722.75 1083.76 722.08
  Q 1090.02 721.81 1124.13 718.85
  Q 1132.51 718.12 1139.08 716.34
  Q 1140.74 715.89 1141.75 715.02
  A 0.38 0.37 36.3 0 0 1141.65 714.39
  Q 1136.90 712.42 1130.08 711.46
  Q 1112.43 708.98 1097.74 708.37
  C 1095.16 708.27 1091.77 708.00 1090.08 710.29
  Q 1089.16 711.53 1087.53 712.51"
/>
<path stroke="#dfd89c" vector-effect="non-scaling-stroke" d="
  M 1087.53 712.51
  Q 1092.26 705.55 1092.89 698.11
  Q 1094.21 682.47 1095.16 678.32
  A 0.13 0.11 -44.6 0 1 1095.40 678.30
  Q 1095.40 678.36 1095.48 678.42
  A 0.24 0.03 -85.2 0 0 1095.53 678.18
  Q 1095.96 674.13 1098.35 671.08
  C 1101.96 666.48 1106.51 661.78 1110.14 656.00
  Q 1120.21 639.96 1124.94 620.74
  Q 1127.70 609.52 1127.60 597.69
  A 1.00 1.00 0.0 0 1 1128.45 596.69
  C 1134.78 595.76 1140.97 594.50 1145.92 589.91
  Q 1149.84 586.28 1151.66 585.23
  A 4.47 4.37 -64.8 0 1 1153.11 584.69
  C 1157.32 583.93 1159.81 583.25 1162.91 580.41
  Q 1165.05 578.46 1169.57 573.56
  A 5.19 5.19 0.0 0 0 1170.78 568.69
  L 1170.47 567.53
  A 2.67 2.66 62.2 0 0 1166.16 566.19
  C 1163.03 568.87 1160.50 573.35 1156.00 574.34
  A 1.88 1.87 -17.8 0 1 1153.88 573.26
  C 1152.21 569.40 1150.29 564.97 1147.26 562.86
  C 1144.13 560.69 1140.21 559.79 1136.52 561.06
  C 1128.20 563.92 1126.29 571.98 1130.00 579.32
  Q 1131.62 582.51 1135.10 584.18
  A 0.72 0.72 0.0 0 1 1134.97 585.52
  L 1128.54 587.24
  A 1.71 1.70 -13.4 0 1 1126.43 585.95
  Q 1123.91 574.10 1122.42 568.05
  Q 1120.81 561.55 1118.58 556.64
  Q 1107.32 531.80 1086.46 515.30
  Q 1083.21 512.73 1079.60 510.54
  A 2.87 2.65 82.3 0 1 1078.97 510.02
  Q 1077.99 508.94 1076.10 508.19
  A 2.62 2.58 -11.1 0 1 1075.13 507.55
  Q 1074.90 507.31 1072.69 506.26
  A 5.29 4.79 74.4 0 1 1071.71 505.64
  Q 1068.91 503.37 1068.02 502.99
  C 1062.46 500.66 1057.18 497.35 1051.20 495.16
  Q 1046.86 493.58 1042.55 492.47
  Q 1035.37 490.63 1034.95 490.48
  C 1030.15 488.76 1025.45 488.60 1019.99 487.34
  C 1017.25 486.70 1014.48 486.82 1012.19 486.49
  Q 1010.49 486.24 1006.32 486.57
  Q 991.10 487.80 982.45 489.24
  Q 973.23 490.77 964.30 494.04
  Q 962.63 494.66 951.94 499.73
  A 0.97 0.96 52.8 0 1 950.89 499.58
  C 949.00 497.92 946.30 495.39 944.41 494.11
  Q 930.37 484.62 913.26 482.34
  C 908.00 481.64 901.49 482.93 899.07 488.16
  C 897.58 491.37 898.96 495.62 900.10 499.67
  Q 902.66 508.81 906.88 517.81
  C 909.08 522.49 910.73 527.06 907.83 530.82
  C 900.75 540.00 895.14 547.38 891.77 558.26
  Q 890.59 562.06 888.91 564.39
  C 884.39 570.66 877.58 568.43 871.62 569.59
  C 861.08 571.65 859.21 580.36 859.68 590.02
  Q 860.47 605.76 860.05 612.93
  Q 859.66 619.59 860.99 622.83
  Q 863.16 628.12 867.49 630.55
  C 871.49 632.79 877.27 633.36 880.88 634.60
  Q 886.38 636.50 889.85 639.72
  C 893.39 642.99 895.35 649.20 897.96 652.77
  Q 906.87 664.96 916.78 673.72
  C 920.73 677.21 923.30 680.25 923.78 684.75
  Q 924.66 692.92 925.88 700.68
  Q 926.61 705.29 928.81 709.19"
/>
<path stroke="#cccd9b" vector-effect="non-scaling-stroke" d="
  M 1087.53 712.51
  C 1083.88 716.31 1077.64 716.22 1072.25 716.28
  Q 1062.28 716.38 1052.34 716.04
  Q 1046.45 715.83 1042.75 710.75
  Q 1042.57 710.50 1042.52 709.52"
/>
<path stroke="#dfd89c" vector-effect="non-scaling-stroke" d="
  M 1042.52 709.52
  Q 1042.77 708.82 1042.59 708.50
  Q 1041.45 706.41 1040.74 704.24
  A 2.47 2.46 -9.2 0 0 1038.40 702.56
  L 983.12 702.56
  A 3.47 3.47 0.0 0 0 980.11 704.30
  L 978.37 707.36"
/>
<path stroke="#cccd9b" vector-effect="non-scaling-stroke" d="
  M 978.37 707.36
  Q 974.04 716.19 964.40 716.39
  Q 953.24 716.63 938.74 716.17
  Q 930.97 715.92 928.81 709.19"
/>
<path stroke="#acdafb" vector-effect="non-scaling-stroke" d="
  M 1042.52 709.52
  Q 1041.29 707.96 1038.62 707.81
  Q 1031.20 707.40 1023.74 707.44
  Q 1001.17 707.57 978.37 707.36"
/>
<path stroke="#6c9ac9" vector-effect="non-scaling-stroke" d="
  M 583.82 583.32
  C 581.71 566.83 575.73 551.91 564.40 539.89
  Q 549.31 523.87 528.03 517.72
  C 521.28 515.77 512.13 512.73 506.13 518.05
  C 504.24 519.73 503.45 522.06 503.47 524.50
  Q 503.66 548.76 503.54 585.99
  C 503.51 592.97 507.74 593.94 514.08 593.79
  Q 521.07 593.63 575.50 593.93
  Q 578.85 593.95 581.00 592.60
  C 583.81 590.82 584.18 586.14 583.82 583.32"
/>
<path stroke="#6c9ac9" vector-effect="non-scaling-stroke" d="
  M 125.4867 546.0843
  A 23.25 22.76 -79.3 0 0 98.8057 564.7042
  A 23.25 22.76 -79.3 0 0 116.8533 591.7757
  A 23.25 22.76 -79.3 0 0 143.5343 573.1558
  A 23.25 22.76 -79.3 0 0 125.4867 546.0843"
/>
<path stroke="#83a3c5" vector-effect="non-scaling-stroke" d="
  M 849.88 152.75
  L 840.88 204.14
  A 3.63 3.61 -69.8 0 0 842.60 207.88
  C 846.55 210.22 854.64 210.87 855.63 204.56
  Q 859.10 182.33 862.31 165.31
  Q 863.33 159.87 863.92 154.77
  A 0.78 0.78 0.0 0 1 864.84 154.10
  Q 872.46 155.53 878.04 156.15
  Q 882.63 156.66 883.81 152.06
  Q 885.63 144.98 878.73 143.78
  Q 865.02 141.39 842.14 137.85
  C 837.44 137.13 833.52 135.84 832.20 141.15
  C 831.18 145.25 831.51 148.99 836.33 149.68
  Q 837.54 149.86 849.26 151.87
  A 0.76 0.76 0.0 0 1 849.88 152.75"
/>
<path stroke="#83a3c5" vector-effect="non-scaling-stroke" d="
  M 915.23 203.67
  C 916.38 211.02 916.90 217.30 918.08 218.95
  C 919.83 221.42 924.18 221.78 928.01 222.12
  Q 931.73 222.46 931.73 219.06
  Q 931.73 216.03 931.17 212.55
  Q 924.93 173.39 921.74 155.27
  Q 921.18 152.13 919.61 150.86
  Q 915.73 147.73 908.27 147.71
  C 903.79 147.70 901.40 150.88 899.80 154.58
  Q 898.54 157.48 890.70 172.25
  C 883.03 186.69 878.73 195.80 872.17 208.43
  C 868.97 214.58 879.82 214.93 882.91 214.42
  A 3.58 3.57 8.0 0 0 885.53 212.45
  L 891.68 199.69
  A 1.10 1.10 0.0 0 1 892.86 199.08
  L 914.43 202.86
  A 0.98 0.98 0.0 0 1 915.23 203.67"
/>
<path stroke="#83a3c5" vector-effect="non-scaling-stroke" d="
  M 967.68 180.67
  Q 966.10 177.30 964.69 172.15
  C 963.31 167.12 962.49 165.17 960.52 159.73
  C 958.77 154.86 952.44 154.32 948.11 155.18
  C 945.47 155.71 944.76 157.41 945.65 159.88
  Q 951.17 175.26 957.26 190.39
  A 1.45 1.44 -37.0 0 1 957.06 191.80
  Q 948.26 203.18 938.68 214.42
  Q 936.45 217.04 935.33 219.39
  A 2.60 2.59 25.3 0 0 936.58 222.86
  Q 941.63 225.20 946.36 224.72
  A 4.71 4.70 -74.7 0 0 949.68 222.82
  L 963.43 204.19
  A 0.69 0.69 0.0 0 1 964.63 204.37
  Q 966.13 208.68 971.46 224.28
  Q 972.75 228.05 974.30 228.76
  Q 979.70 231.24 985.54 230.48
  A 2.68 2.68 0.0 0 0 987.88 227.72
  Q 987.82 226.23 987.03 224.24
  Q 981.00 208.99 978.07 200.69
  Q 976.69 196.78 974.90 193.00
  A 1.31 1.29 -37.4 0 1 975.10 191.58
  Q 985.62 179.51 994.75 167.51
  C 1000.60 159.84 988.77 158.57 984.68 159.89
  A 4.47 4.43 9.1 0 0 982.46 161.48
  L 968.27 180.73
  A 0.35 0.34 -38.9 0 1 967.68 180.67"
/>
<path stroke="#83a3c5" vector-effect="non-scaling-stroke" d="
  M 817.80 254.42
  Q 812.90 244.24 811.77 242.02
  C 807.15 232.93 796.88 239.33 801.20 247.48
  Q 806.13 256.80 808.34 261.21
  C 810.59 265.68 813.00 268.72 817.75 269.66
  C 823.98 270.91 826.26 265.30 830.82 262.10
  Q 836.30 258.24 841.81 253.26
  C 845.65 249.79 849.26 247.58 852.97 244.72
  Q 855.84 242.51 856.24 241.14
  Q 857.63 236.42 854.33 233.82
  C 850.32 230.67 846.02 233.83 843.02 236.27
  Q 834.70 243.08 821.71 253.45
  Q 820.17 254.68 818.84 254.94
  A 0.95 0.95 0.0 0 1 817.80 254.42"
/>
<path stroke="#83a3c5" vector-effect="non-scaling-stroke" d="
  M 994.6775 275.2349
  A 6.80 6.80 0.0 0 0 989.0658 267.4254
  L 875.3011 248.7957
  A 6.80 6.80 0.0 0 0 867.4916 254.4074
  L 867.4625 254.5851
  A 6.80 6.80 0.0 0 0 873.0742 262.3946
  L 986.8389 281.0243
  A 6.80 6.80 0.0 0 0 994.6484 275.4126
  L 994.6775 275.2349"
/>
<path stroke="#83a3c5" vector-effect="non-scaling-stroke" d="
  M 809.30 310.62
  A 0.87 0.86 -35.1 0 1 808.12 310.42
  C 805.12 306.36 803.32 300.95 801.64 297.11
  Q 799.59 292.43 794.20 293.38
  C 788.99 294.30 789.25 300.27 791.42 303.86
  Q 794.84 309.52 799.17 318.69
  C 801.42 323.46 804.97 327.60 810.49 326.39
  Q 812.45 325.96 816.47 321.81
  Q 818.23 319.99 824.09 315.33
  Q 827.00 313.02 841.55 301.36
  C 845.56 298.14 847.97 296.73 845.57 291.89
  C 842.65 286.02 836.95 288.94 833.38 291.89
  C 825.56 298.34 817.77 305.01 809.30 310.62"
/>
<path stroke="#83a3c5" vector-effect="non-scaling-stroke" d="
  M 984.6144 330.8106
  A 6.60 6.60 0.0 0 0 979.1677 323.2308
  L 865.0675 304.5461
  A 6.60 6.60 0.0 0 0 857.4876 309.9928
  L 857.4456 310.2494
  A 6.60 6.60 0.0 0 0 862.8923 317.8292
  L 976.9925 336.5139
  A 6.60 6.60 0.0 0 0 984.5724 331.0672
  L 984.6144 330.8106"
/>
<path stroke="#83a3c5" vector-effect="non-scaling-stroke" d="
  M 798.10 366.80
  A 0.66 0.66 0.0 0 1 797.19 366.52
  Q 794.39 361.08 791.20 353.55
  C 789.31 349.09 785.44 346.18 781.14 350.23
  C 778.26 352.94 778.80 356.44 780.49 359.78
  Q 783.83 366.42 787.63 373.94
  Q 789.78 378.19 791.67 380.00
  C 799.35 387.34 804.39 378.98 809.99 374.98
  Q 817.21 369.82 822.12 365.19
  C 825.89 361.64 828.44 360.16 832.79 356.81
  Q 836.61 353.87 835.05 349.24
  C 832.27 341.01 826.03 344.81 821.53 348.55
  Q 813.34 355.35 805.09 362.08
  Q 801.81 364.77 798.10 366.80"
/>
<path stroke="#83a3c5" vector-effect="non-scaling-stroke" d="
  M 974.4518 387.3368
  A 6.64 6.64 0.0 0 0 968.9854 379.7015
  L 854.0893 360.6806
  A 6.64 6.64 0.0 0 0 846.4539 366.1469
  L 846.4082 366.4232
  A 6.64 6.64 0.0 0 0 851.8746 374.0585
  L 966.7707 393.0794
  A 6.64 6.64 0.0 0 0 974.4061 387.6131
  L 974.4518 387.3368"
/>
<path stroke="#83a3c5" vector-effect="non-scaling-stroke" d="
  M 910.02 163.87
  A 0.41 0.41 0.0 0 0 909.25 163.75
  L 897.67 187.81
  A 0.41 0.41 0.0 0 0 897.96 188.39
  L 913.16 191.05
  A 0.41 0.41 0.0 0 0 913.63 190.59
  L 910.02 163.87"
/>
<path stroke="#9da587" vector-effect="non-scaling-stroke" d="
  M 561.36 307.65
  L 577.02 319.20
  A 0.25 0.25 0.0 0 0 577.41 318.94
  L 572.39 300.17
  A 0.94 0.93 63.7 0 1 572.72 299.19
  L 587.78 287.40
  A 0.59 0.59 0.0 0 0 587.42 286.35
  L 569.08 286.35
  A 1.75 1.74 80.7 0 1 567.43 285.16
  L 561.69 267.85
  A 0.47 0.47 0.0 0 0 560.81 267.82
  Q 557.34 276.56 554.36 283.56
  Q 553.26 286.12 551.60 286.13
  Q 543.60 286.14 535.27 286.38
  Q 534.46 286.40 534.30 286.55
  A 0.60 0.60 0.0 0 0 534.33 287.47
  L 548.09 298.08
  A 2.08 2.07 -63.3 0 1 548.82 300.30
  L 543.54 319.03
  A 0.22 0.21 -9.5 0 0 543.87 319.26
  L 560.61 307.64
  A 0.65 0.65 0.0 0 1 561.36 307.65"
/>
<path stroke="#f4ba32" vector-effect="non-scaling-stroke" d="
  M 1135.72 381.21
  C 1132.08 370.37 1127.02 360.31 1119.48 352.53
  C 1108.08 340.75 1096.20 332.52 1079.87 329.65
  C 1066.46 327.28 1050.41 328.41 1038.26 334.38
  Q 1028.60 339.12 1016.67 349.40
  C 1015.36 350.53 1013.26 352.94 1012.41 354.16
  Q 1005.89 363.63 1004.18 366.18
  C 999.50 373.16 997.85 379.70 995.40 388.65
  C 991.48 402.93 992.75 417.38 998.55 430.95
  C 1002.52 440.23 1006.48 447.76 1013.71 454.54
  C 1026.16 466.22 1041.53 474.26 1058.66 475.79
  C 1073.67 477.13 1086.89 474.02 1100.29 467.72
  C 1108.99 463.64 1115.41 457.38 1121.77 450.50
  C 1138.22 432.72 1143.24 403.66 1135.72 381.21"
/>
<path stroke="#f4ba32" vector-effect="non-scaling-stroke" d="
  M 1003.22 427.30
  Q 1004.89 432.34 1007.64 436.61
  C 1014.71 447.56 1023.82 457.23 1035.69 462.79
  C 1054.96 471.80 1078.81 471.81 1097.85 461.10
  Q 1107.50 455.68 1111.70 451.69
  Q 1121.62 442.26 1127.57 428.54
  C 1133.84 414.07 1133.35 398.70 1129.37 383.45
  C 1126.66 373.05 1120.38 363.24 1113.23 355.55
  C 1105.08 346.79 1095.24 341.17 1083.45 337.46
  Q 1074.59 334.67 1066.77 334.93
  Q 1049.29 335.51 1034.57 343.74
  C 1027.65 347.60 1021.54 353.65 1015.81 359.81
  Q 1013.29 362.52 1011.41 365.90
  C 1007.64 372.69 1003.88 380.35 1002.11 387.76
  C 999.04 400.59 998.88 414.20 1003.22 427.30"
/>
<path stroke="#8b8d69" vector-effect="non-scaling-stroke" d="
  M 1028.27 377.25
  C 1025.80 390.20 1032.00 400.56 1045.77 400.95
  C 1056.84 401.26 1062.98 394.34 1064.97 383.91
  C 1067.43 370.95 1061.23 360.59 1047.46 360.21
  C 1036.39 359.90 1030.25 366.81 1028.27 377.25"
/>
<path stroke="#8b8d69" vector-effect="non-scaling-stroke" d="
  M 1062.26 400.69
  Q 1049.84 417.07 1036.76 433.50
  Q 1035.26 435.37 1034.43 437.55
  A 1.36 1.36 0.0 0 0 1034.43 438.53
  Q 1034.92 439.80 1037.15 440.55
  Q 1044.48 443.01 1048.87 437.38
  Q 1062.39 420.03 1071.40 408.15
  Q 1083.81 391.77 1096.90 375.35
  Q 1098.40 373.47 1099.23 371.29
  A 1.36 1.36 0.0 0 0 1099.23 370.31
  Q 1098.74 369.04 1096.51 368.29
  Q 1089.18 365.83 1084.78 371.46
  Q 1071.26 388.82 1062.26 400.69"
/>
<path stroke="#8b8d69" vector-effect="non-scaling-stroke" d="
  M 1069.19 422.88
  C 1066.45 435.75 1072.41 446.23 1086.13 446.91
  C 1097.17 447.46 1103.45 440.70 1105.66 430.33
  C 1108.39 417.46 1102.44 406.99 1088.71 406.30
  C 1077.68 405.75 1071.40 412.52 1069.19 422.88"
/>
<path stroke="#8b8d69" vector-effect="non-scaling-stroke" d="
  M 1040.41 379.62
  Q 1039.10 389.92 1045.36 390.72
  Q 1051.63 391.51 1052.94 381.21
  Q 1054.24 370.90 1047.98 370.10
  Q 1041.71 369.31 1040.41 379.62"
/>
<path stroke="#8b8d69" vector-effect="non-scaling-stroke" d="
  M 1088.5462 416.2363
  A 10.54 6.72 -83.1 0 0 1080.6087 425.8927
  A 10.54 6.72 -83.1 0 0 1086.0138 437.1637
  A 10.54 6.72 -83.1 0 0 1093.9513 427.5073
  A 10.54 6.72 -83.1 0 0 1088.5462 416.2363"
/>
<path stroke="#8b8d69" vector-effect="non-scaling-stroke" d="
  M 984.58 505.99
  Q 985.62 510.32 991.03 510.07
  Q 998.23 509.72 1005.53 508.57
  Q 1013.32 507.34 1018.04 507.44
  Q 1034.68 507.82 1050.22 515.08
  C 1052.24 516.02 1056.41 517.76 1058.02 517.68
  C 1064.41 517.37 1065.94 509.99 1060.44 507.54
  Q 1048.34 502.17 1035.48 499.01
  Q 1021.76 495.65 1008.26 497.51
  Q 1000.19 498.63 991.09 499.27
  Q 984.91 499.71 984.50 504.91
  A 3.34 3.22 -50.3 0 0 984.58 505.99"
/>
<path stroke="#8b8d69" vector-effect="non-scaling-stroke" d="
  M 913.7298 553.8316
  A 10.38 8.22 -86.3 0 0 904.8571 563.6595
  A 10.38 8.22 -86.3 0 0 912.3902 574.5484
  A 10.38 8.22 -86.3 0 0 921.2629 564.7205
  A 10.38 8.22 -86.3 0 0 913.7298 553.8316"
/>
<path stroke="#8b8d69" vector-effect="non-scaling-stroke" d="
  M 968.88 626.84
  C 968.40 631.21 971.98 631.95 974.99 630.28
  Q 984.36 625.06 990.22 621.96
  A 2.65 2.64 -45.1 0 1 992.68 621.95
  Q 998.60 625.02 1006.86 629.93
  C 1008.39 630.84 1010.98 631.99 1012.72 630.92
  Q 1014.93 629.56 1014.39 626.35
  C 1013.49 621.09 1011.91 614.18 1012.19 608.30
  A 2.62 2.58 64.4 0 1 1012.66 606.94
  C 1016.68 601.18 1024.36 596.30 1027.08 592.36
  C 1028.22 590.73 1027.07 588.51 1025.51 587.73
  A 1.78 1.75 -28.4 0 0 1024.85 587.54
  Q 1015.93 586.73 1006.61 585.41
  C 1004.22 585.07 1003.52 584.19 1002.51 582.25
  Q 999.50 576.45 994.91 566.60
  C 993.54 563.66 990.30 563.27 988.64 566.43
  C 986.58 570.38 983.81 577.59 979.88 583.81
  A 2.47 2.47 0.0 0 1 979.25 584.49
  Q 978.33 585.20 975.76 585.57
  Q 969.66 586.44 961.59 587.27
  C 956.28 587.81 954.62 590.84 958.76 594.77
  Q 964.85 600.56 970.31 605.62
  Q 972.09 607.26 971.39 611.31
  Q 969.14 624.51 968.88 626.84"
/>
<path stroke="#dfd89c" vector-effect="non-scaling-stroke" d="
  M 1139.8342 567.1658
  A 5.64 4.51 -92.6 0 0 1135.5846 573.0046
  A 5.64 4.51 -92.6 0 0 1140.3458 578.4342
  A 5.64 4.51 -92.6 0 0 1144.5954 572.5954
  A 5.64 4.51 -92.6 0 0 1139.8342 567.1658"
/>
</g>
<path fill="#bfe5fc" d="
  M 1264.00 0.00
  L 1264.00 848.00
  L 0.00 848.00
  L 0.00 0.00
  L 1264.00 0.00
  Z
  M 993.96 452.51
  Q 994.72 450.97 993.49 450.33
  Q 998.68 453.19 1001.38 456.87
  Q 1002.26 458.08 1003.00 460.61
  A 3.31 3.25 -79.6 0 0 1004.14 462.29
  Q 1004.66 462.70 1008.88 467.00
  Q 1009.41 467.54 1010.09 467.82
  C 1011.37 468.34 1011.99 469.73 1013.39 470.55
  Q 1015.45 471.77 1021.75 476.28
  Q 1023.00 477.18 1023.07 477.35
  A 0.80 0.79 -9.4 0 0 1023.76 477.84
  Q 1025.68 477.96 1027.35 479.52
  A 2.66 2.57 77.6 0 0 1028.09 480.01
  L 1032.34 481.92
  A 1.55 1.49 77.1 0 1 1032.69 482.15
  Q 1034.79 483.98 1039.16 485.54
  Q 1049.01 489.07 1056.94 490.55
  C 1064.12 492.21 1072.27 493.36 1079.59 492.31
  Q 1082.43 491.90 1086.33 491.73
  A 1.12 1.10 21.4 0 0 1087.05 491.42
  Q 1087.14 491.33 1087.23 491.26
  A 1.83 1.78 18.4 0 1 1088.12 490.83
  Q 1094.95 489.68 1095.01 489.68
  Q 1095.50 489.64 1096.01 489.20
  A 1.06 1.03 -67.6 0 1 1096.61 488.94
  Q 1099.34 488.70 1102.91 487.09
  A 2.39 2.26 -57.9 0 1 1103.72 486.88
  Q 1104.92 486.80 1105.79 486.45
  Q 1120.16 480.74 1131.56 470.31
  Q 1136.48 465.80 1139.65 461.91
  Q 1143.33 457.38 1147.56 450.84
  Q 1153.29 441.99 1156.01 432.30
  Q 1156.67 429.95 1157.46 424.40
  Q 1158.16 419.46 1158.78 416.48
  A 4.46 4.42 51.1 0 0 1158.87 415.59
  L 1158.87 402.68
  A 0.56 0.26 -70.1 0 0 1158.86 402.57
  L 1157.90 398.99
  A 2.82 2.75 41.1 0 1 1157.82 398.00
  Q 1158.35 391.95 1156.10 387.35
  A 2.35 2.24 -58.2 0 1 1155.87 386.26
  C 1155.94 384.10 1154.57 381.13 1152.90 376.34
  A 1.56 1.54 9.8 0 0 1152.37 375.60
  Q 1151.51 374.91 1150.56 372.01
  Q 1150.21 370.95 1148.09 367.12
  Q 1144.49 359.45 1140.71 354.76
  Q 1134.63 347.23 1123.09 336.47
  A 1.90 1.81 -9.5 0 0 1122.59 336.13
  L 1120.29 334.97
  A 1.16 1.13 -6.0 0 1 1119.96 334.71
  Q 1117.48 331.88 1114.35 330.46
  A 4.05 3.50 -10.5 0 1 1113.75 330.11
  Q 1098.84 319.61 1080.92 316.19
  Q 1079.37 315.89 1074.98 315.94
  A 1.48 1.46 -29.3 0 1 1074.17 315.72
  Q 1073.15 315.10 1069.51 315.10
  Q 1055.19 315.07 1051.14 316.32
  C 1048.93 317.00 1046.53 317.43 1042.76 318.04
  A 3.47 3.44 -62.3 0 0 1041.84 318.33
  L 1033.65 322.17
  Q 1035.31 311.46 1037.19 300.99
  C 1049.61 231.97 1059.44 173.05 1065.72 138.46
  C 1066.89 132.00 1064.52 125.44 1057.93 124.36
  Q 1004.01 115.55 796.80 82.46
  C 786.24 80.77 783.51 86.61 782.23 95.97
  C 781.21 103.37 779.60 110.55 778.10 119.43
  Q 761.27 219.22 752.11 273.17
  Q 749.37 289.27 746.55 305.36
  Q 737.58 356.58 727.28 415.00
  C 725.74 423.73 730.95 425.77 738.83 426.69
  C 746.89 427.63 755.28 429.56 764.72 431.10
  Q 834.17 442.43 924.20 456.92
  Q 929.78 457.82 952.49 461.48
  C 964.16 463.36 977.90 465.97 991.50 467.70
  C 995.65 468.23 999.70 467.81 1001.42 463.91
  C 1002.51 461.44 1001.13 459.78 999.62 457.71
  Q 997.15 454.31 993.96 452.51
  Z
  M 540.54 390.74
  Q 539.90 390.29 539.19 389.33
  Q 533.75 381.92 532.30 380.96
  A 2.58 1.94 42.2 0 0 529.81 380.73
  C 527.63 382.09 528.26 387.41 528.45 389.96
  C 528.64 392.59 530.11 395.03 530.68 396.93
  A 6.59 6.58 -54.7 0 1 531.01 398.86
  L 531.13 405.16
  A 0.65 0.34 54.5 0 0 531.15 405.31
  Q 532.53 411.68 537.90 415.50
  C 542.20 418.57 556.97 419.87 552.69 429.24
  Q 551.07 432.77 548.64 436.74
  A 2.88 2.81 -24.1 0 0 548.25 437.73
  Q 547.65 440.75 548.11 442.23
  C 550.37 449.48 554.11 455.39 559.39 461.73
  C 563.50 466.66 567.60 472.90 570.80 477.76
  C 573.93 482.52 579.11 486.29 582.40 489.49
  C 586.08 493.06 588.87 496.09 587.91 500.97
  A 1.61 1.61 0.0 0 0 588.86 502.77
  C 594.22 505.06 593.82 512.09 592.65 516.49
  C 591.09 522.38 589.00 529.11 595.91 532.58
  C 607.35 538.32 622.02 535.49 632.98 538.94
  C 637.00 540.21 641.53 544.26 645.65 547.35
  Q 652.37 552.39 660.48 553.81
  C 667.34 555.01 673.69 557.43 672.76 565.77
  A 0.93 0.93 0.0 0 0 673.88 566.79
  C 679.58 565.59 683.60 566.41 689.06 569.92
  Q 702.93 578.84 712.95 590.34
  C 715.03 592.73 717.29 596.11 717.66 598.83
  C 719.00 608.59 719.06 621.39 732.83 619.18
  Q 742.29 617.65 745.04 617.19
  A 19.50 19.27 -49.3 0 1 748.38 616.92
  Q 758.61 616.93 768.48 615.02
  C 774.43 613.86 780.24 613.86 785.72 613.67
  C 791.48 613.47 797.39 611.78 802.52 611.52
  C 806.49 611.31 811.05 612.05 814.44 610.70
  Q 819.97 608.49 820.27 602.56
  C 820.46 598.91 818.70 596.59 815.01 596.03
  A 1.47 1.46 -86.9 0 1 813.77 594.64
  Q 813.62 590.66 813.05 586.10
  C 812.40 580.94 814.43 578.27 817.22 574.06
  A 6.82 6.79 66.3 0 0 818.24 571.42
  Q 819.38 564.33 818.20 556.93
  C 817.20 550.66 826.23 549.24 829.56 544.75
  A 1.52 1.50 60.3 0 0 829.85 543.67
  Q 829.54 541.27 828.61 540.38
  Q 824.16 536.13 822.28 534.17
  Q 820.63 532.46 819.28 528.35
  Q 818.47 525.88 814.59 520.10
  A 15.13 14.79 -73.6 0 1 813.22 517.52
  C 812.16 514.95 811.22 511.07 808.95 509.15
  Q 803.53 504.54 790.21 491.32
  Q 760.86 462.16 747.32 448.61
  C 741.04 442.32 732.74 436.01 727.58 429.81
  C 722.92 424.19 713.54 416.75 707.28 410.22
  C 702.46 405.20 698.27 401.59 693.96 397.11
  C 682.78 385.47 671.37 375.27 660.82 364.64
  Q 647.24 350.95 630.25 335.01
  Q 625.57 330.62 625.80 324.26
  Q 628.96 237.35 630.48 208.51
  C 630.90 200.62 632.39 191.00 622.36 190.60
  Q 599.41 189.67 593.75 189.24
  Q 548.62 185.75 511.71 183.72
  C 505.76 183.39 499.89 182.33 493.93 182.21
  Q 488.88 182.11 488.06 182.36
  C 481.22 184.46 483.61 194.33 485.32 199.22
  C 487.14 204.43 488.84 212.21 486.66 217.43
  Q 486.23 218.46 484.69 221.73
  A 7.91 7.49 65.2 0 0 484.11 223.45
  C 482.19 232.52 481.96 237.32 477.56 243.21
  Q 473.61 248.47 473.43 249.13
  C 471.75 255.27 473.81 260.63 477.64 265.69
  Q 482.46 272.07 485.63 277.35
  C 488.93 282.85 489.74 287.24 488.64 293.26
  Q 486.98 302.36 487.36 304.78
  Q 488.35 310.99 488.73 312.66
  A 5.50 5.27 -52.5 0 1 488.86 313.84
  Q 488.84 318.71 489.57 321.67
  A 6.46 6.38 -70.2 0 0 490.61 323.92
  Q 495.01 329.99 499.94 335.79
  C 502.36 338.64 504.44 340.06 507.93 342.82
  C 511.17 345.37 512.35 348.20 512.81 352.44
  C 513.32 357.23 513.34 365.40 518.10 367.83
  Q 523.24 370.44 527.33 374.63
  Q 528.38 375.71 530.71 375.40
  A 0.84 0.83 -6.1 0 0 531.44 374.50
  C 531.25 372.37 531.35 366.96 533.04 365.47
  A 1.84 1.84 0.0 0 1 536.10 366.88
  C 536.02 371.57 535.49 375.54 537.42 378.42
  C 540.40 382.89 542.46 385.76 541.53 390.34
  A 0.64 0.64 0.0 0 1 540.54 390.74
  Z
  M 218.6740 298.8052
  A 39.60 39.08 -97.0 0 0 184.7113 342.8727
  A 39.60 39.08 -97.0 0 0 228.3260 377.4148
  A 39.60 39.08 -97.0 0 0 262.2887 333.3473
  A 39.60 39.08 -97.0 0 0 218.6740 298.8052
  Z
  M 364.3476 325.7737
  A 38.26 37.86 -105.0 0 0 337.6800 372.5289
  A 38.26 37.86 -105.0 0 0 384.1524 399.6863
  A 38.26 37.86 -105.0 0 0 410.8200 352.9311
  A 38.26 37.86 -105.0 0 0 364.3476 325.7737
  Z
  M 180.81 706.36
  Q 168.71 706.98 156.72 707.07
  Q 155.33 707.08 149.01 707.58
  Q 145.16 707.89 141.27 707.43
  Q 143.31 704.26 143.37 701.50
  Q 144.12 662.37 144.31 630.27
  A 0.37 0.36 -66.4 0 1 144.94 630.02
  C 148.88 634.21 157.74 645.58 164.21 641.55
  C 169.81 638.05 168.62 630.50 164.74 626.24
  Q 157.22 617.99 147.83 608.53
  C 142.88 603.56 137.55 599.71 131.38 598.94
  Q 123.12 597.91 112.99 599.00
  Q 103.34 600.03 97.52 605.33
  Q 91.32 610.96 86.59 620.08
  Q 80.44 631.95 77.27 637.77
  C 75.31 641.34 74.34 645.80 77.08 649.16
  C 80.68 653.60 87.18 651.41 90.01 647.34
  Q 92.35 643.97 98.10 634.31
  A 0.49 0.49 0.0 0 1 99.01 634.53
  C 99.47 641.96 99.15 649.42 99.18 656.50
  Q 99.31 692.91 99.31 701.75
  Q 99.32 705.62 102.80 708.71
  L 96.31 711.51
  A 1.34 1.34 0.0 0 0 95.85 713.65
  Q 96.91 714.79 98.92 715.17
  Q 105.66 716.42 112.29 716.88
  Q 134.04 718.40 152.97 719.21
  C 166.69 719.80 178.87 719.15 191.17 719.85
  Q 202.81 720.52 219.84 720.29
  Q 260.54 719.75 302.62 717.77
  C 312.62 717.31 320.56 715.98 329.83 716.39
  Q 336.82 716.69 343.38 717.43
  C 354.55 718.68 367.39 718.49 376.79 718.40
  Q 380.60 718.36 388.64 718.52
  C 403.92 718.81 419.70 717.41 436.12 716.23
  Q 443.64 715.70 449.37 716.25
  Q 462.29 717.50 462.63 717.56
  Q 468.78 718.69 476.56 718.36
  Q 481.12 718.16 502.00 718.80
  Q 512.91 719.14 534.02 718.70
  C 542.16 718.53 551.07 717.64 559.00 717.94
  Q 564.06 718.13 569.47 717.47
  Q 579.09 716.29 579.91 716.15
  Q 582.83 715.67 584.92 714.71
  A 1.67 1.32 -25.8 0 0 585.87 712.76
  Q 585.60 712.24 584.41 711.86
  Q 580.89 710.73 577.27 709.98
  Q 576.32 709.78 574.39 710.31
  Q 572.45 710.84 571.50 710.15
  Q 581.00 701.56 577.42 689.85
  C 576.09 685.48 572.79 682.73 568.26 680.30
  Q 556.18 673.81 550.53 660.42
  A 1.48 1.48 0.0 0 1 551.16 658.56
  Q 571.77 646.77 579.39 624.22
  Q 582.89 613.86 583.32 612.33
  C 585.10 605.95 586.41 596.11 576.99 596.42
  C 561.20 596.94 540.96 597.04 511.01 596.96
  Q 504.09 596.94 500.75 591.49
  C 497.49 586.16 495.06 581.23 491.20 575.30
  Q 483.90 564.09 478.75 554.99
  Q 472.75 544.37 461.38 528.63
  Q 458.75 524.97 457.39 519.87
  C 451.94 499.41 449.34 488.90 443.93 470.41
  Q 439.59 455.55 435.94 442.56
  Q 433.70 434.61 431.00 428.51
  C 424.36 413.51 408.09 406.72 392.55 405.55
  C 384.58 404.96 370.79 405.28 361.24 405.48
  Q 352.60 405.66 342.94 408.70
  C 332.80 411.88 324.77 417.71 319.47 426.46
  Q 314.64 434.44 313.21 440.34
  Q 308.40 460.27 305.59 471.26
  A 0.34 0.34 0.0 0 1 304.92 471.23
  Q 300.98 446.30 299.58 437.45
  Q 297.27 422.80 291.03 411.18
  C 284.50 399.00 270.02 390.59 257.06 387.17
  Q 248.05 384.79 238.24 383.68
  Q 235.06 383.32 225.13 383.38
  Q 212.32 383.45 212.00 383.46
  Q 202.95 383.66 192.81 385.58
  C 179.06 388.19 168.28 394.43 158.99 404.38
  C 149.13 414.92 146.03 428.61 143.32 442.41
  Q 141.90 449.61 141.67 452.24
  Q 138.38 489.61 136.53 520.28
  C 136.21 525.61 136.03 533.11 137.29 537.21
  Q 140.90 548.95 152.25 548.87
  C 162.24 548.80 166.39 540.36 167.33 531.67
  Q 168.31 522.63 168.99 517.29
  Q 172.64 488.52 177.17 451.57
  A 0.22 0.20 -84.9 0 1 177.37 451.39
  L 177.64 451.39
  A 0.19 0.18 -90.0 0 1 177.82 451.58
  Q 178.31 482.26 177.97 514.74
  Q 177.76 535.73 177.82 577.75
  Q 177.93 655.12 177.85 695.00
  Q 177.84 701.02 180.81 706.36
  Z
  M 928.81 709.19
  Q 922.94 708.96 912.75 709.78
  Q 882.87 712.21 879.52 712.75
  Q 877.69 713.05 876.19 713.96
  A 1.18 1.17 -50.8 0 0 876.40 716.07
  Q 881.24 717.84 886.96 718.52
  Q 902.78 720.43 920.67 721.48
  Q 947.00 723.04 947.14 723.04
  C 974.85 724.48 996.15 723.86 1032.07 723.68
  C 1050.65 723.58 1068.57 722.75 1083.76 722.08
  Q 1090.02 721.81 1124.13 718.85
  Q 1132.51 718.12 1139.08 716.34
  Q 1140.74 715.89 1141.75 715.02
  A 0.38 0.37 36.3 0 0 1141.65 714.39
  Q 1136.90 712.42 1130.08 711.46
  Q 1112.43 708.98 1097.74 708.37
  C 1095.16 708.27 1091.77 708.00 1090.08 710.29
  Q 1089.16 711.53 1087.53 712.51
  Q 1092.26 705.55 1092.89 698.11
  Q 1094.21 682.47 1095.16 678.32
  A 0.13 0.11 -44.6 0 1 1095.40 678.30
  Q 1095.40 678.36 1095.48 678.42
  A 0.24 0.03 -85.2 0 0 1095.53 678.18
  Q 1095.96 674.13 1098.35 671.08
  C 1101.96 666.48 1106.51 661.78 1110.14 656.00
  Q 1120.21 639.96 1124.94 620.74
  Q 1127.70 609.52 1127.60 597.69
  A 1.00 1.00 0.0 0 1 1128.45 596.69
  C 1134.78 595.76 1140.97 594.50 1145.92 589.91
  Q 1149.84 586.28 1151.66 585.23
  A 4.47 4.37 -64.8 0 1 1153.11 584.69
  C 1157.32 583.93 1159.81 583.25 1162.91 580.41
  Q 1165.05 578.46 1169.57 573.56
  A 5.19 5.19 0.0 0 0 1170.78 568.69
  L 1170.47 567.53
  A 2.67 2.66 62.2 0 0 1166.16 566.19
  C 1163.03 568.87 1160.50 573.35 1156.00 574.34
  A 1.88 1.87 -17.8 0 1 1153.88 573.26
  C 1152.21 569.40 1150.29 564.97 1147.26 562.86
  C 1144.13 560.69 1140.21 559.79 1136.52 561.06
  C 1128.20 563.92 1126.29 571.98 1130.00 579.32
  Q 1131.62 582.51 1135.10 584.18
  A 0.72 0.72 0.0 0 1 1134.97 585.52
  L 1128.54 587.24
  A 1.71 1.70 -13.4 0 1 1126.43 585.95
  Q 1123.91 574.10 1122.42 568.05
  Q 1120.81 561.55 1118.58 556.64
  Q 1107.32 531.80 1086.46 515.30
  Q 1083.21 512.73 1079.60 510.54
  A 2.87 2.65 82.3 0 1 1078.97 510.02
  Q 1077.99 508.94 1076.10 508.19
  A 2.62 2.58 -11.1 0 1 1075.13 507.55
  Q 1074.90 507.31 1072.69 506.26
  A 5.29 4.79 74.4 0 1 1071.71 505.64
  Q 1068.91 503.37 1068.02 502.99
  C 1062.46 500.66 1057.18 497.35 1051.20 495.16
  Q 1046.86 493.58 1042.55 492.47
  Q 1035.37 490.63 1034.95 490.48
  C 1030.15 488.76 1025.45 488.60 1019.99 487.34
  C 1017.25 486.70 1014.48 486.82 1012.19 486.49
  Q 1010.49 486.24 1006.32 486.57
  Q 991.10 487.80 982.45 489.24
  Q 973.23 490.77 964.30 494.04
  Q 962.63 494.66 951.94 499.73
  A 0.97 0.96 52.8 0 1 950.89 499.58
  C 949.00 497.92 946.30 495.39 944.41 494.11
  Q 930.37 484.62 913.26 482.34
  C 908.00 481.64 901.49 482.93 899.07 488.16
  C 897.58 491.37 898.96 495.62 900.10 499.67
  Q 902.66 508.81 906.88 517.81
  C 909.08 522.49 910.73 527.06 907.83 530.82
  C 900.75 540.00 895.14 547.38 891.77 558.26
  Q 890.59 562.06 888.91 564.39
  C 884.39 570.66 877.58 568.43 871.62 569.59
  C 861.08 571.65 859.21 580.36 859.68 590.02
  Q 860.47 605.76 860.05 612.93
  Q 859.66 619.59 860.99 622.83
  Q 863.16 628.12 867.49 630.55
  C 871.49 632.79 877.27 633.36 880.88 634.60
  Q 886.38 636.50 889.85 639.72
  C 893.39 642.99 895.35 649.20 897.96 652.77
  Q 906.87 664.96 916.78 673.72
  C 920.73 677.21 923.30 680.25 923.78 684.75
  Q 924.66 692.92 925.88 700.68
  Q 926.61 705.29 928.81 709.19
  Z
  M 583.82 583.32
  C 581.71 566.83 575.73 551.91 564.40 539.89
  Q 549.31 523.87 528.03 517.72
  C 521.28 515.77 512.13 512.73 506.13 518.05
  C 504.24 519.73 503.45 522.06 503.47 524.50
  Q 503.66 548.76 503.54 585.99
  C 503.51 592.97 507.74 593.94 514.08 593.79
  Q 521.07 593.63 575.50 593.93
  Q 578.85 593.95 581.00 592.60
  C 583.81 590.82 584.18 586.14 583.82 583.32
  Z
  M 125.4867 546.0843
  A 23.25 22.76 -79.3 0 0 98.8057 564.7042
  A 23.25 22.76 -79.3 0 0 116.8533 591.7757
  A 23.25 22.76 -79.3 0 0 143.5343 573.1558
  A 23.25 22.76 -79.3 0 0 125.4867 546.0843
  Z"
/>
<path fill="#184e96" d="
  M 1033.65 322.17
  Q 1024.69 326.17 1016.51 332.25
  A 0.34 0.33 -22.3 0 1 1015.98 332.03
  L 1015.90 331.54
  L 1049.11 140.22
  A 0.82 0.81 9.4 0 0 1048.43 139.28
  L 798.90 99.26
  A 0.69 0.68 -81.3 0 0 798.12 99.84
  Q 795.65 117.91 792.65 134.51
  Q 778.64 211.90 763.19 301.42
  Q 748.42 387.00 744.20 411.63
  A 0.72 0.72 0.0 0 0 744.80 412.46
  L 993.96 452.51
  Q 997.15 454.31 999.62 457.71
  C 1001.13 459.78 1002.51 461.44 1001.42 463.91
  C 999.70 467.81 995.65 468.23 991.50 467.70
  C 977.90 465.97 964.16 463.36 952.49 461.48
  Q 929.78 457.82 924.20 456.92
  Q 834.17 442.43 764.72 431.10
  C 755.28 429.56 746.89 427.63 738.83 426.69
  C 730.95 425.77 725.74 423.73 727.28 415.00
  Q 737.58 356.58 746.55 305.36
  Q 749.37 289.27 752.11 273.17
  Q 761.27 219.22 778.10 119.43
  C 779.60 110.55 781.21 103.37 782.23 95.97
  C 783.51 86.61 786.24 80.77 796.80 82.46
  Q 1004.01 115.55 1057.93 124.36
  C 1064.52 125.44 1066.89 132.00 1065.72 138.46
  C 1059.44 173.05 1049.61 231.97 1037.19 300.99
  Q 1035.31 311.46 1033.65 322.17
  Z"
/>
<path fill="#edf8f4" d="
  M 1015.90 331.54
  L 1015.85 332.80
  A 1.00 0.99 -15.2 0 1 1015.39 333.60
  Q 1008.15 338.27 1003.27 344.29
  Q 998.93 349.64 994.27 356.77
  Q 984.94 371.06 982.14 387.89
  A 3.02 2.97 -27.8 0 1 981.90 388.64
  Q 981.09 390.30 980.87 393.01
  Q 979.96 404.69 980.13 410.32
  A 6.24 5.52 41.5 0 0 980.24 411.22
  Q 980.92 414.37 980.99 414.98
  Q 982.10 425.21 984.44 431.82
  Q 987.63 440.82 993.49 450.33
  Q 994.72 450.97 993.96 452.51
  L 744.80 412.46
  A 0.72 0.72 0.0 0 1 744.20 411.63
  Q 748.42 387.00 763.19 301.42
  Q 778.64 211.90 792.65 134.51
  Q 795.65 117.91 798.12 99.84
  A 0.69 0.68 -81.3 0 1 798.90 99.26
  L 1048.43 139.28
  A 0.82 0.81 9.4 0 1 1049.11 140.22
  L 1015.90 331.54
  Z
  M 849.88 152.75
  L 840.88 204.14
  A 3.63 3.61 -69.8 0 0 842.60 207.88
  C 846.55 210.22 854.64 210.87 855.63 204.56
  Q 859.10 182.33 862.31 165.31
  Q 863.33 159.87 863.92 154.77
  A 0.78 0.78 0.0 0 1 864.84 154.10
  Q 872.46 155.53 878.04 156.15
  Q 882.63 156.66 883.81 152.06
  Q 885.63 144.98 878.73 143.78
  Q 865.02 141.39 842.14 137.85
  C 837.44 137.13 833.52 135.84 832.20 141.15
  C 831.18 145.25 831.51 148.99 836.33 149.68
  Q 837.54 149.86 849.26 151.87
  A 0.76 0.76 0.0 0 1 849.88 152.75
  Z
  M 915.23 203.67
  C 916.38 211.02 916.90 217.30 918.08 218.95
  C 919.83 221.42 924.18 221.78 928.01 222.12
  Q 931.73 222.46 931.73 219.06
  Q 931.73 216.03 931.17 212.55
  Q 924.93 173.39 921.74 155.27
  Q 921.18 152.13 919.61 150.86
  Q 915.73 147.73 908.27 147.71
  C 903.79 147.70 901.40 150.88 899.80 154.58
  Q 898.54 157.48 890.70 172.25
  C 883.03 186.69 878.73 195.80 872.17 208.43
  C 868.97 214.58 879.82 214.93 882.91 214.42
  A 3.58 3.57 8.0 0 0 885.53 212.45
  L 891.68 199.69
  A 1.10 1.10 0.0 0 1 892.86 199.08
  L 914.43 202.86
  A 0.98 0.98 0.0 0 1 915.23 203.67
  Z
  M 967.68 180.67
  Q 966.10 177.30 964.69 172.15
  C 963.31 167.12 962.49 165.17 960.52 159.73
  C 958.77 154.86 952.44 154.32 948.11 155.18
  C 945.47 155.71 944.76 157.41 945.65 159.88
  Q 951.17 175.26 957.26 190.39
  A 1.45 1.44 -37.0 0 1 957.06 191.80
  Q 948.26 203.18 938.68 214.42
  Q 936.45 217.04 935.33 219.39
  A 2.60 2.59 25.3 0 0 936.58 222.86
  Q 941.63 225.20 946.36 224.72
  A 4.71 4.70 -74.7 0 0 949.68 222.82
  L 963.43 204.19
  A 0.69 0.69 0.0 0 1 964.63 204.37
  Q 966.13 208.68 971.46 224.28
  Q 972.75 228.05 974.30 228.76
  Q 979.70 231.24 985.54 230.48
  A 2.68 2.68 0.0 0 0 987.88 227.72
  Q 987.82 226.23 987.03 224.24
  Q 981.00 208.99 978.07 200.69
  Q 976.69 196.78 974.90 193.00
  A 1.31 1.29 -37.4 0 1 975.10 191.58
  Q 985.62 179.51 994.75 167.51
  C 1000.60 159.84 988.77 158.57 984.68 159.89
  A 4.47 4.43 9.1 0 0 982.46 161.48
  L 968.27 180.73
  A 0.35 0.34 -38.9 0 1 967.68 180.67
  Z
  M 817.80 254.42
  Q 812.90 244.24 811.77 242.02
  C 807.15 232.93 796.88 239.33 801.20 247.48
  Q 806.13 256.80 808.34 261.21
  C 810.59 265.68 813.00 268.72 817.75 269.66
  C 823.98 270.91 826.26 265.30 830.82 262.10
  Q 836.30 258.24 841.81 253.26
  C 845.65 249.79 849.26 247.58 852.97 244.72
  Q 855.84 242.51 856.24 241.14
  Q 857.63 236.42 854.33 233.82
  C 850.32 230.67 846.02 233.83 843.02 236.27
  Q 834.70 243.08 821.71 253.45
  Q 820.17 254.68 818.84 254.94
  A 0.95 0.95 0.0 0 1 817.80 254.42
  Z
  M 994.6775 275.2349
  A 6.80 6.80 0.0 0 0 989.0658 267.4254
  L 875.3011 248.7957
  A 6.80 6.80 0.0 0 0 867.4916 254.4074
  L 867.4625 254.5851
  A 6.80 6.80 0.0 0 0 873.0742 262.3946
  L 986.8389 281.0243
  A 6.80 6.80 0.0 0 0 994.6484 275.4126
  L 994.6775 275.2349
  Z
  M 809.30 310.62
  A 0.87 0.86 -35.1 0 1 808.12 310.42
  C 805.12 306.36 803.32 300.95 801.64 297.11
  Q 799.59 292.43 794.20 293.38
  C 788.99 294.30 789.25 300.27 791.42 303.86
  Q 794.84 309.52 799.17 318.69
  C 801.42 323.46 804.97 327.60 810.49 326.39
  Q 812.45 325.96 816.47 321.81
  Q 818.23 319.99 824.09 315.33
  Q 827.00 313.02 841.55 301.36
  C 845.56 298.14 847.97 296.73 845.57 291.89
  C 842.65 286.02 836.95 288.94 833.38 291.89
  C 825.56 298.34 817.77 305.01 809.30 310.62
  Z
  M 984.6144 330.8106
  A 6.60 6.60 0.0 0 0 979.1677 323.2308
  L 865.0675 304.5461
  A 6.60 6.60 0.0 0 0 857.4876 309.9928
  L 857.4456 310.2494
  A 6.60 6.60 0.0 0 0 862.8923 317.8292
  L 976.9925 336.5139
  A 6.60 6.60 0.0 0 0 984.5724 331.0672
  L 984.6144 330.8106
  Z
  M 798.10 366.80
  A 0.66 0.66 0.0 0 1 797.19 366.52
  Q 794.39 361.08 791.20 353.55
  C 789.31 349.09 785.44 346.18 781.14 350.23
  C 778.26 352.94 778.80 356.44 780.49 359.78
  Q 783.83 366.42 787.63 373.94
  Q 789.78 378.19 791.67 380.00
  C 799.35 387.34 804.39 378.98 809.99 374.98
  Q 817.21 369.82 822.12 365.19
  C 825.89 361.64 828.44 360.16 832.79 356.81
  Q 836.61 353.87 835.05 349.24
  C 832.27 341.01 826.03 344.81 821.53 348.55
  Q 813.34 355.35 805.09 362.08
  Q 801.81 364.77 798.10 366.80
  Z
  M 974.4518 387.3368
  A 6.64 6.64 0.0 0 0 968.9854 379.7015
  L 854.0893 360.6806
  A 6.64 6.64 0.0 0 0 846.4539 366.1469
  L 846.4082 366.4232
  A 6.64 6.64 0.0 0 0 851.8746 374.0585
  L 966.7707 393.0794
  A 6.64 6.64 0.0 0 0 974.4061 387.6131
  L 974.4518 387.3368
  Z"
/>
<path fill="#184e96" d="
  M 849.26 151.87
  Q 837.54 149.86 836.33 149.68
  C 831.51 148.99 831.18 145.25 832.20 141.15
  C 833.52 135.84 837.44 137.13 842.14 137.85
  Q 865.02 141.39 878.73 143.78
  Q 885.63 144.98 883.81 152.06
  Q 882.63 156.66 878.04 156.15
  Q 872.46 155.53 864.84 154.10
  A 0.78 0.78 0.0 0 0 863.92 154.77
  Q 863.33 159.87 862.31 165.31
  Q 859.10 182.33 855.63 204.56
  C 854.64 210.87 846.55 210.22 842.60 207.88
  A 3.63 3.61 -69.8 0 1 840.88 204.14
  L 849.88 152.75
  A 0.76 0.76 0.0 0 0 849.26 151.87
  Z"
/>
<path fill="#184e96" d="
  M 914.43 202.86
  L 892.86 199.08
  A 1.10 1.10 0.0 0 0 891.68 199.69
  L 885.53 212.45
  A 3.58 3.57 8.0 0 1 882.91 214.42
  C 879.82 214.93 868.97 214.58 872.17 208.43
  C 878.73 195.80 883.03 186.69 890.70 172.25
  Q 898.54 157.48 899.80 154.58
  C 901.40 150.88 903.79 147.70 908.27 147.71
  Q 915.73 147.73 919.61 150.86
  Q 921.18 152.13 921.74 155.27
  Q 924.93 173.39 931.17 212.55
  Q 931.73 216.03 931.73 219.06
  Q 931.73 222.46 928.01 222.12
  C 924.18 221.78 919.83 221.42 918.08 218.95
  C 916.90 217.30 916.38 211.02 915.23 203.67
  A 0.98 0.98 0.0 0 0 914.43 202.86
  Z
  M 910.02 163.87
  A 0.41 0.41 0.0 0 0 909.25 163.75
  L 897.67 187.81
  A 0.41 0.41 0.0 0 0 897.96 188.39
  L 913.16 191.05
  A 0.41 0.41 0.0 0 0 913.63 190.59
  L 910.02 163.87
  Z"
/>
<path fill="#184e96" d="
  M 967.68 180.67
  A 0.35 0.34 -38.9 0 0 968.27 180.73
  L 982.46 161.48
  A 4.47 4.43 9.1 0 1 984.68 159.89
  C 988.77 158.57 1000.60 159.84 994.75 167.51
  Q 985.62 179.51 975.10 191.58
  A 1.31 1.29 -37.4 0 0 974.90 193.00
  Q 976.69 196.78 978.07 200.69
  Q 981.00 208.99 987.03 224.24
  Q 987.82 226.23 987.88 227.72
  A 2.68 2.68 0.0 0 1 985.54 230.48
  Q 979.70 231.24 974.30 228.76
  Q 972.75 228.05 971.46 224.28
  Q 966.13 208.68 964.63 204.37
  A 0.69 0.69 0.0 0 0 963.43 204.19
  L 949.68 222.82
  A 4.71 4.70 -74.7 0 1 946.36 224.72
  Q 941.63 225.20 936.58 222.86
  A 2.60 2.59 25.3 0 1 935.33 219.39
  Q 936.45 217.04 938.68 214.42
  Q 948.26 203.18 957.06 191.80
  A 1.45 1.44 -37.0 0 0 957.26 190.39
  Q 951.17 175.26 945.65 159.88
  C 944.76 157.41 945.47 155.71 948.11 155.18
  C 952.44 154.32 958.77 154.86 960.52 159.73
  C 962.49 165.17 963.31 167.12 964.69 172.15
  Q 966.10 177.30 967.68 180.67
  Z"
/>
<path fill="#edf8f4" d="
  M 910.02 163.87
  L 913.63 190.59
  A 0.41 0.41 0.0 0 1 913.16 191.05
  L 897.96 188.39
  A 0.41 0.41 0.0 0 1 897.67 187.81
  L 909.25 163.75
  A 0.41 0.41 0.0 0 1 910.02 163.87
  Z"
/>
<path fill="#3c7ed2" d="
  M 540.54 390.74
  A 0.64 0.64 0.0 0 0 541.53 390.34
  C 542.46 385.76 540.40 382.89 537.42 378.42
  C 535.49 375.54 536.02 371.57 536.10 366.88
  A 1.84 1.84 0.0 0 0 533.04 365.47
  C 531.35 366.96 531.25 372.37 531.44 374.50
  A 0.84 0.83 -6.1 0 1 530.71 375.40
  Q 528.38 375.71 527.33 374.63
  Q 523.24 370.44 518.10 367.83
  C 513.34 365.40 513.32 357.23 512.81 352.44
  C 512.35 348.20 511.17 345.37 507.93 342.82
  C 504.44 340.06 502.36 338.64 499.94 335.79
  Q 495.01 329.99 490.61 323.92
  A 6.46 6.38 -70.2 0 1 489.57 321.67
  Q 488.84 318.71 488.86 313.84
  A 5.50 5.27 -52.5 0 0 488.73 312.66
  Q 488.35 310.99 487.36 304.78
  Q 486.98 302.36 488.64 293.26
  C 489.74 287.24 488.93 282.85 485.63 277.35
  Q 482.46 272.07 477.64 265.69
  C 473.81 260.63 471.75 255.27 473.43 249.13
  Q 473.61 248.47 477.56 243.21
  C 481.96 237.32 482.19 232.52 484.11 223.45
  A 7.91 7.49 65.2 0 1 484.69 221.73
  Q 486.23 218.46 486.66 217.43
  C 488.84 212.21 487.14 204.43 485.32 199.22
  C 483.61 194.33 481.22 184.46 488.06 182.36
  Q 488.88 182.11 493.93 182.21
  C 499.89 182.33 505.76 183.39 511.71 183.72
  Q 548.62 185.75 593.75 189.24
  Q 599.41 189.67 622.36 190.60
  C 632.39 191.00 630.90 200.62 630.48 208.51
  Q 628.96 237.35 625.80 324.26
  Q 625.57 330.62 630.25 335.01
  Q 647.24 350.95 660.82 364.64
  C 671.37 375.27 682.78 385.47 693.96 397.11
  C 698.27 401.59 702.46 405.20 707.28 410.22
  C 713.54 416.75 722.92 424.19 727.58 429.81
  C 732.74 436.01 741.04 442.32 747.32 448.61
  Q 760.86 462.16 790.21 491.32
  Q 803.53 504.54 808.95 509.15
  C 811.22 511.07 812.16 514.95 813.22 517.52
  A 15.13 14.79 -73.6 0 0 814.59 520.10
  Q 818.47 525.88 819.28 528.35
  Q 820.63 532.46 822.28 534.17
  Q 824.16 536.13 828.61 540.38
  Q 829.54 541.27 829.85 543.67
  A 1.52 1.50 60.3 0 1 829.56 544.75
  C 826.23 549.24 817.20 550.66 818.20 556.93
  Q 819.38 564.33 818.24 571.42
  A 6.82 6.79 66.3 0 1 817.22 574.06
  C 814.43 578.27 812.40 580.94 813.05 586.10
  Q 813.62 590.66 813.77 594.64
  A 1.47 1.46 -86.9 0 0 815.01 596.03
  C 818.70 596.59 820.46 598.91 820.27 602.56
  Q 819.97 608.49 814.44 610.70
  C 811.05 612.05 806.49 611.31 802.52 611.52
  C 797.39 611.78 791.48 613.47 785.72 613.67
  C 780.24 613.86 774.43 613.86 768.48 615.02
  Q 758.61 616.93 748.38 616.92
  A 19.50 19.27 -49.3 0 0 745.04 617.19
  Q 742.29 617.65 732.83 619.18
  C 719.06 621.39 719.00 608.59 717.66 598.83
  C 717.29 596.11 715.03 592.73 712.95 590.34
  Q 702.93 578.84 689.06 569.92
  C 683.60 566.41 679.58 565.59 673.88 566.79
  A 0.93 0.93 0.0 0 1 672.76 565.77
  C 673.69 557.43 667.34 555.01 660.48 553.81
  Q 652.37 552.39 645.65 547.35
  C 641.53 544.26 637.00 540.21 632.98 538.94
  C 622.02 535.49 607.35 538.32 595.91 532.58
  C 589.00 529.11 591.09 522.38 592.65 516.49
  C 593.82 512.09 594.22 505.06 588.86 502.77
  A 1.61 1.61 0.0 0 1 587.91 500.97
  C 588.87 496.09 586.08 493.06 582.40 489.49
  C 579.11 486.29 573.93 482.52 570.80 477.76
  C 567.60 472.90 563.50 466.66 559.39 461.73
  C 554.11 455.39 550.37 449.48 548.11 442.23
  Q 547.65 440.75 548.25 437.73
  A 2.88 2.81 -24.1 0 1 548.64 436.74
  Q 551.07 432.77 552.69 429.24
  C 556.97 419.87 542.20 418.57 537.90 415.50
  Q 532.53 411.68 531.15 405.31
  A 0.65 0.34 54.5 0 1 531.13 405.16
  L 531.01 398.86
  A 6.59 6.58 -54.7 0 0 530.68 396.93
  C 530.11 395.03 528.64 392.59 528.45 389.96
  C 528.26 387.41 527.63 382.09 529.81 380.73
  A 2.58 1.94 42.2 0 1 532.30 380.96
  Q 533.75 381.92 539.19 389.33
  Q 539.90 390.29 540.54 390.74
  Z
  M 561.36 307.65
  L 577.02 319.20
  A 0.25 0.25 0.0 0 0 577.41 318.94
  L 572.39 300.17
  A 0.94 0.93 63.7 0 1 572.72 299.19
  L 587.78 287.40
  A 0.59 0.59 0.0 0 0 587.42 286.35
  L 569.08 286.35
  A 1.75 1.74 80.7 0 1 567.43 285.16
  L 561.69 267.85
  A 0.47 0.47 0.0 0 0 560.81 267.82
  Q 557.34 276.56 554.36 283.56
  Q 553.26 286.12 551.60 286.13
  Q 543.60 286.14 535.27 286.38
  Q 534.46 286.40 534.30 286.55
  A 0.60 0.60 0.0 0 0 534.33 287.47
  L 548.09 298.08
  A 2.08 2.07 -63.3 0 1 548.82 300.30
  L 543.54 319.03
  A 0.22 0.21 -9.5 0 0 543.87 319.26
  L 560.61 307.64
  A 0.65 0.65 0.0 0 1 561.36 307.65
  Z"
/>
<path fill="#184e96" d="
  M 818.84 254.94
  Q 820.17 254.68 821.71 253.45
  Q 834.70 243.08 843.02 236.27
  C 846.02 233.83 850.32 230.67 854.33 233.82
  Q 857.63 236.42 856.24 241.14
  Q 855.84 242.51 852.97 244.72
  C 849.26 247.58 845.65 249.79 841.81 253.26
  Q 836.30 258.24 830.82 262.10
  C 826.26 265.30 823.98 270.91 817.75 269.66
  C 813.00 268.72 810.59 265.68 808.34 261.21
  Q 806.13 256.80 801.20 247.48
  C 796.88 239.33 807.15 232.93 811.77 242.02
  Q 812.90 244.24 817.80 254.42
  A 0.95 0.95 0.0 0 0 818.84 254.94
  Z"
/>
<rect fill="#184e96" x="-64.44" y="-6.89" transform="translate(931.07,264.91) rotate(9.3)" width="128.88" height="13.78" rx="6.80"/>
<path fill="#fecb3c" d="
  M 560.61 307.64
  L 543.87 319.26
  A 0.22 0.21 -9.5 0 1 543.54 319.03
  L 548.82 300.30
  A 2.08 2.07 -63.3 0 0 548.09 298.08
  L 534.33 287.47
  A 0.60 0.60 0.0 0 1 534.30 286.55
  Q 534.46 286.40 535.27 286.38
  Q 543.60 286.14 551.60 286.13
  Q 553.26 286.12 554.36 283.56
  Q 557.34 276.56 560.81 267.82
  A 0.47 0.47 0.0 0 1 561.69 267.85
  L 567.43 285.16
  A 1.75 1.74 80.7 0 0 569.08 286.35
  L 587.42 286.35
  A 0.59 0.59 0.0 0 1 587.78 287.40
  L 572.72 299.19
  A 0.94 0.93 63.7 0 0 572.39 300.17
  L 577.41 318.94
  A 0.25 0.25 0.0 0 1 577.02 319.20
  L 561.36 307.65
  A 0.65 0.65 0.0 0 0 560.61 307.64
  Z"
/>
<path fill="#184e96" d="
  M 809.30 310.62
  C 817.77 305.01 825.56 298.34 833.38 291.89
  C 836.95 288.94 842.65 286.02 845.57 291.89
  C 847.97 296.73 845.56 298.14 841.55 301.36
  Q 827.00 313.02 824.09 315.33
  Q 818.23 319.99 816.47 321.81
  Q 812.45 325.96 810.49 326.39
  C 804.97 327.60 801.42 323.46 799.17 318.69
  Q 794.84 309.52 791.42 303.86
  C 789.25 300.27 788.99 294.30 794.20 293.38
  Q 799.59 292.43 801.64 297.11
  C 803.32 300.95 805.12 306.36 808.12 310.42
  A 0.87 0.86 -35.1 0 0 809.30 310.62
  Z"
/>
<ellipse fill="#184e96" cx="0.00" cy="0.00" transform="translate(223.50,338.11) rotate(-97.0)" rx="39.60" ry="39.08"/>
<rect fill="#184e96" x="-64.41" y="-6.73" transform="translate(921.03,320.53) rotate(9.3)" width="128.82" height="13.46" rx="6.60"/>
<path fill="#fecb3c" d="
  M 1148.09 367.12
  Q 1144.87 362.74 1141.99 358.24
  Q 1139.60 354.49 1136.07 351.43
  A 0.22 0.22 0.0 0 0 1135.74 351.72
  Q 1152.23 375.24 1151.80 404.49
  Q 1151.59 419.20 1147.16 431.66
  Q 1143.51 441.90 1135.88 453.02
  C 1128.79 463.34 1118.85 471.09 1108.25 477.78
  Q 1100.29 482.81 1088.76 485.77
  Q 1072.36 489.99 1055.98 488.82
  A 0.20 0.20 0.0 0 0 1055.81 489.14
  L 1056.94 490.55
  Q 1049.01 489.07 1039.16 485.54
  Q 1034.79 483.98 1032.69 482.15
  A 1.55 1.49 77.1 0 0 1032.34 481.92
  L 1028.09 480.01
  A 2.66 2.57 77.6 0 1 1027.35 479.52
  Q 1025.68 477.96 1023.76 477.84
  A 0.80 0.79 -9.4 0 1 1023.07 477.35
  Q 1023.00 477.18 1021.75 476.28
  Q 1015.45 471.77 1013.39 470.55
  C 1011.99 469.73 1011.37 468.34 1010.09 467.82
  Q 1009.41 467.54 1008.88 467.00
  Q 1004.66 462.70 1004.14 462.29
  A 3.31 3.25 -79.6 0 1 1003.00 460.61
  Q 1002.26 458.08 1001.38 456.87
  Q 998.68 453.19 993.49 450.33
  Q 987.63 440.82 984.44 431.82
  Q 982.10 425.21 980.99 414.98
  Q 980.92 414.37 980.24 411.22
  A 6.24 5.52 41.5 0 1 980.13 410.32
  Q 979.96 404.69 980.87 393.01
  Q 981.09 390.30 981.90 388.64
  A 3.02 2.97 -27.8 0 0 982.14 387.89
  Q 984.94 371.06 994.27 356.77
  Q 998.93 349.64 1003.27 344.29
  Q 1008.15 338.27 1015.39 333.60
  A 1.00 0.99 -15.2 0 0 1015.85 332.80
  L 1015.90 331.54
  L 1015.98 332.03
  A 0.34 0.33 -22.3 0 0 1016.51 332.25
  Q 1024.69 326.17 1033.65 322.17
  L 1041.84 318.33
  A 3.47 3.44 -62.3 0 1 1042.76 318.04
  C 1046.53 317.43 1048.93 317.00 1051.14 316.32
  Q 1055.19 315.07 1069.51 315.10
  Q 1073.15 315.10 1074.17 315.72
  A 1.48 1.46 -29.3 0 0 1074.98 315.94
  Q 1079.37 315.89 1080.92 316.19
  Q 1098.84 319.61 1113.75 330.11
  A 4.05 3.50 -10.5 0 0 1114.35 330.46
  Q 1117.48 331.88 1119.96 334.71
  A 1.16 1.13 -6.0 0 0 1120.29 334.97
  L 1122.59 336.13
  A 1.90 1.81 -9.5 0 1 1123.09 336.47
  Q 1134.63 347.23 1140.71 354.76
  Q 1144.49 359.45 1148.09 367.12
  Z
  M 1135.72 381.21
  C 1132.08 370.37 1127.02 360.31 1119.48 352.53
  C 1108.08 340.75 1096.20 332.52 1079.87 329.65
  C 1066.46 327.28 1050.41 328.41 1038.26 334.38
  Q 1028.60 339.12 1016.67 349.40
  C 1015.36 350.53 1013.26 352.94 1012.41 354.16
  Q 1005.89 363.63 1004.18 366.18
  C 999.50 373.16 997.85 379.70 995.40 388.65
  C 991.48 402.93 992.75 417.38 998.55 430.95
  C 1002.52 440.23 1006.48 447.76 1013.71 454.54
  C 1026.16 466.22 1041.53 474.26 1058.66 475.79
  C 1073.67 477.13 1086.89 474.02 1100.29 467.72
  C 1108.99 463.64 1115.41 457.38 1121.77 450.50
  C 1138.22 432.72 1143.24 403.66 1135.72 381.21
  Z"
/>
<ellipse fill="#184e96" cx="0.00" cy="0.00" transform="translate(374.25,362.73) rotate(-105.0)" rx="38.26" ry="37.86"/>
<path fill="#eaa927" d="
  M 1135.72 381.21
  C 1143.24 403.66 1138.22 432.72 1121.77 450.50
  C 1115.41 457.38 1108.99 463.64 1100.29 467.72
  C 1086.89 474.02 1073.67 477.13 1058.66 475.79
  C 1041.53 474.26 1026.16 466.22 1013.71 454.54
  C 1006.48 447.76 1002.52 440.23 998.55 430.95
  C 992.75 417.38 991.48 402.93 995.40 388.65
  C 997.85 379.70 999.50 373.16 1004.18 366.18
  Q 1005.89 363.63 1012.41 354.16
  C 1013.26 352.94 1015.36 350.53 1016.67 349.40
  Q 1028.60 339.12 1038.26 334.38
  C 1050.41 328.41 1066.46 327.28 1079.87 329.65
  C 1096.20 332.52 1108.08 340.75 1119.48 352.53
  C 1127.02 360.31 1132.08 370.37 1135.72 381.21
  Z
  M 1003.22 427.30
  Q 1004.89 432.34 1007.64 436.61
  C 1014.71 447.56 1023.82 457.23 1035.69 462.79
  C 1054.96 471.80 1078.81 471.81 1097.85 461.10
  Q 1107.50 455.68 1111.70 451.69
  Q 1121.62 442.26 1127.57 428.54
  C 1133.84 414.07 1133.35 398.70 1129.37 383.45
  C 1126.66 373.05 1120.38 363.24 1113.23 355.55
  C 1105.08 346.79 1095.24 341.17 1083.45 337.46
  Q 1074.59 334.67 1066.77 334.93
  Q 1049.29 335.51 1034.57 343.74
  C 1027.65 347.60 1021.54 353.65 1015.81 359.81
  Q 1013.29 362.52 1011.41 365.90
  C 1007.64 372.69 1003.88 380.35 1002.11 387.76
  C 999.04 400.59 998.88 414.20 1003.22 427.30
  Z"
/>
<path fill="#fecb3c" d="
  M 1003.22 427.30
  C 998.88 414.20 999.04 400.59 1002.11 387.76
  C 1003.88 380.35 1007.64 372.69 1011.41 365.90
  Q 1013.29 362.52 1015.81 359.81
  C 1021.54 353.65 1027.65 347.60 1034.57 343.74
  Q 1049.29 335.51 1066.77 334.93
  Q 1074.59 334.67 1083.45 337.46
  C 1095.24 341.17 1105.08 346.79 1113.23 355.55
  C 1120.38 363.24 1126.66 373.05 1129.37 383.45
  C 1133.35 398.70 1133.84 414.07 1127.57 428.54
  Q 1121.62 442.26 1111.70 451.69
  Q 1107.50 455.68 1097.85 461.10
  C 1078.81 471.81 1054.96 471.80 1035.69 462.79
  C 1023.82 457.23 1014.71 447.56 1007.64 436.61
  Q 1004.89 432.34 1003.22 427.30
  Z
  M 1028.27 377.25
  C 1025.80 390.20 1032.00 400.56 1045.77 400.95
  C 1056.84 401.26 1062.98 394.34 1064.97 383.91
  C 1067.43 370.95 1061.23 360.59 1047.46 360.21
  C 1036.39 359.90 1030.25 366.81 1028.27 377.25
  Z
  M 1062.26 400.69
  Q 1049.84 417.07 1036.76 433.50
  Q 1035.26 435.37 1034.43 437.55
  A 1.36 1.36 0.0 0 0 1034.43 438.53
  Q 1034.92 439.80 1037.15 440.55
  Q 1044.48 443.01 1048.87 437.38
  Q 1062.39 420.03 1071.40 408.15
  Q 1083.81 391.77 1096.90 375.35
  Q 1098.40 373.47 1099.23 371.29
  A 1.36 1.36 0.0 0 0 1099.23 370.31
  Q 1098.74 369.04 1096.51 368.29
  Q 1089.18 365.83 1084.78 371.46
  Q 1071.26 388.82 1062.26 400.69
  Z
  M 1069.19 422.88
  C 1066.45 435.75 1072.41 446.23 1086.13 446.91
  C 1097.17 447.46 1103.45 440.70 1105.66 430.33
  C 1108.39 417.46 1102.44 406.99 1088.71 406.30
  C 1077.68 405.75 1071.40 412.52 1069.19 422.88
  Z"
/>
<path fill="#184e96" d="
  M 798.10 366.80
  Q 801.81 364.77 805.09 362.08
  Q 813.34 355.35 821.53 348.55
  C 826.03 344.81 832.27 341.01 835.05 349.24
  Q 836.61 353.87 832.79 356.81
  C 828.44 360.16 825.89 361.64 822.12 365.19
  Q 817.21 369.82 809.99 374.98
  C 804.39 378.98 799.35 387.34 791.67 380.00
  Q 789.78 378.19 787.63 373.94
  Q 783.83 366.42 780.49 359.78
  C 778.80 356.44 778.26 352.94 781.14 350.23
  C 785.44 346.18 789.31 349.09 791.20 353.55
  Q 794.39 361.08 797.19 366.52
  A 0.66 0.66 0.0 0 0 798.10 366.80
  Z"
/>
<path fill="#eaa927" d="
  M 1148.09 367.12
  Q 1150.21 370.95 1150.56 372.01
  Q 1151.51 374.91 1152.37 375.60
  A 1.56 1.54 9.8 0 1 1152.90 376.34
  C 1154.57 381.13 1155.94 384.10 1155.87 386.26
  A 2.35 2.24 -58.2 0 0 1156.10 387.35
  Q 1158.35 391.95 1157.82 398.00
  A 2.82 2.75 41.1 0 0 1157.90 398.99
  L 1158.86 402.57
  A 0.56 0.26 -70.1 0 1 1158.87 402.68
  L 1158.87 415.59
  A 4.46 4.42 51.1 0 1 1158.78 416.48
  Q 1158.16 419.46 1157.46 424.40
  Q 1156.67 429.95 1156.01 432.30
  Q 1153.29 441.99 1147.56 450.84
  Q 1143.33 457.38 1139.65 461.91
  Q 1136.48 465.80 1131.56 470.31
  Q 1120.16 480.74 1105.79 486.45
  Q 1104.92 486.80 1103.72 486.88
  A 2.39 2.26 -57.9 0 0 1102.91 487.09
  Q 1099.34 488.70 1096.61 488.94
  A 1.06 1.03 -67.6 0 0 1096.01 489.20
  Q 1095.50 489.64 1095.01 489.68
  Q 1094.95 489.68 1088.12 490.83
  A 1.83 1.78 18.4 0 0 1087.23 491.26
  Q 1087.14 491.33 1087.05 491.42
  A 1.12 1.10 21.4 0 1 1086.33 491.73
  Q 1082.43 491.90 1079.59 492.31
  C 1072.27 493.36 1064.12 492.21 1056.94 490.55
  L 1055.81 489.14
  A 0.20 0.20 0.0 0 1 1055.98 488.82
  Q 1072.36 489.99 1088.76 485.77
  Q 1100.29 482.81 1108.25 477.78
  C 1118.85 471.09 1128.79 463.34 1135.88 453.02
  Q 1143.51 441.90 1147.16 431.66
  Q 1151.59 419.20 1151.80 404.49
  Q 1152.23 375.24 1135.74 351.72
  A 0.22 0.22 0.0 0 1 1136.07 351.43
  Q 1139.60 354.49 1141.99 358.24
  Q 1144.87 362.74 1148.09 367.12
  Z"
/>
<path fill="#184e96" d="
  M 1028.27 377.25
  C 1030.25 366.81 1036.39 359.90 1047.46 360.21
  C 1061.23 360.59 1067.43 370.95 1064.97 383.91
  C 1062.98 394.34 1056.84 401.26 1045.77 400.95
  C 1032.00 400.56 1025.80 390.20 1028.27 377.25
  Z
  M 1040.41 379.62
  Q 1039.10 389.92 1045.36 390.72
  Q 1051.63 391.51 1052.94 381.21
  Q 1054.24 370.90 1047.98 370.10
  Q 1041.71 369.31 1040.41 379.62
  Z"
/>
<rect fill="#184e96" x="-64.87" y="-6.78" transform="translate(910.43,376.88) rotate(9.4)" width="129.74" height="13.56" rx="6.64"/>
<path fill="#184e96" d="
  M 1071.40 408.15
  Q 1062.39 420.03 1048.87 437.38
  Q 1044.48 443.01 1037.15 440.55
  Q 1034.92 439.80 1034.43 438.53
  A 1.36 1.36 0.0 0 1 1034.43 437.55
  Q 1035.26 435.37 1036.76 433.50
  Q 1049.84 417.07 1062.26 400.69
  Q 1071.26 388.82 1084.78 371.46
  Q 1089.18 365.83 1096.51 368.29
  Q 1098.74 369.04 1099.23 370.31
  A 1.36 1.36 0.0 0 1 1099.23 371.29
  Q 1098.40 373.47 1096.90 375.35
  Q 1083.81 391.77 1071.40 408.15
  Z"
/>
<path fill="#fecb3c" d="
  M 1047.98 370.10
  Q 1054.24 370.90 1052.94 381.21
  Q 1051.63 391.51 1045.36 390.72
  Q 1039.10 389.92 1040.41 379.62
  Q 1041.71 369.31 1047.98 370.10
  Z"
/>
<path fill="#184e96" d="
  M 571.50 710.15
  Q 566.45 713.80 560.00 713.40
  Q 551.09 712.84 545.81 706.13
  C 541.92 699.12 542.90 692.60 546.47 685.74
  C 547.80 683.18 547.74 680.33 546.32 678.40
  Q 542.31 672.96 539.03 667.57
  A 2.68 2.67 77.6 0 0 537.05 666.30
  C 532.19 665.76 527.71 666.38 521.85 667.32
  C 513.05 668.73 503.89 667.37 494.65 665.61
  A 0.86 0.86 0.0 0 0 493.70 666.10
  L 491.79 670.23
  A 2.71 2.54 -16.5 0 1 491.49 670.74
  Q 486.98 676.95 486.30 678.03
  C 483.86 681.96 484.89 684.22 487.04 687.95
  C 490.28 693.61 489.74 700.39 486.38 705.99
  Q 482.45 711.48 475.77 713.03
  Q 466.39 715.21 459.27 708.77
  C 452.02 700.78 452.08 687.49 461.40 681.29
  Q 463.10 680.16 467.05 678.75
  Q 472.29 676.88 475.86 671.04
  Q 478.38 666.92 481.34 660.77
  A 1.33 1.32 -62.9 0 0 480.78 659.03
  C 461.74 648.59 449.37 627.99 446.94 607.01
  Q 446.21 600.78 450.28 598.24
  Q 452.49 596.86 459.94 596.89
  Q 481.18 596.98 486.84 597.11
  A 0.58 0.57 74.0 0 0 487.33 596.22
  Q 479.03 583.51 461.24 555.55
  Q 458.62 551.44 457.92 549.97
  C 455.39 544.63 453.70 540.10 447.87 537.61
  Q 443.63 535.79 440.69 534.77
  C 433.82 532.38 430.46 529.24 427.99 522.23
  C 425.82 516.10 424.06 508.43 421.94 502.22
  Q 418.52 492.18 415.13 479.63
  C 413.93 475.19 412.50 471.29 410.75 465.76
  A 0.44 0.44 0.0 0 0 409.91 465.78
  C 408.09 472.47 406.43 479.72 408.20 486.52
  C 411.36 498.68 414.23 510.60 417.20 521.29
  Q 422.93 541.89 424.55 548.63
  C 428.05 563.19 432.46 577.14 436.66 592.40
  Q 438.21 598.01 437.62 599.81
  C 436.24 604.08 430.85 604.49 427.00 604.46
  Q 418.94 604.39 413.44 604.52
  A 0.64 0.64 0.0 0 0 412.81 605.14
  Q 410.63 657.05 409.09 695.87
  Q 408.79 703.39 404.51 708.34
  Q 396.83 714.11 387.10 708.90
  Q 383.44 704.37 383.03 697.02
  Q 382.80 693.09 382.80 692.98
  Q 379.48 655.50 377.97 629.25
  Q 377.19 615.59 377.03 605.60
  Q 377.01 604.28 375.61 603.82
  C 372.22 602.69 370.23 607.81 370.14 610.42
  Q 369.80 621.02 369.06 632.80
  Q 366.84 668.06 365.60 685.31
  C 365.05 692.94 366.38 700.41 362.50 707.45
  Q 353.95 716.99 342.87 709.68
  C 338.15 703.99 338.61 696.02 338.07 687.75
  Q 337.32 676.19 333.88 605.28
  A 0.57 0.57 0.0 0 0 333.28 604.74
  C 327.96 605.04 307.83 606.26 309.76 596.75
  Q 310.92 591.03 316.03 573.72
  C 318.11 566.65 319.78 559.62 321.55 553.74
  C 327.76 533.02 333.37 512.12 339.30 491.03
  C 341.94 481.62 340.93 474.11 338.28 465.49
  A 0.62 0.62 0.0 0 0 337.10 465.46
  Q 332.39 478.12 328.77 490.21
  C 326.01 499.39 322.18 509.18 319.50 515.93
  C 317.57 520.80 316.75 524.33 315.20 529.45
  C 312.30 538.96 307.93 550.57 295.55 547.94
  C 287.68 546.27 283.20 539.06 282.04 531.70
  Q 280.30 520.56 279.77 515.24
  Q 279.72 514.76 276.76 498.92
  Q 272.84 477.92 271.07 465.18
  Q 270.25 459.27 268.66 452.22
  Q 268.45 451.28 267.82 450.67
  A 0.27 0.26 23.6 0 0 267.37 450.84
  Q 267.08 457.52 267.12 465.75
  Q 267.57 556.50 267.42 582.75
  Q 267.39 588.26 267.40 593.75
  Q 267.55 652.24 267.29 694.50
  Q 267.25 701.17 263.79 706.84
  Q 259.45 712.70 252.47 713.95
  Q 240.85 716.03 233.70 705.70
  C 230.47 698.93 230.13 691.63 229.68 683.50
  Q 226.97 635.09 222.78 562.83
  A 0.45 0.44 -79.3 0 0 222.54 562.47
  L 222.27 562.34
  A 0.42 0.41 -75.2 0 0 221.68 562.69
  Q 217.17 636.96 215.25 689.00
  Q 214.92 697.91 211.45 706.11
  Q 207.16 712.47 199.81 713.82
  Q 188.30 715.93 180.81 706.36
  Q 177.84 701.02 177.85 695.00
  Q 177.93 655.12 177.82 577.75
  Q 177.76 535.73 177.97 514.74
  Q 178.31 482.26 177.82 451.58
  A 0.19 0.18 -90.0 0 0 177.64 451.39
  L 177.37 451.39
  A 0.22 0.20 -84.9 0 0 177.17 451.57
  Q 172.64 488.52 168.99 517.29
  Q 168.31 522.63 167.33 531.67
  C 166.39 540.36 162.24 548.80 152.25 548.87
  Q 140.90 548.95 137.29 537.21
  C 136.03 533.11 136.21 525.61 136.53 520.28
  Q 138.38 489.61 141.67 452.24
  Q 141.90 449.61 143.32 442.41
  C 146.03 428.61 149.13 414.92 158.99 404.38
  C 168.28 394.43 179.06 388.19 192.81 385.58
  Q 202.95 383.66 212.00 383.46
  Q 212.32 383.45 225.13 383.38
  Q 235.06 383.32 238.24 383.68
  Q 248.05 384.79 257.06 387.17
  C 270.02 390.59 284.50 399.00 291.03 411.18
  Q 297.27 422.80 299.58 437.45
  Q 300.98 446.30 304.92 471.23
  A 0.34 0.34 0.0 0 0 305.59 471.26
  Q 308.40 460.27 313.21 440.34
  Q 314.64 434.44 319.47 426.46
  C 324.77 417.71 332.80 411.88 342.94 408.70
  Q 352.60 405.66 361.24 405.48
  C 370.79 405.28 384.58 404.96 392.55 405.55
  C 408.09 406.72 424.36 413.51 431.00 428.51
  Q 433.70 434.61 435.94 442.56
  Q 439.59 455.55 443.93 470.41
  C 449.34 488.90 451.94 499.41 457.39 519.87
  Q 458.75 524.97 461.38 528.63
  Q 472.75 544.37 478.75 554.99
  Q 483.90 564.09 491.20 575.30
  C 495.06 581.23 497.49 586.16 500.75 591.49
  Q 504.09 596.94 511.01 596.96
  C 540.96 597.04 561.20 596.94 576.99 596.42
  C 586.41 596.11 585.10 605.95 583.32 612.33
  Q 582.89 613.86 579.39 624.22
  Q 571.77 646.77 551.16 658.56
  A 1.48 1.48 0.0 0 0 550.53 660.42
  Q 556.18 673.81 568.26 680.30
  C 572.79 682.73 576.09 685.48 577.42 689.85
  Q 581.00 701.56 571.50 710.15
  Z"
/>
<path fill="#184e96" d="
  M 1069.19 422.88
  C 1071.40 412.52 1077.68 405.75 1088.71 406.30
  C 1102.44 406.99 1108.39 417.46 1105.66 430.33
  C 1103.45 440.70 1097.17 447.46 1086.13 446.91
  C 1072.41 446.23 1066.45 435.75 1069.19 422.88
  Z
  M 1088.5462 416.2363
  A 10.54 6.72 -83.1 0 0 1080.6087 425.8927
  A 10.54 6.72 -83.1 0 0 1086.0138 437.1637
  A 10.54 6.72 -83.1 0 0 1093.9513 427.5073
  A 10.54 6.72 -83.1 0 0 1088.5462 416.2363
  Z"
/>
<ellipse fill="#fecb3c" cx="0.00" cy="0.00" transform="translate(1087.28,426.70) rotate(-83.1)" rx="10.54" ry="6.72"/>
<path fill="#bfe5fc" d="
  M 342.87 709.68
  Q 338.62 708.73 336.50 708.73
  Q 330.65 708.76 323.22 709.63
  A 12.70 12.69 -43.8 0 1 319.71 709.56
  C 308.65 707.80 295.64 708.02 283.09 707.29
  Q 280.53 707.14 272.24 706.88
  Q 268.17 706.76 263.79 706.84
  Q 267.25 701.17 267.29 694.50
  Q 267.55 652.24 267.40 593.75
  Q 267.39 588.26 267.42 582.75
  Q 267.57 556.50 267.12 465.75
  Q 267.08 457.52 267.37 450.84
  A 0.27 0.26 23.6 0 1 267.82 450.67
  Q 268.45 451.28 268.66 452.22
  Q 270.25 459.27 271.07 465.18
  Q 272.84 477.92 276.76 498.92
  Q 279.72 514.76 279.77 515.24
  Q 280.30 520.56 282.04 531.70
  C 283.20 539.06 287.68 546.27 295.55 547.94
  C 307.93 550.57 312.30 538.96 315.20 529.45
  C 316.75 524.33 317.57 520.80 319.50 515.93
  C 322.18 509.18 326.01 499.39 328.77 490.21
  Q 332.39 478.12 337.10 465.46
  A 0.62 0.62 0.0 0 1 338.28 465.49
  C 340.93 474.11 341.94 481.62 339.30 491.03
  C 333.37 512.12 327.76 533.02 321.55 553.74
  C 319.78 559.62 318.11 566.65 316.03 573.72
  Q 310.92 591.03 309.76 596.75
  C 307.83 606.26 327.96 605.04 333.28 604.74
  A 0.57 0.57 0.0 0 1 333.88 605.28
  Q 337.32 676.19 338.07 687.75
  C 338.61 696.02 338.15 703.99 342.87 709.68
  Z"
/>
<path fill="#bfe5fc" d="
  M 459.27 708.77
  L 459.18 709.47
  A 0.56 0.56 0.0 0 1 458.43 709.92
  C 454.50 708.40 447.44 711.54 441.23 710.63
  Q 427.80 708.68 424.75 708.66
  Q 414.60 708.60 404.51 708.34
  Q 408.79 703.39 409.09 695.87
  Q 410.63 657.05 412.81 605.14
  A 0.64 0.64 0.0 0 1 413.44 604.52
  Q 418.94 604.39 427.00 604.46
  C 430.85 604.49 436.24 604.08 437.62 599.81
  Q 438.21 598.01 436.66 592.40
  C 432.46 577.14 428.05 563.19 424.55 548.63
  Q 422.93 541.89 417.20 521.29
  C 414.23 510.60 411.36 498.68 408.20 486.52
  C 406.43 479.72 408.09 472.47 409.91 465.78
  A 0.44 0.44 0.0 0 1 410.75 465.76
  C 412.50 471.29 413.93 475.19 415.13 479.63
  Q 418.52 492.18 421.94 502.22
  C 424.06 508.43 425.82 516.10 427.99 522.23
  C 430.46 529.24 433.82 532.38 440.69 534.77
  Q 443.63 535.79 447.87 537.61
  C 453.70 540.10 455.39 544.63 457.92 549.97
  Q 458.62 551.44 461.24 555.55
  Q 479.03 583.51 487.33 596.22
  A 0.58 0.57 74.0 0 1 486.84 597.11
  Q 481.18 596.98 459.94 596.89
  Q 452.49 596.86 450.28 598.24
  Q 446.21 600.78 446.94 607.01
  C 449.37 627.99 461.74 648.59 480.78 659.03
  A 1.33 1.32 -62.9 0 1 481.34 660.77
  Q 478.38 666.92 475.86 671.04
  Q 472.29 676.88 467.05 678.75
  Q 463.10 680.16 461.40 681.29
  C 452.08 687.49 452.02 700.78 459.27 708.77
  Z"
/>
<path fill="#fecb3c" d="
  M 1087.53 712.51
  C 1083.88 716.31 1077.64 716.22 1072.25 716.28
  Q 1062.28 716.38 1052.34 716.04
  Q 1046.45 715.83 1042.75 710.75
  Q 1042.57 710.50 1042.52 709.52
  Q 1042.77 708.82 1042.59 708.50
  Q 1041.45 706.41 1040.74 704.24
  A 2.47 2.46 -9.2 0 0 1038.40 702.56
  L 983.12 702.56
  A 3.47 3.47 0.0 0 0 980.11 704.30
  L 978.37 707.36
  Q 974.04 716.19 964.40 716.39
  Q 953.24 716.63 938.74 716.17
  Q 930.97 715.92 928.81 709.19
  Q 926.61 705.29 925.88 700.68
  Q 924.66 692.92 923.78 684.75
  C 923.30 680.25 920.73 677.21 916.78 673.72
  Q 906.87 664.96 897.96 652.77
  C 895.35 649.20 893.39 642.99 889.85 639.72
  Q 886.38 636.50 880.88 634.60
  C 877.27 633.36 871.49 632.79 867.49 630.55
  Q 863.16 628.12 860.99 622.83
  Q 859.66 619.59 860.05 612.93
  Q 860.47 605.76 859.68 590.02
  C 859.21 580.36 861.08 571.65 871.62 569.59
  C 877.58 568.43 884.39 570.66 888.91 564.39
  Q 890.59 562.06 891.77 558.26
  C 895.14 547.38 900.75 540.00 907.83 530.82
  C 910.73 527.06 909.08 522.49 906.88 517.81
  Q 902.66 508.81 900.10 499.67
  C 898.96 495.62 897.58 491.37 899.07 488.16
  C 901.49 482.93 908.00 481.64 913.26 482.34
  Q 930.37 484.62 944.41 494.11
  C 946.30 495.39 949.00 497.92 950.89 499.58
  A 0.97 0.96 52.8 0 0 951.94 499.73
  Q 962.63 494.66 964.30 494.04
  Q 973.23 490.77 982.45 489.24
  Q 991.10 487.80 1006.32 486.57
  Q 1010.49 486.24 1012.19 486.49
  C 1014.48 486.82 1017.25 486.70 1019.99 487.34
  C 1025.45 488.60 1030.15 488.76 1034.95 490.48
  Q 1035.37 490.63 1042.55 492.47
  Q 1046.86 493.58 1051.20 495.16
  C 1057.18 497.35 1062.46 500.66 1068.02 502.99
  Q 1068.91 503.37 1071.71 505.64
  A 5.29 4.79 74.4 0 0 1072.69 506.26
  Q 1074.90 507.31 1075.13 507.55
  A 2.62 2.58 -11.1 0 0 1076.10 508.19
  Q 1077.99 508.94 1078.97 510.02
  A 2.87 2.65 82.3 0 0 1079.60 510.54
  Q 1083.21 512.73 1086.46 515.30
  Q 1107.32 531.80 1118.58 556.64
  Q 1120.81 561.55 1122.42 568.05
  Q 1123.91 574.10 1126.43 585.95
  A 1.71 1.70 -13.4 0 0 1128.54 587.24
  L 1134.97 585.52
  A 0.72 0.72 0.0 0 0 1135.10 584.18
  Q 1131.62 582.51 1130.00 579.32
  C 1126.29 571.98 1128.20 563.92 1136.52 561.06
  C 1140.21 559.79 1144.13 560.69 1147.26 562.86
  C 1150.29 564.97 1152.21 569.40 1153.88 573.26
  A 1.88 1.87 -17.8 0 0 1156.00 574.34
  C 1160.50 573.35 1163.03 568.87 1166.16 566.19
  A 2.67 2.66 62.2 0 1 1170.47 567.53
  L 1170.78 568.69
  A 5.19 5.19 0.0 0 1 1169.57 573.56
  Q 1165.05 578.46 1162.91 580.41
  C 1159.81 583.25 1157.32 583.93 1153.11 584.69
  A 4.47 4.37 -64.8 0 0 1151.66 585.23
  Q 1149.84 586.28 1145.92 589.91
  C 1140.97 594.50 1134.78 595.76 1128.45 596.69
  A 1.00 1.00 0.0 0 0 1127.60 597.69
  Q 1127.70 609.52 1124.94 620.74
  Q 1120.21 639.96 1110.14 656.00
  C 1106.51 661.78 1101.96 666.48 1098.35 671.08
  Q 1095.96 674.13 1095.53 678.18
  A 0.24 0.03 -85.2 0 1 1095.48 678.42
  Q 1095.40 678.36 1095.40 678.30
  A 0.13 0.11 -44.6 0 0 1095.16 678.32
  Q 1094.21 682.47 1092.89 698.11
  Q 1092.26 705.55 1087.53 712.51
  Z
  M 984.58 505.99
  Q 985.62 510.32 991.03 510.07
  Q 998.23 509.72 1005.53 508.57
  Q 1013.32 507.34 1018.04 507.44
  Q 1034.68 507.82 1050.22 515.08
  C 1052.24 516.02 1056.41 517.76 1058.02 517.68
  C 1064.41 517.37 1065.94 509.99 1060.44 507.54
  Q 1048.34 502.17 1035.48 499.01
  Q 1021.76 495.65 1008.26 497.51
  Q 1000.19 498.63 991.09 499.27
  Q 984.91 499.71 984.50 504.91
  A 3.34 3.22 -50.3 0 0 984.58 505.99
  Z
  M 913.7298 553.8316
  A 10.38 8.22 -86.3 0 0 904.8571 563.6595
  A 10.38 8.22 -86.3 0 0 912.3902 574.5484
  A 10.38 8.22 -86.3 0 0 921.2629 564.7205
  A 10.38 8.22 -86.3 0 0 913.7298 553.8316
  Z
  M 968.88 626.84
  C 968.40 631.21 971.98 631.95 974.99 630.28
  Q 984.36 625.06 990.22 621.96
  A 2.65 2.64 -45.1 0 1 992.68 621.95
  Q 998.60 625.02 1006.86 629.93
  C 1008.39 630.84 1010.98 631.99 1012.72 630.92
  Q 1014.93 629.56 1014.39 626.35
  C 1013.49 621.09 1011.91 614.18 1012.19 608.30
  A 2.62 2.58 64.4 0 1 1012.66 606.94
  C 1016.68 601.18 1024.36 596.30 1027.08 592.36
  C 1028.22 590.73 1027.07 588.51 1025.51 587.73
  A 1.78 1.75 -28.4 0 0 1024.85 587.54
  Q 1015.93 586.73 1006.61 585.41
  C 1004.22 585.07 1003.52 584.19 1002.51 582.25
  Q 999.50 576.45 994.91 566.60
  C 993.54 563.66 990.30 563.27 988.64 566.43
  C 986.58 570.38 983.81 577.59 979.88 583.81
  A 2.47 2.47 0.0 0 1 979.25 584.49
  Q 978.33 585.20 975.76 585.57
  Q 969.66 586.44 961.59 587.27
  C 956.28 587.81 954.62 590.84 958.76 594.77
  Q 964.85 600.56 970.31 605.62
  Q 972.09 607.26 971.39 611.31
  Q 969.14 624.51 968.88 626.84
  Z
  M 1139.8342 567.1658
  A 5.64 4.51 -92.6 0 0 1135.5846 573.0046
  A 5.64 4.51 -92.6 0 0 1140.3458 578.4342
  A 5.64 4.51 -92.6 0 0 1144.5954 572.5954
  A 5.64 4.51 -92.6 0 0 1139.8342 567.1658
  Z"
/>
<path fill="#184e96" d="
  M 984.50 504.91
  Q 984.91 499.71 991.09 499.27
  Q 1000.19 498.63 1008.26 497.51
  Q 1021.76 495.65 1035.48 499.01
  Q 1048.34 502.17 1060.44 507.54
  C 1065.94 509.99 1064.41 517.37 1058.02 517.68
  C 1056.41 517.76 1052.24 516.02 1050.22 515.08
  Q 1034.68 507.82 1018.04 507.44
  Q 1013.32 507.34 1005.53 508.57
  Q 998.23 509.72 991.03 510.07
  Q 985.62 510.32 984.58 505.99
  A 3.34 3.22 -50.3 0 1 984.50 504.91
  Z"
/>
<path fill="#184e96" d="
  M 583.82 583.32
  C 584.18 586.14 583.81 590.82 581.00 592.60
  Q 578.85 593.95 575.50 593.93
  Q 521.07 593.63 514.08 593.79
  C 507.74 593.94 503.51 592.97 503.54 585.99
  Q 503.66 548.76 503.47 524.50
  C 503.45 522.06 504.24 519.73 506.13 518.05
  C 512.13 512.73 521.28 515.77 528.03 517.72
  Q 549.31 523.87 564.40 539.89
  C 575.73 551.91 581.71 566.83 583.82 583.32
  Z"
/>
<ellipse fill="#184e96" cx="0.00" cy="0.00" transform="translate(121.17,568.93) rotate(-79.3)" rx="23.25" ry="22.76"/>
<ellipse fill="#184e96" cx="0.00" cy="0.00" transform="translate(913.06,564.19) rotate(-86.3)" rx="10.38" ry="8.22"/>
<path fill="#bfe5fc" d="
  M 233.70 705.70
  L 211.45 706.11
  Q 214.92 697.91 215.25 689.00
  Q 217.17 636.96 221.68 562.69
  A 0.42 0.41 -75.2 0 1 222.27 562.34
  L 222.54 562.47
  A 0.45 0.44 -79.3 0 1 222.78 562.83
  Q 226.97 635.09 229.68 683.50
  C 230.13 691.63 230.47 698.93 233.70 705.70
  Z"
/>
<path fill="#184e96" d="
  M 974.99 630.28
  C 971.98 631.95 968.40 631.21 968.88 626.84
  Q 969.14 624.51 971.39 611.31
  Q 972.09 607.26 970.31 605.62
  Q 964.85 600.56 958.76 594.77
  C 954.62 590.84 956.28 587.81 961.59 587.27
  Q 969.66 586.44 975.76 585.57
  Q 978.33 585.20 979.25 584.49
  A 2.47 2.47 0.0 0 0 979.88 583.81
  C 983.81 577.59 986.58 570.38 988.64 566.43
  C 990.30 563.27 993.54 563.66 994.91 566.60
  Q 999.50 576.45 1002.51 582.25
  C 1003.52 584.19 1004.22 585.07 1006.61 585.41
  Q 1015.93 586.73 1024.85 587.54
  A 1.78 1.75 -28.4 0 1 1025.51 587.73
  C 1027.07 588.51 1028.22 590.73 1027.08 592.36
  C 1024.36 596.30 1016.68 601.18 1012.66 606.94
  A 2.62 2.58 64.4 0 0 1012.19 608.30
  C 1011.91 614.18 1013.49 621.09 1014.39 626.35
  Q 1014.93 629.56 1012.72 630.92
  C 1010.98 631.99 1008.39 630.84 1006.86 629.93
  Q 998.60 625.02 992.68 621.95
  A 2.65 2.64 -45.1 0 0 990.22 621.96
  Q 984.36 625.06 974.99 630.28
  Z"
/>
<ellipse fill="#bfe5fc" cx="0.00" cy="0.00" transform="translate(1140.09,572.80) rotate(-92.6)" rx="5.64" ry="4.51"/>
<path fill="#184e96" d="
  M 141.27 707.43
  Q 137.54 711.21 132.44 710.58
  C 124.96 709.65 124.16 701.70 124.09 695.88
  Q 123.92 679.53 123.19 670.06
  A 0.87 0.86 -23.0 0 0 121.75 669.48
  L 121.74 669.49
  A 4.14 4.13 -18.5 0 0 120.35 672.27
  Q 119.41 683.54 118.52 691.40
  C 118.16 694.52 118.53 700.53 117.62 702.83
  Q 113.68 712.77 102.80 708.71
  Q 99.32 705.62 99.31 701.75
  Q 99.31 692.91 99.18 656.50
  C 99.15 649.42 99.47 641.96 99.01 634.53
  A 0.49 0.49 0.0 0 0 98.10 634.31
  Q 92.35 643.97 90.01 647.34
  C 87.18 651.41 80.68 653.60 77.08 649.16
  C 74.34 645.80 75.31 641.34 77.27 637.77
  Q 80.44 631.95 86.59 620.08
  Q 91.32 610.96 97.52 605.33
  Q 103.34 600.03 112.99 599.00
  Q 123.12 597.91 131.38 598.94
  C 137.55 599.71 142.88 603.56 147.83 608.53
  Q 157.22 617.99 164.74 626.24
  C 168.62 630.50 169.81 638.05 164.21 641.55
  C 157.74 645.58 148.88 634.21 144.94 630.02
  A 0.37 0.36 -66.4 0 0 144.31 630.27
  Q 144.12 662.37 143.37 701.50
  Q 143.31 704.26 141.27 707.43
  Z"
/>
<path fill="#bfe5fc" d="
  M 387.10 708.90
  Q 386.60 709.45 383.49 707.53
  A 1.46 1.39 -28.0 0 0 382.74 707.32
  L 362.50 707.45
  C 366.38 700.41 365.05 692.94 365.60 685.31
  Q 366.84 668.06 369.06 632.80
  Q 369.80 621.02 370.14 610.42
  C 370.23 607.81 372.22 602.69 375.61 603.82
  Q 377.01 604.28 377.03 605.60
  Q 377.19 615.59 377.97 629.25
  Q 379.48 655.50 382.80 692.98
  Q 382.80 693.09 383.03 697.02
  Q 383.44 704.37 387.10 708.90
  Z"
/>
<path fill="#bfe5fc" d="
  M 545.81 706.13
  Q 543.77 706.22 541.77 706.16
  Q 539.59 706.09 537.75 706.23
  Q 525.65 707.16 513.52 707.20
  Q 513.20 707.20 500.44 706.13
  Q 493.51 705.55 486.38 705.99
  C 489.74 700.39 490.28 693.61 487.04 687.95
  C 484.89 684.22 483.86 681.96 486.30 678.03
  Q 486.98 676.95 491.49 670.74
  A 2.71 2.54 -16.5 0 0 491.79 670.23
  L 493.70 666.10
  A 0.86 0.86 0.0 0 1 494.65 665.61
  C 503.89 667.37 513.05 668.73 521.85 667.32
  C 527.71 666.38 532.19 665.76 537.05 666.30
  A 2.68 2.67 77.6 0 1 539.03 667.57
  Q 542.31 672.96 546.32 678.40
  C 547.74 680.33 547.80 683.18 546.47 685.74
  C 542.90 692.60 541.92 699.12 545.81 706.13
  Z"
/>
<path fill="#99cff9" d="
  M 141.27 707.43
  Q 145.16 707.89 149.01 707.58
  Q 155.33 707.08 156.72 707.07
  Q 168.71 706.98 180.81 706.36
  Q 188.30 715.93 199.81 713.82
  Q 207.16 712.47 211.45 706.11
  L 233.70 705.70
  Q 240.85 716.03 252.47 713.95
  Q 259.45 712.70 263.79 706.84
  Q 268.17 706.76 272.24 706.88
  Q 280.53 707.14 283.09 707.29
  C 295.64 708.02 308.65 707.80 319.71 709.56
  A 12.70 12.69 -43.8 0 0 323.22 709.63
  Q 330.65 708.76 336.50 708.73
  Q 338.62 708.73 342.87 709.68
  Q 353.95 716.99 362.50 707.45
  L 382.74 707.32
  A 1.46 1.39 -28.0 0 1 383.49 707.53
  Q 386.60 709.45 387.10 708.90
  Q 396.83 714.11 404.51 708.34
  Q 414.60 708.60 424.75 708.66
  Q 427.80 708.68 441.23 710.63
  C 447.44 711.54 454.50 708.40 458.43 709.92
  A 0.56 0.56 0.0 0 0 459.18 709.47
  L 459.27 708.77
  Q 466.39 715.21 475.77 713.03
  Q 482.45 711.48 486.38 705.99
  Q 493.51 705.55 500.44 706.13
  Q 513.20 707.20 513.52 707.20
  Q 525.65 707.16 537.75 706.23
  Q 539.59 706.09 541.77 706.16
  Q 543.77 706.22 545.81 706.13
  Q 551.09 712.84 560.00 713.40
  Q 566.45 713.80 571.50 710.15
  Q 572.45 710.84 574.39 710.31
  Q 576.32 709.78 577.27 709.98
  Q 580.89 710.73 584.41 711.86
  Q 585.60 712.24 585.87 712.76
  A 1.67 1.32 -25.8 0 1 584.92 714.71
  Q 582.83 715.67 579.91 716.15
  Q 579.09 716.29 569.47 717.47
  Q 564.06 718.13 559.00 717.94
  C 551.07 717.64 542.16 718.53 534.02 718.70
  Q 512.91 719.14 502.00 718.80
  Q 481.12 718.16 476.56 718.36
  Q 468.78 718.69 462.63 717.56
  Q 462.29 717.50 449.37 716.25
  Q 443.64 715.70 436.12 716.23
  C 419.70 717.41 403.92 718.81 388.64 718.52
  Q 380.60 718.36 376.79 718.40
  C 367.39 718.49 354.55 718.68 343.38 717.43
  Q 336.82 716.69 329.83 716.39
  C 320.56 715.98 312.62 717.31 302.62 717.77
  Q 260.54 719.75 219.84 720.29
  Q 202.81 720.52 191.17 719.85
  C 178.87 719.15 166.69 719.80 152.97 719.21
  Q 134.04 718.40 112.29 716.88
  Q 105.66 716.42 98.92 715.17
  Q 96.91 714.79 95.85 713.65
  A 1.34 1.34 0.0 0 1 96.31 711.51
  L 102.80 708.71
  Q 113.68 712.77 117.62 702.83
  C 118.53 700.53 118.16 694.52 118.52 691.40
  Q 119.41 683.54 120.35 672.27
  A 4.14 4.13 -18.5 0 1 121.74 669.49
  L 121.75 669.48
  A 0.87 0.86 -23.0 0 1 123.19 670.06
  Q 123.92 679.53 124.09 695.88
  C 124.16 701.70 124.96 709.65 132.44 710.58
  Q 137.54 711.21 141.27 707.43
  Z"
/>
<path fill="#bfe5fc" d="
  M 1042.52 709.52
  Q 1041.29 707.96 1038.62 707.81
  Q 1031.20 707.40 1023.74 707.44
  Q 1001.17 707.57 978.37 707.36
  L 980.11 704.30
  A 3.47 3.47 0.0 0 1 983.12 702.56
  L 1038.40 702.56
  A 2.47 2.46 -9.2 0 1 1040.74 704.24
  Q 1041.45 706.41 1042.59 708.50
  Q 1042.77 708.82 1042.52 709.52
  Z"
/>
<path fill="#99cff9" d="
  M 1042.52 709.52
  Q 1042.57 710.50 1042.75 710.75
  Q 1046.45 715.83 1052.34 716.04
  Q 1062.28 716.38 1072.25 716.28
  C 1077.64 716.22 1083.88 716.31 1087.53 712.51
  Q 1089.16 711.53 1090.08 710.29
  C 1091.77 708.00 1095.16 708.27 1097.74 708.37
  Q 1112.43 708.98 1130.08 711.46
  Q 1136.90 712.42 1141.65 714.39
  A 0.38 0.37 36.3 0 1 1141.75 715.02
  Q 1140.74 715.89 1139.08 716.34
  Q 1132.51 718.12 1124.13 718.85
  Q 1090.02 721.81 1083.76 722.08
  C 1068.57 722.75 1050.65 723.58 1032.07 723.68
  C 996.15 723.86 974.85 724.48 947.14 723.04
  Q 947.00 723.04 920.67 721.48
  Q 902.78 720.43 886.96 718.52
  Q 881.24 717.84 876.40 716.07
  A 1.18 1.17 -50.8 0 1 876.19 713.96
  Q 877.69 713.05 879.52 712.75
  Q 882.87 712.21 912.75 709.78
  Q 922.94 708.96 928.81 709.19
  Q 930.97 715.92 938.74 716.17
  Q 953.24 716.63 964.40 716.39
  Q 974.04 716.19 978.37 707.36
  Q 1001.17 707.57 1023.74 707.44
  Q 1031.20 707.40 1038.62 707.81
  Q 1041.29 707.96 1042.52 709.52
  Z"
/>
</svg>
